M48
; DRILL file {KiCad 6.0.7} date Fr 18 Nov 2022 13:15:19 CET
; FORMAT={-:-/ absolute / inch / decimal}
; #@! TF.CreationDate,2022-11-18T13:15:19+01:00
; #@! TF.GenerationSoftware,Kicad,Pcbnew,6.0.7
; #@! TF.FileFunction,Plated,1,2,PTH
FMAT,2
INCH
; #@! TA.AperFunction,Plated,PTH,ViaDrill
T1C0.0180
; #@! TA.AperFunction,Plated,PTH,ViaDrill
T2C0.0240
; #@! TA.AperFunction,Plated,PTH,ComponentDrill
T3C0.0300
; #@! TA.AperFunction,Plated,PTH,ViaDrill
T4C0.0320
; #@! TA.AperFunction,Plated,PTH,ComponentDrill
T5C0.0374
; #@! TA.AperFunction,Plated,PTH,ComponentDrill
T6C0.0394
%
G90
G05
T1
X1.6752Y-1.3352
X1.68Y-8.46
X1.86Y-1.74
X1.88Y-8.88
X5.1Y-8.99
X5.88Y-8.2
X6.8Y-6.9215
X6.82Y-6.96
X6.86Y-6.98
X8.0863Y-7.74
X8.1195Y-7.7805
X8.76Y-2.14
X9.1Y-1.12
X9.74Y-8.02
T2
X1.6641Y-1.44
X1.74Y-3.82
X1.74Y-4.6
X1.74Y-5.36
X1.74Y-7.8
X1.74Y-8.58
X2.16Y-4.16
X2.16Y-4.96
X2.16Y-5.74
X2.18Y-1.12
X2.2Y-1.8
X2.2Y-8.1
X2.94Y-4.16
X2.94Y-4.96
X2.94Y-5.74
X3.72Y-4.16
X3.72Y-4.96
X3.72Y-5.74
X4.52Y-1.12
X4.52Y-1.8
X4.52Y-2.6
X4.52Y-3.38
X4.52Y-4.16
X4.52Y-4.96
X4.52Y-5.74
X4.52Y-6.54
X4.52Y-7.32
X4.52Y-8.1
X4.52Y-8.9
X5.3Y-1.12
X5.3Y-1.8
X5.3Y-2.6
X5.3Y-3.38
X5.3Y-4.16
X5.3Y-5.74
X5.3Y-6.54
X5.3Y-7.32
X5.3Y-8.1
X5.3Y-8.9
X6.1Y-1.12
X6.1Y-1.8
X6.1Y-2.6
X6.1Y-3.38
X6.1Y-4.16
X6.1Y-4.96
X6.1Y-5.74
X6.1Y-6.54
X6.1Y-7.32
X6.1Y-8.1
X6.1Y-8.9
X6.88Y-4.16
X6.88Y-4.96
X6.88Y-5.74
X6.92Y-8.24
X7.22Y-8.24
X7.38Y-7.78
X7.5Y-8.24
X7.66Y-4.16
X7.66Y-4.96
X7.66Y-5.74
X8.44Y-4.16
X8.44Y-4.96
X8.44Y-5.74
X8.46Y-1.1219
X8.46Y-1.8
X8.48Y-8.1
X8.48Y-8.9
X9.24Y-4.16
X9.24Y-4.96
X9.24Y-5.74
X9.26Y-1.12
X9.26Y-1.8
X9.26Y-8.1
X9.26Y-8.9
T3
X7.1Y-6.54
X7.1Y-7.54
X7.2Y-6.54
X7.2Y-7.54
X7.3Y-6.54
X7.3Y-7.54
X7.4Y-6.54
X7.4Y-7.54
X7.5Y-6.54
X7.5Y-7.54
X7.6Y-6.54
X7.6Y-7.54
X7.7Y-6.54
X7.7Y-7.54
X7.8Y-6.54
X7.8Y-7.54
X7.9Y-6.54
X7.9Y-7.54
X8.0Y-6.54
X8.0Y-7.54
X8.1Y-6.54
X8.1Y-7.54
X8.2Y-6.54
X8.2Y-7.54
X8.3Y-6.54
X8.3Y-7.54
X8.4Y-6.54
X8.4Y-7.54
X8.5Y-6.54
X8.5Y-7.54
X8.6Y-6.54
X8.6Y-7.54
X8.7Y-6.54
X8.7Y-7.54
X8.8Y-6.54
X8.8Y-7.54
X8.9Y-6.54
X8.9Y-7.54
T4
X2.2Y-8.9
T5
X6.7882Y-8.4616
X6.7882Y-8.56
X6.7882Y-8.6584
X7.0882Y-8.4616
X7.0882Y-8.56
X7.0882Y-8.6584
X7.3882Y-8.4616
X7.3882Y-8.56
X7.3882Y-8.6584
X7.5063Y-8.9682
X7.6047Y-8.9682
X7.7031Y-8.9682
X7.8016Y-8.9682
X7.9Y-8.9682
X7.9984Y-8.9682
X8.0969Y-8.9682
X8.1953Y-8.9682
T6
X7.0508Y-8.9682
X7.1492Y-8.9682
X8.1263Y-8.65
X8.2263Y-8.65
X8.3263Y-8.65
T0
M30
