%TF.GenerationSoftware,KiCad,Pcbnew,6.0.7*%
%TF.CreationDate,2022-11-18T13:15:14+01:00*%
%TF.ProjectId,game_board,67616d65-5f62-46f6-9172-642e6b696361,rev?*%
%TF.SameCoordinates,Original*%
%TF.FileFunction,Soldermask,Top*%
%TF.FilePolarity,Negative*%
%FSLAX46Y46*%
G04 Gerber Fmt 4.6, Leading zero omitted, Abs format (unit mm)*
G04 Created by KiCad (PCBNEW 6.0.7) date 2022-11-18 13:15:14*
%MOMM*%
%LPD*%
G01*
G04 APERTURE LIST*
G04 Aperture macros list*
%AMRoundRect*
0 Rectangle with rounded corners*
0 $1 Rounding radius*
0 $2 $3 $4 $5 $6 $7 $8 $9 X,Y pos of 4 corners*
0 Add a 4 corners polygon primitive as box body*
4,1,4,$2,$3,$4,$5,$6,$7,$8,$9,$2,$3,0*
0 Add four circle primitives for the rounded corners*
1,1,$1+$1,$2,$3*
1,1,$1+$1,$4,$5*
1,1,$1+$1,$6,$7*
1,1,$1+$1,$8,$9*
0 Add four rect primitives between the rounded corners*
20,1,$1+$1,$2,$3,$4,$5,0*
20,1,$1+$1,$4,$5,$6,$7,0*
20,1,$1+$1,$6,$7,$8,$9,0*
20,1,$1+$1,$8,$9,$2,$3,0*%
G04 Aperture macros list end*
%ADD10C,3.200000*%
%ADD11RoundRect,0.250000X0.250000X0.475000X-0.250000X0.475000X-0.250000X-0.475000X0.250000X-0.475000X0*%
%ADD12R,1.500000X1.000000*%
%ADD13RoundRect,0.250000X-0.262500X-0.450000X0.262500X-0.450000X0.262500X0.450000X-0.262500X0.450000X0*%
%ADD14RoundRect,0.250000X0.262500X0.450000X-0.262500X0.450000X-0.262500X-0.450000X0.262500X-0.450000X0*%
%ADD15RoundRect,0.250000X0.600000X0.725000X-0.600000X0.725000X-0.600000X-0.725000X0.600000X-0.725000X0*%
%ADD16O,1.700000X1.950000*%
%ADD17C,1.524000*%
%ADD18RoundRect,0.250000X0.600000X0.750000X-0.600000X0.750000X-0.600000X-0.750000X0.600000X-0.750000X0*%
%ADD19O,1.700000X2.000000*%
%ADD20R,1.700000X1.700000*%
%ADD21O,1.700000X1.700000*%
%ADD22RoundRect,0.250000X0.725000X-0.600000X0.725000X0.600000X-0.725000X0.600000X-0.725000X-0.600000X0*%
%ADD23O,1.950000X1.700000*%
G04 APERTURE END LIST*
D10*
%TO.C,REF\u002A\u002A*%
X171450000Y-160020000D03*
%TD*%
%TO.C,REF\u002A\u002A*%
X171450000Y-97790000D03*
%TD*%
%TO.C,REF\u002A\u002A*%
X107950000Y-97790000D03*
%TD*%
%TO.C,REF\u002A\u002A*%
X107950000Y-160020000D03*
%TD*%
%TO.C,REF\u002A\u002A*%
X233680000Y-39370000D03*
%TD*%
%TO.C,REF\u002A\u002A*%
X53340000Y-39370000D03*
%TD*%
%TO.C,REF\u002A\u002A*%
X53340000Y-218440000D03*
%TD*%
%TO.C,REF\u002A\u002A*%
X233680000Y-218440000D03*
%TD*%
D11*
%TO.C,C41*%
X44704000Y-142748000D03*
X42804000Y-142748000D03*
%TD*%
D12*
%TO.C,D31*%
X202550000Y-128400000D03*
X202550000Y-131600000D03*
X207450000Y-131600000D03*
X207450000Y-128400000D03*
%TD*%
D11*
%TO.C,C26*%
X138618000Y-88392000D03*
X136718000Y-88392000D03*
%TD*%
D13*
%TO.C,R63*%
X236831500Y-145796000D03*
X238656500Y-145796000D03*
%TD*%
D12*
%TO.C,D6*%
X62550000Y-48400000D03*
X62550000Y-51600000D03*
X67450000Y-51600000D03*
X67450000Y-48400000D03*
%TD*%
D13*
%TO.C,R16*%
X217527500Y-205740000D03*
X219352500Y-205740000D03*
%TD*%
D12*
%TO.C,D16*%
X222550000Y-208400000D03*
X222550000Y-211600000D03*
X227450000Y-211600000D03*
X227450000Y-208400000D03*
%TD*%
D11*
%TO.C,C18*%
X138618000Y-188468000D03*
X136718000Y-188468000D03*
%TD*%
%TO.C,C49*%
X118806000Y-68580000D03*
X116906000Y-68580000D03*
%TD*%
%TO.C,C59*%
X198562000Y-108204000D03*
X196662000Y-108204000D03*
%TD*%
D13*
%TO.C,R44*%
X56999500Y-105664000D03*
X58824500Y-105664000D03*
%TD*%
D11*
%TO.C,C3*%
X59370000Y-208280000D03*
X57470000Y-208280000D03*
%TD*%
%TO.C,C71*%
X158938000Y-228600000D03*
X157038000Y-228600000D03*
%TD*%
D13*
%TO.C,R68*%
X157075500Y-166116000D03*
X158900500Y-166116000D03*
%TD*%
D11*
%TO.C,C29*%
X158938000Y-128524000D03*
X157038000Y-128524000D03*
%TD*%
%TO.C,C6*%
X59370000Y-48260000D03*
X57470000Y-48260000D03*
%TD*%
D13*
%TO.C,R45*%
X76811500Y-105664000D03*
X78636500Y-105664000D03*
%TD*%
D12*
%TO.C,D63*%
X242550000Y-148400000D03*
X242550000Y-151600000D03*
X247450000Y-151600000D03*
X247450000Y-148400000D03*
%TD*%
D11*
%TO.C,C47*%
X118806000Y-108204000D03*
X116906000Y-108204000D03*
%TD*%
D12*
%TO.C,D23*%
X82550000Y-128400000D03*
X82550000Y-131600000D03*
X87450000Y-131600000D03*
X87450000Y-128400000D03*
%TD*%
D11*
%TO.C,C31*%
X198562000Y-128524000D03*
X196662000Y-128524000D03*
%TD*%
D12*
%TO.C,D4*%
X42550000Y-208400000D03*
X42550000Y-211600000D03*
X47450000Y-211600000D03*
X47450000Y-208400000D03*
%TD*%
D13*
%TO.C,R57*%
X157075500Y-105664000D03*
X158900500Y-105664000D03*
%TD*%
D12*
%TO.C,D47*%
X122550000Y-108400000D03*
X122550000Y-111600000D03*
X127450000Y-111600000D03*
X127450000Y-108400000D03*
%TD*%
%TO.C,D41*%
X42550000Y-148400000D03*
X42550000Y-151600000D03*
X47450000Y-151600000D03*
X47450000Y-148400000D03*
%TD*%
D13*
%TO.C,R47*%
X116943500Y-105664000D03*
X118768500Y-105664000D03*
%TD*%
%TO.C,R29*%
X157075500Y-125984000D03*
X158900500Y-125984000D03*
%TD*%
D11*
%TO.C,C57*%
X158938000Y-108204000D03*
X157038000Y-108204000D03*
%TD*%
D12*
%TO.C,D42*%
X42550000Y-128400000D03*
X42550000Y-131600000D03*
X47450000Y-131600000D03*
X47450000Y-128400000D03*
%TD*%
D11*
%TO.C,C12*%
X218882000Y-48260000D03*
X216982000Y-48260000D03*
%TD*%
D12*
%TO.C,D10*%
X242870000Y-28400000D03*
X242870000Y-31600000D03*
X247770000Y-31600000D03*
X247770000Y-28400000D03*
%TD*%
%TO.C,D72*%
X142550000Y-228400000D03*
X142550000Y-231600000D03*
X147450000Y-231600000D03*
X147450000Y-228400000D03*
%TD*%
D13*
%TO.C,R17*%
X136755500Y-205740000D03*
X138580500Y-205740000D03*
%TD*%
%TO.C,R52*%
X136755500Y-28448000D03*
X138580500Y-28448000D03*
%TD*%
%TO.C,R70*%
X157075500Y-205740000D03*
X158900500Y-205740000D03*
%TD*%
D12*
%TO.C,D39*%
X82550000Y-148400000D03*
X82550000Y-151600000D03*
X87450000Y-151600000D03*
X87450000Y-148400000D03*
%TD*%
D11*
%TO.C,C67*%
X158938000Y-148336000D03*
X157038000Y-148336000D03*
%TD*%
D13*
%TO.C,R51*%
X116943500Y-28448000D03*
X118768500Y-28448000D03*
%TD*%
%TO.C,R38*%
X96623500Y-145796000D03*
X98448500Y-145796000D03*
%TD*%
D14*
%TO.C,R75*%
X173632500Y-209296000D03*
X171807500Y-209296000D03*
%TD*%
D12*
%TO.C,D53*%
X162550000Y-28400000D03*
X162550000Y-31600000D03*
X167450000Y-31600000D03*
X167450000Y-28400000D03*
%TD*%
%TO.C,D5*%
X42550000Y-48400000D03*
X42550000Y-51600000D03*
X47450000Y-51600000D03*
X47450000Y-48400000D03*
%TD*%
%TO.C,D21*%
X122550000Y-128400000D03*
X122550000Y-131600000D03*
X127450000Y-131600000D03*
X127450000Y-128400000D03*
%TD*%
%TO.C,D27*%
X142550000Y-68400000D03*
X142550000Y-71600000D03*
X147450000Y-71600000D03*
X147450000Y-68400000D03*
%TD*%
%TO.C,D38*%
X102550000Y-148400000D03*
X102550000Y-151600000D03*
X107450000Y-151600000D03*
X107450000Y-148400000D03*
%TD*%
D13*
%TO.C,R62*%
X236831500Y-125984000D03*
X238656500Y-125984000D03*
%TD*%
D11*
%TO.C,C8*%
X45654000Y-37592000D03*
X43754000Y-37592000D03*
%TD*%
D12*
%TO.C,D59*%
X202550000Y-108400000D03*
X202550000Y-111600000D03*
X207450000Y-111600000D03*
X207450000Y-108400000D03*
%TD*%
%TO.C,D49*%
X122550000Y-68400000D03*
X122550000Y-71600000D03*
X127450000Y-71600000D03*
X127450000Y-68400000D03*
%TD*%
D11*
%TO.C,C64*%
X218374000Y-148336000D03*
X216474000Y-148336000D03*
%TD*%
D12*
%TO.C,D12*%
X222550000Y-48400000D03*
X222550000Y-51600000D03*
X227450000Y-51600000D03*
X227450000Y-48400000D03*
%TD*%
D13*
%TO.C,R60*%
X216511500Y-105664000D03*
X218336500Y-105664000D03*
%TD*%
D12*
%TO.C,D32*%
X222550000Y-128400000D03*
X222550000Y-131600000D03*
X227450000Y-131600000D03*
X227450000Y-128400000D03*
%TD*%
D13*
%TO.C,R14*%
X237339500Y-226060000D03*
X239164500Y-226060000D03*
%TD*%
D12*
%TO.C,D8*%
X42550000Y-28400000D03*
X42550000Y-31600000D03*
X47450000Y-31600000D03*
X47450000Y-28400000D03*
%TD*%
%TO.C,D18*%
X142550000Y-188400000D03*
X142550000Y-191600000D03*
X147450000Y-191600000D03*
X147450000Y-188400000D03*
%TD*%
D13*
%TO.C,R54*%
X157075500Y-45720000D03*
X158900500Y-45720000D03*
%TD*%
D12*
%TO.C,D11*%
X242870000Y-48400000D03*
X242870000Y-51600000D03*
X247770000Y-51600000D03*
X247770000Y-48400000D03*
%TD*%
D11*
%TO.C,C7*%
X59370000Y-30988000D03*
X57470000Y-30988000D03*
%TD*%
D12*
%TO.C,D33*%
X122550000Y-228400000D03*
X122550000Y-231600000D03*
X127450000Y-231600000D03*
X127450000Y-228400000D03*
%TD*%
D13*
%TO.C,R37*%
X116943500Y-145796000D03*
X118768500Y-145796000D03*
%TD*%
D12*
%TO.C,D54*%
X162550000Y-48400000D03*
X162550000Y-51600000D03*
X167450000Y-51600000D03*
X167450000Y-48400000D03*
%TD*%
D13*
%TO.C,R48*%
X116943500Y-85852000D03*
X118768500Y-85852000D03*
%TD*%
%TO.C,R10*%
X237339500Y-28448000D03*
X239164500Y-28448000D03*
%TD*%
%TO.C,R23*%
X76811500Y-125984000D03*
X78636500Y-125984000D03*
%TD*%
D12*
%TO.C,D48*%
X122550000Y-88400000D03*
X122550000Y-91600000D03*
X127450000Y-91600000D03*
X127450000Y-88400000D03*
%TD*%
D11*
%TO.C,C13*%
X239202000Y-208280000D03*
X237302000Y-208280000D03*
%TD*%
%TO.C,C21*%
X118806000Y-128524000D03*
X116906000Y-128524000D03*
%TD*%
%TO.C,C52*%
X138618000Y-30988000D03*
X136718000Y-30988000D03*
%TD*%
D13*
%TO.C,R5*%
X42267500Y-41148000D03*
X44092500Y-41148000D03*
%TD*%
%TO.C,R42*%
X42841500Y-120396000D03*
X44666500Y-120396000D03*
%TD*%
D12*
%TO.C,D65*%
X202550000Y-148400000D03*
X202550000Y-151600000D03*
X207450000Y-151600000D03*
X207450000Y-148400000D03*
%TD*%
D13*
%TO.C,R43*%
X42645500Y-100388000D03*
X44470500Y-100388000D03*
%TD*%
%TO.C,R31*%
X196699500Y-125984000D03*
X198524500Y-125984000D03*
%TD*%
D11*
%TO.C,C19*%
X138618000Y-168656000D03*
X136718000Y-168656000D03*
%TD*%
%TO.C,C1*%
X44638000Y-223012000D03*
X42738000Y-223012000D03*
%TD*%
%TO.C,C68*%
X158938000Y-168656000D03*
X157038000Y-168656000D03*
%TD*%
%TO.C,C14*%
X239202000Y-228600000D03*
X237302000Y-228600000D03*
%TD*%
D12*
%TO.C,D56*%
X162550000Y-88400000D03*
X162550000Y-91600000D03*
X167450000Y-91600000D03*
X167450000Y-88400000D03*
%TD*%
D11*
%TO.C,C45*%
X78674000Y-108204000D03*
X76774000Y-108204000D03*
%TD*%
D12*
%TO.C,D45*%
X82550000Y-108400000D03*
X82550000Y-111600000D03*
X87450000Y-111600000D03*
X87450000Y-108400000D03*
%TD*%
D11*
%TO.C,C69*%
X158938000Y-188468000D03*
X157038000Y-188468000D03*
%TD*%
D13*
%TO.C,R19*%
X136755500Y-166116000D03*
X138580500Y-166116000D03*
%TD*%
%TO.C,R4*%
X42775500Y-200660000D03*
X44600500Y-200660000D03*
%TD*%
D11*
%TO.C,C35*%
X118806000Y-188468000D03*
X116906000Y-188468000D03*
%TD*%
D13*
%TO.C,R27*%
X136755500Y-66040000D03*
X138580500Y-66040000D03*
%TD*%
%TO.C,R25*%
X136755500Y-105664000D03*
X138580500Y-105664000D03*
%TD*%
D11*
%TO.C,C27*%
X138618000Y-68580000D03*
X136718000Y-68580000D03*
%TD*%
D12*
%TO.C,D37*%
X122550000Y-148400000D03*
X122550000Y-151600000D03*
X127450000Y-151600000D03*
X127450000Y-148400000D03*
%TD*%
D13*
%TO.C,R40*%
X56999500Y-145796000D03*
X58824500Y-145796000D03*
%TD*%
%TO.C,R34*%
X116943500Y-205740000D03*
X118768500Y-205740000D03*
%TD*%
%TO.C,R61*%
X236831500Y-105664000D03*
X238656500Y-105664000D03*
%TD*%
%TO.C,R24*%
X56999500Y-125984000D03*
X58824500Y-125984000D03*
%TD*%
D12*
%TO.C,D15*%
X222550000Y-228400000D03*
X222550000Y-231600000D03*
X227450000Y-231600000D03*
X227450000Y-228400000D03*
%TD*%
D11*
%TO.C,C34*%
X118806000Y-208280000D03*
X116906000Y-208280000D03*
%TD*%
%TO.C,C10*%
X239202000Y-30988000D03*
X237302000Y-30988000D03*
%TD*%
D12*
%TO.C,D66*%
X182550000Y-148400000D03*
X182550000Y-151600000D03*
X187450000Y-151600000D03*
X187450000Y-148400000D03*
%TD*%
%TO.C,D20*%
X142550000Y-148400000D03*
X142550000Y-151600000D03*
X147450000Y-151600000D03*
X147450000Y-148400000D03*
%TD*%
D11*
%TO.C,C55*%
X158938000Y-68580000D03*
X157038000Y-68580000D03*
%TD*%
D13*
%TO.C,R6*%
X57507500Y-45720000D03*
X59332500Y-45720000D03*
%TD*%
D11*
%TO.C,C66*%
X178750000Y-148336000D03*
X176850000Y-148336000D03*
%TD*%
D13*
%TO.C,R49*%
X116943500Y-66040000D03*
X118768500Y-66040000D03*
%TD*%
%TO.C,R55*%
X157075500Y-66040000D03*
X158900500Y-66040000D03*
%TD*%
%TO.C,R26*%
X136755500Y-85852000D03*
X138580500Y-85852000D03*
%TD*%
D11*
%TO.C,C72*%
X138618000Y-228600000D03*
X136718000Y-228600000D03*
%TD*%
D12*
%TO.C,D17*%
X142550000Y-208400000D03*
X142550000Y-211600000D03*
X147450000Y-211600000D03*
X147450000Y-208400000D03*
%TD*%
D11*
%TO.C,C44*%
X58862000Y-108204000D03*
X56962000Y-108204000D03*
%TD*%
%TO.C,C22*%
X98486000Y-128524000D03*
X96586000Y-128524000D03*
%TD*%
D13*
%TO.C,R8*%
X43791500Y-35052000D03*
X45616500Y-35052000D03*
%TD*%
D11*
%TO.C,C5*%
X44130000Y-43688000D03*
X42230000Y-43688000D03*
%TD*%
D12*
%TO.C,D51*%
X122550000Y-28400000D03*
X122550000Y-31600000D03*
X127450000Y-31600000D03*
X127450000Y-28400000D03*
%TD*%
%TO.C,D62*%
X242550000Y-128400000D03*
X242550000Y-131600000D03*
X247450000Y-131600000D03*
X247450000Y-128400000D03*
%TD*%
D14*
%TO.C,R74*%
X181252500Y-209296000D03*
X179427500Y-209296000D03*
%TD*%
D12*
%TO.C,D71*%
X162550000Y-228400000D03*
X162550000Y-231600000D03*
X167450000Y-231600000D03*
X167450000Y-228400000D03*
%TD*%
D13*
%TO.C,R2*%
X57507500Y-226060000D03*
X59332500Y-226060000D03*
%TD*%
%TO.C,R12*%
X217019500Y-45720000D03*
X218844500Y-45720000D03*
%TD*%
D12*
%TO.C,D9*%
X222550000Y-28400000D03*
X222550000Y-31600000D03*
X227450000Y-31600000D03*
X227450000Y-28400000D03*
%TD*%
D11*
%TO.C,C11*%
X239202000Y-48260000D03*
X237302000Y-48260000D03*
%TD*%
%TO.C,C60*%
X218374000Y-108204000D03*
X216474000Y-108204000D03*
%TD*%
D13*
%TO.C,R13*%
X237339500Y-205740000D03*
X239164500Y-205740000D03*
%TD*%
D12*
%TO.C,D1*%
X42550000Y-228400000D03*
X42550000Y-231600000D03*
X47450000Y-231600000D03*
X47450000Y-228400000D03*
%TD*%
D11*
%TO.C,C23*%
X78674000Y-128524000D03*
X76774000Y-128524000D03*
%TD*%
%TO.C,C28*%
X138618000Y-48260000D03*
X136718000Y-48260000D03*
%TD*%
D13*
%TO.C,R35*%
X116943500Y-185928000D03*
X118768500Y-185928000D03*
%TD*%
D14*
%TO.C,R73*%
X188872500Y-209296000D03*
X187047500Y-209296000D03*
%TD*%
D13*
%TO.C,R65*%
X196699500Y-145796000D03*
X198524500Y-145796000D03*
%TD*%
D11*
%TO.C,C38*%
X98486000Y-148336000D03*
X96586000Y-148336000D03*
%TD*%
%TO.C,C61*%
X238694000Y-108204000D03*
X236794000Y-108204000D03*
%TD*%
%TO.C,C30*%
X178750000Y-128524000D03*
X176850000Y-128524000D03*
%TD*%
D13*
%TO.C,R18*%
X136755500Y-185928000D03*
X138580500Y-185928000D03*
%TD*%
D12*
%TO.C,D60*%
X222550000Y-108400000D03*
X222550000Y-111600000D03*
X227450000Y-111600000D03*
X227450000Y-108400000D03*
%TD*%
D11*
%TO.C,C9*%
X218882000Y-31036000D03*
X216982000Y-31036000D03*
%TD*%
D13*
%TO.C,R32*%
X216511500Y-125984000D03*
X218336500Y-125984000D03*
%TD*%
D12*
%TO.C,D58*%
X182550000Y-108400000D03*
X182550000Y-111600000D03*
X187450000Y-111600000D03*
X187450000Y-108400000D03*
%TD*%
%TO.C,D43*%
X42550000Y-108400000D03*
X42550000Y-111600000D03*
X47450000Y-111600000D03*
X47450000Y-108400000D03*
%TD*%
D11*
%TO.C,C58*%
X178750000Y-108204000D03*
X176850000Y-108204000D03*
%TD*%
D13*
%TO.C,R15*%
X217527500Y-226060000D03*
X219352500Y-226060000D03*
%TD*%
D11*
%TO.C,C16*%
X219390000Y-208280000D03*
X217490000Y-208280000D03*
%TD*%
D12*
%TO.C,D3*%
X62550000Y-208400000D03*
X62550000Y-211600000D03*
X67450000Y-211600000D03*
X67450000Y-208400000D03*
%TD*%
D11*
%TO.C,C53*%
X158938000Y-30988000D03*
X157038000Y-30988000D03*
%TD*%
D12*
%TO.C,D61*%
X242550000Y-108400000D03*
X242550000Y-111600000D03*
X247450000Y-111600000D03*
X247450000Y-108400000D03*
%TD*%
D13*
%TO.C,R67*%
X157075500Y-145796000D03*
X158900500Y-145796000D03*
%TD*%
D11*
%TO.C,C48*%
X118806000Y-88392000D03*
X116906000Y-88392000D03*
%TD*%
D12*
%TO.C,D69*%
X162550000Y-188400000D03*
X162550000Y-191600000D03*
X167450000Y-191600000D03*
X167450000Y-188400000D03*
%TD*%
D11*
%TO.C,C40*%
X58862000Y-148336000D03*
X56962000Y-148336000D03*
%TD*%
D12*
%TO.C,D14*%
X242550000Y-228400000D03*
X242550000Y-231600000D03*
X247450000Y-231600000D03*
X247450000Y-228400000D03*
%TD*%
D13*
%TO.C,R1*%
X42775500Y-220472000D03*
X44600500Y-220472000D03*
%TD*%
%TO.C,R64*%
X216511500Y-145796000D03*
X218336500Y-145796000D03*
%TD*%
D11*
%TO.C,C50*%
X118806000Y-48260000D03*
X116906000Y-48260000D03*
%TD*%
D12*
%TO.C,D40*%
X62550000Y-148400000D03*
X62550000Y-151600000D03*
X67450000Y-151600000D03*
X67450000Y-148400000D03*
%TD*%
D13*
%TO.C,R28*%
X136755500Y-45720000D03*
X138580500Y-45720000D03*
%TD*%
D11*
%TO.C,C56*%
X158938000Y-88392000D03*
X157038000Y-88392000D03*
%TD*%
%TO.C,C25*%
X138618000Y-108204000D03*
X136718000Y-108204000D03*
%TD*%
D13*
%TO.C,R59*%
X196699500Y-105664000D03*
X198524500Y-105664000D03*
%TD*%
D11*
%TO.C,C2*%
X59370000Y-228600000D03*
X57470000Y-228600000D03*
%TD*%
D12*
%TO.C,D25*%
X142550000Y-108400000D03*
X142550000Y-111600000D03*
X147450000Y-111600000D03*
X147450000Y-108400000D03*
%TD*%
D13*
%TO.C,R33*%
X116943500Y-226060000D03*
X118768500Y-226060000D03*
%TD*%
%TO.C,R7*%
X57507500Y-28448000D03*
X59332500Y-28448000D03*
%TD*%
%TO.C,R20*%
X136755500Y-145796000D03*
X138580500Y-145796000D03*
%TD*%
D11*
%TO.C,C15*%
X219390000Y-228600000D03*
X217490000Y-228600000D03*
%TD*%
D12*
%TO.C,D55*%
X162550000Y-68400000D03*
X162550000Y-71600000D03*
X167450000Y-71600000D03*
X167450000Y-68400000D03*
%TD*%
%TO.C,D29*%
X162550000Y-128400000D03*
X162550000Y-131600000D03*
X167450000Y-131600000D03*
X167450000Y-128400000D03*
%TD*%
D13*
%TO.C,R41*%
X42841500Y-140208000D03*
X44666500Y-140208000D03*
%TD*%
D12*
%TO.C,D70*%
X162550000Y-208400000D03*
X162550000Y-211600000D03*
X167450000Y-211600000D03*
X167450000Y-208400000D03*
%TD*%
D13*
%TO.C,R39*%
X76811500Y-145796000D03*
X78636500Y-145796000D03*
%TD*%
D11*
%TO.C,C54*%
X158938000Y-48260000D03*
X157038000Y-48260000D03*
%TD*%
%TO.C,C65*%
X198562000Y-148336000D03*
X196662000Y-148336000D03*
%TD*%
D12*
%TO.C,D34*%
X122550000Y-208400000D03*
X122550000Y-211600000D03*
X127450000Y-211600000D03*
X127450000Y-208400000D03*
%TD*%
D13*
%TO.C,R69*%
X157075500Y-185928000D03*
X158900500Y-185928000D03*
%TD*%
D12*
%TO.C,D35*%
X122550000Y-188400000D03*
X122550000Y-191600000D03*
X127450000Y-191600000D03*
X127450000Y-188400000D03*
%TD*%
D13*
%TO.C,R56*%
X157075500Y-85852000D03*
X158900500Y-85852000D03*
%TD*%
%TO.C,R53*%
X157075500Y-28448000D03*
X158900500Y-28448000D03*
%TD*%
%TO.C,R71*%
X157075500Y-226060000D03*
X158900500Y-226060000D03*
%TD*%
D11*
%TO.C,C37*%
X118806000Y-148336000D03*
X116906000Y-148336000D03*
%TD*%
%TO.C,C20*%
X138618000Y-148336000D03*
X136718000Y-148336000D03*
%TD*%
D13*
%TO.C,R36*%
X116943500Y-166116000D03*
X118768500Y-166116000D03*
%TD*%
%TO.C,R58*%
X176887500Y-105664000D03*
X178712500Y-105664000D03*
%TD*%
D12*
%TO.C,D28*%
X142550000Y-48400000D03*
X142550000Y-51600000D03*
X147450000Y-51600000D03*
X147450000Y-48400000D03*
%TD*%
D11*
%TO.C,C70*%
X158938000Y-208280000D03*
X157038000Y-208280000D03*
%TD*%
%TO.C,C46*%
X98486000Y-108204000D03*
X96586000Y-108204000D03*
%TD*%
D13*
%TO.C,R22*%
X96623500Y-125984000D03*
X98448500Y-125984000D03*
%TD*%
D11*
%TO.C,C33*%
X118806000Y-228600000D03*
X116906000Y-228600000D03*
%TD*%
%TO.C,C4*%
X44638000Y-203200000D03*
X42738000Y-203200000D03*
%TD*%
D13*
%TO.C,R11*%
X237339500Y-45720000D03*
X239164500Y-45720000D03*
%TD*%
%TO.C,R3*%
X57507500Y-205740000D03*
X59332500Y-205740000D03*
%TD*%
D12*
%TO.C,D68*%
X162550000Y-168400000D03*
X162550000Y-171600000D03*
X167450000Y-171600000D03*
X167450000Y-168400000D03*
%TD*%
D11*
%TO.C,C43*%
X44508000Y-102928000D03*
X42608000Y-102928000D03*
%TD*%
D12*
%TO.C,D26*%
X142550000Y-88400000D03*
X142550000Y-91600000D03*
X147450000Y-91600000D03*
X147450000Y-88400000D03*
%TD*%
%TO.C,D64*%
X222550000Y-148400000D03*
X222550000Y-151600000D03*
X227450000Y-151600000D03*
X227450000Y-148400000D03*
%TD*%
%TO.C,D22*%
X102550000Y-128400000D03*
X102550000Y-131600000D03*
X107450000Y-131600000D03*
X107450000Y-128400000D03*
%TD*%
D13*
%TO.C,R30*%
X176887500Y-125984000D03*
X178712500Y-125984000D03*
%TD*%
D11*
%TO.C,C62*%
X238694000Y-128524000D03*
X236794000Y-128524000D03*
%TD*%
%TO.C,C63*%
X238694000Y-148336000D03*
X236794000Y-148336000D03*
%TD*%
D12*
%TO.C,D30*%
X182550000Y-128400000D03*
X182550000Y-131600000D03*
X187450000Y-131600000D03*
X187450000Y-128400000D03*
%TD*%
%TO.C,D19*%
X142550000Y-168400000D03*
X142550000Y-171600000D03*
X147450000Y-171600000D03*
X147450000Y-168400000D03*
%TD*%
%TO.C,D50*%
X122550000Y-48400000D03*
X122550000Y-51600000D03*
X127450000Y-51600000D03*
X127450000Y-48400000D03*
%TD*%
%TO.C,D7*%
X62550000Y-28400000D03*
X62550000Y-31600000D03*
X67450000Y-31600000D03*
X67450000Y-28400000D03*
%TD*%
%TO.C,D44*%
X62550000Y-108400000D03*
X62550000Y-111600000D03*
X67450000Y-111600000D03*
X67450000Y-108400000D03*
%TD*%
D13*
%TO.C,R72*%
X136755500Y-226060000D03*
X138580500Y-226060000D03*
%TD*%
%TO.C,R21*%
X116943500Y-125984000D03*
X118768500Y-125984000D03*
%TD*%
D12*
%TO.C,D57*%
X162550000Y-108400000D03*
X162550000Y-111600000D03*
X167450000Y-111600000D03*
X167450000Y-108400000D03*
%TD*%
%TO.C,D13*%
X242550000Y-208400000D03*
X242550000Y-211600000D03*
X247450000Y-211600000D03*
X247450000Y-208400000D03*
%TD*%
%TO.C,D52*%
X142550000Y-28400000D03*
X142550000Y-31600000D03*
X147450000Y-31600000D03*
X147450000Y-28400000D03*
%TD*%
%TO.C,D36*%
X122550000Y-168400000D03*
X122550000Y-171600000D03*
X127450000Y-171600000D03*
X127450000Y-168400000D03*
%TD*%
D11*
%TO.C,C32*%
X218374000Y-128524000D03*
X216474000Y-128524000D03*
%TD*%
D12*
%TO.C,D46*%
X102550000Y-108400000D03*
X102550000Y-111600000D03*
X107450000Y-111600000D03*
X107450000Y-108400000D03*
%TD*%
D11*
%TO.C,C39*%
X78674000Y-148336000D03*
X76774000Y-148336000D03*
%TD*%
%TO.C,C24*%
X58862000Y-128524000D03*
X56962000Y-128524000D03*
%TD*%
%TO.C,C42*%
X44704000Y-122936000D03*
X42804000Y-122936000D03*
%TD*%
%TO.C,C17*%
X138618000Y-208280000D03*
X136718000Y-208280000D03*
%TD*%
D12*
%TO.C,D67*%
X162550000Y-148400000D03*
X162550000Y-151600000D03*
X167450000Y-151600000D03*
X167450000Y-148400000D03*
%TD*%
%TO.C,D2*%
X62550000Y-228400000D03*
X62550000Y-231600000D03*
X67450000Y-231600000D03*
X67450000Y-228400000D03*
%TD*%
%TO.C,D24*%
X62550000Y-128400000D03*
X62550000Y-131600000D03*
X67450000Y-131600000D03*
X67450000Y-128400000D03*
%TD*%
D13*
%TO.C,R46*%
X96623500Y-105664000D03*
X98448500Y-105664000D03*
%TD*%
%TO.C,R66*%
X176887500Y-145796000D03*
X178712500Y-145796000D03*
%TD*%
%TO.C,R50*%
X116943500Y-45720000D03*
X118768500Y-45720000D03*
%TD*%
%TO.C,R9*%
X217019500Y-28496000D03*
X218844500Y-28496000D03*
%TD*%
D11*
%TO.C,C51*%
X118806000Y-30988000D03*
X116906000Y-30988000D03*
%TD*%
%TO.C,C36*%
X118806000Y-168656000D03*
X116906000Y-168656000D03*
%TD*%
D15*
%TO.C,J2*%
X208160000Y-227792000D03*
D16*
X205660000Y-227792000D03*
X203160000Y-227792000D03*
X200660000Y-227792000D03*
X198160000Y-227792000D03*
X195660000Y-227792000D03*
X193160000Y-227792000D03*
X190660000Y-227792000D03*
%TD*%
D17*
%TO.C,U1*%
X180340000Y-166116000D03*
X182880000Y-166116000D03*
X185420000Y-166116000D03*
X187960000Y-166116000D03*
X190500000Y-166116000D03*
X193040000Y-166116000D03*
X195580000Y-166116000D03*
X198120000Y-166116000D03*
X200660000Y-166116000D03*
X203200000Y-166116000D03*
X205740000Y-166116000D03*
X208280000Y-166116000D03*
X210820000Y-166116000D03*
X213360000Y-166116000D03*
X215900000Y-166116000D03*
X218440000Y-166116000D03*
X220980000Y-166116000D03*
X223520000Y-166116000D03*
X226060000Y-166116000D03*
X226060000Y-191516000D03*
X223520000Y-191516000D03*
X220980000Y-191516000D03*
X218440000Y-191516000D03*
X215900000Y-191516000D03*
X213360000Y-191516000D03*
X210820000Y-191516000D03*
X208280000Y-191516000D03*
X205740000Y-191516000D03*
X203200000Y-191516000D03*
X200660000Y-191516000D03*
X198120000Y-191516000D03*
X195580000Y-191516000D03*
X193040000Y-191516000D03*
X190500000Y-191516000D03*
X187960000Y-191516000D03*
X185420000Y-191516000D03*
X182880000Y-191516000D03*
X180340000Y-191516000D03*
%TD*%
D18*
%TO.C,J1*%
X181590000Y-227792000D03*
D19*
X179090000Y-227792000D03*
%TD*%
D20*
%TO.C,J3*%
X206408000Y-219710000D03*
D21*
X208948000Y-219710000D03*
X211488000Y-219710000D03*
%TD*%
D22*
%TO.C,J5*%
X180040000Y-219924000D03*
D23*
X180040000Y-217424000D03*
X180040000Y-214924000D03*
%TD*%
D22*
%TO.C,J4*%
X187660000Y-219924000D03*
D23*
X187660000Y-217424000D03*
X187660000Y-214924000D03*
%TD*%
D22*
%TO.C,J6*%
X172420000Y-219924000D03*
D23*
X172420000Y-217424000D03*
X172420000Y-214924000D03*
%TD*%
M02*
