%TF.GenerationSoftware,KiCad,Pcbnew,6.0.7*%
%TF.CreationDate,2022-11-18T13:15:14+01:00*%
%TF.ProjectId,game_board,67616d65-5f62-46f6-9172-642e6b696361,rev?*%
%TF.SameCoordinates,Original*%
%TF.FileFunction,Soldermask,Bot*%
%TF.FilePolarity,Negative*%
%FSLAX46Y46*%
G04 Gerber Fmt 4.6, Leading zero omitted, Abs format (unit mm)*
G04 Created by KiCad (PCBNEW 6.0.7) date 2022-11-18 13:15:14*
%MOMM*%
%LPD*%
G01*
G04 APERTURE LIST*
G04 Aperture macros list*
%AMRoundRect*
0 Rectangle with rounded corners*
0 $1 Rounding radius*
0 $2 $3 $4 $5 $6 $7 $8 $9 X,Y pos of 4 corners*
0 Add a 4 corners polygon primitive as box body*
4,1,4,$2,$3,$4,$5,$6,$7,$8,$9,$2,$3,0*
0 Add four circle primitives for the rounded corners*
1,1,$1+$1,$2,$3*
1,1,$1+$1,$4,$5*
1,1,$1+$1,$6,$7*
1,1,$1+$1,$8,$9*
0 Add four rect primitives between the rounded corners*
20,1,$1+$1,$2,$3,$4,$5,0*
20,1,$1+$1,$4,$5,$6,$7,0*
20,1,$1+$1,$6,$7,$8,$9,0*
20,1,$1+$1,$8,$9,$2,$3,0*%
G04 Aperture macros list end*
%ADD10C,3.200000*%
%ADD11RoundRect,0.250000X0.600000X0.725000X-0.600000X0.725000X-0.600000X-0.725000X0.600000X-0.725000X0*%
%ADD12O,1.700000X1.950000*%
%ADD13C,1.524000*%
%ADD14RoundRect,0.250000X0.600000X0.750000X-0.600000X0.750000X-0.600000X-0.750000X0.600000X-0.750000X0*%
%ADD15O,1.700000X2.000000*%
%ADD16R,1.700000X1.700000*%
%ADD17O,1.700000X1.700000*%
%ADD18RoundRect,0.250000X0.725000X-0.600000X0.725000X0.600000X-0.725000X0.600000X-0.725000X-0.600000X0*%
%ADD19O,1.950000X1.700000*%
G04 APERTURE END LIST*
D10*
%TO.C,REF\u002A\u002A*%
X171450000Y-160020000D03*
%TD*%
%TO.C,REF\u002A\u002A*%
X171450000Y-97790000D03*
%TD*%
%TO.C,REF\u002A\u002A*%
X107950000Y-97790000D03*
%TD*%
%TO.C,REF\u002A\u002A*%
X107950000Y-160020000D03*
%TD*%
%TO.C,REF\u002A\u002A*%
X233680000Y-39370000D03*
%TD*%
%TO.C,REF\u002A\u002A*%
X53340000Y-39370000D03*
%TD*%
%TO.C,REF\u002A\u002A*%
X53340000Y-218440000D03*
%TD*%
%TO.C,REF\u002A\u002A*%
X233680000Y-218440000D03*
%TD*%
D11*
%TO.C,J2*%
X208160000Y-227792000D03*
D12*
X205660000Y-227792000D03*
X203160000Y-227792000D03*
X200660000Y-227792000D03*
X198160000Y-227792000D03*
X195660000Y-227792000D03*
X193160000Y-227792000D03*
X190660000Y-227792000D03*
%TD*%
D13*
%TO.C,U1*%
X180340000Y-166116000D03*
X182880000Y-166116000D03*
X185420000Y-166116000D03*
X187960000Y-166116000D03*
X190500000Y-166116000D03*
X193040000Y-166116000D03*
X195580000Y-166116000D03*
X198120000Y-166116000D03*
X200660000Y-166116000D03*
X203200000Y-166116000D03*
X205740000Y-166116000D03*
X208280000Y-166116000D03*
X210820000Y-166116000D03*
X213360000Y-166116000D03*
X215900000Y-166116000D03*
X218440000Y-166116000D03*
X220980000Y-166116000D03*
X223520000Y-166116000D03*
X226060000Y-166116000D03*
X226060000Y-191516000D03*
X223520000Y-191516000D03*
X220980000Y-191516000D03*
X218440000Y-191516000D03*
X215900000Y-191516000D03*
X213360000Y-191516000D03*
X210820000Y-191516000D03*
X208280000Y-191516000D03*
X205740000Y-191516000D03*
X203200000Y-191516000D03*
X200660000Y-191516000D03*
X198120000Y-191516000D03*
X195580000Y-191516000D03*
X193040000Y-191516000D03*
X190500000Y-191516000D03*
X187960000Y-191516000D03*
X185420000Y-191516000D03*
X182880000Y-191516000D03*
X180340000Y-191516000D03*
%TD*%
D14*
%TO.C,J1*%
X181590000Y-227792000D03*
D15*
X179090000Y-227792000D03*
%TD*%
D16*
%TO.C,J3*%
X206408000Y-219710000D03*
D17*
X208948000Y-219710000D03*
X211488000Y-219710000D03*
%TD*%
D18*
%TO.C,J5*%
X180040000Y-219924000D03*
D19*
X180040000Y-217424000D03*
X180040000Y-214924000D03*
%TD*%
D18*
%TO.C,J4*%
X187660000Y-219924000D03*
D19*
X187660000Y-217424000D03*
X187660000Y-214924000D03*
%TD*%
D18*
%TO.C,J6*%
X172420000Y-219924000D03*
D19*
X172420000Y-217424000D03*
X172420000Y-214924000D03*
%TD*%
M02*
