%TF.GenerationSoftware,KiCad,Pcbnew,6.0.7*%
%TF.CreationDate,2022-11-18T13:15:14+01:00*%
%TF.ProjectId,game_board,67616d65-5f62-46f6-9172-642e6b696361,rev?*%
%TF.SameCoordinates,Original*%
%TF.FileFunction,Legend,Bot*%
%TF.FilePolarity,Positive*%
%FSLAX46Y46*%
G04 Gerber Fmt 4.6, Leading zero omitted, Abs format (unit mm)*
G04 Created by KiCad (PCBNEW 6.0.7) date 2022-11-18 13:15:14*
%MOMM*%
%LPD*%
G01*
G04 APERTURE LIST*
%ADD10C,0.101600*%
%ADD11C,0.150000*%
%ADD12C,0.120000*%
G04 APERTURE END LIST*
D10*
X208669809Y-230822500D02*
X208730285Y-230792261D01*
X208821000Y-230792261D01*
X208911714Y-230822500D01*
X208972190Y-230882976D01*
X209002428Y-230943452D01*
X209032666Y-231064404D01*
X209032666Y-231155119D01*
X209002428Y-231276071D01*
X208972190Y-231336547D01*
X208911714Y-231397023D01*
X208821000Y-231427261D01*
X208760523Y-231427261D01*
X208669809Y-231397023D01*
X208639571Y-231366785D01*
X208639571Y-231155119D01*
X208760523Y-231155119D01*
X208367428Y-231427261D02*
X208367428Y-230792261D01*
X208004571Y-231427261D01*
X208004571Y-230792261D01*
X207702190Y-231427261D02*
X207702190Y-230792261D01*
X207551000Y-230792261D01*
X207460285Y-230822500D01*
X207399809Y-230882976D01*
X207369571Y-230943452D01*
X207339333Y-231064404D01*
X207339333Y-231155119D01*
X207369571Y-231276071D01*
X207399809Y-231336547D01*
X207460285Y-231397023D01*
X207551000Y-231427261D01*
X207702190Y-231427261D01*
X206190285Y-231091467D02*
X206099571Y-231121705D01*
X206069333Y-231151944D01*
X206039095Y-231212420D01*
X206039095Y-231303134D01*
X206069333Y-231363610D01*
X206099571Y-231393848D01*
X206160047Y-231424086D01*
X206401952Y-231424086D01*
X206401952Y-230789086D01*
X206190285Y-230789086D01*
X206129809Y-230819325D01*
X206099571Y-230849563D01*
X206069333Y-230910039D01*
X206069333Y-230970515D01*
X206099571Y-231030991D01*
X206129809Y-231061229D01*
X206190285Y-231091467D01*
X206401952Y-231091467D01*
X205464571Y-231424086D02*
X205766952Y-231424086D01*
X205766952Y-230789086D01*
X204799333Y-230758848D02*
X205343619Y-231575277D01*
X206054214Y-232446436D02*
X206356595Y-232446436D01*
X206356595Y-231811436D01*
X205842547Y-232113817D02*
X205630880Y-232113817D01*
X205540166Y-232446436D02*
X205842547Y-232446436D01*
X205842547Y-231811436D01*
X205540166Y-231811436D01*
X205268023Y-232446436D02*
X205268023Y-231811436D01*
X205116833Y-231811436D01*
X205026119Y-231841675D01*
X204965642Y-231902151D01*
X204935404Y-231962627D01*
X204905166Y-232083579D01*
X204905166Y-232174294D01*
X204935404Y-232295246D01*
X204965642Y-232355722D01*
X205026119Y-232416198D01*
X205116833Y-232446436D01*
X205268023Y-232446436D01*
D11*
X179795714Y-231194428D02*
X179215142Y-231194428D01*
X179505428Y-231484714D02*
X179505428Y-230904142D01*
X178489428Y-230722714D02*
X178852285Y-230722714D01*
X178888571Y-231085571D01*
X178852285Y-231049285D01*
X178779714Y-231013000D01*
X178598285Y-231013000D01*
X178525714Y-231049285D01*
X178489428Y-231085571D01*
X178453142Y-231158142D01*
X178453142Y-231339571D01*
X178489428Y-231412142D01*
X178525714Y-231448428D01*
X178598285Y-231484714D01*
X178779714Y-231484714D01*
X178852285Y-231448428D01*
X178888571Y-231412142D01*
X178235428Y-230722714D02*
X177981428Y-231484714D01*
X177727428Y-230722714D01*
X189520285Y-223465571D02*
X189411428Y-223501857D01*
X189375142Y-223538142D01*
X189338857Y-223610714D01*
X189338857Y-223719571D01*
X189375142Y-223792142D01*
X189411428Y-223828428D01*
X189484000Y-223864714D01*
X189774285Y-223864714D01*
X189774285Y-223102714D01*
X189520285Y-223102714D01*
X189447714Y-223139000D01*
X189411428Y-223175285D01*
X189375142Y-223247857D01*
X189375142Y-223320428D01*
X189411428Y-223393000D01*
X189447714Y-223429285D01*
X189520285Y-223465571D01*
X189774285Y-223465571D01*
X188685714Y-223356714D02*
X188685714Y-223864714D01*
X189012285Y-223356714D02*
X189012285Y-223755857D01*
X188976000Y-223828428D01*
X188903428Y-223864714D01*
X188794571Y-223864714D01*
X188722000Y-223828428D01*
X188685714Y-223792142D01*
X188431714Y-223356714D02*
X188141428Y-223356714D01*
X188322857Y-223102714D02*
X188322857Y-223755857D01*
X188286571Y-223828428D01*
X188214000Y-223864714D01*
X188141428Y-223864714D01*
X187996285Y-223356714D02*
X187706000Y-223356714D01*
X187887428Y-223102714D02*
X187887428Y-223755857D01*
X187851142Y-223828428D01*
X187778571Y-223864714D01*
X187706000Y-223864714D01*
X187343142Y-223864714D02*
X187415714Y-223828428D01*
X187452000Y-223792142D01*
X187488285Y-223719571D01*
X187488285Y-223501857D01*
X187452000Y-223429285D01*
X187415714Y-223393000D01*
X187343142Y-223356714D01*
X187234285Y-223356714D01*
X187161714Y-223393000D01*
X187125428Y-223429285D01*
X187089142Y-223501857D01*
X187089142Y-223719571D01*
X187125428Y-223792142D01*
X187161714Y-223828428D01*
X187234285Y-223864714D01*
X187343142Y-223864714D01*
X186762571Y-223356714D02*
X186762571Y-223864714D01*
X186762571Y-223429285D02*
X186726285Y-223393000D01*
X186653714Y-223356714D01*
X186544857Y-223356714D01*
X186472285Y-223393000D01*
X186436000Y-223465571D01*
X186436000Y-223864714D01*
X185093428Y-223864714D02*
X185528857Y-223864714D01*
X185311142Y-223864714D02*
X185311142Y-223102714D01*
X185383714Y-223211571D01*
X185456285Y-223284142D01*
X185528857Y-223320428D01*
X176711428Y-214466714D02*
X176239714Y-214466714D01*
X176493714Y-214757000D01*
X176384857Y-214757000D01*
X176312285Y-214793285D01*
X176276000Y-214829571D01*
X176239714Y-214902142D01*
X176239714Y-215083571D01*
X176276000Y-215156142D01*
X176312285Y-215192428D01*
X176384857Y-215228714D01*
X176602571Y-215228714D01*
X176675142Y-215192428D01*
X176711428Y-215156142D01*
X176022000Y-214466714D02*
X175768000Y-215228714D01*
X175514000Y-214466714D01*
X175332571Y-214466714D02*
X174860857Y-214466714D01*
X175114857Y-214757000D01*
X175006000Y-214757000D01*
X174933428Y-214793285D01*
X174897142Y-214829571D01*
X174860857Y-214902142D01*
X174860857Y-215083571D01*
X174897142Y-215156142D01*
X174933428Y-215192428D01*
X175006000Y-215228714D01*
X175223714Y-215228714D01*
X175296285Y-215192428D01*
X175332571Y-215156142D01*
D10*
X198763809Y-231427261D02*
X198763809Y-230792261D01*
X198612619Y-230792261D01*
X198521904Y-230822500D01*
X198461428Y-230882976D01*
X198431190Y-230943452D01*
X198400952Y-231064404D01*
X198400952Y-231155119D01*
X198431190Y-231276071D01*
X198461428Y-231336547D01*
X198521904Y-231397023D01*
X198612619Y-231427261D01*
X198763809Y-231427261D01*
X197765952Y-231366785D02*
X197796190Y-231397023D01*
X197886904Y-231427261D01*
X197947380Y-231427261D01*
X198038095Y-231397023D01*
X198098571Y-231336547D01*
X198128809Y-231276071D01*
X198159047Y-231155119D01*
X198159047Y-231064404D01*
X198128809Y-230943452D01*
X198098571Y-230882976D01*
X198038095Y-230822500D01*
X197947380Y-230792261D01*
X197886904Y-230792261D01*
X197796190Y-230822500D01*
X197765952Y-230852738D01*
X191476428Y-231185357D02*
X190992619Y-231185357D01*
X191234523Y-231427261D02*
X191234523Y-230943452D01*
X190387857Y-230792261D02*
X190690238Y-230792261D01*
X190720476Y-231094642D01*
X190690238Y-231064404D01*
X190629761Y-231034166D01*
X190478571Y-231034166D01*
X190418095Y-231064404D01*
X190387857Y-231094642D01*
X190357619Y-231155119D01*
X190357619Y-231306309D01*
X190387857Y-231366785D01*
X190418095Y-231397023D01*
X190478571Y-231427261D01*
X190629761Y-231427261D01*
X190690238Y-231397023D01*
X190720476Y-231366785D01*
X190176190Y-230792261D02*
X189964523Y-231427261D01*
X189752857Y-230792261D01*
D11*
X184041142Y-217768714D02*
X184041142Y-217006714D01*
X183678285Y-217768714D02*
X183678285Y-217006714D01*
X183242857Y-217768714D01*
X183242857Y-217006714D01*
X176348571Y-219583000D02*
X176421142Y-219546714D01*
X176530000Y-219546714D01*
X176638857Y-219583000D01*
X176711428Y-219655571D01*
X176747714Y-219728142D01*
X176784000Y-219873285D01*
X176784000Y-219982142D01*
X176747714Y-220127285D01*
X176711428Y-220199857D01*
X176638857Y-220272428D01*
X176530000Y-220308714D01*
X176457428Y-220308714D01*
X176348571Y-220272428D01*
X176312285Y-220236142D01*
X176312285Y-219982142D01*
X176457428Y-219982142D01*
X175985714Y-220308714D02*
X175985714Y-219546714D01*
X175550285Y-220308714D01*
X175550285Y-219546714D01*
X175187428Y-220308714D02*
X175187428Y-219546714D01*
X175006000Y-219546714D01*
X174897142Y-219583000D01*
X174824571Y-219655571D01*
X174788285Y-219728142D01*
X174752000Y-219873285D01*
X174752000Y-219982142D01*
X174788285Y-220127285D01*
X174824571Y-220199857D01*
X174897142Y-220272428D01*
X175006000Y-220308714D01*
X175187428Y-220308714D01*
D10*
X211699666Y-221950642D02*
X211608952Y-221980880D01*
X211578714Y-222011119D01*
X211548476Y-222071595D01*
X211548476Y-222162309D01*
X211578714Y-222222785D01*
X211608952Y-222253023D01*
X211669428Y-222283261D01*
X211911333Y-222283261D01*
X211911333Y-221648261D01*
X211699666Y-221648261D01*
X211639190Y-221678500D01*
X211608952Y-221708738D01*
X211578714Y-221769214D01*
X211578714Y-221829690D01*
X211608952Y-221890166D01*
X211639190Y-221920404D01*
X211699666Y-221950642D01*
X211911333Y-221950642D01*
X210973952Y-222283261D02*
X211276333Y-222283261D01*
X211276333Y-221648261D01*
D11*
X176167142Y-217768714D02*
X176167142Y-217006714D01*
X175804285Y-217768714D02*
X175804285Y-217006714D01*
X175368857Y-217768714D01*
X175368857Y-217006714D01*
X184222571Y-219583000D02*
X184295142Y-219546714D01*
X184404000Y-219546714D01*
X184512857Y-219583000D01*
X184585428Y-219655571D01*
X184621714Y-219728142D01*
X184658000Y-219873285D01*
X184658000Y-219982142D01*
X184621714Y-220127285D01*
X184585428Y-220199857D01*
X184512857Y-220272428D01*
X184404000Y-220308714D01*
X184331428Y-220308714D01*
X184222571Y-220272428D01*
X184186285Y-220236142D01*
X184186285Y-219982142D01*
X184331428Y-219982142D01*
X183859714Y-220308714D02*
X183859714Y-219546714D01*
X183424285Y-220308714D01*
X183424285Y-219546714D01*
X183061428Y-220308714D02*
X183061428Y-219546714D01*
X182880000Y-219546714D01*
X182771142Y-219583000D01*
X182698571Y-219655571D01*
X182662285Y-219728142D01*
X182626000Y-219873285D01*
X182626000Y-219982142D01*
X182662285Y-220127285D01*
X182698571Y-220199857D01*
X182771142Y-220272428D01*
X182880000Y-220308714D01*
X183061428Y-220308714D01*
D10*
X196087738Y-231427261D02*
X196299404Y-231124880D01*
X196450595Y-231427261D02*
X196450595Y-230792261D01*
X196208690Y-230792261D01*
X196148214Y-230822500D01*
X196117976Y-230852738D01*
X196087738Y-230913214D01*
X196087738Y-231003928D01*
X196117976Y-231064404D01*
X196148214Y-231094642D01*
X196208690Y-231124880D01*
X196450595Y-231124880D01*
X195845833Y-231397023D02*
X195755119Y-231427261D01*
X195603928Y-231427261D01*
X195543452Y-231397023D01*
X195513214Y-231366785D01*
X195482976Y-231306309D01*
X195482976Y-231245833D01*
X195513214Y-231185357D01*
X195543452Y-231155119D01*
X195603928Y-231124880D01*
X195724880Y-231094642D01*
X195785357Y-231064404D01*
X195815595Y-231034166D01*
X195845833Y-230973690D01*
X195845833Y-230913214D01*
X195815595Y-230852738D01*
X195785357Y-230822500D01*
X195724880Y-230792261D01*
X195573690Y-230792261D01*
X195482976Y-230822500D01*
X195301547Y-230792261D02*
X194938690Y-230792261D01*
X195120119Y-231427261D02*
X195120119Y-230792261D01*
D11*
X184585428Y-214466714D02*
X184113714Y-214466714D01*
X184367714Y-214757000D01*
X184258857Y-214757000D01*
X184186285Y-214793285D01*
X184150000Y-214829571D01*
X184113714Y-214902142D01*
X184113714Y-215083571D01*
X184150000Y-215156142D01*
X184186285Y-215192428D01*
X184258857Y-215228714D01*
X184476571Y-215228714D01*
X184549142Y-215192428D01*
X184585428Y-215156142D01*
X183896000Y-214466714D02*
X183642000Y-215228714D01*
X183388000Y-214466714D01*
X183206571Y-214466714D02*
X182734857Y-214466714D01*
X182988857Y-214757000D01*
X182880000Y-214757000D01*
X182807428Y-214793285D01*
X182771142Y-214829571D01*
X182734857Y-214902142D01*
X182734857Y-215083571D01*
X182771142Y-215156142D01*
X182807428Y-215192428D01*
X182880000Y-215228714D01*
X183097714Y-215228714D01*
X183170285Y-215192428D01*
X183206571Y-215156142D01*
X174280285Y-223465571D02*
X174171428Y-223501857D01*
X174135142Y-223538142D01*
X174098857Y-223610714D01*
X174098857Y-223719571D01*
X174135142Y-223792142D01*
X174171428Y-223828428D01*
X174244000Y-223864714D01*
X174534285Y-223864714D01*
X174534285Y-223102714D01*
X174280285Y-223102714D01*
X174207714Y-223139000D01*
X174171428Y-223175285D01*
X174135142Y-223247857D01*
X174135142Y-223320428D01*
X174171428Y-223393000D01*
X174207714Y-223429285D01*
X174280285Y-223465571D01*
X174534285Y-223465571D01*
X173445714Y-223356714D02*
X173445714Y-223864714D01*
X173772285Y-223356714D02*
X173772285Y-223755857D01*
X173736000Y-223828428D01*
X173663428Y-223864714D01*
X173554571Y-223864714D01*
X173482000Y-223828428D01*
X173445714Y-223792142D01*
X173191714Y-223356714D02*
X172901428Y-223356714D01*
X173082857Y-223102714D02*
X173082857Y-223755857D01*
X173046571Y-223828428D01*
X172974000Y-223864714D01*
X172901428Y-223864714D01*
X172756285Y-223356714D02*
X172466000Y-223356714D01*
X172647428Y-223102714D02*
X172647428Y-223755857D01*
X172611142Y-223828428D01*
X172538571Y-223864714D01*
X172466000Y-223864714D01*
X172103142Y-223864714D02*
X172175714Y-223828428D01*
X172212000Y-223792142D01*
X172248285Y-223719571D01*
X172248285Y-223501857D01*
X172212000Y-223429285D01*
X172175714Y-223393000D01*
X172103142Y-223356714D01*
X171994285Y-223356714D01*
X171921714Y-223393000D01*
X171885428Y-223429285D01*
X171849142Y-223501857D01*
X171849142Y-223719571D01*
X171885428Y-223792142D01*
X171921714Y-223828428D01*
X171994285Y-223864714D01*
X172103142Y-223864714D01*
X171522571Y-223356714D02*
X171522571Y-223864714D01*
X171522571Y-223429285D02*
X171486285Y-223393000D01*
X171413714Y-223356714D01*
X171304857Y-223356714D01*
X171232285Y-223393000D01*
X171196000Y-223465571D01*
X171196000Y-223864714D01*
X170325142Y-223102714D02*
X169853428Y-223102714D01*
X170107428Y-223393000D01*
X169998571Y-223393000D01*
X169926000Y-223429285D01*
X169889714Y-223465571D01*
X169853428Y-223538142D01*
X169853428Y-223719571D01*
X169889714Y-223792142D01*
X169926000Y-223828428D01*
X169998571Y-223864714D01*
X170216285Y-223864714D01*
X170288857Y-223828428D01*
X170325142Y-223792142D01*
D10*
X207194190Y-221648261D02*
X206801095Y-221648261D01*
X207012761Y-221890166D01*
X206922047Y-221890166D01*
X206861571Y-221920404D01*
X206831333Y-221950642D01*
X206801095Y-222011119D01*
X206801095Y-222162309D01*
X206831333Y-222222785D01*
X206861571Y-222253023D01*
X206922047Y-222283261D01*
X207103476Y-222283261D01*
X207163952Y-222253023D01*
X207194190Y-222222785D01*
X206619666Y-221648261D02*
X206408000Y-222283261D01*
X206196333Y-221648261D01*
X206045142Y-221648261D02*
X205652047Y-221648261D01*
X205863714Y-221890166D01*
X205773000Y-221890166D01*
X205712523Y-221920404D01*
X205682285Y-221950642D01*
X205652047Y-222011119D01*
X205652047Y-222162309D01*
X205682285Y-222222785D01*
X205712523Y-222253023D01*
X205773000Y-222283261D01*
X205954428Y-222283261D01*
X206014904Y-222253023D01*
X206045142Y-222222785D01*
X203211833Y-231366785D02*
X203242071Y-231397023D01*
X203332785Y-231427261D01*
X203393261Y-231427261D01*
X203483976Y-231397023D01*
X203544452Y-231336547D01*
X203574690Y-231276071D01*
X203604928Y-231155119D01*
X203604928Y-231064404D01*
X203574690Y-230943452D01*
X203544452Y-230882976D01*
X203483976Y-230822500D01*
X203393261Y-230792261D01*
X203332785Y-230792261D01*
X203242071Y-230822500D01*
X203211833Y-230852738D01*
X202969928Y-231397023D02*
X202879214Y-231427261D01*
X202728023Y-231427261D01*
X202667547Y-231397023D01*
X202637309Y-231366785D01*
X202607071Y-231306309D01*
X202607071Y-231245833D01*
X202637309Y-231185357D01*
X202667547Y-231155119D01*
X202728023Y-231124880D01*
X202848976Y-231094642D01*
X202909452Y-231064404D01*
X202939690Y-231034166D01*
X202969928Y-230973690D01*
X202969928Y-230913214D01*
X202939690Y-230852738D01*
X202909452Y-230822500D01*
X202848976Y-230792261D01*
X202697785Y-230792261D01*
X202607071Y-230822500D01*
D11*
X182444571Y-230759000D02*
X182517142Y-230722714D01*
X182626000Y-230722714D01*
X182734857Y-230759000D01*
X182807428Y-230831571D01*
X182843714Y-230904142D01*
X182880000Y-231049285D01*
X182880000Y-231158142D01*
X182843714Y-231303285D01*
X182807428Y-231375857D01*
X182734857Y-231448428D01*
X182626000Y-231484714D01*
X182553428Y-231484714D01*
X182444571Y-231448428D01*
X182408285Y-231412142D01*
X182408285Y-231158142D01*
X182553428Y-231158142D01*
X182081714Y-231484714D02*
X182081714Y-230722714D01*
X181646285Y-231484714D01*
X181646285Y-230722714D01*
X181283428Y-231484714D02*
X181283428Y-230722714D01*
X181102000Y-230722714D01*
X180993142Y-230759000D01*
X180920571Y-230831571D01*
X180884285Y-230904142D01*
X180848000Y-231049285D01*
X180848000Y-231158142D01*
X180884285Y-231303285D01*
X180920571Y-231375857D01*
X180993142Y-231448428D01*
X181102000Y-231484714D01*
X181283428Y-231484714D01*
D10*
X201382428Y-231397023D02*
X201291714Y-231427261D01*
X201140523Y-231427261D01*
X201080047Y-231397023D01*
X201049809Y-231366785D01*
X201019571Y-231306309D01*
X201019571Y-231245833D01*
X201049809Y-231185357D01*
X201080047Y-231155119D01*
X201140523Y-231124880D01*
X201261476Y-231094642D01*
X201321952Y-231064404D01*
X201352190Y-231034166D01*
X201382428Y-230973690D01*
X201382428Y-230913214D01*
X201352190Y-230852738D01*
X201321952Y-230822500D01*
X201261476Y-230792261D01*
X201110285Y-230792261D01*
X201019571Y-230822500D01*
X200384571Y-231366785D02*
X200414809Y-231397023D01*
X200505523Y-231427261D01*
X200566000Y-231427261D01*
X200656714Y-231397023D01*
X200717190Y-231336547D01*
X200747428Y-231276071D01*
X200777666Y-231155119D01*
X200777666Y-231064404D01*
X200747428Y-230943452D01*
X200717190Y-230882976D01*
X200656714Y-230822500D01*
X200566000Y-230792261D01*
X200505523Y-230792261D01*
X200414809Y-230822500D01*
X200384571Y-230852738D01*
X200112428Y-231427261D02*
X200112428Y-230792261D01*
X199749571Y-231427261D02*
X200021714Y-231064404D01*
X199749571Y-230792261D02*
X200112428Y-231155119D01*
D11*
X181900285Y-223465571D02*
X181791428Y-223501857D01*
X181755142Y-223538142D01*
X181718857Y-223610714D01*
X181718857Y-223719571D01*
X181755142Y-223792142D01*
X181791428Y-223828428D01*
X181864000Y-223864714D01*
X182154285Y-223864714D01*
X182154285Y-223102714D01*
X181900285Y-223102714D01*
X181827714Y-223139000D01*
X181791428Y-223175285D01*
X181755142Y-223247857D01*
X181755142Y-223320428D01*
X181791428Y-223393000D01*
X181827714Y-223429285D01*
X181900285Y-223465571D01*
X182154285Y-223465571D01*
X181065714Y-223356714D02*
X181065714Y-223864714D01*
X181392285Y-223356714D02*
X181392285Y-223755857D01*
X181356000Y-223828428D01*
X181283428Y-223864714D01*
X181174571Y-223864714D01*
X181102000Y-223828428D01*
X181065714Y-223792142D01*
X180811714Y-223356714D02*
X180521428Y-223356714D01*
X180702857Y-223102714D02*
X180702857Y-223755857D01*
X180666571Y-223828428D01*
X180594000Y-223864714D01*
X180521428Y-223864714D01*
X180376285Y-223356714D02*
X180086000Y-223356714D01*
X180267428Y-223102714D02*
X180267428Y-223755857D01*
X180231142Y-223828428D01*
X180158571Y-223864714D01*
X180086000Y-223864714D01*
X179723142Y-223864714D02*
X179795714Y-223828428D01*
X179832000Y-223792142D01*
X179868285Y-223719571D01*
X179868285Y-223501857D01*
X179832000Y-223429285D01*
X179795714Y-223393000D01*
X179723142Y-223356714D01*
X179614285Y-223356714D01*
X179541714Y-223393000D01*
X179505428Y-223429285D01*
X179469142Y-223501857D01*
X179469142Y-223719571D01*
X179505428Y-223792142D01*
X179541714Y-223828428D01*
X179614285Y-223864714D01*
X179723142Y-223864714D01*
X179142571Y-223356714D02*
X179142571Y-223864714D01*
X179142571Y-223429285D02*
X179106285Y-223393000D01*
X179033714Y-223356714D01*
X178924857Y-223356714D01*
X178852285Y-223393000D01*
X178816000Y-223465571D01*
X178816000Y-223864714D01*
X177908857Y-223175285D02*
X177872571Y-223139000D01*
X177800000Y-223102714D01*
X177618571Y-223102714D01*
X177546000Y-223139000D01*
X177509714Y-223175285D01*
X177473428Y-223247857D01*
X177473428Y-223320428D01*
X177509714Y-223429285D01*
X177945142Y-223864714D01*
X177473428Y-223864714D01*
D10*
X194303690Y-231393848D02*
X194212976Y-231424086D01*
X194061785Y-231424086D01*
X194001309Y-231393848D01*
X193971071Y-231363610D01*
X193940833Y-231303134D01*
X193940833Y-231242658D01*
X193971071Y-231182182D01*
X194001309Y-231151944D01*
X194061785Y-231121705D01*
X194182738Y-231091467D01*
X194243214Y-231061229D01*
X194273452Y-231030991D01*
X194303690Y-230970515D01*
X194303690Y-230910039D01*
X194273452Y-230849563D01*
X194243214Y-230819325D01*
X194182738Y-230789086D01*
X194031547Y-230789086D01*
X193940833Y-230819325D01*
X193668690Y-231424086D02*
X193668690Y-230789086D01*
X193517500Y-230789086D01*
X193426785Y-230819325D01*
X193366309Y-230879801D01*
X193336071Y-230940277D01*
X193305833Y-231061229D01*
X193305833Y-231151944D01*
X193336071Y-231272896D01*
X193366309Y-231333372D01*
X193426785Y-231393848D01*
X193517500Y-231424086D01*
X193668690Y-231424086D01*
X193063928Y-231242658D02*
X192761547Y-231242658D01*
X193124404Y-231424086D02*
X192912738Y-230789086D01*
X192701071Y-231424086D01*
X192035833Y-230758848D02*
X192580119Y-231575277D01*
X194197857Y-232446436D02*
X194197857Y-231811436D01*
X193986190Y-232265008D01*
X193774523Y-231811436D01*
X193774523Y-232446436D01*
X193351190Y-231811436D02*
X193230238Y-231811436D01*
X193169761Y-231841675D01*
X193109285Y-231902151D01*
X193079047Y-232023103D01*
X193079047Y-232234770D01*
X193109285Y-232355722D01*
X193169761Y-232416198D01*
X193230238Y-232446436D01*
X193351190Y-232446436D01*
X193411666Y-232416198D01*
X193472142Y-232355722D01*
X193502380Y-232234770D01*
X193502380Y-232023103D01*
X193472142Y-231902151D01*
X193411666Y-231841675D01*
X193351190Y-231811436D01*
X192837142Y-232416198D02*
X192746428Y-232446436D01*
X192595238Y-232446436D01*
X192534761Y-232416198D01*
X192504523Y-232385960D01*
X192474285Y-232325484D01*
X192474285Y-232265008D01*
X192504523Y-232204532D01*
X192534761Y-232174294D01*
X192595238Y-232144055D01*
X192716190Y-232113817D01*
X192776666Y-232083579D01*
X192806904Y-232053341D01*
X192837142Y-231992865D01*
X192837142Y-231932389D01*
X192806904Y-231871913D01*
X192776666Y-231841675D01*
X192716190Y-231811436D01*
X192565000Y-231811436D01*
X192474285Y-231841675D01*
X192202142Y-232446436D02*
X192202142Y-231811436D01*
D11*
%TO.C,J2*%
X210525333Y-224496380D02*
X210525333Y-225210666D01*
X210572952Y-225353523D01*
X210668190Y-225448761D01*
X210811047Y-225496380D01*
X210906285Y-225496380D01*
X210096761Y-224591619D02*
X210049142Y-224544000D01*
X209953904Y-224496380D01*
X209715809Y-224496380D01*
X209620571Y-224544000D01*
X209572952Y-224591619D01*
X209525333Y-224686857D01*
X209525333Y-224782095D01*
X209572952Y-224924952D01*
X210144380Y-225496380D01*
X209525333Y-225496380D01*
%TO.C,U1*%
X202152380Y-178054095D02*
X202961904Y-178054095D01*
X203057142Y-178101714D01*
X203104761Y-178149333D01*
X203152380Y-178244571D01*
X203152380Y-178435047D01*
X203104761Y-178530285D01*
X203057142Y-178577904D01*
X202961904Y-178625523D01*
X202152380Y-178625523D01*
X203152380Y-179625523D02*
X203152380Y-179054095D01*
X203152380Y-179339809D02*
X202152380Y-179339809D01*
X202295238Y-179244571D01*
X202390476Y-179149333D01*
X202438095Y-179054095D01*
%TO.C,J1*%
X180673333Y-224444380D02*
X180673333Y-225158666D01*
X180720952Y-225301523D01*
X180816190Y-225396761D01*
X180959047Y-225444380D01*
X181054285Y-225444380D01*
X179673333Y-225444380D02*
X180244761Y-225444380D01*
X179959047Y-225444380D02*
X179959047Y-224444380D01*
X180054285Y-224587238D01*
X180149523Y-224682476D01*
X180244761Y-224730095D01*
%TO.C,J3*%
X213185333Y-216876380D02*
X213185333Y-217590666D01*
X213232952Y-217733523D01*
X213328190Y-217828761D01*
X213471047Y-217876380D01*
X213566285Y-217876380D01*
X212804380Y-216876380D02*
X212185333Y-216876380D01*
X212518666Y-217257333D01*
X212375809Y-217257333D01*
X212280571Y-217304952D01*
X212232952Y-217352571D01*
X212185333Y-217447809D01*
X212185333Y-217685904D01*
X212232952Y-217781142D01*
X212280571Y-217828761D01*
X212375809Y-217876380D01*
X212661523Y-217876380D01*
X212756761Y-217828761D01*
X212804380Y-217781142D01*
%TO.C,J5*%
X178387333Y-210780380D02*
X178387333Y-211494666D01*
X178434952Y-211637523D01*
X178530190Y-211732761D01*
X178673047Y-211780380D01*
X178768285Y-211780380D01*
X177434952Y-210780380D02*
X177911142Y-210780380D01*
X177958761Y-211256571D01*
X177911142Y-211208952D01*
X177815904Y-211161333D01*
X177577809Y-211161333D01*
X177482571Y-211208952D01*
X177434952Y-211256571D01*
X177387333Y-211351809D01*
X177387333Y-211589904D01*
X177434952Y-211685142D01*
X177482571Y-211732761D01*
X177577809Y-211780380D01*
X177815904Y-211780380D01*
X177911142Y-211732761D01*
X177958761Y-211685142D01*
%TO.C,J4*%
X186007333Y-210780380D02*
X186007333Y-211494666D01*
X186054952Y-211637523D01*
X186150190Y-211732761D01*
X186293047Y-211780380D01*
X186388285Y-211780380D01*
X185102571Y-211113714D02*
X185102571Y-211780380D01*
X185340666Y-210732761D02*
X185578761Y-211447047D01*
X184959714Y-211447047D01*
%TO.C,J6*%
X170767333Y-210780380D02*
X170767333Y-211494666D01*
X170814952Y-211637523D01*
X170910190Y-211732761D01*
X171053047Y-211780380D01*
X171148285Y-211780380D01*
X169862571Y-210780380D02*
X170053047Y-210780380D01*
X170148285Y-210828000D01*
X170195904Y-210875619D01*
X170291142Y-211018476D01*
X170338761Y-211208952D01*
X170338761Y-211589904D01*
X170291142Y-211685142D01*
X170243523Y-211732761D01*
X170148285Y-211780380D01*
X169957809Y-211780380D01*
X169862571Y-211732761D01*
X169814952Y-211685142D01*
X169767333Y-211589904D01*
X169767333Y-211351809D01*
X169814952Y-211256571D01*
X169862571Y-211208952D01*
X169957809Y-211161333D01*
X170148285Y-211161333D01*
X170243523Y-211208952D01*
X170291142Y-211256571D01*
X170338761Y-211351809D01*
D12*
%TO.C,J2*%
X189050000Y-228602000D02*
X189050000Y-230102000D01*
X210770000Y-230102000D02*
X188050000Y-230102000D01*
X188550000Y-227792000D02*
X188050000Y-227792000D01*
X210770000Y-226082000D02*
X210770000Y-230102000D01*
X211070000Y-230402000D02*
X208570000Y-230402000D01*
X210270000Y-226582000D02*
X188550000Y-226582000D01*
X188050000Y-230102000D02*
X188050000Y-226082000D01*
X210770000Y-228602000D02*
X209770000Y-228602000D01*
X188550000Y-226582000D02*
X188550000Y-227792000D01*
X209770000Y-228602000D02*
X209770000Y-230102000D01*
X210770000Y-227792000D02*
X210270000Y-227792000D01*
X210270000Y-227792000D02*
X210270000Y-226582000D01*
X211070000Y-227902000D02*
X211070000Y-230402000D01*
X188050000Y-226082000D02*
X210770000Y-226082000D01*
X188050000Y-228602000D02*
X189050000Y-228602000D01*
%TO.C,U1*%
X180340000Y-176276000D02*
X180340000Y-171196000D01*
X180340000Y-181356000D02*
X180340000Y-178816000D01*
X185420000Y-176276000D02*
X180340000Y-176276000D01*
X180340000Y-178816000D02*
X185420000Y-178816000D01*
X185420000Y-183896000D02*
X185420000Y-181356000D01*
X187960000Y-186436000D02*
X180340000Y-186436000D01*
X180340000Y-186436000D02*
X180340000Y-183896000D01*
X187960000Y-176276000D02*
X187960000Y-186436000D01*
X185420000Y-181356000D02*
X180340000Y-181356000D01*
X180340000Y-183896000D02*
X185420000Y-183896000D01*
X185420000Y-178816000D02*
X185420000Y-176276000D01*
X177800000Y-163576000D02*
X228600000Y-163576000D01*
X228600000Y-163576000D02*
X228600000Y-194056000D01*
X228600000Y-194056000D02*
X177800000Y-194056000D01*
X177800000Y-194056000D02*
X177800000Y-163576000D01*
%TO.C,J1*%
X184500000Y-227902000D02*
X184500000Y-230402000D01*
X183700000Y-226582000D02*
X176980000Y-226582000D01*
X184200000Y-230102000D02*
X176480000Y-230102000D01*
X176480000Y-230102000D02*
X176480000Y-226082000D01*
X177480000Y-228602000D02*
X177480000Y-230102000D01*
X184200000Y-227792000D02*
X183700000Y-227792000D01*
X176980000Y-227792000D02*
X176480000Y-227792000D01*
X184200000Y-226082000D02*
X184200000Y-230102000D01*
X176480000Y-228602000D02*
X177480000Y-228602000D01*
X184200000Y-228602000D02*
X183200000Y-228602000D01*
X184500000Y-230402000D02*
X182000000Y-230402000D01*
X183200000Y-228602000D02*
X183200000Y-230102000D01*
X183700000Y-227792000D02*
X183700000Y-226582000D01*
X176480000Y-226082000D02*
X184200000Y-226082000D01*
X176980000Y-226582000D02*
X176980000Y-227792000D01*
%TO.C,J3*%
X207678000Y-218380000D02*
X207678000Y-221040000D01*
X207678000Y-221040000D02*
X212818000Y-221040000D01*
X212818000Y-218380000D02*
X212818000Y-221040000D01*
X206408000Y-218380000D02*
X205078000Y-218380000D01*
X207678000Y-218380000D02*
X212818000Y-218380000D01*
X205078000Y-218380000D02*
X205078000Y-219710000D01*
%TO.C,J5*%
X181250000Y-222034000D02*
X181250000Y-212814000D01*
X179230000Y-212314000D02*
X179230000Y-213314000D01*
X179930000Y-222834000D02*
X177430000Y-222834000D01*
X180040000Y-222534000D02*
X180040000Y-222034000D01*
X181750000Y-222534000D02*
X177730000Y-222534000D01*
X181250000Y-212814000D02*
X180040000Y-212814000D01*
X177430000Y-222834000D02*
X177430000Y-220334000D01*
X177730000Y-222534000D02*
X177730000Y-212314000D01*
X181750000Y-212314000D02*
X181750000Y-222534000D01*
X180040000Y-222034000D02*
X181250000Y-222034000D01*
X179230000Y-222534000D02*
X179230000Y-221534000D01*
X180040000Y-212814000D02*
X180040000Y-212314000D01*
X177730000Y-212314000D02*
X181750000Y-212314000D01*
X179230000Y-213314000D02*
X177730000Y-213314000D01*
X179230000Y-221534000D02*
X177730000Y-221534000D01*
%TO.C,J4*%
X186850000Y-212314000D02*
X186850000Y-213314000D01*
X187660000Y-222034000D02*
X188870000Y-222034000D01*
X187660000Y-222534000D02*
X187660000Y-222034000D01*
X185350000Y-222534000D02*
X185350000Y-212314000D01*
X185050000Y-222834000D02*
X185050000Y-220334000D01*
X186850000Y-222534000D02*
X186850000Y-221534000D01*
X187660000Y-212814000D02*
X187660000Y-212314000D01*
X186850000Y-221534000D02*
X185350000Y-221534000D01*
X188870000Y-212814000D02*
X187660000Y-212814000D01*
X185350000Y-212314000D02*
X189370000Y-212314000D01*
X187550000Y-222834000D02*
X185050000Y-222834000D01*
X189370000Y-222534000D02*
X185350000Y-222534000D01*
X186850000Y-213314000D02*
X185350000Y-213314000D01*
X188870000Y-222034000D02*
X188870000Y-212814000D01*
X189370000Y-212314000D02*
X189370000Y-222534000D01*
%TO.C,J6*%
X174130000Y-222534000D02*
X170110000Y-222534000D01*
X173630000Y-212814000D02*
X172420000Y-212814000D01*
X171610000Y-221534000D02*
X170110000Y-221534000D01*
X169810000Y-222834000D02*
X169810000Y-220334000D01*
X172420000Y-212814000D02*
X172420000Y-212314000D01*
X172420000Y-222534000D02*
X172420000Y-222034000D01*
X170110000Y-212314000D02*
X174130000Y-212314000D01*
X171610000Y-213314000D02*
X170110000Y-213314000D01*
X172310000Y-222834000D02*
X169810000Y-222834000D01*
X171610000Y-212314000D02*
X171610000Y-213314000D01*
X174130000Y-212314000D02*
X174130000Y-222534000D01*
X173630000Y-222034000D02*
X173630000Y-212814000D01*
X171610000Y-222534000D02*
X171610000Y-221534000D01*
X170110000Y-222534000D02*
X170110000Y-212314000D01*
X172420000Y-222034000D02*
X173630000Y-222034000D01*
%TD*%
M02*
