%TF.GenerationSoftware,KiCad,Pcbnew,6.0.7*%
%TF.CreationDate,2022-11-18T13:15:14+01:00*%
%TF.ProjectId,game_board,67616d65-5f62-46f6-9172-642e6b696361,rev?*%
%TF.SameCoordinates,Original*%
%TF.FileFunction,Copper,L2,Bot*%
%TF.FilePolarity,Positive*%
%FSLAX46Y46*%
G04 Gerber Fmt 4.6, Leading zero omitted, Abs format (unit mm)*
G04 Created by KiCad (PCBNEW 6.0.7) date 2022-11-18 13:15:14*
%MOMM*%
%LPD*%
G01*
G04 APERTURE LIST*
G04 Aperture macros list*
%AMRoundRect*
0 Rectangle with rounded corners*
0 $1 Rounding radius*
0 $2 $3 $4 $5 $6 $7 $8 $9 X,Y pos of 4 corners*
0 Add a 4 corners polygon primitive as box body*
4,1,4,$2,$3,$4,$5,$6,$7,$8,$9,$2,$3,0*
0 Add four circle primitives for the rounded corners*
1,1,$1+$1,$2,$3*
1,1,$1+$1,$4,$5*
1,1,$1+$1,$6,$7*
1,1,$1+$1,$8,$9*
0 Add four rect primitives between the rounded corners*
20,1,$1+$1,$2,$3,$4,$5,0*
20,1,$1+$1,$4,$5,$6,$7,0*
20,1,$1+$1,$6,$7,$8,$9,0*
20,1,$1+$1,$8,$9,$2,$3,0*%
G04 Aperture macros list end*
%TA.AperFunction,ComponentPad*%
%ADD10RoundRect,0.250000X0.600000X0.725000X-0.600000X0.725000X-0.600000X-0.725000X0.600000X-0.725000X0*%
%TD*%
%TA.AperFunction,ComponentPad*%
%ADD11O,1.700000X1.950000*%
%TD*%
%TA.AperFunction,ComponentPad*%
%ADD12C,1.524000*%
%TD*%
%TA.AperFunction,ComponentPad*%
%ADD13RoundRect,0.250000X0.600000X0.750000X-0.600000X0.750000X-0.600000X-0.750000X0.600000X-0.750000X0*%
%TD*%
%TA.AperFunction,ComponentPad*%
%ADD14O,1.700000X2.000000*%
%TD*%
%TA.AperFunction,ComponentPad*%
%ADD15R,1.700000X1.700000*%
%TD*%
%TA.AperFunction,ComponentPad*%
%ADD16O,1.700000X1.700000*%
%TD*%
%TA.AperFunction,ComponentPad*%
%ADD17RoundRect,0.250000X0.725000X-0.600000X0.725000X0.600000X-0.725000X0.600000X-0.725000X-0.600000X0*%
%TD*%
%TA.AperFunction,ComponentPad*%
%ADD18O,1.950000X1.700000*%
%TD*%
%TA.AperFunction,ViaPad*%
%ADD19C,0.889000*%
%TD*%
%TA.AperFunction,ViaPad*%
%ADD20C,1.143000*%
%TD*%
%TA.AperFunction,Conductor*%
%ADD21C,0.406400*%
%TD*%
%TA.AperFunction,Conductor*%
%ADD22C,0.609600*%
%TD*%
G04 APERTURE END LIST*
D10*
%TO.P,J2,1,Pin_1*%
%TO.N,GND*%
X208160000Y-227792000D03*
D11*
%TO.P,J2,2,Pin_2*%
%TO.N,/LED {slash} BL*%
X205660000Y-227792000D03*
%TO.P,J2,3,Pin_3*%
%TO.N,/CS*%
X203160000Y-227792000D03*
%TO.P,J2,4,Pin_4*%
%TO.N,/SCK*%
X200660000Y-227792000D03*
%TO.P,J2,5,Pin_5*%
%TO.N,/DC*%
X198160000Y-227792000D03*
%TO.P,J2,6,Pin_6*%
%TO.N,/RST*%
X195660000Y-227792000D03*
%TO.P,J2,7,Pin_7*%
%TO.N,/MOSI*%
X193160000Y-227792000D03*
%TO.P,J2,8,Pin_8*%
%TO.N,+5V*%
X190660000Y-227792000D03*
%TD*%
D12*
%TO.P,U1,1,3V3*%
%TO.N,+3V3*%
X180340000Y-166116000D03*
%TO.P,U1,2,EN*%
%TO.N,unconnected-(U1-Pad2)*%
X182880000Y-166116000D03*
%TO.P,U1,3,IO36*%
%TO.N,unconnected-(U1-Pad3)*%
X185420000Y-166116000D03*
%TO.P,U1,4,IO39*%
%TO.N,unconnected-(U1-Pad4)*%
X187960000Y-166116000D03*
%TO.P,U1,5,IO34*%
%TO.N,unconnected-(U1-Pad5)*%
X190500000Y-166116000D03*
%TO.P,U1,6,IO35*%
%TO.N,unconnected-(U1-Pad6)*%
X193040000Y-166116000D03*
%TO.P,U1,7,IO32*%
%TO.N,/Din_BASE*%
X195580000Y-166116000D03*
%TO.P,U1,8,IO33*%
%TO.N,/Din_FIELD*%
X198120000Y-166116000D03*
%TO.P,U1,9,IO25*%
%TO.N,/Din_GOAL*%
X200660000Y-166116000D03*
%TO.P,U1,10,IO26*%
%TO.N,/Button_3*%
X203200000Y-166116000D03*
%TO.P,U1,11,IO27*%
%TO.N,/Button_2*%
X205740000Y-166116000D03*
%TO.P,U1,12,IO14*%
%TO.N,/Button_1*%
X208280000Y-166116000D03*
%TO.P,U1,13,IO12*%
%TO.N,unconnected-(U1-Pad13)*%
X210820000Y-166116000D03*
%TO.P,U1,14,GND*%
%TO.N,GND*%
X213360000Y-166116000D03*
%TO.P,U1,15,IO13*%
%TO.N,unconnected-(U1-Pad15)*%
X215900000Y-166116000D03*
%TO.P,U1,16,SD2*%
%TO.N,unconnected-(U1-Pad16)*%
X218440000Y-166116000D03*
%TO.P,U1,17,SD3*%
%TO.N,unconnected-(U1-Pad17)*%
X220980000Y-166116000D03*
%TO.P,U1,18,CMD*%
%TO.N,unconnected-(U1-Pad18)*%
X223520000Y-166116000D03*
%TO.P,U1,19,5V*%
%TO.N,+5V*%
X226060000Y-166116000D03*
%TO.P,U1,20,SCK*%
%TO.N,unconnected-(U1-Pad20)*%
X226060000Y-191516000D03*
%TO.P,U1,21,SD0*%
%TO.N,unconnected-(U1-Pad21)*%
X223520000Y-191516000D03*
%TO.P,U1,22,SDI*%
%TO.N,unconnected-(U1-Pad22)*%
X220980000Y-191516000D03*
%TO.P,U1,23,IO15*%
%TO.N,unconnected-(U1-Pad23)*%
X218440000Y-191516000D03*
%TO.P,U1,24,IO2*%
%TO.N,unconnected-(U1-Pad24)*%
X215900000Y-191516000D03*
%TO.P,U1,25,IO0*%
%TO.N,unconnected-(U1-Pad25)*%
X213360000Y-191516000D03*
%TO.P,U1,26,IO4*%
%TO.N,unconnected-(U1-Pad26)*%
X210820000Y-191516000D03*
%TO.P,U1,27,IO16*%
%TO.N,unconnected-(U1-Pad27)*%
X208280000Y-191516000D03*
%TO.P,U1,28,IO17*%
%TO.N,unconnected-(U1-Pad28)*%
X205740000Y-191516000D03*
%TO.P,U1,29,IO5*%
%TO.N,/CS*%
X203200000Y-191516000D03*
%TO.P,U1,30,IO18*%
%TO.N,/SCK*%
X200660000Y-191516000D03*
%TO.P,U1,31,IO19*%
%TO.N,/DC*%
X198120000Y-191516000D03*
%TO.P,U1,32,GND*%
%TO.N,GND*%
X195580000Y-191516000D03*
%TO.P,U1,33,IO21*%
%TO.N,/RST*%
X193040000Y-191516000D03*
%TO.P,U1,34,IO3*%
%TO.N,unconnected-(U1-Pad34)*%
X190500000Y-191516000D03*
%TO.P,U1,35,IO1*%
%TO.N,unconnected-(U1-Pad35)*%
X187960000Y-191516000D03*
%TO.P,U1,36,IO22*%
%TO.N,/BL*%
X185420000Y-191516000D03*
%TO.P,U1,37,IO23*%
%TO.N,/MOSI*%
X182880000Y-191516000D03*
%TO.P,U1,38,GND*%
%TO.N,GND*%
X180340000Y-191516000D03*
%TD*%
D13*
%TO.P,J1,1,Pin_1*%
%TO.N,GND*%
X181590000Y-227792000D03*
D14*
%TO.P,J1,2,Pin_2*%
%TO.N,+5V*%
X179090000Y-227792000D03*
%TD*%
D15*
%TO.P,J3,1,Pin_1*%
%TO.N,+3V3*%
X206408000Y-219710000D03*
D16*
%TO.P,J3,2,Pin_2*%
%TO.N,/LED {slash} BL*%
X208948000Y-219710000D03*
%TO.P,J3,3,Pin_3*%
%TO.N,/BL*%
X211488000Y-219710000D03*
%TD*%
D17*
%TO.P,J5,1,Pin_1*%
%TO.N,GND*%
X180040000Y-219924000D03*
D18*
%TO.P,J5,2,Pin_2*%
%TO.N,/Button_2*%
X180040000Y-217424000D03*
%TO.P,J5,3,Pin_3*%
%TO.N,+3V3*%
X180040000Y-214924000D03*
%TD*%
D17*
%TO.P,J4,1,Pin_1*%
%TO.N,GND*%
X187660000Y-219924000D03*
D18*
%TO.P,J4,2,Pin_2*%
%TO.N,/Button_1*%
X187660000Y-217424000D03*
%TO.P,J4,3,Pin_3*%
%TO.N,+3V3*%
X187660000Y-214924000D03*
%TD*%
D17*
%TO.P,J6,1,Pin_1*%
%TO.N,GND*%
X172420000Y-219924000D03*
D18*
%TO.P,J6,2,Pin_2*%
%TO.N,/Button_3*%
X172420000Y-217424000D03*
%TO.P,J6,3,Pin_3*%
%TO.N,+3V3*%
X172420000Y-214924000D03*
%TD*%
D19*
%TO.N,Net-(D4-Pad2)*%
X42672000Y-214884000D03*
X47244000Y-44196000D03*
%TO.N,Net-(D8-Pad2)*%
X231140000Y-28448000D03*
X42550000Y-33914000D03*
%TO.N,Net-(D12-Pad2)*%
X247396000Y-203708000D03*
X222504000Y-54356000D03*
D20*
%TO.N,+5V*%
X154940000Y-66040000D03*
X214376000Y-105664000D03*
X174752000Y-145796000D03*
X235204000Y-226060000D03*
X114808000Y-28448000D03*
X94488000Y-145796000D03*
X214376000Y-125984000D03*
X214884000Y-28496000D03*
X134620000Y-66040000D03*
X114808000Y-45720000D03*
X44196000Y-198120000D03*
X154940000Y-185928000D03*
X42267500Y-36576000D03*
X55880000Y-45720000D03*
X55880000Y-205740000D03*
X234696000Y-145796000D03*
X74676000Y-145796000D03*
X234696000Y-105664000D03*
X114808000Y-185928000D03*
X154940000Y-105664000D03*
X134620000Y-45720000D03*
X114808000Y-166116000D03*
X235204000Y-205740000D03*
X74676000Y-125984000D03*
X55372000Y-28448000D03*
X190500000Y-209296000D03*
X54864000Y-125984000D03*
X215392000Y-205740000D03*
X94488000Y-105664000D03*
X54864000Y-145796000D03*
X214376000Y-145796000D03*
X215392000Y-226060000D03*
X174752000Y-125984000D03*
X235204000Y-45720000D03*
X194564000Y-105664000D03*
X134620000Y-185928000D03*
X154940000Y-28448000D03*
X134620000Y-105664000D03*
X74676000Y-105664000D03*
X214884000Y-45720000D03*
X134620000Y-28448000D03*
X44196000Y-97028000D03*
X154940000Y-45720000D03*
X175768000Y-209296000D03*
X154940000Y-145796000D03*
X174752000Y-105664000D03*
X134620000Y-145796000D03*
X154940000Y-205740000D03*
X114808000Y-205740000D03*
X44196000Y-217932000D03*
X44196000Y-116840000D03*
X114808000Y-125984000D03*
X134620000Y-205740000D03*
X235204000Y-28448000D03*
X44196000Y-136144000D03*
X114808000Y-105664000D03*
X114808000Y-66040000D03*
X154940000Y-85852000D03*
X154940000Y-226060000D03*
X183388000Y-209296000D03*
X154940000Y-166116000D03*
X114808000Y-145796000D03*
X234696000Y-125984000D03*
X154940000Y-125984000D03*
X194564000Y-125984000D03*
X94488000Y-125984000D03*
X134620000Y-226060000D03*
X55880000Y-226060000D03*
X114808000Y-85852000D03*
X54864000Y-105664000D03*
X134620000Y-85852000D03*
X134620000Y-166116000D03*
X194564000Y-145796000D03*
X114808000Y-226060000D03*
D19*
%TO.N,/Din_BASE*%
X47752000Y-225552000D03*
%TO.N,/Din_GOAL*%
X149352000Y-208280000D03*
%TO.N,/Din_FIELD*%
X129540000Y-228346000D03*
%TO.N,+3V3*%
X206235800Y-197624200D03*
D20*
X187452000Y-197612000D03*
D19*
%TO.N,/BL*%
X205392000Y-196596000D03*
%TO.N,/Button_1*%
X174244000Y-177292000D03*
%TO.N,/Button_2*%
X173228000Y-176784000D03*
%TO.N,/Button_3*%
X172720000Y-175805600D03*
%TD*%
D21*
%TO.N,Net-(D4-Pad2)*%
X45212000Y-44196000D02*
X47244000Y-44196000D01*
X42672000Y-214884000D02*
X42672000Y-46736000D01*
X42672000Y-46736000D02*
X45212000Y-44196000D01*
%TO.N,Net-(D8-Pad2)*%
X231140000Y-32004000D02*
X231140000Y-28448000D01*
X229230000Y-33914000D02*
X231140000Y-32004000D01*
X42550000Y-33914000D02*
X229230000Y-33914000D01*
%TO.N,Net-(D12-Pad2)*%
X240284000Y-199136000D02*
X242824000Y-201676000D01*
X222504000Y-54356000D02*
X233172000Y-54356000D01*
X242824000Y-201676000D02*
X245364000Y-201676000D01*
X245364000Y-201676000D02*
X247396000Y-203708000D01*
X233172000Y-54356000D02*
X240284000Y-61468000D01*
X240284000Y-61468000D02*
X240284000Y-199136000D01*
%TO.N,/Din_BASE*%
X47752000Y-177292000D02*
X47752000Y-225552000D01*
X194056000Y-173736000D02*
X51308000Y-173736000D01*
X195580000Y-172212000D02*
X194056000Y-173736000D01*
X51308000Y-173736000D02*
X47752000Y-177292000D01*
X195580000Y-166116000D02*
X195580000Y-172212000D01*
%TO.N,/Din_GOAL*%
X197916800Y-174955200D02*
X151688800Y-174955200D01*
X200660000Y-166116000D02*
X200660000Y-172212000D01*
X149352000Y-177292000D02*
X149352000Y-208280000D01*
X200660000Y-172212000D02*
X197916800Y-174955200D01*
X151688800Y-174955200D02*
X149352000Y-177292000D01*
%TO.N,/Din_FIELD*%
X195986400Y-174345600D02*
X132613400Y-174345600D01*
X129540000Y-177419000D02*
X129540000Y-228346000D01*
X198120000Y-172212000D02*
X195986400Y-174345600D01*
X198120000Y-166116000D02*
X198120000Y-172212000D01*
X132613400Y-174345600D02*
X129540000Y-177419000D01*
D22*
%TO.N,+3V3*%
X180040000Y-214924000D02*
X187660000Y-214924000D01*
X187370200Y-197624200D02*
X187358000Y-197612000D01*
X172420000Y-214924000D02*
X180040000Y-214924000D01*
X206235800Y-197624200D02*
X187370200Y-197624200D01*
X187660000Y-214924000D02*
X187660000Y-197914000D01*
X187660000Y-197914000D02*
X187358000Y-197612000D01*
D21*
%TO.N,/BL*%
X187960000Y-196596000D02*
X185420000Y-194056000D01*
X185420000Y-194056000D02*
X185420000Y-191516000D01*
X205392000Y-196596000D02*
X187960000Y-196596000D01*
%TO.N,/Button_1*%
X174244000Y-177292000D02*
X174511200Y-177024800D01*
X205499200Y-177024800D02*
X208280000Y-174244000D01*
X208280000Y-174244000D02*
X208280000Y-166116000D01*
X174511200Y-177024800D02*
X205499200Y-177024800D01*
%TO.N,/Button_2*%
X173228000Y-176784000D02*
X173596800Y-176415200D01*
X205740000Y-174244000D02*
X205740000Y-166116000D01*
X203568800Y-176415200D02*
X205740000Y-174244000D01*
X173596800Y-176415200D02*
X203568800Y-176415200D01*
%TO.N,/Button_3*%
X172662500Y-175805600D02*
X201638400Y-175805600D01*
X201638400Y-175805600D02*
X203200000Y-174244000D01*
X203200000Y-174244000D02*
X203200000Y-166116000D01*
%TD*%
%TA.AperFunction,Conductor*%
%TO.N,+5V*%
G36*
X249369621Y-25420502D02*
G01*
X249416114Y-25474158D01*
X249427500Y-25526500D01*
X249427500Y-234061500D01*
X249407498Y-234129621D01*
X249353842Y-234176114D01*
X249301500Y-234187500D01*
X40258500Y-234187500D01*
X40190379Y-234167498D01*
X40143886Y-234113842D01*
X40132500Y-234061500D01*
X40132500Y-225538630D01*
X46794482Y-225538630D01*
X46810121Y-225724867D01*
X46861636Y-225904520D01*
X46947064Y-226070746D01*
X46950887Y-226075570D01*
X46950890Y-226075574D01*
X47056170Y-226208402D01*
X47063152Y-226217212D01*
X47067846Y-226221207D01*
X47199365Y-226333139D01*
X47205478Y-226338342D01*
X47368621Y-226429519D01*
X47546367Y-226487272D01*
X47731945Y-226509401D01*
X47738080Y-226508929D01*
X47738082Y-226508929D01*
X47794119Y-226504617D01*
X47918287Y-226495063D01*
X48098296Y-226444804D01*
X48103785Y-226442031D01*
X48103791Y-226442029D01*
X48182683Y-226402177D01*
X48265114Y-226360538D01*
X48273835Y-226353725D01*
X48318020Y-226319203D01*
X48412387Y-226245475D01*
X48416413Y-226240811D01*
X48416416Y-226240808D01*
X48530480Y-226108663D01*
X48534507Y-226103998D01*
X48626821Y-225941495D01*
X48641091Y-225898600D01*
X48683867Y-225770009D01*
X48685814Y-225764157D01*
X48691553Y-225718727D01*
X48708796Y-225582241D01*
X48708797Y-225582232D01*
X48709238Y-225578738D01*
X48709611Y-225552000D01*
X48691373Y-225365999D01*
X48687419Y-225352901D01*
X48639136Y-225192983D01*
X48637355Y-225187083D01*
X48549615Y-225022066D01*
X48492057Y-224951493D01*
X48464503Y-224886061D01*
X48463700Y-224871857D01*
X48463700Y-218572703D01*
X51230743Y-218572703D01*
X51268268Y-218857734D01*
X51344129Y-219135036D01*
X51456923Y-219399476D01*
X51604561Y-219646161D01*
X51784313Y-219870528D01*
X51992851Y-220068423D01*
X52226317Y-220236186D01*
X52230112Y-220238195D01*
X52230113Y-220238196D01*
X52251869Y-220249715D01*
X52480392Y-220370712D01*
X52750373Y-220469511D01*
X53031264Y-220530755D01*
X53059841Y-220533004D01*
X53254282Y-220548307D01*
X53254291Y-220548307D01*
X53256739Y-220548500D01*
X53412271Y-220548500D01*
X53414407Y-220548354D01*
X53414418Y-220548354D01*
X53622548Y-220534165D01*
X53622554Y-220534164D01*
X53626825Y-220533873D01*
X53631020Y-220533004D01*
X53631022Y-220533004D01*
X53767583Y-220504724D01*
X53908342Y-220475574D01*
X54179343Y-220379607D01*
X54434812Y-220247750D01*
X54438313Y-220245289D01*
X54438317Y-220245287D01*
X54552418Y-220165095D01*
X54670023Y-220082441D01*
X54760818Y-219998069D01*
X54877479Y-219889661D01*
X54877481Y-219889658D01*
X54880622Y-219886740D01*
X55062713Y-219664268D01*
X55212927Y-219419142D01*
X55276816Y-219273600D01*
X55326757Y-219159830D01*
X55328483Y-219155898D01*
X55407244Y-218879406D01*
X55447751Y-218594784D01*
X55447818Y-218582148D01*
X55449235Y-218311583D01*
X55449235Y-218311576D01*
X55449257Y-218307297D01*
X55438728Y-218227317D01*
X55428119Y-218146740D01*
X55411732Y-218022266D01*
X55335871Y-217744964D01*
X55267566Y-217584827D01*
X55224763Y-217484476D01*
X55224761Y-217484472D01*
X55223077Y-217480524D01*
X55075439Y-217233839D01*
X54895687Y-217009472D01*
X54687149Y-216811577D01*
X54453683Y-216643814D01*
X54431843Y-216632250D01*
X54402385Y-216616653D01*
X54199608Y-216509288D01*
X53929627Y-216410489D01*
X53648736Y-216349245D01*
X53617685Y-216346801D01*
X53425718Y-216331693D01*
X53425709Y-216331693D01*
X53423261Y-216331500D01*
X53267729Y-216331500D01*
X53265593Y-216331646D01*
X53265582Y-216331646D01*
X53057452Y-216345835D01*
X53057446Y-216345836D01*
X53053175Y-216346127D01*
X53048980Y-216346996D01*
X53048978Y-216346996D01*
X52993616Y-216358461D01*
X52771658Y-216404426D01*
X52500657Y-216500393D01*
X52245188Y-216632250D01*
X52241687Y-216634711D01*
X52241683Y-216634713D01*
X52231594Y-216641804D01*
X52009977Y-216797559D01*
X51799378Y-216993260D01*
X51617287Y-217215732D01*
X51467073Y-217460858D01*
X51351517Y-217724102D01*
X51272756Y-218000594D01*
X51232249Y-218285216D01*
X51232227Y-218289505D01*
X51232226Y-218289512D01*
X51230808Y-218560299D01*
X51230743Y-218572703D01*
X48463700Y-218572703D01*
X48463700Y-177638985D01*
X48483702Y-177570864D01*
X48500605Y-177549890D01*
X51565891Y-174484605D01*
X51628203Y-174450579D01*
X51654986Y-174447700D01*
X131200615Y-174447700D01*
X131268736Y-174467702D01*
X131315229Y-174521358D01*
X131325333Y-174591632D01*
X131295839Y-174656212D01*
X131289711Y-174662794D01*
X130160274Y-175792230D01*
X129057284Y-176895220D01*
X129051018Y-176901074D01*
X129018388Y-176929539D01*
X129007219Y-176939282D01*
X128992450Y-176960297D01*
X128970309Y-176991801D01*
X128966375Y-176997098D01*
X128931454Y-177041634D01*
X128931450Y-177041640D01*
X128926767Y-177047613D01*
X128923642Y-177054534D01*
X128922428Y-177056539D01*
X128913659Y-177071912D01*
X128912541Y-177073996D01*
X128908170Y-177080216D01*
X128905410Y-177087295D01*
X128905409Y-177087297D01*
X128884852Y-177140024D01*
X128882300Y-177146097D01*
X128855880Y-177204609D01*
X128854496Y-177212077D01*
X128853788Y-177214336D01*
X128848951Y-177231318D01*
X128848358Y-177233627D01*
X128845597Y-177240708D01*
X128844606Y-177248237D01*
X128844605Y-177248240D01*
X128837217Y-177304356D01*
X128836185Y-177310870D01*
X128825872Y-177366515D01*
X128824488Y-177373983D01*
X128824925Y-177381563D01*
X128824925Y-177381564D01*
X128828091Y-177436470D01*
X128828300Y-177443723D01*
X128828300Y-227665642D01*
X128808298Y-227733763D01*
X128798822Y-227746633D01*
X128749862Y-227804981D01*
X128746899Y-227810370D01*
X128746896Y-227810375D01*
X128673509Y-227943868D01*
X128659826Y-227968757D01*
X128603315Y-228146901D01*
X128582482Y-228332630D01*
X128582998Y-228338774D01*
X128587261Y-228389535D01*
X128598121Y-228518867D01*
X128649636Y-228698520D01*
X128671392Y-228740852D01*
X128731490Y-228857791D01*
X128735064Y-228864746D01*
X128738887Y-228869570D01*
X128738890Y-228869574D01*
X128795754Y-228941318D01*
X128851152Y-229011212D01*
X128855846Y-229015207D01*
X128974635Y-229116305D01*
X128993478Y-229132342D01*
X129156621Y-229223519D01*
X129334367Y-229281272D01*
X129519945Y-229303401D01*
X129526080Y-229302929D01*
X129526082Y-229302929D01*
X129582119Y-229298617D01*
X129706287Y-229289063D01*
X129886296Y-229238804D01*
X129891785Y-229236031D01*
X129891791Y-229236029D01*
X129969159Y-229196947D01*
X130053114Y-229154538D01*
X130065136Y-229145146D01*
X130109741Y-229110296D01*
X130200387Y-229039475D01*
X130204413Y-229034811D01*
X130204416Y-229034808D01*
X130318480Y-228902663D01*
X130322507Y-228897998D01*
X130414821Y-228735495D01*
X130425502Y-228703389D01*
X130457239Y-228607982D01*
X130473814Y-228558157D01*
X130493848Y-228399575D01*
X130496796Y-228376241D01*
X130496797Y-228376232D01*
X130497238Y-228372738D01*
X130497611Y-228346000D01*
X130479373Y-228159999D01*
X130475419Y-228146901D01*
X130449844Y-228062193D01*
X177737289Y-228062193D01*
X177746124Y-228166325D01*
X177747914Y-228176797D01*
X177803130Y-228389535D01*
X177806665Y-228399575D01*
X177896937Y-228599970D01*
X177902106Y-228609256D01*
X178024850Y-228791575D01*
X178031519Y-228799870D01*
X178183228Y-228958900D01*
X178191186Y-228965941D01*
X178367525Y-229097141D01*
X178376562Y-229102745D01*
X178572484Y-229202357D01*
X178582335Y-229206357D01*
X178792240Y-229271534D01*
X178802624Y-229273817D01*
X178818043Y-229275861D01*
X178832207Y-229273665D01*
X178836000Y-229260478D01*
X178836000Y-229258192D01*
X179344000Y-229258192D01*
X179347973Y-229271723D01*
X179358580Y-229273248D01*
X179476421Y-229248523D01*
X179486617Y-229245463D01*
X179691029Y-229164737D01*
X179700561Y-229160006D01*
X179888462Y-229045984D01*
X179897052Y-229039720D01*
X180063052Y-228895673D01*
X180070470Y-228888044D01*
X180096391Y-228856431D01*
X180155051Y-228816436D01*
X180226021Y-228814504D01*
X180286770Y-228851248D01*
X180300969Y-228870017D01*
X180391522Y-229016348D01*
X180516697Y-229141305D01*
X180522927Y-229145145D01*
X180522928Y-229145146D01*
X180660090Y-229229694D01*
X180667262Y-229234115D01*
X180713068Y-229249308D01*
X180828611Y-229287632D01*
X180828613Y-229287632D01*
X180835139Y-229289797D01*
X180841975Y-229290497D01*
X180841978Y-229290498D01*
X180885031Y-229294909D01*
X180939600Y-229300500D01*
X182240400Y-229300500D01*
X182243646Y-229300163D01*
X182243650Y-229300163D01*
X182339308Y-229290238D01*
X182339312Y-229290237D01*
X182346166Y-229289526D01*
X182352702Y-229287345D01*
X182352704Y-229287345D01*
X182498198Y-229238804D01*
X182513946Y-229233550D01*
X182664348Y-229140478D01*
X182789305Y-229015303D01*
X182794805Y-229006381D01*
X182878275Y-228870968D01*
X182878276Y-228870966D01*
X182882115Y-228864738D01*
X182937797Y-228696861D01*
X182938578Y-228689245D01*
X182945614Y-228620566D01*
X182948500Y-228592400D01*
X182948500Y-228062193D01*
X189309410Y-228062193D01*
X189316124Y-228141325D01*
X189317914Y-228151797D01*
X189373130Y-228364535D01*
X189376665Y-228374575D01*
X189466937Y-228574970D01*
X189472106Y-228584256D01*
X189594850Y-228766575D01*
X189601519Y-228774870D01*
X189753228Y-228933900D01*
X189761186Y-228940941D01*
X189937525Y-229072141D01*
X189946562Y-229077745D01*
X190142484Y-229177357D01*
X190152335Y-229181357D01*
X190362240Y-229246534D01*
X190372624Y-229248817D01*
X190388043Y-229250861D01*
X190402207Y-229248665D01*
X190406000Y-229235478D01*
X190406000Y-229233192D01*
X190914000Y-229233192D01*
X190917973Y-229246723D01*
X190928580Y-229248248D01*
X191046421Y-229223523D01*
X191056617Y-229220463D01*
X191261029Y-229139737D01*
X191270561Y-229135006D01*
X191458462Y-229020984D01*
X191467052Y-229014720D01*
X191633052Y-228870673D01*
X191640472Y-228863042D01*
X191779826Y-228693089D01*
X191785848Y-228684326D01*
X191801238Y-228657289D01*
X191852320Y-228607982D01*
X191921951Y-228594120D01*
X191988022Y-228620103D01*
X192015261Y-228649253D01*
X192048430Y-228698520D01*
X192097441Y-228771319D01*
X192101120Y-228775176D01*
X192101122Y-228775178D01*
X192162710Y-228839738D01*
X192256576Y-228938135D01*
X192441542Y-229075754D01*
X192446293Y-229078170D01*
X192446297Y-229078172D01*
X192483607Y-229097141D01*
X192647051Y-229180240D01*
X192652145Y-229181822D01*
X192652148Y-229181823D01*
X192835656Y-229238804D01*
X192867227Y-229248607D01*
X192872516Y-229249308D01*
X193090489Y-229278198D01*
X193090494Y-229278198D01*
X193095774Y-229278898D01*
X193101103Y-229278698D01*
X193101105Y-229278698D01*
X193210966Y-229274573D01*
X193326158Y-229270249D01*
X193348802Y-229265498D01*
X193468138Y-229240459D01*
X193551791Y-229222907D01*
X193556750Y-229220949D01*
X193556752Y-229220948D01*
X193761256Y-229140185D01*
X193761258Y-229140184D01*
X193766221Y-229138224D01*
X193770961Y-229135348D01*
X193958757Y-229021390D01*
X193958756Y-229021390D01*
X193963317Y-229018623D01*
X193967815Y-229014720D01*
X194133412Y-228871023D01*
X194133414Y-228871021D01*
X194137445Y-228867523D01*
X194201048Y-228789954D01*
X194280240Y-228693373D01*
X194280244Y-228693367D01*
X194283624Y-228689245D01*
X194301552Y-228657750D01*
X194352632Y-228608445D01*
X194422262Y-228594583D01*
X194488333Y-228620566D01*
X194515573Y-228649716D01*
X194520983Y-228657752D01*
X194597441Y-228771319D01*
X194601120Y-228775176D01*
X194601122Y-228775178D01*
X194662710Y-228839738D01*
X194756576Y-228938135D01*
X194941542Y-229075754D01*
X194946293Y-229078170D01*
X194946297Y-229078172D01*
X194983607Y-229097141D01*
X195147051Y-229180240D01*
X195152145Y-229181822D01*
X195152148Y-229181823D01*
X195335656Y-229238804D01*
X195367227Y-229248607D01*
X195372516Y-229249308D01*
X195590489Y-229278198D01*
X195590494Y-229278198D01*
X195595774Y-229278898D01*
X195601103Y-229278698D01*
X195601105Y-229278698D01*
X195710966Y-229274573D01*
X195826158Y-229270249D01*
X195848802Y-229265498D01*
X195968138Y-229240459D01*
X196051791Y-229222907D01*
X196056750Y-229220949D01*
X196056752Y-229220948D01*
X196261256Y-229140185D01*
X196261258Y-229140184D01*
X196266221Y-229138224D01*
X196270961Y-229135348D01*
X196458757Y-229021390D01*
X196458756Y-229021390D01*
X196463317Y-229018623D01*
X196467815Y-229014720D01*
X196633412Y-228871023D01*
X196633414Y-228871021D01*
X196637445Y-228867523D01*
X196701048Y-228789954D01*
X196780240Y-228693373D01*
X196780244Y-228693367D01*
X196783624Y-228689245D01*
X196801552Y-228657750D01*
X196852632Y-228608445D01*
X196922262Y-228594583D01*
X196988333Y-228620566D01*
X197015573Y-228649716D01*
X197020983Y-228657752D01*
X197097441Y-228771319D01*
X197101120Y-228775176D01*
X197101122Y-228775178D01*
X197162710Y-228839738D01*
X197256576Y-228938135D01*
X197441542Y-229075754D01*
X197446293Y-229078170D01*
X197446297Y-229078172D01*
X197483607Y-229097141D01*
X197647051Y-229180240D01*
X197652145Y-229181822D01*
X197652148Y-229181823D01*
X197835656Y-229238804D01*
X197867227Y-229248607D01*
X197872516Y-229249308D01*
X198090489Y-229278198D01*
X198090494Y-229278198D01*
X198095774Y-229278898D01*
X198101103Y-229278698D01*
X198101105Y-229278698D01*
X198210966Y-229274573D01*
X198326158Y-229270249D01*
X198348802Y-229265498D01*
X198468138Y-229240459D01*
X198551791Y-229222907D01*
X198556750Y-229220949D01*
X198556752Y-229220948D01*
X198761256Y-229140185D01*
X198761258Y-229140184D01*
X198766221Y-229138224D01*
X198770961Y-229135348D01*
X198958757Y-229021390D01*
X198958756Y-229021390D01*
X198963317Y-229018623D01*
X198967815Y-229014720D01*
X199133412Y-228871023D01*
X199133414Y-228871021D01*
X199137445Y-228867523D01*
X199201048Y-228789954D01*
X199280240Y-228693373D01*
X199280244Y-228693367D01*
X199283624Y-228689245D01*
X199301552Y-228657750D01*
X199352632Y-228608445D01*
X199422262Y-228594583D01*
X199488333Y-228620566D01*
X199515573Y-228649716D01*
X199520983Y-228657752D01*
X199597441Y-228771319D01*
X199601120Y-228775176D01*
X199601122Y-228775178D01*
X199662710Y-228839738D01*
X199756576Y-228938135D01*
X199941542Y-229075754D01*
X199946293Y-229078170D01*
X199946297Y-229078172D01*
X199983607Y-229097141D01*
X200147051Y-229180240D01*
X200152145Y-229181822D01*
X200152148Y-229181823D01*
X200335656Y-229238804D01*
X200367227Y-229248607D01*
X200372516Y-229249308D01*
X200590489Y-229278198D01*
X200590494Y-229278198D01*
X200595774Y-229278898D01*
X200601103Y-229278698D01*
X200601105Y-229278698D01*
X200710966Y-229274573D01*
X200826158Y-229270249D01*
X200848802Y-229265498D01*
X200968138Y-229240459D01*
X201051791Y-229222907D01*
X201056750Y-229220949D01*
X201056752Y-229220948D01*
X201261256Y-229140185D01*
X201261258Y-229140184D01*
X201266221Y-229138224D01*
X201270961Y-229135348D01*
X201458757Y-229021390D01*
X201458756Y-229021390D01*
X201463317Y-229018623D01*
X201467815Y-229014720D01*
X201633412Y-228871023D01*
X201633414Y-228871021D01*
X201637445Y-228867523D01*
X201701048Y-228789954D01*
X201780240Y-228693373D01*
X201780244Y-228693367D01*
X201783624Y-228689245D01*
X201801552Y-228657750D01*
X201852632Y-228608445D01*
X201922262Y-228594583D01*
X201988333Y-228620566D01*
X202015573Y-228649716D01*
X202020983Y-228657752D01*
X202097441Y-228771319D01*
X202101120Y-228775176D01*
X202101122Y-228775178D01*
X202162710Y-228839738D01*
X202256576Y-228938135D01*
X202441542Y-229075754D01*
X202446293Y-229078170D01*
X202446297Y-229078172D01*
X202483607Y-229097141D01*
X202647051Y-229180240D01*
X202652145Y-229181822D01*
X202652148Y-229181823D01*
X202835656Y-229238804D01*
X202867227Y-229248607D01*
X202872516Y-229249308D01*
X203090489Y-229278198D01*
X203090494Y-229278198D01*
X203095774Y-229278898D01*
X203101103Y-229278698D01*
X203101105Y-229278698D01*
X203210966Y-229274573D01*
X203326158Y-229270249D01*
X203348802Y-229265498D01*
X203468138Y-229240459D01*
X203551791Y-229222907D01*
X203556750Y-229220949D01*
X203556752Y-229220948D01*
X203761256Y-229140185D01*
X203761258Y-229140184D01*
X203766221Y-229138224D01*
X203770961Y-229135348D01*
X203958757Y-229021390D01*
X203958756Y-229021390D01*
X203963317Y-229018623D01*
X203967815Y-229014720D01*
X204133412Y-228871023D01*
X204133414Y-228871021D01*
X204137445Y-228867523D01*
X204201048Y-228789954D01*
X204280240Y-228693373D01*
X204280244Y-228693367D01*
X204283624Y-228689245D01*
X204301552Y-228657750D01*
X204352632Y-228608445D01*
X204422262Y-228594583D01*
X204488333Y-228620566D01*
X204515573Y-228649716D01*
X204520983Y-228657752D01*
X204597441Y-228771319D01*
X204601120Y-228775176D01*
X204601122Y-228775178D01*
X204662710Y-228839738D01*
X204756576Y-228938135D01*
X204941542Y-229075754D01*
X204946293Y-229078170D01*
X204946297Y-229078172D01*
X204983607Y-229097141D01*
X205147051Y-229180240D01*
X205152145Y-229181822D01*
X205152148Y-229181823D01*
X205335656Y-229238804D01*
X205367227Y-229248607D01*
X205372516Y-229249308D01*
X205590489Y-229278198D01*
X205590494Y-229278198D01*
X205595774Y-229278898D01*
X205601103Y-229278698D01*
X205601105Y-229278698D01*
X205710966Y-229274573D01*
X205826158Y-229270249D01*
X205848802Y-229265498D01*
X205968138Y-229240459D01*
X206051791Y-229222907D01*
X206056750Y-229220949D01*
X206056752Y-229220948D01*
X206261256Y-229140185D01*
X206261258Y-229140184D01*
X206266221Y-229138224D01*
X206270961Y-229135348D01*
X206458757Y-229021390D01*
X206458756Y-229021390D01*
X206463317Y-229018623D01*
X206467815Y-229014720D01*
X206633412Y-228871023D01*
X206633414Y-228871021D01*
X206637445Y-228867523D01*
X206666670Y-228831880D01*
X206725329Y-228791886D01*
X206796299Y-228789954D01*
X206857048Y-228826698D01*
X206871248Y-228845468D01*
X206887028Y-228870968D01*
X206961522Y-228991348D01*
X207086697Y-229116305D01*
X207092927Y-229120145D01*
X207092928Y-229120146D01*
X207230090Y-229204694D01*
X207237262Y-229209115D01*
X207299306Y-229229694D01*
X207398611Y-229262632D01*
X207398613Y-229262632D01*
X207405139Y-229264797D01*
X207411975Y-229265497D01*
X207411978Y-229265498D01*
X207447663Y-229269154D01*
X207509600Y-229275500D01*
X208810400Y-229275500D01*
X208813646Y-229275163D01*
X208813650Y-229275163D01*
X208909308Y-229265238D01*
X208909312Y-229265237D01*
X208916166Y-229264526D01*
X208922702Y-229262345D01*
X208922704Y-229262345D01*
X209054806Y-229218272D01*
X209083946Y-229208550D01*
X209234348Y-229115478D01*
X209359305Y-228990303D01*
X209391462Y-228938135D01*
X209448275Y-228845968D01*
X209448276Y-228845966D01*
X209452115Y-228839738D01*
X209502031Y-228689245D01*
X209505632Y-228678389D01*
X209505632Y-228678387D01*
X209507797Y-228671861D01*
X209510114Y-228649253D01*
X209514211Y-228609256D01*
X209518500Y-228567400D01*
X209518500Y-227016600D01*
X209514292Y-226976041D01*
X209508238Y-226917692D01*
X209508237Y-226917688D01*
X209507526Y-226910834D01*
X209501474Y-226892692D01*
X209453868Y-226750002D01*
X209451550Y-226743054D01*
X209358478Y-226592652D01*
X209233303Y-226467695D01*
X209202494Y-226448704D01*
X209088968Y-226378725D01*
X209088966Y-226378724D01*
X209082738Y-226374885D01*
X209000419Y-226347581D01*
X208921389Y-226321368D01*
X208921387Y-226321368D01*
X208914861Y-226319203D01*
X208908025Y-226318503D01*
X208908022Y-226318502D01*
X208864969Y-226314091D01*
X208810400Y-226308500D01*
X207509600Y-226308500D01*
X207506354Y-226308837D01*
X207506350Y-226308837D01*
X207410692Y-226318762D01*
X207410688Y-226318763D01*
X207403834Y-226319474D01*
X207397298Y-226321655D01*
X207397296Y-226321655D01*
X207265194Y-226365728D01*
X207236054Y-226375450D01*
X207085652Y-226468522D01*
X206960695Y-226593697D01*
X206956855Y-226599927D01*
X206956854Y-226599928D01*
X206934843Y-226635637D01*
X206873203Y-226735636D01*
X206870920Y-226739339D01*
X206818148Y-226786832D01*
X206748076Y-226798256D01*
X206682952Y-226769982D01*
X206672490Y-226760195D01*
X206567103Y-226649722D01*
X206563424Y-226645865D01*
X206378458Y-226508246D01*
X206373707Y-226505830D01*
X206373703Y-226505828D01*
X206255588Y-226445776D01*
X206172949Y-226403760D01*
X206167855Y-226402178D01*
X206167852Y-226402177D01*
X205957871Y-226336976D01*
X205952773Y-226335393D01*
X205944896Y-226334349D01*
X205729511Y-226305802D01*
X205729506Y-226305802D01*
X205724226Y-226305102D01*
X205718897Y-226305302D01*
X205718895Y-226305302D01*
X205609034Y-226309427D01*
X205493842Y-226313751D01*
X205488623Y-226314846D01*
X205466566Y-226319474D01*
X205268209Y-226361093D01*
X205263250Y-226363051D01*
X205263248Y-226363052D01*
X205058744Y-226443815D01*
X205058742Y-226443816D01*
X205053779Y-226445776D01*
X205049220Y-226448543D01*
X205049217Y-226448544D01*
X204954113Y-226506255D01*
X204856683Y-226565377D01*
X204852653Y-226568874D01*
X204759484Y-226649722D01*
X204682555Y-226716477D01*
X204663809Y-226739339D01*
X204539760Y-226890627D01*
X204539756Y-226890633D01*
X204536376Y-226894755D01*
X204518448Y-226926250D01*
X204467368Y-226975555D01*
X204397738Y-226989417D01*
X204331667Y-226963434D01*
X204304427Y-226934284D01*
X204277814Y-226894755D01*
X204222559Y-226812681D01*
X204063424Y-226645865D01*
X203878458Y-226508246D01*
X203873707Y-226505830D01*
X203873703Y-226505828D01*
X203755588Y-226445776D01*
X203672949Y-226403760D01*
X203667855Y-226402178D01*
X203667852Y-226402177D01*
X203457871Y-226336976D01*
X203452773Y-226335393D01*
X203444896Y-226334349D01*
X203229511Y-226305802D01*
X203229506Y-226305802D01*
X203224226Y-226305102D01*
X203218897Y-226305302D01*
X203218895Y-226305302D01*
X203109034Y-226309427D01*
X202993842Y-226313751D01*
X202988623Y-226314846D01*
X202966566Y-226319474D01*
X202768209Y-226361093D01*
X202763250Y-226363051D01*
X202763248Y-226363052D01*
X202558744Y-226443815D01*
X202558742Y-226443816D01*
X202553779Y-226445776D01*
X202549220Y-226448543D01*
X202549217Y-226448544D01*
X202454113Y-226506255D01*
X202356683Y-226565377D01*
X202352653Y-226568874D01*
X202259484Y-226649722D01*
X202182555Y-226716477D01*
X202163809Y-226739339D01*
X202039760Y-226890627D01*
X202039756Y-226890633D01*
X202036376Y-226894755D01*
X202018448Y-226926250D01*
X201967368Y-226975555D01*
X201897738Y-226989417D01*
X201831667Y-226963434D01*
X201804427Y-226934284D01*
X201777814Y-226894755D01*
X201722559Y-226812681D01*
X201563424Y-226645865D01*
X201378458Y-226508246D01*
X201373707Y-226505830D01*
X201373703Y-226505828D01*
X201255588Y-226445776D01*
X201172949Y-226403760D01*
X201167855Y-226402178D01*
X201167852Y-226402177D01*
X200957871Y-226336976D01*
X200952773Y-226335393D01*
X200944896Y-226334349D01*
X200729511Y-226305802D01*
X200729506Y-226305802D01*
X200724226Y-226305102D01*
X200718897Y-226305302D01*
X200718895Y-226305302D01*
X200609034Y-226309427D01*
X200493842Y-226313751D01*
X200488623Y-226314846D01*
X200466566Y-226319474D01*
X200268209Y-226361093D01*
X200263250Y-226363051D01*
X200263248Y-226363052D01*
X200058744Y-226443815D01*
X200058742Y-226443816D01*
X200053779Y-226445776D01*
X200049220Y-226448543D01*
X200049217Y-226448544D01*
X199954113Y-226506255D01*
X199856683Y-226565377D01*
X199852653Y-226568874D01*
X199759484Y-226649722D01*
X199682555Y-226716477D01*
X199663809Y-226739339D01*
X199539760Y-226890627D01*
X199539756Y-226890633D01*
X199536376Y-226894755D01*
X199518448Y-226926250D01*
X199467368Y-226975555D01*
X199397738Y-226989417D01*
X199331667Y-226963434D01*
X199304427Y-226934284D01*
X199277814Y-226894755D01*
X199222559Y-226812681D01*
X199063424Y-226645865D01*
X198878458Y-226508246D01*
X198873707Y-226505830D01*
X198873703Y-226505828D01*
X198755588Y-226445776D01*
X198672949Y-226403760D01*
X198667855Y-226402178D01*
X198667852Y-226402177D01*
X198457871Y-226336976D01*
X198452773Y-226335393D01*
X198444896Y-226334349D01*
X198229511Y-226305802D01*
X198229506Y-226305802D01*
X198224226Y-226305102D01*
X198218897Y-226305302D01*
X198218895Y-226305302D01*
X198109034Y-226309427D01*
X197993842Y-226313751D01*
X197988623Y-226314846D01*
X197966566Y-226319474D01*
X197768209Y-226361093D01*
X197763250Y-226363051D01*
X197763248Y-226363052D01*
X197558744Y-226443815D01*
X197558742Y-226443816D01*
X197553779Y-226445776D01*
X197549220Y-226448543D01*
X197549217Y-226448544D01*
X197454113Y-226506255D01*
X197356683Y-226565377D01*
X197352653Y-226568874D01*
X197259484Y-226649722D01*
X197182555Y-226716477D01*
X197163809Y-226739339D01*
X197039760Y-226890627D01*
X197039756Y-226890633D01*
X197036376Y-226894755D01*
X197018448Y-226926250D01*
X196967368Y-226975555D01*
X196897738Y-226989417D01*
X196831667Y-226963434D01*
X196804427Y-226934284D01*
X196777814Y-226894755D01*
X196722559Y-226812681D01*
X196563424Y-226645865D01*
X196378458Y-226508246D01*
X196373707Y-226505830D01*
X196373703Y-226505828D01*
X196255588Y-226445776D01*
X196172949Y-226403760D01*
X196167855Y-226402178D01*
X196167852Y-226402177D01*
X195957871Y-226336976D01*
X195952773Y-226335393D01*
X195944896Y-226334349D01*
X195729511Y-226305802D01*
X195729506Y-226305802D01*
X195724226Y-226305102D01*
X195718897Y-226305302D01*
X195718895Y-226305302D01*
X195609034Y-226309427D01*
X195493842Y-226313751D01*
X195488623Y-226314846D01*
X195466566Y-226319474D01*
X195268209Y-226361093D01*
X195263250Y-226363051D01*
X195263248Y-226363052D01*
X195058744Y-226443815D01*
X195058742Y-226443816D01*
X195053779Y-226445776D01*
X195049220Y-226448543D01*
X195049217Y-226448544D01*
X194954113Y-226506255D01*
X194856683Y-226565377D01*
X194852653Y-226568874D01*
X194759484Y-226649722D01*
X194682555Y-226716477D01*
X194663809Y-226739339D01*
X194539760Y-226890627D01*
X194539756Y-226890633D01*
X194536376Y-226894755D01*
X194518448Y-226926250D01*
X194467368Y-226975555D01*
X194397738Y-226989417D01*
X194331667Y-226963434D01*
X194304427Y-226934284D01*
X194277814Y-226894755D01*
X194222559Y-226812681D01*
X194063424Y-226645865D01*
X193878458Y-226508246D01*
X193873707Y-226505830D01*
X193873703Y-226505828D01*
X193755588Y-226445776D01*
X193672949Y-226403760D01*
X193667855Y-226402178D01*
X193667852Y-226402177D01*
X193457871Y-226336976D01*
X193452773Y-226335393D01*
X193444896Y-226334349D01*
X193229511Y-226305802D01*
X193229506Y-226305802D01*
X193224226Y-226305102D01*
X193218897Y-226305302D01*
X193218895Y-226305302D01*
X193109034Y-226309427D01*
X192993842Y-226313751D01*
X192988623Y-226314846D01*
X192966566Y-226319474D01*
X192768209Y-226361093D01*
X192763250Y-226363051D01*
X192763248Y-226363052D01*
X192558744Y-226443815D01*
X192558742Y-226443816D01*
X192553779Y-226445776D01*
X192549220Y-226448543D01*
X192549217Y-226448544D01*
X192454113Y-226506255D01*
X192356683Y-226565377D01*
X192352653Y-226568874D01*
X192259484Y-226649722D01*
X192182555Y-226716477D01*
X192163809Y-226739339D01*
X192039760Y-226890627D01*
X192039756Y-226890633D01*
X192036376Y-226894755D01*
X192033738Y-226899390D01*
X192033733Y-226899398D01*
X192018171Y-226926735D01*
X191967088Y-226976041D01*
X191897458Y-226989902D01*
X191831387Y-226963918D01*
X191804149Y-226934768D01*
X191725148Y-226817422D01*
X191718481Y-226809130D01*
X191566772Y-226650100D01*
X191558814Y-226643059D01*
X191382475Y-226511859D01*
X191373438Y-226506255D01*
X191177516Y-226406643D01*
X191167665Y-226402643D01*
X190957760Y-226337466D01*
X190947376Y-226335183D01*
X190931957Y-226333139D01*
X190917793Y-226335335D01*
X190914000Y-226348522D01*
X190914000Y-229233192D01*
X190406000Y-229233192D01*
X190406000Y-228064115D01*
X190401525Y-228048876D01*
X190400135Y-228047671D01*
X190392452Y-228046000D01*
X189326151Y-228046000D01*
X189311473Y-228050310D01*
X189309410Y-228062193D01*
X182948500Y-228062193D01*
X182948500Y-227520174D01*
X189306496Y-227520174D01*
X189307915Y-227533414D01*
X189322550Y-227538000D01*
X190387885Y-227538000D01*
X190403124Y-227533525D01*
X190404329Y-227532135D01*
X190406000Y-227524452D01*
X190406000Y-226350808D01*
X190402027Y-226337277D01*
X190391420Y-226335752D01*
X190273579Y-226360477D01*
X190263383Y-226363537D01*
X190058971Y-226444263D01*
X190049439Y-226448994D01*
X189861538Y-226563016D01*
X189852948Y-226569280D01*
X189686948Y-226713327D01*
X189679528Y-226720958D01*
X189540174Y-226890911D01*
X189534150Y-226899678D01*
X189425424Y-227090682D01*
X189420959Y-227100346D01*
X189345969Y-227306941D01*
X189343198Y-227317208D01*
X189306496Y-227520174D01*
X182948500Y-227520174D01*
X182948500Y-226991600D01*
X182943290Y-226941384D01*
X182938238Y-226892692D01*
X182938237Y-226892688D01*
X182937526Y-226885834D01*
X182911936Y-226809130D01*
X182883868Y-226725002D01*
X182881550Y-226718054D01*
X182788478Y-226567652D01*
X182663303Y-226442695D01*
X182641928Y-226429519D01*
X182518968Y-226353725D01*
X182518966Y-226353724D01*
X182512738Y-226349885D01*
X182393498Y-226310335D01*
X182351389Y-226296368D01*
X182351387Y-226296368D01*
X182344861Y-226294203D01*
X182338025Y-226293503D01*
X182338022Y-226293502D01*
X182294969Y-226289091D01*
X182240400Y-226283500D01*
X180939600Y-226283500D01*
X180936354Y-226283837D01*
X180936350Y-226283837D01*
X180840692Y-226293762D01*
X180840688Y-226293763D01*
X180833834Y-226294474D01*
X180827298Y-226296655D01*
X180827296Y-226296655D01*
X180695194Y-226340728D01*
X180666054Y-226350450D01*
X180515652Y-226443522D01*
X180390695Y-226568697D01*
X180386855Y-226574927D01*
X180386854Y-226574928D01*
X180378478Y-226588517D01*
X180301544Y-226713327D01*
X180300648Y-226714780D01*
X180247876Y-226762273D01*
X180177804Y-226773697D01*
X180112680Y-226745423D01*
X180102218Y-226735636D01*
X179996766Y-226625094D01*
X179988814Y-226618059D01*
X179812475Y-226486859D01*
X179803438Y-226481255D01*
X179607516Y-226381643D01*
X179597665Y-226377643D01*
X179387760Y-226312466D01*
X179377376Y-226310183D01*
X179361957Y-226308139D01*
X179347793Y-226310335D01*
X179344000Y-226323522D01*
X179344000Y-229258192D01*
X178836000Y-229258192D01*
X178836000Y-228064115D01*
X178831525Y-228048876D01*
X178830135Y-228047671D01*
X178822452Y-228046000D01*
X177754030Y-228046000D01*
X177739352Y-228050310D01*
X177737289Y-228062193D01*
X130449844Y-228062193D01*
X130445459Y-228047671D01*
X130425355Y-227981083D01*
X130337615Y-227816066D01*
X130280057Y-227745493D01*
X130252503Y-227680061D01*
X130251700Y-227665857D01*
X130251700Y-227522376D01*
X177732732Y-227522376D01*
X177736475Y-227535124D01*
X177737865Y-227536329D01*
X177745548Y-227538000D01*
X178817885Y-227538000D01*
X178833124Y-227533525D01*
X178834329Y-227532135D01*
X178836000Y-227524452D01*
X178836000Y-226325808D01*
X178832027Y-226312277D01*
X178821420Y-226310752D01*
X178703579Y-226335477D01*
X178693383Y-226338537D01*
X178488971Y-226419263D01*
X178479439Y-226423994D01*
X178291538Y-226538016D01*
X178282948Y-226544280D01*
X178116948Y-226688327D01*
X178109528Y-226695958D01*
X177970174Y-226865911D01*
X177964150Y-226874678D01*
X177855424Y-227065682D01*
X177850959Y-227075346D01*
X177775969Y-227281941D01*
X177773198Y-227292208D01*
X177733877Y-227509655D01*
X177732944Y-227517884D01*
X177732732Y-227522376D01*
X130251700Y-227522376D01*
X130251700Y-217359774D01*
X170933102Y-217359774D01*
X170941751Y-217590158D01*
X170989093Y-217815791D01*
X170991051Y-217820750D01*
X170991052Y-217820752D01*
X171068999Y-218018124D01*
X171073776Y-218030221D01*
X171193377Y-218227317D01*
X171196874Y-218231347D01*
X171337839Y-218393795D01*
X171344477Y-218401445D01*
X171380120Y-218430670D01*
X171420114Y-218489329D01*
X171422046Y-218560299D01*
X171385302Y-218621048D01*
X171366532Y-218635248D01*
X171270988Y-218694373D01*
X171220652Y-218725522D01*
X171095695Y-218850697D01*
X171002885Y-219001262D01*
X170985187Y-219054621D01*
X170950291Y-219159830D01*
X170947203Y-219169139D01*
X170936500Y-219273600D01*
X170936500Y-220574400D01*
X170936837Y-220577646D01*
X170936837Y-220577650D01*
X170945637Y-220662460D01*
X170947474Y-220680166D01*
X170949655Y-220686702D01*
X170949655Y-220686704D01*
X170969948Y-220747529D01*
X171003450Y-220847946D01*
X171096522Y-220998348D01*
X171221697Y-221123305D01*
X171227927Y-221127145D01*
X171227928Y-221127146D01*
X171365090Y-221211694D01*
X171372262Y-221216115D01*
X171452005Y-221242564D01*
X171533611Y-221269632D01*
X171533613Y-221269632D01*
X171540139Y-221271797D01*
X171546975Y-221272497D01*
X171546978Y-221272498D01*
X171590031Y-221276909D01*
X171644600Y-221282500D01*
X173195400Y-221282500D01*
X173198646Y-221282163D01*
X173198650Y-221282163D01*
X173294308Y-221272238D01*
X173294312Y-221272237D01*
X173301166Y-221271526D01*
X173307702Y-221269345D01*
X173307704Y-221269345D01*
X173439806Y-221225272D01*
X173468946Y-221215550D01*
X173619348Y-221122478D01*
X173744305Y-220997303D01*
X173781642Y-220936731D01*
X173833275Y-220852968D01*
X173833276Y-220852966D01*
X173837115Y-220846738D01*
X173870021Y-220747529D01*
X173890632Y-220685389D01*
X173890632Y-220685387D01*
X173892797Y-220678861D01*
X173894478Y-220662460D01*
X173898508Y-220623126D01*
X173903500Y-220574400D01*
X173903500Y-219273600D01*
X173902707Y-219265954D01*
X173893238Y-219174692D01*
X173893237Y-219174688D01*
X173892526Y-219167834D01*
X173836550Y-219000054D01*
X173743478Y-218849652D01*
X173618303Y-218724695D01*
X173472660Y-218634919D01*
X173425168Y-218582148D01*
X173413744Y-218512076D01*
X173442018Y-218446952D01*
X173451805Y-218436490D01*
X173538486Y-218353800D01*
X173566135Y-218327424D01*
X173703754Y-218142458D01*
X173808240Y-217936949D01*
X173844321Y-217820752D01*
X173875024Y-217721871D01*
X173876607Y-217716773D01*
X173877308Y-217711484D01*
X173906198Y-217493511D01*
X173906198Y-217493506D01*
X173906898Y-217488226D01*
X173906471Y-217476837D01*
X173898449Y-217263173D01*
X173898249Y-217257842D01*
X173850907Y-217032209D01*
X173848948Y-217027248D01*
X173768185Y-216822744D01*
X173768184Y-216822742D01*
X173766224Y-216817779D01*
X173755726Y-216800478D01*
X173649390Y-216625243D01*
X173646623Y-216620683D01*
X173559755Y-216520576D01*
X173499023Y-216450588D01*
X173499021Y-216450586D01*
X173495523Y-216446555D01*
X173443083Y-216403557D01*
X173321373Y-216303760D01*
X173321367Y-216303756D01*
X173317245Y-216300376D01*
X173285750Y-216282448D01*
X173236445Y-216231368D01*
X173222583Y-216161738D01*
X173248566Y-216095667D01*
X173277716Y-216068427D01*
X173313642Y-216044240D01*
X173399319Y-215986559D01*
X173566135Y-215827424D01*
X173595403Y-215788087D01*
X173652111Y-215745374D01*
X173696491Y-215737300D01*
X178764552Y-215737300D01*
X178832673Y-215757302D01*
X178859717Y-215780719D01*
X178964477Y-215901445D01*
X178968608Y-215904832D01*
X179138627Y-216044240D01*
X179138633Y-216044244D01*
X179142755Y-216047624D01*
X179174250Y-216065552D01*
X179223555Y-216116632D01*
X179237417Y-216186262D01*
X179211434Y-216252333D01*
X179182284Y-216279573D01*
X179060681Y-216361441D01*
X179056824Y-216365120D01*
X179056822Y-216365122D01*
X179007719Y-216411964D01*
X178893865Y-216520576D01*
X178756246Y-216705542D01*
X178651760Y-216911051D01*
X178650178Y-216916145D01*
X178650177Y-216916148D01*
X178588115Y-217116020D01*
X178583393Y-217131227D01*
X178582692Y-217136516D01*
X178567304Y-217252623D01*
X178553102Y-217359774D01*
X178561751Y-217590158D01*
X178609093Y-217815791D01*
X178611051Y-217820750D01*
X178611052Y-217820752D01*
X178688999Y-218018124D01*
X178693776Y-218030221D01*
X178813377Y-218227317D01*
X178816874Y-218231347D01*
X178957839Y-218393795D01*
X178964477Y-218401445D01*
X179000120Y-218430670D01*
X179040114Y-218489329D01*
X179042046Y-218560299D01*
X179005302Y-218621048D01*
X178986532Y-218635248D01*
X178890988Y-218694373D01*
X178840652Y-218725522D01*
X178715695Y-218850697D01*
X178622885Y-219001262D01*
X178605187Y-219054621D01*
X178570291Y-219159830D01*
X178567203Y-219169139D01*
X178556500Y-219273600D01*
X178556500Y-220574400D01*
X178556837Y-220577646D01*
X178556837Y-220577650D01*
X178565637Y-220662460D01*
X178567474Y-220680166D01*
X178569655Y-220686702D01*
X178569655Y-220686704D01*
X178589948Y-220747529D01*
X178623450Y-220847946D01*
X178716522Y-220998348D01*
X178841697Y-221123305D01*
X178847927Y-221127145D01*
X178847928Y-221127146D01*
X178985090Y-221211694D01*
X178992262Y-221216115D01*
X179072005Y-221242564D01*
X179153611Y-221269632D01*
X179153613Y-221269632D01*
X179160139Y-221271797D01*
X179166975Y-221272497D01*
X179166978Y-221272498D01*
X179210031Y-221276909D01*
X179264600Y-221282500D01*
X180815400Y-221282500D01*
X180818646Y-221282163D01*
X180818650Y-221282163D01*
X180914308Y-221272238D01*
X180914312Y-221272237D01*
X180921166Y-221271526D01*
X180927702Y-221269345D01*
X180927704Y-221269345D01*
X181059806Y-221225272D01*
X181088946Y-221215550D01*
X181239348Y-221122478D01*
X181364305Y-220997303D01*
X181401642Y-220936731D01*
X181453275Y-220852968D01*
X181453276Y-220852966D01*
X181457115Y-220846738D01*
X181490021Y-220747529D01*
X181510632Y-220685389D01*
X181510632Y-220685387D01*
X181512797Y-220678861D01*
X181514478Y-220662460D01*
X181518508Y-220623126D01*
X181523500Y-220574400D01*
X181523500Y-219273600D01*
X181522707Y-219265954D01*
X181513238Y-219174692D01*
X181513237Y-219174688D01*
X181512526Y-219167834D01*
X181456550Y-219000054D01*
X181363478Y-218849652D01*
X181238303Y-218724695D01*
X181092660Y-218634919D01*
X181045168Y-218582148D01*
X181033744Y-218512076D01*
X181062018Y-218446952D01*
X181071805Y-218436490D01*
X181158486Y-218353800D01*
X181186135Y-218327424D01*
X181323754Y-218142458D01*
X181428240Y-217936949D01*
X181464321Y-217820752D01*
X181495024Y-217721871D01*
X181496607Y-217716773D01*
X181497308Y-217711484D01*
X181526198Y-217493511D01*
X181526198Y-217493506D01*
X181526898Y-217488226D01*
X181526471Y-217476837D01*
X181518449Y-217263173D01*
X181518249Y-217257842D01*
X181470907Y-217032209D01*
X181468948Y-217027248D01*
X181388185Y-216822744D01*
X181388184Y-216822742D01*
X181386224Y-216817779D01*
X181375726Y-216800478D01*
X181269390Y-216625243D01*
X181266623Y-216620683D01*
X181179755Y-216520576D01*
X181119023Y-216450588D01*
X181119021Y-216450586D01*
X181115523Y-216446555D01*
X181063083Y-216403557D01*
X180941373Y-216303760D01*
X180941367Y-216303756D01*
X180937245Y-216300376D01*
X180905750Y-216282448D01*
X180856445Y-216231368D01*
X180842583Y-216161738D01*
X180868566Y-216095667D01*
X180897716Y-216068427D01*
X180933642Y-216044240D01*
X181019319Y-215986559D01*
X181186135Y-215827424D01*
X181215403Y-215788087D01*
X181272111Y-215745374D01*
X181316491Y-215737300D01*
X186384552Y-215737300D01*
X186452673Y-215757302D01*
X186479717Y-215780719D01*
X186584477Y-215901445D01*
X186588608Y-215904832D01*
X186758627Y-216044240D01*
X186758633Y-216044244D01*
X186762755Y-216047624D01*
X186794250Y-216065552D01*
X186843555Y-216116632D01*
X186857417Y-216186262D01*
X186831434Y-216252333D01*
X186802284Y-216279573D01*
X186680681Y-216361441D01*
X186676824Y-216365120D01*
X186676822Y-216365122D01*
X186627719Y-216411964D01*
X186513865Y-216520576D01*
X186376246Y-216705542D01*
X186271760Y-216911051D01*
X186270178Y-216916145D01*
X186270177Y-216916148D01*
X186208115Y-217116020D01*
X186203393Y-217131227D01*
X186202692Y-217136516D01*
X186187304Y-217252623D01*
X186173102Y-217359774D01*
X186181751Y-217590158D01*
X186229093Y-217815791D01*
X186231051Y-217820750D01*
X186231052Y-217820752D01*
X186308999Y-218018124D01*
X186313776Y-218030221D01*
X186433377Y-218227317D01*
X186436874Y-218231347D01*
X186577839Y-218393795D01*
X186584477Y-218401445D01*
X186620120Y-218430670D01*
X186660114Y-218489329D01*
X186662046Y-218560299D01*
X186625302Y-218621048D01*
X186606532Y-218635248D01*
X186510988Y-218694373D01*
X186460652Y-218725522D01*
X186335695Y-218850697D01*
X186242885Y-219001262D01*
X186225187Y-219054621D01*
X186190291Y-219159830D01*
X186187203Y-219169139D01*
X186176500Y-219273600D01*
X186176500Y-220574400D01*
X186176837Y-220577646D01*
X186176837Y-220577650D01*
X186185637Y-220662460D01*
X186187474Y-220680166D01*
X186189655Y-220686702D01*
X186189655Y-220686704D01*
X186209948Y-220747529D01*
X186243450Y-220847946D01*
X186336522Y-220998348D01*
X186461697Y-221123305D01*
X186467927Y-221127145D01*
X186467928Y-221127146D01*
X186605090Y-221211694D01*
X186612262Y-221216115D01*
X186692005Y-221242564D01*
X186773611Y-221269632D01*
X186773613Y-221269632D01*
X186780139Y-221271797D01*
X186786975Y-221272497D01*
X186786978Y-221272498D01*
X186830031Y-221276909D01*
X186884600Y-221282500D01*
X188435400Y-221282500D01*
X188438646Y-221282163D01*
X188438650Y-221282163D01*
X188534308Y-221272238D01*
X188534312Y-221272237D01*
X188541166Y-221271526D01*
X188547702Y-221269345D01*
X188547704Y-221269345D01*
X188679806Y-221225272D01*
X188708946Y-221215550D01*
X188859348Y-221122478D01*
X188984305Y-220997303D01*
X189021642Y-220936731D01*
X189073275Y-220852968D01*
X189073276Y-220852966D01*
X189077115Y-220846738D01*
X189110021Y-220747529D01*
X189130632Y-220685389D01*
X189130632Y-220685387D01*
X189132797Y-220678861D01*
X189134478Y-220662460D01*
X189138508Y-220623126D01*
X189140044Y-220608134D01*
X205049500Y-220608134D01*
X205056255Y-220670316D01*
X205107385Y-220806705D01*
X205194739Y-220923261D01*
X205311295Y-221010615D01*
X205447684Y-221061745D01*
X205509866Y-221068500D01*
X207306134Y-221068500D01*
X207368316Y-221061745D01*
X207504705Y-221010615D01*
X207621261Y-220923261D01*
X207708615Y-220806705D01*
X207730799Y-220747529D01*
X207752598Y-220689382D01*
X207795240Y-220632618D01*
X207861802Y-220607918D01*
X207931150Y-220623126D01*
X207965817Y-220651114D01*
X207994250Y-220683938D01*
X208166126Y-220826632D01*
X208359000Y-220939338D01*
X208567692Y-221019030D01*
X208572760Y-221020061D01*
X208572763Y-221020062D01*
X208680017Y-221041883D01*
X208786597Y-221063567D01*
X208791772Y-221063757D01*
X208791774Y-221063757D01*
X209004673Y-221071564D01*
X209004677Y-221071564D01*
X209009837Y-221071753D01*
X209014957Y-221071097D01*
X209014959Y-221071097D01*
X209226288Y-221044025D01*
X209226289Y-221044025D01*
X209231416Y-221043368D01*
X209236366Y-221041883D01*
X209440429Y-220980661D01*
X209440434Y-220980659D01*
X209445384Y-220979174D01*
X209645994Y-220880896D01*
X209827860Y-220751173D01*
X209986096Y-220593489D01*
X209997478Y-220577650D01*
X210116453Y-220412077D01*
X210117776Y-220413028D01*
X210164645Y-220369857D01*
X210234580Y-220357625D01*
X210300026Y-220385144D01*
X210327875Y-220416994D01*
X210387987Y-220515088D01*
X210534250Y-220683938D01*
X210706126Y-220826632D01*
X210899000Y-220939338D01*
X211107692Y-221019030D01*
X211112760Y-221020061D01*
X211112763Y-221020062D01*
X211220017Y-221041883D01*
X211326597Y-221063567D01*
X211331772Y-221063757D01*
X211331774Y-221063757D01*
X211544673Y-221071564D01*
X211544677Y-221071564D01*
X211549837Y-221071753D01*
X211554957Y-221071097D01*
X211554959Y-221071097D01*
X211766288Y-221044025D01*
X211766289Y-221044025D01*
X211771416Y-221043368D01*
X211776366Y-221041883D01*
X211980429Y-220980661D01*
X211980434Y-220980659D01*
X211985384Y-220979174D01*
X212185994Y-220880896D01*
X212367860Y-220751173D01*
X212526096Y-220593489D01*
X212537478Y-220577650D01*
X212653435Y-220416277D01*
X212656453Y-220412077D01*
X212671794Y-220381038D01*
X212753136Y-220216453D01*
X212753137Y-220216451D01*
X212755430Y-220211811D01*
X212820370Y-219998069D01*
X212849529Y-219776590D01*
X212851156Y-219710000D01*
X212832852Y-219487361D01*
X212778431Y-219270702D01*
X212689354Y-219065840D01*
X212568014Y-218878277D01*
X212417670Y-218713051D01*
X212413619Y-218709852D01*
X212413615Y-218709848D01*
X212246414Y-218577800D01*
X212246410Y-218577798D01*
X212242359Y-218574598D01*
X212238926Y-218572703D01*
X231570743Y-218572703D01*
X231608268Y-218857734D01*
X231684129Y-219135036D01*
X231796923Y-219399476D01*
X231944561Y-219646161D01*
X232124313Y-219870528D01*
X232332851Y-220068423D01*
X232566317Y-220236186D01*
X232570112Y-220238195D01*
X232570113Y-220238196D01*
X232591869Y-220249715D01*
X232820392Y-220370712D01*
X233090373Y-220469511D01*
X233371264Y-220530755D01*
X233399841Y-220533004D01*
X233594282Y-220548307D01*
X233594291Y-220548307D01*
X233596739Y-220548500D01*
X233752271Y-220548500D01*
X233754407Y-220548354D01*
X233754418Y-220548354D01*
X233962548Y-220534165D01*
X233962554Y-220534164D01*
X233966825Y-220533873D01*
X233971020Y-220533004D01*
X233971022Y-220533004D01*
X234107583Y-220504724D01*
X234248342Y-220475574D01*
X234519343Y-220379607D01*
X234774812Y-220247750D01*
X234778313Y-220245289D01*
X234778317Y-220245287D01*
X234892418Y-220165095D01*
X235010023Y-220082441D01*
X235100818Y-219998069D01*
X235217479Y-219889661D01*
X235217481Y-219889658D01*
X235220622Y-219886740D01*
X235402713Y-219664268D01*
X235552927Y-219419142D01*
X235616816Y-219273600D01*
X235666757Y-219159830D01*
X235668483Y-219155898D01*
X235747244Y-218879406D01*
X235787751Y-218594784D01*
X235787818Y-218582148D01*
X235789235Y-218311583D01*
X235789235Y-218311576D01*
X235789257Y-218307297D01*
X235778728Y-218227317D01*
X235768119Y-218146740D01*
X235751732Y-218022266D01*
X235675871Y-217744964D01*
X235607566Y-217584827D01*
X235564763Y-217484476D01*
X235564761Y-217484472D01*
X235563077Y-217480524D01*
X235415439Y-217233839D01*
X235235687Y-217009472D01*
X235027149Y-216811577D01*
X234793683Y-216643814D01*
X234771843Y-216632250D01*
X234742385Y-216616653D01*
X234539608Y-216509288D01*
X234269627Y-216410489D01*
X233988736Y-216349245D01*
X233957685Y-216346801D01*
X233765718Y-216331693D01*
X233765709Y-216331693D01*
X233763261Y-216331500D01*
X233607729Y-216331500D01*
X233605593Y-216331646D01*
X233605582Y-216331646D01*
X233397452Y-216345835D01*
X233397446Y-216345836D01*
X233393175Y-216346127D01*
X233388980Y-216346996D01*
X233388978Y-216346996D01*
X233333616Y-216358461D01*
X233111658Y-216404426D01*
X232840657Y-216500393D01*
X232585188Y-216632250D01*
X232581687Y-216634711D01*
X232581683Y-216634713D01*
X232571594Y-216641804D01*
X232349977Y-216797559D01*
X232139378Y-216993260D01*
X231957287Y-217215732D01*
X231807073Y-217460858D01*
X231691517Y-217724102D01*
X231612756Y-218000594D01*
X231572249Y-218285216D01*
X231572227Y-218289505D01*
X231572226Y-218289512D01*
X231570808Y-218560299D01*
X231570743Y-218572703D01*
X212238926Y-218572703D01*
X212193496Y-218547624D01*
X212129100Y-218512076D01*
X212046789Y-218466638D01*
X212041920Y-218464914D01*
X212041916Y-218464912D01*
X211841087Y-218393795D01*
X211841083Y-218393794D01*
X211836212Y-218392069D01*
X211831119Y-218391162D01*
X211831116Y-218391161D01*
X211621373Y-218353800D01*
X211621367Y-218353799D01*
X211616284Y-218352894D01*
X211542452Y-218351992D01*
X211398081Y-218350228D01*
X211398079Y-218350228D01*
X211392911Y-218350165D01*
X211172091Y-218383955D01*
X210959756Y-218453357D01*
X210761607Y-218556507D01*
X210757474Y-218559610D01*
X210757471Y-218559612D01*
X210587100Y-218687530D01*
X210582965Y-218690635D01*
X210549626Y-218725522D01*
X210471729Y-218807037D01*
X210428629Y-218852138D01*
X210321201Y-219009621D01*
X210266293Y-219054621D01*
X210195768Y-219062792D01*
X210132021Y-219031538D01*
X210111324Y-219007054D01*
X210030822Y-218882617D01*
X210030820Y-218882614D01*
X210028014Y-218878277D01*
X209877670Y-218713051D01*
X209873619Y-218709852D01*
X209873615Y-218709848D01*
X209706414Y-218577800D01*
X209706410Y-218577798D01*
X209702359Y-218574598D01*
X209653496Y-218547624D01*
X209589100Y-218512076D01*
X209506789Y-218466638D01*
X209501920Y-218464914D01*
X209501916Y-218464912D01*
X209301087Y-218393795D01*
X209301083Y-218393794D01*
X209296212Y-218392069D01*
X209291119Y-218391162D01*
X209291116Y-218391161D01*
X209081373Y-218353800D01*
X209081367Y-218353799D01*
X209076284Y-218352894D01*
X209002452Y-218351992D01*
X208858081Y-218350228D01*
X208858079Y-218350228D01*
X208852911Y-218350165D01*
X208632091Y-218383955D01*
X208419756Y-218453357D01*
X208221607Y-218556507D01*
X208217474Y-218559610D01*
X208217471Y-218559612D01*
X208047100Y-218687530D01*
X208042965Y-218690635D01*
X207986537Y-218749684D01*
X207962283Y-218775064D01*
X207900759Y-218810494D01*
X207829846Y-218807037D01*
X207772060Y-218765791D01*
X207753207Y-218732243D01*
X207711767Y-218621703D01*
X207708615Y-218613295D01*
X207621261Y-218496739D01*
X207504705Y-218409385D01*
X207368316Y-218358255D01*
X207306134Y-218351500D01*
X205509866Y-218351500D01*
X205447684Y-218358255D01*
X205311295Y-218409385D01*
X205194739Y-218496739D01*
X205107385Y-218613295D01*
X205056255Y-218749684D01*
X205049500Y-218811866D01*
X205049500Y-220608134D01*
X189140044Y-220608134D01*
X189143500Y-220574400D01*
X189143500Y-219273600D01*
X189142707Y-219265954D01*
X189133238Y-219174692D01*
X189133237Y-219174688D01*
X189132526Y-219167834D01*
X189076550Y-219000054D01*
X188983478Y-218849652D01*
X188858303Y-218724695D01*
X188712660Y-218634919D01*
X188665168Y-218582148D01*
X188653744Y-218512076D01*
X188682018Y-218446952D01*
X188691805Y-218436490D01*
X188778486Y-218353800D01*
X188806135Y-218327424D01*
X188943754Y-218142458D01*
X189048240Y-217936949D01*
X189084321Y-217820752D01*
X189115024Y-217721871D01*
X189116607Y-217716773D01*
X189117308Y-217711484D01*
X189146198Y-217493511D01*
X189146198Y-217493506D01*
X189146898Y-217488226D01*
X189146471Y-217476837D01*
X189138449Y-217263173D01*
X189138249Y-217257842D01*
X189090907Y-217032209D01*
X189088948Y-217027248D01*
X189008185Y-216822744D01*
X189008184Y-216822742D01*
X189006224Y-216817779D01*
X188995726Y-216800478D01*
X188889390Y-216625243D01*
X188886623Y-216620683D01*
X188799755Y-216520576D01*
X188739023Y-216450588D01*
X188739021Y-216450586D01*
X188735523Y-216446555D01*
X188683083Y-216403557D01*
X188561373Y-216303760D01*
X188561367Y-216303756D01*
X188557245Y-216300376D01*
X188525750Y-216282448D01*
X188476445Y-216231368D01*
X188462583Y-216161738D01*
X188488566Y-216095667D01*
X188517716Y-216068427D01*
X188553642Y-216044240D01*
X188639319Y-215986559D01*
X188806135Y-215827424D01*
X188943754Y-215642458D01*
X188989132Y-215553207D01*
X189045822Y-215441704D01*
X189048240Y-215436949D01*
X189057362Y-215407574D01*
X189115024Y-215221871D01*
X189116607Y-215216773D01*
X189132593Y-215096157D01*
X189146198Y-214993511D01*
X189146198Y-214993506D01*
X189146898Y-214988226D01*
X189144121Y-214914241D01*
X189138449Y-214763173D01*
X189138249Y-214757842D01*
X189090907Y-214532209D01*
X189088948Y-214527248D01*
X189008185Y-214322744D01*
X189008184Y-214322742D01*
X189006224Y-214317779D01*
X188986111Y-214284633D01*
X188889390Y-214125243D01*
X188886623Y-214120683D01*
X188870954Y-214102626D01*
X188739023Y-213950588D01*
X188739021Y-213950586D01*
X188735523Y-213946555D01*
X188693970Y-213912484D01*
X188561373Y-213803760D01*
X188561367Y-213803756D01*
X188557245Y-213800376D01*
X188552606Y-213797735D01*
X188549304Y-213795856D01*
X188536967Y-213788833D01*
X188487662Y-213737753D01*
X188473300Y-213679332D01*
X188473300Y-198563500D01*
X188493302Y-198495379D01*
X188546958Y-198448886D01*
X188599300Y-198437500D01*
X205704694Y-198437500D01*
X205766164Y-198453512D01*
X205852421Y-198501719D01*
X206030167Y-198559472D01*
X206215745Y-198581601D01*
X206221880Y-198581129D01*
X206221882Y-198581129D01*
X206277919Y-198576817D01*
X206402087Y-198567263D01*
X206582096Y-198517004D01*
X206587585Y-198514231D01*
X206587591Y-198514229D01*
X206698660Y-198458123D01*
X206748914Y-198432738D01*
X206896187Y-198317675D01*
X206900213Y-198313011D01*
X206900216Y-198313008D01*
X207014280Y-198180863D01*
X207018307Y-198176198D01*
X207110621Y-198013695D01*
X207169614Y-197836357D01*
X207177251Y-197775905D01*
X207192596Y-197654441D01*
X207192597Y-197654432D01*
X207193038Y-197650938D01*
X207193411Y-197624200D01*
X207175173Y-197438199D01*
X207121155Y-197259283D01*
X207033415Y-197094266D01*
X207029520Y-197089490D01*
X206919188Y-196954210D01*
X206919185Y-196954207D01*
X206915293Y-196949435D01*
X206910544Y-196945506D01*
X206776039Y-196834234D01*
X206776036Y-196834232D01*
X206771289Y-196830305D01*
X206606889Y-196741414D01*
X206436233Y-196688587D01*
X206377073Y-196649336D01*
X206348093Y-196580518D01*
X206331974Y-196416133D01*
X206331373Y-196409999D01*
X206277355Y-196231083D01*
X206189615Y-196066066D01*
X206185720Y-196061290D01*
X206075388Y-195926010D01*
X206075385Y-195926007D01*
X206071493Y-195921235D01*
X206066744Y-195917306D01*
X205932239Y-195806034D01*
X205932236Y-195806032D01*
X205927489Y-195802105D01*
X205763089Y-195713214D01*
X205673821Y-195685581D01*
X205590441Y-195659770D01*
X205590438Y-195659769D01*
X205584554Y-195657948D01*
X205578429Y-195657304D01*
X205578428Y-195657304D01*
X205404813Y-195639056D01*
X205404812Y-195639056D01*
X205398685Y-195638412D01*
X205280087Y-195649206D01*
X205218703Y-195654792D01*
X205218702Y-195654792D01*
X205212562Y-195655351D01*
X205206648Y-195657092D01*
X205206646Y-195657092D01*
X205084466Y-195693052D01*
X205033273Y-195708119D01*
X204867647Y-195794705D01*
X204853557Y-195806034D01*
X204790795Y-195856496D01*
X204725173Y-195883593D01*
X204711843Y-195884300D01*
X188306986Y-195884300D01*
X188238865Y-195864298D01*
X188217891Y-195847395D01*
X186168605Y-193798109D01*
X186134579Y-193735797D01*
X186131700Y-193709014D01*
X186131700Y-192634248D01*
X186151702Y-192566127D01*
X186185429Y-192531035D01*
X186235270Y-192496136D01*
X186235273Y-192496134D01*
X186239781Y-192492977D01*
X186396977Y-192335781D01*
X186524488Y-192153676D01*
X186526811Y-192148694D01*
X186526814Y-192148689D01*
X186575805Y-192043627D01*
X186622723Y-191990342D01*
X186691000Y-191970881D01*
X186758960Y-191991423D01*
X186804195Y-192043627D01*
X186853186Y-192148689D01*
X186853189Y-192148694D01*
X186855512Y-192153676D01*
X186983023Y-192335781D01*
X187140219Y-192492977D01*
X187144727Y-192496134D01*
X187144730Y-192496136D01*
X187194571Y-192531035D01*
X187322323Y-192620488D01*
X187327305Y-192622811D01*
X187327310Y-192622814D01*
X187518822Y-192712117D01*
X187523804Y-192714440D01*
X187529112Y-192715862D01*
X187529114Y-192715863D01*
X187594949Y-192733503D01*
X187738537Y-192771978D01*
X187960000Y-192791353D01*
X188181463Y-192771978D01*
X188325051Y-192733503D01*
X188390886Y-192715863D01*
X188390888Y-192715862D01*
X188396196Y-192714440D01*
X188401178Y-192712117D01*
X188592690Y-192622814D01*
X188592695Y-192622811D01*
X188597677Y-192620488D01*
X188725429Y-192531035D01*
X188775270Y-192496136D01*
X188775273Y-192496134D01*
X188779781Y-192492977D01*
X188936977Y-192335781D01*
X189064488Y-192153676D01*
X189066811Y-192148694D01*
X189066814Y-192148689D01*
X189115805Y-192043627D01*
X189162723Y-191990342D01*
X189231000Y-191970881D01*
X189298960Y-191991423D01*
X189344195Y-192043627D01*
X189393186Y-192148689D01*
X189393189Y-192148694D01*
X189395512Y-192153676D01*
X189523023Y-192335781D01*
X189680219Y-192492977D01*
X189684727Y-192496134D01*
X189684730Y-192496136D01*
X189734571Y-192531035D01*
X189862323Y-192620488D01*
X189867305Y-192622811D01*
X189867310Y-192622814D01*
X190058822Y-192712117D01*
X190063804Y-192714440D01*
X190069112Y-192715862D01*
X190069114Y-192715863D01*
X190134949Y-192733503D01*
X190278537Y-192771978D01*
X190500000Y-192791353D01*
X190721463Y-192771978D01*
X190865051Y-192733503D01*
X190930886Y-192715863D01*
X190930888Y-192715862D01*
X190936196Y-192714440D01*
X190941178Y-192712117D01*
X191132690Y-192622814D01*
X191132695Y-192622811D01*
X191137677Y-192620488D01*
X191265429Y-192531035D01*
X191315270Y-192496136D01*
X191315273Y-192496134D01*
X191319781Y-192492977D01*
X191476977Y-192335781D01*
X191604488Y-192153676D01*
X191606811Y-192148694D01*
X191606814Y-192148689D01*
X191655805Y-192043627D01*
X191702723Y-191990342D01*
X191771000Y-191970881D01*
X191838960Y-191991423D01*
X191884195Y-192043627D01*
X191933186Y-192148689D01*
X191933189Y-192148694D01*
X191935512Y-192153676D01*
X192063023Y-192335781D01*
X192220219Y-192492977D01*
X192224727Y-192496134D01*
X192224730Y-192496136D01*
X192274571Y-192531035D01*
X192402323Y-192620488D01*
X192407305Y-192622811D01*
X192407310Y-192622814D01*
X192598822Y-192712117D01*
X192603804Y-192714440D01*
X192609112Y-192715862D01*
X192609114Y-192715863D01*
X192674949Y-192733503D01*
X192818537Y-192771978D01*
X193040000Y-192791353D01*
X193261463Y-192771978D01*
X193405051Y-192733503D01*
X193470886Y-192715863D01*
X193470888Y-192715862D01*
X193476196Y-192714440D01*
X193481178Y-192712117D01*
X193672690Y-192622814D01*
X193672695Y-192622811D01*
X193677677Y-192620488D01*
X193805429Y-192531035D01*
X193855270Y-192496136D01*
X193855273Y-192496134D01*
X193859781Y-192492977D01*
X194016977Y-192335781D01*
X194144488Y-192153676D01*
X194146811Y-192148694D01*
X194146814Y-192148689D01*
X194195805Y-192043627D01*
X194242723Y-191990342D01*
X194311000Y-191970881D01*
X194378960Y-191991423D01*
X194424195Y-192043627D01*
X194473186Y-192148689D01*
X194473189Y-192148694D01*
X194475512Y-192153676D01*
X194603023Y-192335781D01*
X194760219Y-192492977D01*
X194764727Y-192496134D01*
X194764730Y-192496136D01*
X194814571Y-192531035D01*
X194942323Y-192620488D01*
X194947305Y-192622811D01*
X194947310Y-192622814D01*
X195138822Y-192712117D01*
X195143804Y-192714440D01*
X195149112Y-192715862D01*
X195149114Y-192715863D01*
X195214949Y-192733503D01*
X195358537Y-192771978D01*
X195580000Y-192791353D01*
X195801463Y-192771978D01*
X195945051Y-192733503D01*
X196010886Y-192715863D01*
X196010888Y-192715862D01*
X196016196Y-192714440D01*
X196021178Y-192712117D01*
X196212690Y-192622814D01*
X196212695Y-192622811D01*
X196217677Y-192620488D01*
X196345429Y-192531035D01*
X196395270Y-192496136D01*
X196395273Y-192496134D01*
X196399781Y-192492977D01*
X196556977Y-192335781D01*
X196684488Y-192153676D01*
X196686811Y-192148694D01*
X196686814Y-192148689D01*
X196735805Y-192043627D01*
X196782723Y-191990342D01*
X196851000Y-191970881D01*
X196918960Y-191991423D01*
X196964195Y-192043627D01*
X197013186Y-192148689D01*
X197013189Y-192148694D01*
X197015512Y-192153676D01*
X197143023Y-192335781D01*
X197300219Y-192492977D01*
X197304727Y-192496134D01*
X197304730Y-192496136D01*
X197354571Y-192531035D01*
X197482323Y-192620488D01*
X197487305Y-192622811D01*
X197487310Y-192622814D01*
X197678822Y-192712117D01*
X197683804Y-192714440D01*
X197689112Y-192715862D01*
X197689114Y-192715863D01*
X197754949Y-192733503D01*
X197898537Y-192771978D01*
X198120000Y-192791353D01*
X198341463Y-192771978D01*
X198485051Y-192733503D01*
X198550886Y-192715863D01*
X198550888Y-192715862D01*
X198556196Y-192714440D01*
X198561178Y-192712117D01*
X198752690Y-192622814D01*
X198752695Y-192622811D01*
X198757677Y-192620488D01*
X198885429Y-192531035D01*
X198935270Y-192496136D01*
X198935273Y-192496134D01*
X198939781Y-192492977D01*
X199096977Y-192335781D01*
X199224488Y-192153676D01*
X199226811Y-192148694D01*
X199226814Y-192148689D01*
X199275805Y-192043627D01*
X199322723Y-191990342D01*
X199391000Y-191970881D01*
X199458960Y-191991423D01*
X199504195Y-192043627D01*
X199553186Y-192148689D01*
X199553189Y-192148694D01*
X199555512Y-192153676D01*
X199683023Y-192335781D01*
X199840219Y-192492977D01*
X199844727Y-192496134D01*
X199844730Y-192496136D01*
X199894571Y-192531035D01*
X200022323Y-192620488D01*
X200027305Y-192622811D01*
X200027310Y-192622814D01*
X200218822Y-192712117D01*
X200223804Y-192714440D01*
X200229112Y-192715862D01*
X200229114Y-192715863D01*
X200294949Y-192733503D01*
X200438537Y-192771978D01*
X200660000Y-192791353D01*
X200881463Y-192771978D01*
X201025051Y-192733503D01*
X201090886Y-192715863D01*
X201090888Y-192715862D01*
X201096196Y-192714440D01*
X201101178Y-192712117D01*
X201292690Y-192622814D01*
X201292695Y-192622811D01*
X201297677Y-192620488D01*
X201425429Y-192531035D01*
X201475270Y-192496136D01*
X201475273Y-192496134D01*
X201479781Y-192492977D01*
X201636977Y-192335781D01*
X201764488Y-192153676D01*
X201766811Y-192148694D01*
X201766814Y-192148689D01*
X201815805Y-192043627D01*
X201862723Y-191990342D01*
X201931000Y-191970881D01*
X201998960Y-191991423D01*
X202044195Y-192043627D01*
X202093186Y-192148689D01*
X202093189Y-192148694D01*
X202095512Y-192153676D01*
X202223023Y-192335781D01*
X202380219Y-192492977D01*
X202384727Y-192496134D01*
X202384730Y-192496136D01*
X202434571Y-192531035D01*
X202562323Y-192620488D01*
X202567305Y-192622811D01*
X202567310Y-192622814D01*
X202758822Y-192712117D01*
X202763804Y-192714440D01*
X202769112Y-192715862D01*
X202769114Y-192715863D01*
X202834949Y-192733503D01*
X202978537Y-192771978D01*
X203200000Y-192791353D01*
X203421463Y-192771978D01*
X203565051Y-192733503D01*
X203630886Y-192715863D01*
X203630888Y-192715862D01*
X203636196Y-192714440D01*
X203641178Y-192712117D01*
X203832690Y-192622814D01*
X203832695Y-192622811D01*
X203837677Y-192620488D01*
X203965429Y-192531035D01*
X204015270Y-192496136D01*
X204015273Y-192496134D01*
X204019781Y-192492977D01*
X204176977Y-192335781D01*
X204304488Y-192153676D01*
X204306811Y-192148694D01*
X204306814Y-192148689D01*
X204355805Y-192043627D01*
X204402723Y-191990342D01*
X204471000Y-191970881D01*
X204538960Y-191991423D01*
X204584195Y-192043627D01*
X204633186Y-192148689D01*
X204633189Y-192148694D01*
X204635512Y-192153676D01*
X204763023Y-192335781D01*
X204920219Y-192492977D01*
X204924727Y-192496134D01*
X204924730Y-192496136D01*
X204974571Y-192531035D01*
X205102323Y-192620488D01*
X205107305Y-192622811D01*
X205107310Y-192622814D01*
X205298822Y-192712117D01*
X205303804Y-192714440D01*
X205309112Y-192715862D01*
X205309114Y-192715863D01*
X205374949Y-192733503D01*
X205518537Y-192771978D01*
X205740000Y-192791353D01*
X205961463Y-192771978D01*
X206105051Y-192733503D01*
X206170886Y-192715863D01*
X206170888Y-192715862D01*
X206176196Y-192714440D01*
X206181178Y-192712117D01*
X206372690Y-192622814D01*
X206372695Y-192622811D01*
X206377677Y-192620488D01*
X206505429Y-192531035D01*
X206555270Y-192496136D01*
X206555273Y-192496134D01*
X206559781Y-192492977D01*
X206716977Y-192335781D01*
X206844488Y-192153676D01*
X206846811Y-192148694D01*
X206846814Y-192148689D01*
X206895805Y-192043627D01*
X206942723Y-191990342D01*
X207011000Y-191970881D01*
X207078960Y-191991423D01*
X207124195Y-192043627D01*
X207173186Y-192148689D01*
X207173189Y-192148694D01*
X207175512Y-192153676D01*
X207303023Y-192335781D01*
X207460219Y-192492977D01*
X207464727Y-192496134D01*
X207464730Y-192496136D01*
X207514571Y-192531035D01*
X207642323Y-192620488D01*
X207647305Y-192622811D01*
X207647310Y-192622814D01*
X207838822Y-192712117D01*
X207843804Y-192714440D01*
X207849112Y-192715862D01*
X207849114Y-192715863D01*
X207914949Y-192733503D01*
X208058537Y-192771978D01*
X208280000Y-192791353D01*
X208501463Y-192771978D01*
X208645051Y-192733503D01*
X208710886Y-192715863D01*
X208710888Y-192715862D01*
X208716196Y-192714440D01*
X208721178Y-192712117D01*
X208912690Y-192622814D01*
X208912695Y-192622811D01*
X208917677Y-192620488D01*
X209045429Y-192531035D01*
X209095270Y-192496136D01*
X209095273Y-192496134D01*
X209099781Y-192492977D01*
X209256977Y-192335781D01*
X209384488Y-192153676D01*
X209386811Y-192148694D01*
X209386814Y-192148689D01*
X209435805Y-192043627D01*
X209482723Y-191990342D01*
X209551000Y-191970881D01*
X209618960Y-191991423D01*
X209664195Y-192043627D01*
X209713186Y-192148689D01*
X209713189Y-192148694D01*
X209715512Y-192153676D01*
X209843023Y-192335781D01*
X210000219Y-192492977D01*
X210004727Y-192496134D01*
X210004730Y-192496136D01*
X210054571Y-192531035D01*
X210182323Y-192620488D01*
X210187305Y-192622811D01*
X210187310Y-192622814D01*
X210378822Y-192712117D01*
X210383804Y-192714440D01*
X210389112Y-192715862D01*
X210389114Y-192715863D01*
X210454949Y-192733503D01*
X210598537Y-192771978D01*
X210820000Y-192791353D01*
X211041463Y-192771978D01*
X211185051Y-192733503D01*
X211250886Y-192715863D01*
X211250888Y-192715862D01*
X211256196Y-192714440D01*
X211261178Y-192712117D01*
X211452690Y-192622814D01*
X211452695Y-192622811D01*
X211457677Y-192620488D01*
X211585429Y-192531035D01*
X211635270Y-192496136D01*
X211635273Y-192496134D01*
X211639781Y-192492977D01*
X211796977Y-192335781D01*
X211924488Y-192153676D01*
X211926811Y-192148694D01*
X211926814Y-192148689D01*
X211975805Y-192043627D01*
X212022723Y-191990342D01*
X212091000Y-191970881D01*
X212158960Y-191991423D01*
X212204195Y-192043627D01*
X212253186Y-192148689D01*
X212253189Y-192148694D01*
X212255512Y-192153676D01*
X212383023Y-192335781D01*
X212540219Y-192492977D01*
X212544727Y-192496134D01*
X212544730Y-192496136D01*
X212594571Y-192531035D01*
X212722323Y-192620488D01*
X212727305Y-192622811D01*
X212727310Y-192622814D01*
X212918822Y-192712117D01*
X212923804Y-192714440D01*
X212929112Y-192715862D01*
X212929114Y-192715863D01*
X212994949Y-192733503D01*
X213138537Y-192771978D01*
X213360000Y-192791353D01*
X213581463Y-192771978D01*
X213725051Y-192733503D01*
X213790886Y-192715863D01*
X213790888Y-192715862D01*
X213796196Y-192714440D01*
X213801178Y-192712117D01*
X213992690Y-192622814D01*
X213992695Y-192622811D01*
X213997677Y-192620488D01*
X214125429Y-192531035D01*
X214175270Y-192496136D01*
X214175273Y-192496134D01*
X214179781Y-192492977D01*
X214336977Y-192335781D01*
X214464488Y-192153676D01*
X214466811Y-192148694D01*
X214466814Y-192148689D01*
X214515805Y-192043627D01*
X214562723Y-191990342D01*
X214631000Y-191970881D01*
X214698960Y-191991423D01*
X214744195Y-192043627D01*
X214793186Y-192148689D01*
X214793189Y-192148694D01*
X214795512Y-192153676D01*
X214923023Y-192335781D01*
X215080219Y-192492977D01*
X215084727Y-192496134D01*
X215084730Y-192496136D01*
X215134571Y-192531035D01*
X215262323Y-192620488D01*
X215267305Y-192622811D01*
X215267310Y-192622814D01*
X215458822Y-192712117D01*
X215463804Y-192714440D01*
X215469112Y-192715862D01*
X215469114Y-192715863D01*
X215534949Y-192733503D01*
X215678537Y-192771978D01*
X215900000Y-192791353D01*
X216121463Y-192771978D01*
X216265051Y-192733503D01*
X216330886Y-192715863D01*
X216330888Y-192715862D01*
X216336196Y-192714440D01*
X216341178Y-192712117D01*
X216532690Y-192622814D01*
X216532695Y-192622811D01*
X216537677Y-192620488D01*
X216665429Y-192531035D01*
X216715270Y-192496136D01*
X216715273Y-192496134D01*
X216719781Y-192492977D01*
X216876977Y-192335781D01*
X217004488Y-192153676D01*
X217006811Y-192148694D01*
X217006814Y-192148689D01*
X217055805Y-192043627D01*
X217102723Y-191990342D01*
X217171000Y-191970881D01*
X217238960Y-191991423D01*
X217284195Y-192043627D01*
X217333186Y-192148689D01*
X217333189Y-192148694D01*
X217335512Y-192153676D01*
X217463023Y-192335781D01*
X217620219Y-192492977D01*
X217624727Y-192496134D01*
X217624730Y-192496136D01*
X217674571Y-192531035D01*
X217802323Y-192620488D01*
X217807305Y-192622811D01*
X217807310Y-192622814D01*
X217998822Y-192712117D01*
X218003804Y-192714440D01*
X218009112Y-192715862D01*
X218009114Y-192715863D01*
X218074949Y-192733503D01*
X218218537Y-192771978D01*
X218440000Y-192791353D01*
X218661463Y-192771978D01*
X218805051Y-192733503D01*
X218870886Y-192715863D01*
X218870888Y-192715862D01*
X218876196Y-192714440D01*
X218881178Y-192712117D01*
X219072690Y-192622814D01*
X219072695Y-192622811D01*
X219077677Y-192620488D01*
X219205429Y-192531035D01*
X219255270Y-192496136D01*
X219255273Y-192496134D01*
X219259781Y-192492977D01*
X219416977Y-192335781D01*
X219544488Y-192153676D01*
X219546811Y-192148694D01*
X219546814Y-192148689D01*
X219595805Y-192043627D01*
X219642723Y-191990342D01*
X219711000Y-191970881D01*
X219778960Y-191991423D01*
X219824195Y-192043627D01*
X219873186Y-192148689D01*
X219873189Y-192148694D01*
X219875512Y-192153676D01*
X220003023Y-192335781D01*
X220160219Y-192492977D01*
X220164727Y-192496134D01*
X220164730Y-192496136D01*
X220214571Y-192531035D01*
X220342323Y-192620488D01*
X220347305Y-192622811D01*
X220347310Y-192622814D01*
X220538822Y-192712117D01*
X220543804Y-192714440D01*
X220549112Y-192715862D01*
X220549114Y-192715863D01*
X220614949Y-192733503D01*
X220758537Y-192771978D01*
X220980000Y-192791353D01*
X221201463Y-192771978D01*
X221345051Y-192733503D01*
X221410886Y-192715863D01*
X221410888Y-192715862D01*
X221416196Y-192714440D01*
X221421178Y-192712117D01*
X221612690Y-192622814D01*
X221612695Y-192622811D01*
X221617677Y-192620488D01*
X221745429Y-192531035D01*
X221795270Y-192496136D01*
X221795273Y-192496134D01*
X221799781Y-192492977D01*
X221956977Y-192335781D01*
X222084488Y-192153676D01*
X222086811Y-192148694D01*
X222086814Y-192148689D01*
X222135805Y-192043627D01*
X222182723Y-191990342D01*
X222251000Y-191970881D01*
X222318960Y-191991423D01*
X222364195Y-192043627D01*
X222413186Y-192148689D01*
X222413189Y-192148694D01*
X222415512Y-192153676D01*
X222543023Y-192335781D01*
X222700219Y-192492977D01*
X222704727Y-192496134D01*
X222704730Y-192496136D01*
X222754571Y-192531035D01*
X222882323Y-192620488D01*
X222887305Y-192622811D01*
X222887310Y-192622814D01*
X223078822Y-192712117D01*
X223083804Y-192714440D01*
X223089112Y-192715862D01*
X223089114Y-192715863D01*
X223154949Y-192733503D01*
X223298537Y-192771978D01*
X223520000Y-192791353D01*
X223741463Y-192771978D01*
X223885051Y-192733503D01*
X223950886Y-192715863D01*
X223950888Y-192715862D01*
X223956196Y-192714440D01*
X223961178Y-192712117D01*
X224152690Y-192622814D01*
X224152695Y-192622811D01*
X224157677Y-192620488D01*
X224285429Y-192531035D01*
X224335270Y-192496136D01*
X224335273Y-192496134D01*
X224339781Y-192492977D01*
X224496977Y-192335781D01*
X224624488Y-192153676D01*
X224626811Y-192148694D01*
X224626814Y-192148689D01*
X224675805Y-192043627D01*
X224722723Y-191990342D01*
X224791000Y-191970881D01*
X224858960Y-191991423D01*
X224904195Y-192043627D01*
X224953186Y-192148689D01*
X224953189Y-192148694D01*
X224955512Y-192153676D01*
X225083023Y-192335781D01*
X225240219Y-192492977D01*
X225244727Y-192496134D01*
X225244730Y-192496136D01*
X225294571Y-192531035D01*
X225422323Y-192620488D01*
X225427305Y-192622811D01*
X225427310Y-192622814D01*
X225618822Y-192712117D01*
X225623804Y-192714440D01*
X225629112Y-192715862D01*
X225629114Y-192715863D01*
X225694949Y-192733503D01*
X225838537Y-192771978D01*
X226060000Y-192791353D01*
X226281463Y-192771978D01*
X226425051Y-192733503D01*
X226490886Y-192715863D01*
X226490888Y-192715862D01*
X226496196Y-192714440D01*
X226501178Y-192712117D01*
X226692690Y-192622814D01*
X226692695Y-192622811D01*
X226697677Y-192620488D01*
X226825429Y-192531035D01*
X226875270Y-192496136D01*
X226875273Y-192496134D01*
X226879781Y-192492977D01*
X227036977Y-192335781D01*
X227164488Y-192153676D01*
X227166811Y-192148694D01*
X227166814Y-192148689D01*
X227256117Y-191957178D01*
X227256118Y-191957177D01*
X227258440Y-191952196D01*
X227315978Y-191737463D01*
X227335353Y-191516000D01*
X227315978Y-191294537D01*
X227258440Y-191079804D01*
X227215805Y-190988373D01*
X227166814Y-190883311D01*
X227166811Y-190883306D01*
X227164488Y-190878324D01*
X227036977Y-190696219D01*
X226879781Y-190539023D01*
X226875273Y-190535866D01*
X226875270Y-190535864D01*
X226799505Y-190482813D01*
X226697677Y-190411512D01*
X226692695Y-190409189D01*
X226692690Y-190409186D01*
X226501178Y-190319883D01*
X226501177Y-190319882D01*
X226496196Y-190317560D01*
X226490888Y-190316138D01*
X226490886Y-190316137D01*
X226425051Y-190298497D01*
X226281463Y-190260022D01*
X226060000Y-190240647D01*
X225838537Y-190260022D01*
X225694949Y-190298497D01*
X225629114Y-190316137D01*
X225629112Y-190316138D01*
X225623804Y-190317560D01*
X225618823Y-190319882D01*
X225618822Y-190319883D01*
X225427311Y-190409186D01*
X225427306Y-190409189D01*
X225422324Y-190411512D01*
X225417817Y-190414668D01*
X225417815Y-190414669D01*
X225244730Y-190535864D01*
X225244727Y-190535866D01*
X225240219Y-190539023D01*
X225083023Y-190696219D01*
X224955512Y-190878324D01*
X224953189Y-190883306D01*
X224953186Y-190883311D01*
X224904195Y-190988373D01*
X224857277Y-191041658D01*
X224789000Y-191061119D01*
X224721040Y-191040577D01*
X224675805Y-190988373D01*
X224626814Y-190883311D01*
X224626811Y-190883306D01*
X224624488Y-190878324D01*
X224496977Y-190696219D01*
X224339781Y-190539023D01*
X224335273Y-190535866D01*
X224335270Y-190535864D01*
X224259505Y-190482813D01*
X224157677Y-190411512D01*
X224152695Y-190409189D01*
X224152690Y-190409186D01*
X223961178Y-190319883D01*
X223961177Y-190319882D01*
X223956196Y-190317560D01*
X223950888Y-190316138D01*
X223950886Y-190316137D01*
X223885051Y-190298497D01*
X223741463Y-190260022D01*
X223520000Y-190240647D01*
X223298537Y-190260022D01*
X223154949Y-190298497D01*
X223089114Y-190316137D01*
X223089112Y-190316138D01*
X223083804Y-190317560D01*
X223078823Y-190319882D01*
X223078822Y-190319883D01*
X222887311Y-190409186D01*
X222887306Y-190409189D01*
X222882324Y-190411512D01*
X222877817Y-190414668D01*
X222877815Y-190414669D01*
X222704730Y-190535864D01*
X222704727Y-190535866D01*
X222700219Y-190539023D01*
X222543023Y-190696219D01*
X222415512Y-190878324D01*
X222413189Y-190883306D01*
X222413186Y-190883311D01*
X222364195Y-190988373D01*
X222317277Y-191041658D01*
X222249000Y-191061119D01*
X222181040Y-191040577D01*
X222135805Y-190988373D01*
X222086814Y-190883311D01*
X222086811Y-190883306D01*
X222084488Y-190878324D01*
X221956977Y-190696219D01*
X221799781Y-190539023D01*
X221795273Y-190535866D01*
X221795270Y-190535864D01*
X221719505Y-190482813D01*
X221617677Y-190411512D01*
X221612695Y-190409189D01*
X221612690Y-190409186D01*
X221421178Y-190319883D01*
X221421177Y-190319882D01*
X221416196Y-190317560D01*
X221410888Y-190316138D01*
X221410886Y-190316137D01*
X221345051Y-190298497D01*
X221201463Y-190260022D01*
X220980000Y-190240647D01*
X220758537Y-190260022D01*
X220614949Y-190298497D01*
X220549114Y-190316137D01*
X220549112Y-190316138D01*
X220543804Y-190317560D01*
X220538823Y-190319882D01*
X220538822Y-190319883D01*
X220347311Y-190409186D01*
X220347306Y-190409189D01*
X220342324Y-190411512D01*
X220337817Y-190414668D01*
X220337815Y-190414669D01*
X220164730Y-190535864D01*
X220164727Y-190535866D01*
X220160219Y-190539023D01*
X220003023Y-190696219D01*
X219875512Y-190878324D01*
X219873189Y-190883306D01*
X219873186Y-190883311D01*
X219824195Y-190988373D01*
X219777277Y-191041658D01*
X219709000Y-191061119D01*
X219641040Y-191040577D01*
X219595805Y-190988373D01*
X219546814Y-190883311D01*
X219546811Y-190883306D01*
X219544488Y-190878324D01*
X219416977Y-190696219D01*
X219259781Y-190539023D01*
X219255273Y-190535866D01*
X219255270Y-190535864D01*
X219179505Y-190482813D01*
X219077677Y-190411512D01*
X219072695Y-190409189D01*
X219072690Y-190409186D01*
X218881178Y-190319883D01*
X218881177Y-190319882D01*
X218876196Y-190317560D01*
X218870888Y-190316138D01*
X218870886Y-190316137D01*
X218805051Y-190298497D01*
X218661463Y-190260022D01*
X218440000Y-190240647D01*
X218218537Y-190260022D01*
X218074949Y-190298497D01*
X218009114Y-190316137D01*
X218009112Y-190316138D01*
X218003804Y-190317560D01*
X217998823Y-190319882D01*
X217998822Y-190319883D01*
X217807311Y-190409186D01*
X217807306Y-190409189D01*
X217802324Y-190411512D01*
X217797817Y-190414668D01*
X217797815Y-190414669D01*
X217624730Y-190535864D01*
X217624727Y-190535866D01*
X217620219Y-190539023D01*
X217463023Y-190696219D01*
X217335512Y-190878324D01*
X217333189Y-190883306D01*
X217333186Y-190883311D01*
X217284195Y-190988373D01*
X217237277Y-191041658D01*
X217169000Y-191061119D01*
X217101040Y-191040577D01*
X217055805Y-190988373D01*
X217006814Y-190883311D01*
X217006811Y-190883306D01*
X217004488Y-190878324D01*
X216876977Y-190696219D01*
X216719781Y-190539023D01*
X216715273Y-190535866D01*
X216715270Y-190535864D01*
X216639505Y-190482813D01*
X216537677Y-190411512D01*
X216532695Y-190409189D01*
X216532690Y-190409186D01*
X216341178Y-190319883D01*
X216341177Y-190319882D01*
X216336196Y-190317560D01*
X216330888Y-190316138D01*
X216330886Y-190316137D01*
X216265051Y-190298497D01*
X216121463Y-190260022D01*
X215900000Y-190240647D01*
X215678537Y-190260022D01*
X215534949Y-190298497D01*
X215469114Y-190316137D01*
X215469112Y-190316138D01*
X215463804Y-190317560D01*
X215458823Y-190319882D01*
X215458822Y-190319883D01*
X215267311Y-190409186D01*
X215267306Y-190409189D01*
X215262324Y-190411512D01*
X215257817Y-190414668D01*
X215257815Y-190414669D01*
X215084730Y-190535864D01*
X215084727Y-190535866D01*
X215080219Y-190539023D01*
X214923023Y-190696219D01*
X214795512Y-190878324D01*
X214793189Y-190883306D01*
X214793186Y-190883311D01*
X214744195Y-190988373D01*
X214697277Y-191041658D01*
X214629000Y-191061119D01*
X214561040Y-191040577D01*
X214515805Y-190988373D01*
X214466814Y-190883311D01*
X214466811Y-190883306D01*
X214464488Y-190878324D01*
X214336977Y-190696219D01*
X214179781Y-190539023D01*
X214175273Y-190535866D01*
X214175270Y-190535864D01*
X214099505Y-190482813D01*
X213997677Y-190411512D01*
X213992695Y-190409189D01*
X213992690Y-190409186D01*
X213801178Y-190319883D01*
X213801177Y-190319882D01*
X213796196Y-190317560D01*
X213790888Y-190316138D01*
X213790886Y-190316137D01*
X213725051Y-190298497D01*
X213581463Y-190260022D01*
X213360000Y-190240647D01*
X213138537Y-190260022D01*
X212994949Y-190298497D01*
X212929114Y-190316137D01*
X212929112Y-190316138D01*
X212923804Y-190317560D01*
X212918823Y-190319882D01*
X212918822Y-190319883D01*
X212727311Y-190409186D01*
X212727306Y-190409189D01*
X212722324Y-190411512D01*
X212717817Y-190414668D01*
X212717815Y-190414669D01*
X212544730Y-190535864D01*
X212544727Y-190535866D01*
X212540219Y-190539023D01*
X212383023Y-190696219D01*
X212255512Y-190878324D01*
X212253189Y-190883306D01*
X212253186Y-190883311D01*
X212204195Y-190988373D01*
X212157277Y-191041658D01*
X212089000Y-191061119D01*
X212021040Y-191040577D01*
X211975805Y-190988373D01*
X211926814Y-190883311D01*
X211926811Y-190883306D01*
X211924488Y-190878324D01*
X211796977Y-190696219D01*
X211639781Y-190539023D01*
X211635273Y-190535866D01*
X211635270Y-190535864D01*
X211559505Y-190482813D01*
X211457677Y-190411512D01*
X211452695Y-190409189D01*
X211452690Y-190409186D01*
X211261178Y-190319883D01*
X211261177Y-190319882D01*
X211256196Y-190317560D01*
X211250888Y-190316138D01*
X211250886Y-190316137D01*
X211185051Y-190298497D01*
X211041463Y-190260022D01*
X210820000Y-190240647D01*
X210598537Y-190260022D01*
X210454949Y-190298497D01*
X210389114Y-190316137D01*
X210389112Y-190316138D01*
X210383804Y-190317560D01*
X210378823Y-190319882D01*
X210378822Y-190319883D01*
X210187311Y-190409186D01*
X210187306Y-190409189D01*
X210182324Y-190411512D01*
X210177817Y-190414668D01*
X210177815Y-190414669D01*
X210004730Y-190535864D01*
X210004727Y-190535866D01*
X210000219Y-190539023D01*
X209843023Y-190696219D01*
X209715512Y-190878324D01*
X209713189Y-190883306D01*
X209713186Y-190883311D01*
X209664195Y-190988373D01*
X209617277Y-191041658D01*
X209549000Y-191061119D01*
X209481040Y-191040577D01*
X209435805Y-190988373D01*
X209386814Y-190883311D01*
X209386811Y-190883306D01*
X209384488Y-190878324D01*
X209256977Y-190696219D01*
X209099781Y-190539023D01*
X209095273Y-190535866D01*
X209095270Y-190535864D01*
X209019505Y-190482813D01*
X208917677Y-190411512D01*
X208912695Y-190409189D01*
X208912690Y-190409186D01*
X208721178Y-190319883D01*
X208721177Y-190319882D01*
X208716196Y-190317560D01*
X208710888Y-190316138D01*
X208710886Y-190316137D01*
X208645051Y-190298497D01*
X208501463Y-190260022D01*
X208280000Y-190240647D01*
X208058537Y-190260022D01*
X207914949Y-190298497D01*
X207849114Y-190316137D01*
X207849112Y-190316138D01*
X207843804Y-190317560D01*
X207838823Y-190319882D01*
X207838822Y-190319883D01*
X207647311Y-190409186D01*
X207647306Y-190409189D01*
X207642324Y-190411512D01*
X207637817Y-190414668D01*
X207637815Y-190414669D01*
X207464730Y-190535864D01*
X207464727Y-190535866D01*
X207460219Y-190539023D01*
X207303023Y-190696219D01*
X207175512Y-190878324D01*
X207173189Y-190883306D01*
X207173186Y-190883311D01*
X207124195Y-190988373D01*
X207077277Y-191041658D01*
X207009000Y-191061119D01*
X206941040Y-191040577D01*
X206895805Y-190988373D01*
X206846814Y-190883311D01*
X206846811Y-190883306D01*
X206844488Y-190878324D01*
X206716977Y-190696219D01*
X206559781Y-190539023D01*
X206555273Y-190535866D01*
X206555270Y-190535864D01*
X206479505Y-190482813D01*
X206377677Y-190411512D01*
X206372695Y-190409189D01*
X206372690Y-190409186D01*
X206181178Y-190319883D01*
X206181177Y-190319882D01*
X206176196Y-190317560D01*
X206170888Y-190316138D01*
X206170886Y-190316137D01*
X206105051Y-190298497D01*
X205961463Y-190260022D01*
X205740000Y-190240647D01*
X205518537Y-190260022D01*
X205374949Y-190298497D01*
X205309114Y-190316137D01*
X205309112Y-190316138D01*
X205303804Y-190317560D01*
X205298823Y-190319882D01*
X205298822Y-190319883D01*
X205107311Y-190409186D01*
X205107306Y-190409189D01*
X205102324Y-190411512D01*
X205097817Y-190414668D01*
X205097815Y-190414669D01*
X204924730Y-190535864D01*
X204924727Y-190535866D01*
X204920219Y-190539023D01*
X204763023Y-190696219D01*
X204635512Y-190878324D01*
X204633189Y-190883306D01*
X204633186Y-190883311D01*
X204584195Y-190988373D01*
X204537277Y-191041658D01*
X204469000Y-191061119D01*
X204401040Y-191040577D01*
X204355805Y-190988373D01*
X204306814Y-190883311D01*
X204306811Y-190883306D01*
X204304488Y-190878324D01*
X204176977Y-190696219D01*
X204019781Y-190539023D01*
X204015273Y-190535866D01*
X204015270Y-190535864D01*
X203939505Y-190482813D01*
X203837677Y-190411512D01*
X203832695Y-190409189D01*
X203832690Y-190409186D01*
X203641178Y-190319883D01*
X203641177Y-190319882D01*
X203636196Y-190317560D01*
X203630888Y-190316138D01*
X203630886Y-190316137D01*
X203565051Y-190298497D01*
X203421463Y-190260022D01*
X203200000Y-190240647D01*
X202978537Y-190260022D01*
X202834949Y-190298497D01*
X202769114Y-190316137D01*
X202769112Y-190316138D01*
X202763804Y-190317560D01*
X202758823Y-190319882D01*
X202758822Y-190319883D01*
X202567311Y-190409186D01*
X202567306Y-190409189D01*
X202562324Y-190411512D01*
X202557817Y-190414668D01*
X202557815Y-190414669D01*
X202384730Y-190535864D01*
X202384727Y-190535866D01*
X202380219Y-190539023D01*
X202223023Y-190696219D01*
X202095512Y-190878324D01*
X202093189Y-190883306D01*
X202093186Y-190883311D01*
X202044195Y-190988373D01*
X201997277Y-191041658D01*
X201929000Y-191061119D01*
X201861040Y-191040577D01*
X201815805Y-190988373D01*
X201766814Y-190883311D01*
X201766811Y-190883306D01*
X201764488Y-190878324D01*
X201636977Y-190696219D01*
X201479781Y-190539023D01*
X201475273Y-190535866D01*
X201475270Y-190535864D01*
X201399505Y-190482813D01*
X201297677Y-190411512D01*
X201292695Y-190409189D01*
X201292690Y-190409186D01*
X201101178Y-190319883D01*
X201101177Y-190319882D01*
X201096196Y-190317560D01*
X201090888Y-190316138D01*
X201090886Y-190316137D01*
X201025051Y-190298497D01*
X200881463Y-190260022D01*
X200660000Y-190240647D01*
X200438537Y-190260022D01*
X200294949Y-190298497D01*
X200229114Y-190316137D01*
X200229112Y-190316138D01*
X200223804Y-190317560D01*
X200218823Y-190319882D01*
X200218822Y-190319883D01*
X200027311Y-190409186D01*
X200027306Y-190409189D01*
X200022324Y-190411512D01*
X200017817Y-190414668D01*
X200017815Y-190414669D01*
X199844730Y-190535864D01*
X199844727Y-190535866D01*
X199840219Y-190539023D01*
X199683023Y-190696219D01*
X199555512Y-190878324D01*
X199553189Y-190883306D01*
X199553186Y-190883311D01*
X199504195Y-190988373D01*
X199457277Y-191041658D01*
X199389000Y-191061119D01*
X199321040Y-191040577D01*
X199275805Y-190988373D01*
X199226814Y-190883311D01*
X199226811Y-190883306D01*
X199224488Y-190878324D01*
X199096977Y-190696219D01*
X198939781Y-190539023D01*
X198935273Y-190535866D01*
X198935270Y-190535864D01*
X198859505Y-190482813D01*
X198757677Y-190411512D01*
X198752695Y-190409189D01*
X198752690Y-190409186D01*
X198561178Y-190319883D01*
X198561177Y-190319882D01*
X198556196Y-190317560D01*
X198550888Y-190316138D01*
X198550886Y-190316137D01*
X198485051Y-190298497D01*
X198341463Y-190260022D01*
X198120000Y-190240647D01*
X197898537Y-190260022D01*
X197754949Y-190298497D01*
X197689114Y-190316137D01*
X197689112Y-190316138D01*
X197683804Y-190317560D01*
X197678823Y-190319882D01*
X197678822Y-190319883D01*
X197487311Y-190409186D01*
X197487306Y-190409189D01*
X197482324Y-190411512D01*
X197477817Y-190414668D01*
X197477815Y-190414669D01*
X197304730Y-190535864D01*
X197304727Y-190535866D01*
X197300219Y-190539023D01*
X197143023Y-190696219D01*
X197015512Y-190878324D01*
X197013189Y-190883306D01*
X197013186Y-190883311D01*
X196964195Y-190988373D01*
X196917277Y-191041658D01*
X196849000Y-191061119D01*
X196781040Y-191040577D01*
X196735805Y-190988373D01*
X196686814Y-190883311D01*
X196686811Y-190883306D01*
X196684488Y-190878324D01*
X196556977Y-190696219D01*
X196399781Y-190539023D01*
X196395273Y-190535866D01*
X196395270Y-190535864D01*
X196319505Y-190482813D01*
X196217677Y-190411512D01*
X196212695Y-190409189D01*
X196212690Y-190409186D01*
X196021178Y-190319883D01*
X196021177Y-190319882D01*
X196016196Y-190317560D01*
X196010888Y-190316138D01*
X196010886Y-190316137D01*
X195945051Y-190298497D01*
X195801463Y-190260022D01*
X195580000Y-190240647D01*
X195358537Y-190260022D01*
X195214949Y-190298497D01*
X195149114Y-190316137D01*
X195149112Y-190316138D01*
X195143804Y-190317560D01*
X195138823Y-190319882D01*
X195138822Y-190319883D01*
X194947311Y-190409186D01*
X194947306Y-190409189D01*
X194942324Y-190411512D01*
X194937817Y-190414668D01*
X194937815Y-190414669D01*
X194764730Y-190535864D01*
X194764727Y-190535866D01*
X194760219Y-190539023D01*
X194603023Y-190696219D01*
X194475512Y-190878324D01*
X194473189Y-190883306D01*
X194473186Y-190883311D01*
X194424195Y-190988373D01*
X194377277Y-191041658D01*
X194309000Y-191061119D01*
X194241040Y-191040577D01*
X194195805Y-190988373D01*
X194146814Y-190883311D01*
X194146811Y-190883306D01*
X194144488Y-190878324D01*
X194016977Y-190696219D01*
X193859781Y-190539023D01*
X193855273Y-190535866D01*
X193855270Y-190535864D01*
X193779505Y-190482813D01*
X193677677Y-190411512D01*
X193672695Y-190409189D01*
X193672690Y-190409186D01*
X193481178Y-190319883D01*
X193481177Y-190319882D01*
X193476196Y-190317560D01*
X193470888Y-190316138D01*
X193470886Y-190316137D01*
X193405051Y-190298497D01*
X193261463Y-190260022D01*
X193040000Y-190240647D01*
X192818537Y-190260022D01*
X192674949Y-190298497D01*
X192609114Y-190316137D01*
X192609112Y-190316138D01*
X192603804Y-190317560D01*
X192598823Y-190319882D01*
X192598822Y-190319883D01*
X192407311Y-190409186D01*
X192407306Y-190409189D01*
X192402324Y-190411512D01*
X192397817Y-190414668D01*
X192397815Y-190414669D01*
X192224730Y-190535864D01*
X192224727Y-190535866D01*
X192220219Y-190539023D01*
X192063023Y-190696219D01*
X191935512Y-190878324D01*
X191933189Y-190883306D01*
X191933186Y-190883311D01*
X191884195Y-190988373D01*
X191837277Y-191041658D01*
X191769000Y-191061119D01*
X191701040Y-191040577D01*
X191655805Y-190988373D01*
X191606814Y-190883311D01*
X191606811Y-190883306D01*
X191604488Y-190878324D01*
X191476977Y-190696219D01*
X191319781Y-190539023D01*
X191315273Y-190535866D01*
X191315270Y-190535864D01*
X191239505Y-190482813D01*
X191137677Y-190411512D01*
X191132695Y-190409189D01*
X191132690Y-190409186D01*
X190941178Y-190319883D01*
X190941177Y-190319882D01*
X190936196Y-190317560D01*
X190930888Y-190316138D01*
X190930886Y-190316137D01*
X190865051Y-190298497D01*
X190721463Y-190260022D01*
X190500000Y-190240647D01*
X190278537Y-190260022D01*
X190134949Y-190298497D01*
X190069114Y-190316137D01*
X190069112Y-190316138D01*
X190063804Y-190317560D01*
X190058823Y-190319882D01*
X190058822Y-190319883D01*
X189867311Y-190409186D01*
X189867306Y-190409189D01*
X189862324Y-190411512D01*
X189857817Y-190414668D01*
X189857815Y-190414669D01*
X189684730Y-190535864D01*
X189684727Y-190535866D01*
X189680219Y-190539023D01*
X189523023Y-190696219D01*
X189395512Y-190878324D01*
X189393189Y-190883306D01*
X189393186Y-190883311D01*
X189344195Y-190988373D01*
X189297277Y-191041658D01*
X189229000Y-191061119D01*
X189161040Y-191040577D01*
X189115805Y-190988373D01*
X189066814Y-190883311D01*
X189066811Y-190883306D01*
X189064488Y-190878324D01*
X188936977Y-190696219D01*
X188779781Y-190539023D01*
X188775273Y-190535866D01*
X188775270Y-190535864D01*
X188699505Y-190482813D01*
X188597677Y-190411512D01*
X188592695Y-190409189D01*
X188592690Y-190409186D01*
X188401178Y-190319883D01*
X188401177Y-190319882D01*
X188396196Y-190317560D01*
X188390888Y-190316138D01*
X188390886Y-190316137D01*
X188325051Y-190298497D01*
X188181463Y-190260022D01*
X187960000Y-190240647D01*
X187738537Y-190260022D01*
X187594949Y-190298497D01*
X187529114Y-190316137D01*
X187529112Y-190316138D01*
X187523804Y-190317560D01*
X187518823Y-190319882D01*
X187518822Y-190319883D01*
X187327311Y-190409186D01*
X187327306Y-190409189D01*
X187322324Y-190411512D01*
X187317817Y-190414668D01*
X187317815Y-190414669D01*
X187144730Y-190535864D01*
X187144727Y-190535866D01*
X187140219Y-190539023D01*
X186983023Y-190696219D01*
X186855512Y-190878324D01*
X186853189Y-190883306D01*
X186853186Y-190883311D01*
X186804195Y-190988373D01*
X186757277Y-191041658D01*
X186689000Y-191061119D01*
X186621040Y-191040577D01*
X186575805Y-190988373D01*
X186526814Y-190883311D01*
X186526811Y-190883306D01*
X186524488Y-190878324D01*
X186396977Y-190696219D01*
X186239781Y-190539023D01*
X186235273Y-190535866D01*
X186235270Y-190535864D01*
X186159505Y-190482813D01*
X186057677Y-190411512D01*
X186052695Y-190409189D01*
X186052690Y-190409186D01*
X185861178Y-190319883D01*
X185861177Y-190319882D01*
X185856196Y-190317560D01*
X185850888Y-190316138D01*
X185850886Y-190316137D01*
X185785051Y-190298497D01*
X185641463Y-190260022D01*
X185420000Y-190240647D01*
X185198537Y-190260022D01*
X185054949Y-190298497D01*
X184989114Y-190316137D01*
X184989112Y-190316138D01*
X184983804Y-190317560D01*
X184978823Y-190319882D01*
X184978822Y-190319883D01*
X184787311Y-190409186D01*
X184787306Y-190409189D01*
X184782324Y-190411512D01*
X184777817Y-190414668D01*
X184777815Y-190414669D01*
X184604730Y-190535864D01*
X184604727Y-190535866D01*
X184600219Y-190539023D01*
X184443023Y-190696219D01*
X184315512Y-190878324D01*
X184313189Y-190883306D01*
X184313186Y-190883311D01*
X184264195Y-190988373D01*
X184217277Y-191041658D01*
X184149000Y-191061119D01*
X184081040Y-191040577D01*
X184035805Y-190988373D01*
X183986814Y-190883311D01*
X183986811Y-190883306D01*
X183984488Y-190878324D01*
X183856977Y-190696219D01*
X183699781Y-190539023D01*
X183695273Y-190535866D01*
X183695270Y-190535864D01*
X183619505Y-190482813D01*
X183517677Y-190411512D01*
X183512695Y-190409189D01*
X183512690Y-190409186D01*
X183321178Y-190319883D01*
X183321177Y-190319882D01*
X183316196Y-190317560D01*
X183310888Y-190316138D01*
X183310886Y-190316137D01*
X183245051Y-190298497D01*
X183101463Y-190260022D01*
X182880000Y-190240647D01*
X182658537Y-190260022D01*
X182514949Y-190298497D01*
X182449114Y-190316137D01*
X182449112Y-190316138D01*
X182443804Y-190317560D01*
X182438823Y-190319882D01*
X182438822Y-190319883D01*
X182247311Y-190409186D01*
X182247306Y-190409189D01*
X182242324Y-190411512D01*
X182237817Y-190414668D01*
X182237815Y-190414669D01*
X182064730Y-190535864D01*
X182064727Y-190535866D01*
X182060219Y-190539023D01*
X181903023Y-190696219D01*
X181775512Y-190878324D01*
X181773189Y-190883306D01*
X181773186Y-190883311D01*
X181724195Y-190988373D01*
X181677277Y-191041658D01*
X181609000Y-191061119D01*
X181541040Y-191040577D01*
X181495805Y-190988373D01*
X181446814Y-190883311D01*
X181446811Y-190883306D01*
X181444488Y-190878324D01*
X181316977Y-190696219D01*
X181159781Y-190539023D01*
X181155273Y-190535866D01*
X181155270Y-190535864D01*
X181079505Y-190482813D01*
X180977677Y-190411512D01*
X180972695Y-190409189D01*
X180972690Y-190409186D01*
X180781178Y-190319883D01*
X180781177Y-190319882D01*
X180776196Y-190317560D01*
X180770888Y-190316138D01*
X180770886Y-190316137D01*
X180705051Y-190298497D01*
X180561463Y-190260022D01*
X180340000Y-190240647D01*
X180118537Y-190260022D01*
X179974949Y-190298497D01*
X179909114Y-190316137D01*
X179909112Y-190316138D01*
X179903804Y-190317560D01*
X179898823Y-190319882D01*
X179898822Y-190319883D01*
X179707311Y-190409186D01*
X179707306Y-190409189D01*
X179702324Y-190411512D01*
X179697817Y-190414668D01*
X179697815Y-190414669D01*
X179524730Y-190535864D01*
X179524727Y-190535866D01*
X179520219Y-190539023D01*
X179363023Y-190696219D01*
X179235512Y-190878324D01*
X179233189Y-190883306D01*
X179233186Y-190883311D01*
X179184195Y-190988373D01*
X179141560Y-191079804D01*
X179084022Y-191294537D01*
X179064647Y-191516000D01*
X179084022Y-191737463D01*
X179141560Y-191952196D01*
X179143882Y-191957177D01*
X179143883Y-191957178D01*
X179233186Y-192148689D01*
X179233189Y-192148694D01*
X179235512Y-192153676D01*
X179363023Y-192335781D01*
X179520219Y-192492977D01*
X179524727Y-192496134D01*
X179524730Y-192496136D01*
X179574571Y-192531035D01*
X179702323Y-192620488D01*
X179707305Y-192622811D01*
X179707310Y-192622814D01*
X179898822Y-192712117D01*
X179903804Y-192714440D01*
X179909112Y-192715862D01*
X179909114Y-192715863D01*
X179974949Y-192733503D01*
X180118537Y-192771978D01*
X180340000Y-192791353D01*
X180561463Y-192771978D01*
X180705051Y-192733503D01*
X180770886Y-192715863D01*
X180770888Y-192715862D01*
X180776196Y-192714440D01*
X180781178Y-192712117D01*
X180972690Y-192622814D01*
X180972695Y-192622811D01*
X180977677Y-192620488D01*
X181105429Y-192531035D01*
X181155270Y-192496136D01*
X181155273Y-192496134D01*
X181159781Y-192492977D01*
X181316977Y-192335781D01*
X181444488Y-192153676D01*
X181446811Y-192148694D01*
X181446814Y-192148689D01*
X181495805Y-192043627D01*
X181542723Y-191990342D01*
X181611000Y-191970881D01*
X181678960Y-191991423D01*
X181724195Y-192043627D01*
X181773186Y-192148689D01*
X181773189Y-192148694D01*
X181775512Y-192153676D01*
X181903023Y-192335781D01*
X182060219Y-192492977D01*
X182064727Y-192496134D01*
X182064730Y-192496136D01*
X182114571Y-192531035D01*
X182242323Y-192620488D01*
X182247305Y-192622811D01*
X182247310Y-192622814D01*
X182438822Y-192712117D01*
X182443804Y-192714440D01*
X182449112Y-192715862D01*
X182449114Y-192715863D01*
X182514949Y-192733503D01*
X182658537Y-192771978D01*
X182880000Y-192791353D01*
X183101463Y-192771978D01*
X183245051Y-192733503D01*
X183310886Y-192715863D01*
X183310888Y-192715862D01*
X183316196Y-192714440D01*
X183321178Y-192712117D01*
X183512690Y-192622814D01*
X183512695Y-192622811D01*
X183517677Y-192620488D01*
X183645429Y-192531035D01*
X183695270Y-192496136D01*
X183695273Y-192496134D01*
X183699781Y-192492977D01*
X183856977Y-192335781D01*
X183984488Y-192153676D01*
X183986811Y-192148694D01*
X183986814Y-192148689D01*
X184035805Y-192043627D01*
X184082723Y-191990342D01*
X184151000Y-191970881D01*
X184218960Y-191991423D01*
X184264195Y-192043627D01*
X184313186Y-192148689D01*
X184313189Y-192148694D01*
X184315512Y-192153676D01*
X184443023Y-192335781D01*
X184600219Y-192492977D01*
X184604727Y-192496134D01*
X184604730Y-192496136D01*
X184654571Y-192531035D01*
X184698899Y-192586492D01*
X184708300Y-192634248D01*
X184708300Y-194026970D01*
X184708008Y-194035540D01*
X184704055Y-194093521D01*
X184705360Y-194100997D01*
X184705360Y-194101000D01*
X184715096Y-194156783D01*
X184716059Y-194163308D01*
X184723768Y-194227011D01*
X184726454Y-194234119D01*
X184727019Y-194236419D01*
X184731686Y-194253480D01*
X184732366Y-194255734D01*
X184733672Y-194263215D01*
X184736724Y-194270167D01*
X184759475Y-194321995D01*
X184761967Y-194328102D01*
X184784657Y-194388149D01*
X184788956Y-194394404D01*
X184790049Y-194396495D01*
X184798655Y-194411957D01*
X184799858Y-194413991D01*
X184802911Y-194420946D01*
X184807534Y-194426971D01*
X184807537Y-194426976D01*
X184841988Y-194471874D01*
X184845864Y-194477209D01*
X184877918Y-194523847D01*
X184877923Y-194523853D01*
X184882225Y-194530112D01*
X184887899Y-194535167D01*
X184928973Y-194571763D01*
X184934249Y-194576744D01*
X186873940Y-196516436D01*
X186907966Y-196578748D01*
X186902901Y-196649564D01*
X186860354Y-196706399D01*
X186849269Y-196713815D01*
X186819586Y-196731475D01*
X186814472Y-196734518D01*
X186665239Y-196865392D01*
X186542355Y-197021270D01*
X186449935Y-197196931D01*
X186391075Y-197386493D01*
X186367745Y-197583608D01*
X186380727Y-197781673D01*
X186429586Y-197974056D01*
X186512685Y-198154313D01*
X186627243Y-198316409D01*
X186769422Y-198454913D01*
X186774226Y-198458123D01*
X186790702Y-198469132D01*
X186836230Y-198523609D01*
X186846700Y-198573897D01*
X186846700Y-213682604D01*
X186826698Y-213750725D01*
X186791069Y-213787123D01*
X186680681Y-213861441D01*
X186513865Y-214020576D01*
X186484597Y-214059913D01*
X186427889Y-214102626D01*
X186383509Y-214110700D01*
X181315448Y-214110700D01*
X181247327Y-214090698D01*
X181220282Y-214067280D01*
X181213889Y-214059912D01*
X181115523Y-213946555D01*
X181073970Y-213912484D01*
X180941373Y-213803760D01*
X180941367Y-213803756D01*
X180937245Y-213800376D01*
X180932609Y-213797737D01*
X180932606Y-213797735D01*
X180741529Y-213688968D01*
X180736886Y-213686325D01*
X180520175Y-213607663D01*
X180514926Y-213606714D01*
X180514923Y-213606713D01*
X180297392Y-213567377D01*
X180297385Y-213567376D01*
X180293308Y-213566639D01*
X180275586Y-213565803D01*
X180270644Y-213565570D01*
X180270637Y-213565570D01*
X180269156Y-213565500D01*
X179857110Y-213565500D01*
X179790191Y-213571178D01*
X179690591Y-213579629D01*
X179690587Y-213579630D01*
X179685280Y-213580080D01*
X179680125Y-213581418D01*
X179680119Y-213581419D01*
X179467297Y-213636657D01*
X179467293Y-213636658D01*
X179462128Y-213637999D01*
X179457262Y-213640191D01*
X179457259Y-213640192D01*
X179348980Y-213688968D01*
X179251925Y-213732688D01*
X179060681Y-213861441D01*
X178893865Y-214020576D01*
X178864597Y-214059913D01*
X178807889Y-214102626D01*
X178763509Y-214110700D01*
X173695448Y-214110700D01*
X173627327Y-214090698D01*
X173600282Y-214067280D01*
X173593889Y-214059912D01*
X173495523Y-213946555D01*
X173453970Y-213912484D01*
X173321373Y-213803760D01*
X173321367Y-213803756D01*
X173317245Y-213800376D01*
X173312609Y-213797737D01*
X173312606Y-213797735D01*
X173121529Y-213688968D01*
X173116886Y-213686325D01*
X172900175Y-213607663D01*
X172894926Y-213606714D01*
X172894923Y-213606713D01*
X172677392Y-213567377D01*
X172677385Y-213567376D01*
X172673308Y-213566639D01*
X172655586Y-213565803D01*
X172650644Y-213565570D01*
X172650637Y-213565570D01*
X172649156Y-213565500D01*
X172237110Y-213565500D01*
X172170191Y-213571178D01*
X172070591Y-213579629D01*
X172070587Y-213579630D01*
X172065280Y-213580080D01*
X172060125Y-213581418D01*
X172060119Y-213581419D01*
X171847297Y-213636657D01*
X171847293Y-213636658D01*
X171842128Y-213637999D01*
X171837262Y-213640191D01*
X171837259Y-213640192D01*
X171728980Y-213688968D01*
X171631925Y-213732688D01*
X171440681Y-213861441D01*
X171273865Y-214020576D01*
X171136246Y-214205542D01*
X171133830Y-214210293D01*
X171133828Y-214210297D01*
X171096614Y-214283493D01*
X171031760Y-214411051D01*
X171030178Y-214416145D01*
X171030177Y-214416148D01*
X170968115Y-214616020D01*
X170963393Y-214631227D01*
X170962692Y-214636516D01*
X170947304Y-214752623D01*
X170933102Y-214859774D01*
X170933302Y-214865103D01*
X170933302Y-214865105D01*
X170934011Y-214884000D01*
X170941751Y-215090158D01*
X170989093Y-215315791D01*
X170991051Y-215320750D01*
X170991052Y-215320752D01*
X171038408Y-215440663D01*
X171073776Y-215530221D01*
X171076543Y-215534780D01*
X171076544Y-215534783D01*
X171085300Y-215549212D01*
X171193377Y-215727317D01*
X171196874Y-215731347D01*
X171292374Y-215841401D01*
X171344477Y-215901445D01*
X171348608Y-215904832D01*
X171518627Y-216044240D01*
X171518633Y-216044244D01*
X171522755Y-216047624D01*
X171554250Y-216065552D01*
X171603555Y-216116632D01*
X171617417Y-216186262D01*
X171591434Y-216252333D01*
X171562284Y-216279573D01*
X171440681Y-216361441D01*
X171436824Y-216365120D01*
X171436822Y-216365122D01*
X171387719Y-216411964D01*
X171273865Y-216520576D01*
X171136246Y-216705542D01*
X171031760Y-216911051D01*
X171030178Y-216916145D01*
X171030177Y-216916148D01*
X170968115Y-217116020D01*
X170963393Y-217131227D01*
X170962692Y-217136516D01*
X170947304Y-217252623D01*
X170933102Y-217359774D01*
X130251700Y-217359774D01*
X130251700Y-177765985D01*
X130271702Y-177697864D01*
X130288605Y-177676890D01*
X132871291Y-175094205D01*
X132933603Y-175060179D01*
X132960386Y-175057300D01*
X150276014Y-175057300D01*
X150344135Y-175077302D01*
X150390628Y-175130958D01*
X150400732Y-175201232D01*
X150371238Y-175265812D01*
X150365109Y-175272395D01*
X148869284Y-176768220D01*
X148863019Y-176774073D01*
X148819219Y-176812282D01*
X148814853Y-176818495D01*
X148782309Y-176864801D01*
X148778375Y-176870098D01*
X148743454Y-176914634D01*
X148743450Y-176914640D01*
X148738767Y-176920613D01*
X148735642Y-176927534D01*
X148734428Y-176929539D01*
X148725659Y-176944912D01*
X148724541Y-176946996D01*
X148720170Y-176953216D01*
X148717410Y-176960295D01*
X148717409Y-176960297D01*
X148696852Y-177013024D01*
X148694300Y-177019097D01*
X148667880Y-177077609D01*
X148666496Y-177085077D01*
X148665788Y-177087336D01*
X148660951Y-177104318D01*
X148660358Y-177106627D01*
X148657597Y-177113708D01*
X148656606Y-177121237D01*
X148656605Y-177121240D01*
X148649217Y-177177356D01*
X148648185Y-177183870D01*
X148642539Y-177214336D01*
X148636488Y-177246983D01*
X148636925Y-177254563D01*
X148636925Y-177254564D01*
X148640091Y-177309470D01*
X148640300Y-177316723D01*
X148640300Y-207599642D01*
X148620298Y-207667763D01*
X148610822Y-207680633D01*
X148561862Y-207738981D01*
X148558899Y-207744370D01*
X148558896Y-207744375D01*
X148485509Y-207877868D01*
X148471826Y-207902757D01*
X148415315Y-208080901D01*
X148394482Y-208266630D01*
X148410121Y-208452867D01*
X148461636Y-208632520D01*
X148547064Y-208798746D01*
X148550887Y-208803570D01*
X148550890Y-208803574D01*
X148656170Y-208936402D01*
X148663152Y-208945212D01*
X148667846Y-208949207D01*
X148700819Y-208977269D01*
X148805478Y-209066342D01*
X148968621Y-209157519D01*
X149146367Y-209215272D01*
X149331945Y-209237401D01*
X149338080Y-209236929D01*
X149338082Y-209236929D01*
X149394119Y-209232617D01*
X149518287Y-209223063D01*
X149698296Y-209172804D01*
X149703785Y-209170031D01*
X149703791Y-209170029D01*
X149781159Y-209130947D01*
X149865114Y-209088538D01*
X149893524Y-209066342D01*
X149917486Y-209047621D01*
X150012387Y-208973475D01*
X150016413Y-208968811D01*
X150016416Y-208968808D01*
X150130480Y-208836663D01*
X150134507Y-208831998D01*
X150226821Y-208669495D01*
X150241091Y-208626600D01*
X150283867Y-208498009D01*
X150285814Y-208492157D01*
X150291553Y-208446727D01*
X150308796Y-208310241D01*
X150308797Y-208310232D01*
X150309238Y-208306738D01*
X150309611Y-208280000D01*
X150291373Y-208093999D01*
X150287419Y-208080901D01*
X150239136Y-207920983D01*
X150237355Y-207915083D01*
X150149615Y-207750066D01*
X150092057Y-207679493D01*
X150064503Y-207614061D01*
X150063700Y-207599857D01*
X150063700Y-177638985D01*
X150083702Y-177570864D01*
X150100605Y-177549890D01*
X151946691Y-175703805D01*
X152009003Y-175669779D01*
X152035786Y-175666900D01*
X171637062Y-175666900D01*
X171705183Y-175686902D01*
X171751676Y-175740558D01*
X171762502Y-175792053D01*
X171762482Y-175792230D01*
X171778121Y-175978467D01*
X171829636Y-176158120D01*
X171915064Y-176324346D01*
X171918887Y-176329170D01*
X171918890Y-176329174D01*
X172024170Y-176462002D01*
X172031152Y-176470812D01*
X172173478Y-176591942D01*
X172178857Y-176594948D01*
X172178861Y-176594951D01*
X172210543Y-176612657D01*
X172260250Y-176663350D01*
X172274289Y-176736692D01*
X172270482Y-176770630D01*
X172273980Y-176812282D01*
X172283077Y-176920613D01*
X172286121Y-176956867D01*
X172337636Y-177136520D01*
X172423064Y-177302746D01*
X172426887Y-177307570D01*
X172426890Y-177307574D01*
X172529053Y-177436470D01*
X172539152Y-177449212D01*
X172543846Y-177453207D01*
X172617424Y-177515827D01*
X172681478Y-177570342D01*
X172844621Y-177661519D01*
X173022367Y-177719272D01*
X173207945Y-177741401D01*
X173214080Y-177740929D01*
X173214081Y-177740929D01*
X173236467Y-177739206D01*
X173312523Y-177733354D01*
X173381976Y-177748071D01*
X173434254Y-177801387D01*
X173439064Y-177810746D01*
X173442887Y-177815570D01*
X173442890Y-177815574D01*
X173548170Y-177948402D01*
X173555152Y-177957212D01*
X173559846Y-177961207D01*
X173592819Y-177989269D01*
X173697478Y-178078342D01*
X173860621Y-178169519D01*
X174038367Y-178227272D01*
X174223945Y-178249401D01*
X174230080Y-178248929D01*
X174230082Y-178248929D01*
X174286119Y-178244617D01*
X174410287Y-178235063D01*
X174590296Y-178184804D01*
X174595785Y-178182031D01*
X174595791Y-178182029D01*
X174673159Y-178142947D01*
X174757114Y-178100538D01*
X174785524Y-178078342D01*
X174809486Y-178059621D01*
X174904387Y-177985475D01*
X174908413Y-177980811D01*
X174908416Y-177980808D01*
X175022480Y-177848663D01*
X175026507Y-177843998D01*
X175051351Y-177800264D01*
X175102390Y-177750913D01*
X175160908Y-177736500D01*
X205470170Y-177736500D01*
X205478740Y-177736792D01*
X205529146Y-177740229D01*
X205529150Y-177740229D01*
X205536721Y-177740745D01*
X205544197Y-177739440D01*
X205544200Y-177739440D01*
X205599983Y-177729704D01*
X205606508Y-177728741D01*
X205662667Y-177721945D01*
X205662668Y-177721945D01*
X205670211Y-177721032D01*
X205677319Y-177718346D01*
X205679619Y-177717781D01*
X205696680Y-177713114D01*
X205698934Y-177712434D01*
X205706415Y-177711128D01*
X205765205Y-177685321D01*
X205771302Y-177682833D01*
X205824247Y-177662827D01*
X205824250Y-177662826D01*
X205831349Y-177660143D01*
X205837604Y-177655844D01*
X205839695Y-177654751D01*
X205855157Y-177646145D01*
X205857191Y-177644942D01*
X205864146Y-177641889D01*
X205870171Y-177637266D01*
X205870176Y-177637263D01*
X205915074Y-177602812D01*
X205920409Y-177598936D01*
X205967047Y-177566882D01*
X205967053Y-177566877D01*
X205973312Y-177562575D01*
X206014964Y-177515826D01*
X206019944Y-177510551D01*
X208762716Y-174767780D01*
X208768982Y-174761926D01*
X208807059Y-174728710D01*
X208807061Y-174728708D01*
X208812781Y-174723718D01*
X208849691Y-174671199D01*
X208853625Y-174665902D01*
X208888546Y-174621366D01*
X208888550Y-174621360D01*
X208893233Y-174615387D01*
X208896358Y-174608466D01*
X208897572Y-174606461D01*
X208906341Y-174591088D01*
X208907459Y-174589004D01*
X208911830Y-174582784D01*
X208935149Y-174522974D01*
X208937704Y-174516894D01*
X208937705Y-174516892D01*
X208964120Y-174458391D01*
X208965504Y-174450923D01*
X208966212Y-174448664D01*
X208971049Y-174431682D01*
X208971642Y-174429373D01*
X208974403Y-174422292D01*
X208982784Y-174358635D01*
X208983815Y-174352130D01*
X208994128Y-174296485D01*
X208994128Y-174296482D01*
X208995512Y-174289017D01*
X208992722Y-174240621D01*
X208991909Y-174226530D01*
X208991700Y-174219277D01*
X208991700Y-167234248D01*
X209011702Y-167166127D01*
X209045429Y-167131035D01*
X209095270Y-167096136D01*
X209095273Y-167096134D01*
X209099781Y-167092977D01*
X209256977Y-166935781D01*
X209344894Y-166810223D01*
X209381331Y-166758185D01*
X209381332Y-166758183D01*
X209384488Y-166753676D01*
X209386811Y-166748694D01*
X209386814Y-166748689D01*
X209435805Y-166643627D01*
X209482723Y-166590342D01*
X209551000Y-166570881D01*
X209618960Y-166591423D01*
X209664195Y-166643627D01*
X209713186Y-166748689D01*
X209713189Y-166748694D01*
X209715512Y-166753676D01*
X209718668Y-166758183D01*
X209718669Y-166758185D01*
X209755107Y-166810223D01*
X209843023Y-166935781D01*
X210000219Y-167092977D01*
X210004727Y-167096134D01*
X210004730Y-167096136D01*
X210054571Y-167131035D01*
X210182323Y-167220488D01*
X210187305Y-167222811D01*
X210187310Y-167222814D01*
X210377810Y-167311645D01*
X210383804Y-167314440D01*
X210389112Y-167315862D01*
X210389114Y-167315863D01*
X210454949Y-167333503D01*
X210598537Y-167371978D01*
X210820000Y-167391353D01*
X211041463Y-167371978D01*
X211185051Y-167333503D01*
X211250886Y-167315863D01*
X211250888Y-167315862D01*
X211256196Y-167314440D01*
X211262190Y-167311645D01*
X211452690Y-167222814D01*
X211452695Y-167222811D01*
X211457677Y-167220488D01*
X211585429Y-167131035D01*
X211635270Y-167096136D01*
X211635273Y-167096134D01*
X211639781Y-167092977D01*
X211796977Y-166935781D01*
X211884894Y-166810223D01*
X211921331Y-166758185D01*
X211921332Y-166758183D01*
X211924488Y-166753676D01*
X211926811Y-166748694D01*
X211926814Y-166748689D01*
X211975805Y-166643627D01*
X212022723Y-166590342D01*
X212091000Y-166570881D01*
X212158960Y-166591423D01*
X212204195Y-166643627D01*
X212253186Y-166748689D01*
X212253189Y-166748694D01*
X212255512Y-166753676D01*
X212258668Y-166758183D01*
X212258669Y-166758185D01*
X212295107Y-166810223D01*
X212383023Y-166935781D01*
X212540219Y-167092977D01*
X212544727Y-167096134D01*
X212544730Y-167096136D01*
X212594571Y-167131035D01*
X212722323Y-167220488D01*
X212727305Y-167222811D01*
X212727310Y-167222814D01*
X212917810Y-167311645D01*
X212923804Y-167314440D01*
X212929112Y-167315862D01*
X212929114Y-167315863D01*
X212994949Y-167333503D01*
X213138537Y-167371978D01*
X213360000Y-167391353D01*
X213581463Y-167371978D01*
X213725051Y-167333503D01*
X213790886Y-167315863D01*
X213790888Y-167315862D01*
X213796196Y-167314440D01*
X213802190Y-167311645D01*
X213992690Y-167222814D01*
X213992695Y-167222811D01*
X213997677Y-167220488D01*
X214125429Y-167131035D01*
X214175270Y-167096136D01*
X214175273Y-167096134D01*
X214179781Y-167092977D01*
X214336977Y-166935781D01*
X214424894Y-166810223D01*
X214461331Y-166758185D01*
X214461332Y-166758183D01*
X214464488Y-166753676D01*
X214466811Y-166748694D01*
X214466814Y-166748689D01*
X214515805Y-166643627D01*
X214562723Y-166590342D01*
X214631000Y-166570881D01*
X214698960Y-166591423D01*
X214744195Y-166643627D01*
X214793186Y-166748689D01*
X214793189Y-166748694D01*
X214795512Y-166753676D01*
X214798668Y-166758183D01*
X214798669Y-166758185D01*
X214835107Y-166810223D01*
X214923023Y-166935781D01*
X215080219Y-167092977D01*
X215084727Y-167096134D01*
X215084730Y-167096136D01*
X215134571Y-167131035D01*
X215262323Y-167220488D01*
X215267305Y-167222811D01*
X215267310Y-167222814D01*
X215457810Y-167311645D01*
X215463804Y-167314440D01*
X215469112Y-167315862D01*
X215469114Y-167315863D01*
X215534949Y-167333503D01*
X215678537Y-167371978D01*
X215900000Y-167391353D01*
X216121463Y-167371978D01*
X216265051Y-167333503D01*
X216330886Y-167315863D01*
X216330888Y-167315862D01*
X216336196Y-167314440D01*
X216342190Y-167311645D01*
X216532690Y-167222814D01*
X216532695Y-167222811D01*
X216537677Y-167220488D01*
X216665429Y-167131035D01*
X216715270Y-167096136D01*
X216715273Y-167096134D01*
X216719781Y-167092977D01*
X216876977Y-166935781D01*
X216964894Y-166810223D01*
X217001331Y-166758185D01*
X217001332Y-166758183D01*
X217004488Y-166753676D01*
X217006811Y-166748694D01*
X217006814Y-166748689D01*
X217055805Y-166643627D01*
X217102723Y-166590342D01*
X217171000Y-166570881D01*
X217238960Y-166591423D01*
X217284195Y-166643627D01*
X217333186Y-166748689D01*
X217333189Y-166748694D01*
X217335512Y-166753676D01*
X217338668Y-166758183D01*
X217338669Y-166758185D01*
X217375107Y-166810223D01*
X217463023Y-166935781D01*
X217620219Y-167092977D01*
X217624727Y-167096134D01*
X217624730Y-167096136D01*
X217674571Y-167131035D01*
X217802323Y-167220488D01*
X217807305Y-167222811D01*
X217807310Y-167222814D01*
X217997810Y-167311645D01*
X218003804Y-167314440D01*
X218009112Y-167315862D01*
X218009114Y-167315863D01*
X218074949Y-167333503D01*
X218218537Y-167371978D01*
X218440000Y-167391353D01*
X218661463Y-167371978D01*
X218805051Y-167333503D01*
X218870886Y-167315863D01*
X218870888Y-167315862D01*
X218876196Y-167314440D01*
X218882190Y-167311645D01*
X219072690Y-167222814D01*
X219072695Y-167222811D01*
X219077677Y-167220488D01*
X219205429Y-167131035D01*
X219255270Y-167096136D01*
X219255273Y-167096134D01*
X219259781Y-167092977D01*
X219416977Y-166935781D01*
X219504894Y-166810223D01*
X219541331Y-166758185D01*
X219541332Y-166758183D01*
X219544488Y-166753676D01*
X219546811Y-166748694D01*
X219546814Y-166748689D01*
X219595805Y-166643627D01*
X219642723Y-166590342D01*
X219711000Y-166570881D01*
X219778960Y-166591423D01*
X219824195Y-166643627D01*
X219873186Y-166748689D01*
X219873189Y-166748694D01*
X219875512Y-166753676D01*
X219878668Y-166758183D01*
X219878669Y-166758185D01*
X219915107Y-166810223D01*
X220003023Y-166935781D01*
X220160219Y-167092977D01*
X220164727Y-167096134D01*
X220164730Y-167096136D01*
X220214571Y-167131035D01*
X220342323Y-167220488D01*
X220347305Y-167222811D01*
X220347310Y-167222814D01*
X220537810Y-167311645D01*
X220543804Y-167314440D01*
X220549112Y-167315862D01*
X220549114Y-167315863D01*
X220614949Y-167333503D01*
X220758537Y-167371978D01*
X220980000Y-167391353D01*
X221201463Y-167371978D01*
X221345051Y-167333503D01*
X221410886Y-167315863D01*
X221410888Y-167315862D01*
X221416196Y-167314440D01*
X221422190Y-167311645D01*
X221612690Y-167222814D01*
X221612695Y-167222811D01*
X221617677Y-167220488D01*
X221745429Y-167131035D01*
X221795270Y-167096136D01*
X221795273Y-167096134D01*
X221799781Y-167092977D01*
X221956977Y-166935781D01*
X222044894Y-166810223D01*
X222081331Y-166758185D01*
X222081332Y-166758183D01*
X222084488Y-166753676D01*
X222086811Y-166748694D01*
X222086814Y-166748689D01*
X222135805Y-166643627D01*
X222182723Y-166590342D01*
X222251000Y-166570881D01*
X222318960Y-166591423D01*
X222364195Y-166643627D01*
X222413186Y-166748689D01*
X222413189Y-166748694D01*
X222415512Y-166753676D01*
X222418668Y-166758183D01*
X222418669Y-166758185D01*
X222455107Y-166810223D01*
X222543023Y-166935781D01*
X222700219Y-167092977D01*
X222704727Y-167096134D01*
X222704730Y-167096136D01*
X222754571Y-167131035D01*
X222882323Y-167220488D01*
X222887305Y-167222811D01*
X222887310Y-167222814D01*
X223077810Y-167311645D01*
X223083804Y-167314440D01*
X223089112Y-167315862D01*
X223089114Y-167315863D01*
X223154949Y-167333503D01*
X223298537Y-167371978D01*
X223520000Y-167391353D01*
X223741463Y-167371978D01*
X223885051Y-167333503D01*
X223950886Y-167315863D01*
X223950888Y-167315862D01*
X223956196Y-167314440D01*
X223962190Y-167311645D01*
X224152690Y-167222814D01*
X224152695Y-167222811D01*
X224157677Y-167220488D01*
X224222959Y-167174777D01*
X225365777Y-167174777D01*
X225375074Y-167186793D01*
X225418069Y-167216898D01*
X225427555Y-167222376D01*
X225618993Y-167311645D01*
X225629285Y-167315391D01*
X225833309Y-167370059D01*
X225844104Y-167371962D01*
X226054525Y-167390372D01*
X226065475Y-167390372D01*
X226275896Y-167371962D01*
X226286691Y-167370059D01*
X226490715Y-167315391D01*
X226501007Y-167311645D01*
X226692445Y-167222376D01*
X226701931Y-167216898D01*
X226745764Y-167186207D01*
X226754139Y-167175729D01*
X226747071Y-167162281D01*
X226072812Y-166488022D01*
X226058868Y-166480408D01*
X226057035Y-166480539D01*
X226050420Y-166484790D01*
X225372207Y-167163003D01*
X225365777Y-167174777D01*
X224222959Y-167174777D01*
X224285429Y-167131035D01*
X224335270Y-167096136D01*
X224335273Y-167096134D01*
X224339781Y-167092977D01*
X224496977Y-166935781D01*
X224584894Y-166810223D01*
X224621331Y-166758185D01*
X224621332Y-166758183D01*
X224624488Y-166753676D01*
X224626811Y-166748694D01*
X224626814Y-166748689D01*
X224676081Y-166643035D01*
X224722999Y-166589750D01*
X224791276Y-166570289D01*
X224859236Y-166590831D01*
X224904471Y-166643035D01*
X224953623Y-166748441D01*
X224959103Y-166757932D01*
X224989794Y-166801765D01*
X225000271Y-166810140D01*
X225013718Y-166803072D01*
X225687978Y-166128812D01*
X225694356Y-166117132D01*
X226424408Y-166117132D01*
X226424539Y-166118965D01*
X226428790Y-166125580D01*
X227107003Y-166803793D01*
X227118777Y-166810223D01*
X227130793Y-166800926D01*
X227160897Y-166757932D01*
X227166377Y-166748441D01*
X227255645Y-166557007D01*
X227259391Y-166546715D01*
X227314059Y-166342691D01*
X227315962Y-166331896D01*
X227334372Y-166121475D01*
X227334372Y-166110525D01*
X227315962Y-165900104D01*
X227314059Y-165889309D01*
X227259391Y-165685285D01*
X227255645Y-165674993D01*
X227166377Y-165483559D01*
X227160897Y-165474068D01*
X227130206Y-165430235D01*
X227119729Y-165421860D01*
X227106282Y-165428928D01*
X226432022Y-166103188D01*
X226424408Y-166117132D01*
X225694356Y-166117132D01*
X225695592Y-166114868D01*
X225695461Y-166113035D01*
X225691210Y-166106420D01*
X225012997Y-165428207D01*
X225001223Y-165421777D01*
X224989207Y-165431074D01*
X224959103Y-165474068D01*
X224953623Y-165483559D01*
X224904471Y-165588965D01*
X224857553Y-165642250D01*
X224789276Y-165661711D01*
X224721316Y-165641169D01*
X224676081Y-165588965D01*
X224626814Y-165483311D01*
X224626811Y-165483306D01*
X224624488Y-165478324D01*
X224621331Y-165473815D01*
X224500136Y-165300730D01*
X224500134Y-165300727D01*
X224496977Y-165296219D01*
X224339781Y-165139023D01*
X224335273Y-165135866D01*
X224335270Y-165135864D01*
X224259505Y-165082813D01*
X224221599Y-165056271D01*
X225365860Y-165056271D01*
X225372928Y-165069718D01*
X226047188Y-165743978D01*
X226061132Y-165751592D01*
X226062965Y-165751461D01*
X226069580Y-165747210D01*
X226747793Y-165068997D01*
X226754223Y-165057223D01*
X226744926Y-165045207D01*
X226701931Y-165015102D01*
X226692445Y-165009624D01*
X226501007Y-164920355D01*
X226490715Y-164916609D01*
X226286691Y-164861941D01*
X226275896Y-164860038D01*
X226065475Y-164841628D01*
X226054525Y-164841628D01*
X225844104Y-164860038D01*
X225833309Y-164861941D01*
X225629285Y-164916609D01*
X225618993Y-164920355D01*
X225427559Y-165009623D01*
X225418068Y-165015103D01*
X225374235Y-165045794D01*
X225365860Y-165056271D01*
X224221599Y-165056271D01*
X224157677Y-165011512D01*
X224152695Y-165009189D01*
X224152690Y-165009186D01*
X223961178Y-164919883D01*
X223961177Y-164919882D01*
X223956196Y-164917560D01*
X223950888Y-164916138D01*
X223950886Y-164916137D01*
X223885051Y-164898497D01*
X223741463Y-164860022D01*
X223520000Y-164840647D01*
X223298537Y-164860022D01*
X223154949Y-164898497D01*
X223089114Y-164916137D01*
X223089112Y-164916138D01*
X223083804Y-164917560D01*
X223078823Y-164919882D01*
X223078822Y-164919883D01*
X222887311Y-165009186D01*
X222887306Y-165009189D01*
X222882324Y-165011512D01*
X222877817Y-165014668D01*
X222877815Y-165014669D01*
X222704730Y-165135864D01*
X222704727Y-165135866D01*
X222700219Y-165139023D01*
X222543023Y-165296219D01*
X222539866Y-165300727D01*
X222539864Y-165300730D01*
X222418669Y-165473815D01*
X222415512Y-165478324D01*
X222413189Y-165483306D01*
X222413186Y-165483311D01*
X222364195Y-165588373D01*
X222317277Y-165641658D01*
X222249000Y-165661119D01*
X222181040Y-165640577D01*
X222135805Y-165588373D01*
X222086814Y-165483311D01*
X222086811Y-165483306D01*
X222084488Y-165478324D01*
X222081331Y-165473815D01*
X221960136Y-165300730D01*
X221960134Y-165300727D01*
X221956977Y-165296219D01*
X221799781Y-165139023D01*
X221795273Y-165135866D01*
X221795270Y-165135864D01*
X221719505Y-165082813D01*
X221617677Y-165011512D01*
X221612695Y-165009189D01*
X221612690Y-165009186D01*
X221421178Y-164919883D01*
X221421177Y-164919882D01*
X221416196Y-164917560D01*
X221410888Y-164916138D01*
X221410886Y-164916137D01*
X221345051Y-164898497D01*
X221201463Y-164860022D01*
X220980000Y-164840647D01*
X220758537Y-164860022D01*
X220614949Y-164898497D01*
X220549114Y-164916137D01*
X220549112Y-164916138D01*
X220543804Y-164917560D01*
X220538823Y-164919882D01*
X220538822Y-164919883D01*
X220347311Y-165009186D01*
X220347306Y-165009189D01*
X220342324Y-165011512D01*
X220337817Y-165014668D01*
X220337815Y-165014669D01*
X220164730Y-165135864D01*
X220164727Y-165135866D01*
X220160219Y-165139023D01*
X220003023Y-165296219D01*
X219999866Y-165300727D01*
X219999864Y-165300730D01*
X219878669Y-165473815D01*
X219875512Y-165478324D01*
X219873189Y-165483306D01*
X219873186Y-165483311D01*
X219824195Y-165588373D01*
X219777277Y-165641658D01*
X219709000Y-165661119D01*
X219641040Y-165640577D01*
X219595805Y-165588373D01*
X219546814Y-165483311D01*
X219546811Y-165483306D01*
X219544488Y-165478324D01*
X219541331Y-165473815D01*
X219420136Y-165300730D01*
X219420134Y-165300727D01*
X219416977Y-165296219D01*
X219259781Y-165139023D01*
X219255273Y-165135866D01*
X219255270Y-165135864D01*
X219179505Y-165082813D01*
X219077677Y-165011512D01*
X219072695Y-165009189D01*
X219072690Y-165009186D01*
X218881178Y-164919883D01*
X218881177Y-164919882D01*
X218876196Y-164917560D01*
X218870888Y-164916138D01*
X218870886Y-164916137D01*
X218805051Y-164898497D01*
X218661463Y-164860022D01*
X218440000Y-164840647D01*
X218218537Y-164860022D01*
X218074949Y-164898497D01*
X218009114Y-164916137D01*
X218009112Y-164916138D01*
X218003804Y-164917560D01*
X217998823Y-164919882D01*
X217998822Y-164919883D01*
X217807311Y-165009186D01*
X217807306Y-165009189D01*
X217802324Y-165011512D01*
X217797817Y-165014668D01*
X217797815Y-165014669D01*
X217624730Y-165135864D01*
X217624727Y-165135866D01*
X217620219Y-165139023D01*
X217463023Y-165296219D01*
X217459866Y-165300727D01*
X217459864Y-165300730D01*
X217338669Y-165473815D01*
X217335512Y-165478324D01*
X217333189Y-165483306D01*
X217333186Y-165483311D01*
X217284195Y-165588373D01*
X217237277Y-165641658D01*
X217169000Y-165661119D01*
X217101040Y-165640577D01*
X217055805Y-165588373D01*
X217006814Y-165483311D01*
X217006811Y-165483306D01*
X217004488Y-165478324D01*
X217001331Y-165473815D01*
X216880136Y-165300730D01*
X216880134Y-165300727D01*
X216876977Y-165296219D01*
X216719781Y-165139023D01*
X216715273Y-165135866D01*
X216715270Y-165135864D01*
X216639505Y-165082813D01*
X216537677Y-165011512D01*
X216532695Y-165009189D01*
X216532690Y-165009186D01*
X216341178Y-164919883D01*
X216341177Y-164919882D01*
X216336196Y-164917560D01*
X216330888Y-164916138D01*
X216330886Y-164916137D01*
X216265051Y-164898497D01*
X216121463Y-164860022D01*
X215900000Y-164840647D01*
X215678537Y-164860022D01*
X215534949Y-164898497D01*
X215469114Y-164916137D01*
X215469112Y-164916138D01*
X215463804Y-164917560D01*
X215458823Y-164919882D01*
X215458822Y-164919883D01*
X215267311Y-165009186D01*
X215267306Y-165009189D01*
X215262324Y-165011512D01*
X215257817Y-165014668D01*
X215257815Y-165014669D01*
X215084730Y-165135864D01*
X215084727Y-165135866D01*
X215080219Y-165139023D01*
X214923023Y-165296219D01*
X214919866Y-165300727D01*
X214919864Y-165300730D01*
X214798669Y-165473815D01*
X214795512Y-165478324D01*
X214793189Y-165483306D01*
X214793186Y-165483311D01*
X214744195Y-165588373D01*
X214697277Y-165641658D01*
X214629000Y-165661119D01*
X214561040Y-165640577D01*
X214515805Y-165588373D01*
X214466814Y-165483311D01*
X214466811Y-165483306D01*
X214464488Y-165478324D01*
X214461331Y-165473815D01*
X214340136Y-165300730D01*
X214340134Y-165300727D01*
X214336977Y-165296219D01*
X214179781Y-165139023D01*
X214175273Y-165135866D01*
X214175270Y-165135864D01*
X214099505Y-165082813D01*
X213997677Y-165011512D01*
X213992695Y-165009189D01*
X213992690Y-165009186D01*
X213801178Y-164919883D01*
X213801177Y-164919882D01*
X213796196Y-164917560D01*
X213790888Y-164916138D01*
X213790886Y-164916137D01*
X213725051Y-164898497D01*
X213581463Y-164860022D01*
X213360000Y-164840647D01*
X213138537Y-164860022D01*
X212994949Y-164898497D01*
X212929114Y-164916137D01*
X212929112Y-164916138D01*
X212923804Y-164917560D01*
X212918823Y-164919882D01*
X212918822Y-164919883D01*
X212727311Y-165009186D01*
X212727306Y-165009189D01*
X212722324Y-165011512D01*
X212717817Y-165014668D01*
X212717815Y-165014669D01*
X212544730Y-165135864D01*
X212544727Y-165135866D01*
X212540219Y-165139023D01*
X212383023Y-165296219D01*
X212379866Y-165300727D01*
X212379864Y-165300730D01*
X212258669Y-165473815D01*
X212255512Y-165478324D01*
X212253189Y-165483306D01*
X212253186Y-165483311D01*
X212204195Y-165588373D01*
X212157277Y-165641658D01*
X212089000Y-165661119D01*
X212021040Y-165640577D01*
X211975805Y-165588373D01*
X211926814Y-165483311D01*
X211926811Y-165483306D01*
X211924488Y-165478324D01*
X211921331Y-165473815D01*
X211800136Y-165300730D01*
X211800134Y-165300727D01*
X211796977Y-165296219D01*
X211639781Y-165139023D01*
X211635273Y-165135866D01*
X211635270Y-165135864D01*
X211559505Y-165082813D01*
X211457677Y-165011512D01*
X211452695Y-165009189D01*
X211452690Y-165009186D01*
X211261178Y-164919883D01*
X211261177Y-164919882D01*
X211256196Y-164917560D01*
X211250888Y-164916138D01*
X211250886Y-164916137D01*
X211185051Y-164898497D01*
X211041463Y-164860022D01*
X210820000Y-164840647D01*
X210598537Y-164860022D01*
X210454949Y-164898497D01*
X210389114Y-164916137D01*
X210389112Y-164916138D01*
X210383804Y-164917560D01*
X210378823Y-164919882D01*
X210378822Y-164919883D01*
X210187311Y-165009186D01*
X210187306Y-165009189D01*
X210182324Y-165011512D01*
X210177817Y-165014668D01*
X210177815Y-165014669D01*
X210004730Y-165135864D01*
X210004727Y-165135866D01*
X210000219Y-165139023D01*
X209843023Y-165296219D01*
X209839866Y-165300727D01*
X209839864Y-165300730D01*
X209718669Y-165473815D01*
X209715512Y-165478324D01*
X209713189Y-165483306D01*
X209713186Y-165483311D01*
X209664195Y-165588373D01*
X209617277Y-165641658D01*
X209549000Y-165661119D01*
X209481040Y-165640577D01*
X209435805Y-165588373D01*
X209386814Y-165483311D01*
X209386811Y-165483306D01*
X209384488Y-165478324D01*
X209381331Y-165473815D01*
X209260136Y-165300730D01*
X209260134Y-165300727D01*
X209256977Y-165296219D01*
X209099781Y-165139023D01*
X209095273Y-165135866D01*
X209095270Y-165135864D01*
X209019505Y-165082813D01*
X208917677Y-165011512D01*
X208912695Y-165009189D01*
X208912690Y-165009186D01*
X208721178Y-164919883D01*
X208721177Y-164919882D01*
X208716196Y-164917560D01*
X208710888Y-164916138D01*
X208710886Y-164916137D01*
X208645051Y-164898497D01*
X208501463Y-164860022D01*
X208280000Y-164840647D01*
X208058537Y-164860022D01*
X207914949Y-164898497D01*
X207849114Y-164916137D01*
X207849112Y-164916138D01*
X207843804Y-164917560D01*
X207838823Y-164919882D01*
X207838822Y-164919883D01*
X207647311Y-165009186D01*
X207647306Y-165009189D01*
X207642324Y-165011512D01*
X207637817Y-165014668D01*
X207637815Y-165014669D01*
X207464730Y-165135864D01*
X207464727Y-165135866D01*
X207460219Y-165139023D01*
X207303023Y-165296219D01*
X207299866Y-165300727D01*
X207299864Y-165300730D01*
X207178669Y-165473815D01*
X207175512Y-165478324D01*
X207173189Y-165483306D01*
X207173186Y-165483311D01*
X207124195Y-165588373D01*
X207077277Y-165641658D01*
X207009000Y-165661119D01*
X206941040Y-165640577D01*
X206895805Y-165588373D01*
X206846814Y-165483311D01*
X206846811Y-165483306D01*
X206844488Y-165478324D01*
X206841331Y-165473815D01*
X206720136Y-165300730D01*
X206720134Y-165300727D01*
X206716977Y-165296219D01*
X206559781Y-165139023D01*
X206555273Y-165135866D01*
X206555270Y-165135864D01*
X206479505Y-165082813D01*
X206377677Y-165011512D01*
X206372695Y-165009189D01*
X206372690Y-165009186D01*
X206181178Y-164919883D01*
X206181177Y-164919882D01*
X206176196Y-164917560D01*
X206170888Y-164916138D01*
X206170886Y-164916137D01*
X206105051Y-164898497D01*
X205961463Y-164860022D01*
X205740000Y-164840647D01*
X205518537Y-164860022D01*
X205374949Y-164898497D01*
X205309114Y-164916137D01*
X205309112Y-164916138D01*
X205303804Y-164917560D01*
X205298823Y-164919882D01*
X205298822Y-164919883D01*
X205107311Y-165009186D01*
X205107306Y-165009189D01*
X205102324Y-165011512D01*
X205097817Y-165014668D01*
X205097815Y-165014669D01*
X204924730Y-165135864D01*
X204924727Y-165135866D01*
X204920219Y-165139023D01*
X204763023Y-165296219D01*
X204759866Y-165300727D01*
X204759864Y-165300730D01*
X204638669Y-165473815D01*
X204635512Y-165478324D01*
X204633189Y-165483306D01*
X204633186Y-165483311D01*
X204584195Y-165588373D01*
X204537277Y-165641658D01*
X204469000Y-165661119D01*
X204401040Y-165640577D01*
X204355805Y-165588373D01*
X204306814Y-165483311D01*
X204306811Y-165483306D01*
X204304488Y-165478324D01*
X204301331Y-165473815D01*
X204180136Y-165300730D01*
X204180134Y-165300727D01*
X204176977Y-165296219D01*
X204019781Y-165139023D01*
X204015273Y-165135866D01*
X204015270Y-165135864D01*
X203939505Y-165082813D01*
X203837677Y-165011512D01*
X203832695Y-165009189D01*
X203832690Y-165009186D01*
X203641178Y-164919883D01*
X203641177Y-164919882D01*
X203636196Y-164917560D01*
X203630888Y-164916138D01*
X203630886Y-164916137D01*
X203565051Y-164898497D01*
X203421463Y-164860022D01*
X203200000Y-164840647D01*
X202978537Y-164860022D01*
X202834949Y-164898497D01*
X202769114Y-164916137D01*
X202769112Y-164916138D01*
X202763804Y-164917560D01*
X202758823Y-164919882D01*
X202758822Y-164919883D01*
X202567311Y-165009186D01*
X202567306Y-165009189D01*
X202562324Y-165011512D01*
X202557817Y-165014668D01*
X202557815Y-165014669D01*
X202384730Y-165135864D01*
X202384727Y-165135866D01*
X202380219Y-165139023D01*
X202223023Y-165296219D01*
X202219866Y-165300727D01*
X202219864Y-165300730D01*
X202098669Y-165473815D01*
X202095512Y-165478324D01*
X202093189Y-165483306D01*
X202093186Y-165483311D01*
X202044195Y-165588373D01*
X201997277Y-165641658D01*
X201929000Y-165661119D01*
X201861040Y-165640577D01*
X201815805Y-165588373D01*
X201766814Y-165483311D01*
X201766811Y-165483306D01*
X201764488Y-165478324D01*
X201761331Y-165473815D01*
X201640136Y-165300730D01*
X201640134Y-165300727D01*
X201636977Y-165296219D01*
X201479781Y-165139023D01*
X201475273Y-165135866D01*
X201475270Y-165135864D01*
X201399505Y-165082813D01*
X201297677Y-165011512D01*
X201292695Y-165009189D01*
X201292690Y-165009186D01*
X201101178Y-164919883D01*
X201101177Y-164919882D01*
X201096196Y-164917560D01*
X201090888Y-164916138D01*
X201090886Y-164916137D01*
X201025051Y-164898497D01*
X200881463Y-164860022D01*
X200660000Y-164840647D01*
X200438537Y-164860022D01*
X200294949Y-164898497D01*
X200229114Y-164916137D01*
X200229112Y-164916138D01*
X200223804Y-164917560D01*
X200218823Y-164919882D01*
X200218822Y-164919883D01*
X200027311Y-165009186D01*
X200027306Y-165009189D01*
X200022324Y-165011512D01*
X200017817Y-165014668D01*
X200017815Y-165014669D01*
X199844730Y-165135864D01*
X199844727Y-165135866D01*
X199840219Y-165139023D01*
X199683023Y-165296219D01*
X199679866Y-165300727D01*
X199679864Y-165300730D01*
X199558669Y-165473815D01*
X199555512Y-165478324D01*
X199553189Y-165483306D01*
X199553186Y-165483311D01*
X199504195Y-165588373D01*
X199457277Y-165641658D01*
X199389000Y-165661119D01*
X199321040Y-165640577D01*
X199275805Y-165588373D01*
X199226814Y-165483311D01*
X199226811Y-165483306D01*
X199224488Y-165478324D01*
X199221331Y-165473815D01*
X199100136Y-165300730D01*
X199100134Y-165300727D01*
X199096977Y-165296219D01*
X198939781Y-165139023D01*
X198935273Y-165135866D01*
X198935270Y-165135864D01*
X198859505Y-165082813D01*
X198757677Y-165011512D01*
X198752695Y-165009189D01*
X198752690Y-165009186D01*
X198561178Y-164919883D01*
X198561177Y-164919882D01*
X198556196Y-164917560D01*
X198550888Y-164916138D01*
X198550886Y-164916137D01*
X198485051Y-164898497D01*
X198341463Y-164860022D01*
X198120000Y-164840647D01*
X197898537Y-164860022D01*
X197754949Y-164898497D01*
X197689114Y-164916137D01*
X197689112Y-164916138D01*
X197683804Y-164917560D01*
X197678823Y-164919882D01*
X197678822Y-164919883D01*
X197487311Y-165009186D01*
X197487306Y-165009189D01*
X197482324Y-165011512D01*
X197477817Y-165014668D01*
X197477815Y-165014669D01*
X197304730Y-165135864D01*
X197304727Y-165135866D01*
X197300219Y-165139023D01*
X197143023Y-165296219D01*
X197139866Y-165300727D01*
X197139864Y-165300730D01*
X197018669Y-165473815D01*
X197015512Y-165478324D01*
X197013189Y-165483306D01*
X197013186Y-165483311D01*
X196964195Y-165588373D01*
X196917277Y-165641658D01*
X196849000Y-165661119D01*
X196781040Y-165640577D01*
X196735805Y-165588373D01*
X196686814Y-165483311D01*
X196686811Y-165483306D01*
X196684488Y-165478324D01*
X196681331Y-165473815D01*
X196560136Y-165300730D01*
X196560134Y-165300727D01*
X196556977Y-165296219D01*
X196399781Y-165139023D01*
X196395273Y-165135866D01*
X196395270Y-165135864D01*
X196319505Y-165082813D01*
X196217677Y-165011512D01*
X196212695Y-165009189D01*
X196212690Y-165009186D01*
X196021178Y-164919883D01*
X196021177Y-164919882D01*
X196016196Y-164917560D01*
X196010888Y-164916138D01*
X196010886Y-164916137D01*
X195945051Y-164898497D01*
X195801463Y-164860022D01*
X195580000Y-164840647D01*
X195358537Y-164860022D01*
X195214949Y-164898497D01*
X195149114Y-164916137D01*
X195149112Y-164916138D01*
X195143804Y-164917560D01*
X195138823Y-164919882D01*
X195138822Y-164919883D01*
X194947311Y-165009186D01*
X194947306Y-165009189D01*
X194942324Y-165011512D01*
X194937817Y-165014668D01*
X194937815Y-165014669D01*
X194764730Y-165135864D01*
X194764727Y-165135866D01*
X194760219Y-165139023D01*
X194603023Y-165296219D01*
X194599866Y-165300727D01*
X194599864Y-165300730D01*
X194478669Y-165473815D01*
X194475512Y-165478324D01*
X194473189Y-165483306D01*
X194473186Y-165483311D01*
X194424195Y-165588373D01*
X194377277Y-165641658D01*
X194309000Y-165661119D01*
X194241040Y-165640577D01*
X194195805Y-165588373D01*
X194146814Y-165483311D01*
X194146811Y-165483306D01*
X194144488Y-165478324D01*
X194141331Y-165473815D01*
X194020136Y-165300730D01*
X194020134Y-165300727D01*
X194016977Y-165296219D01*
X193859781Y-165139023D01*
X193855273Y-165135866D01*
X193855270Y-165135864D01*
X193779505Y-165082813D01*
X193677677Y-165011512D01*
X193672695Y-165009189D01*
X193672690Y-165009186D01*
X193481178Y-164919883D01*
X193481177Y-164919882D01*
X193476196Y-164917560D01*
X193470888Y-164916138D01*
X193470886Y-164916137D01*
X193405051Y-164898497D01*
X193261463Y-164860022D01*
X193040000Y-164840647D01*
X192818537Y-164860022D01*
X192674949Y-164898497D01*
X192609114Y-164916137D01*
X192609112Y-164916138D01*
X192603804Y-164917560D01*
X192598823Y-164919882D01*
X192598822Y-164919883D01*
X192407311Y-165009186D01*
X192407306Y-165009189D01*
X192402324Y-165011512D01*
X192397817Y-165014668D01*
X192397815Y-165014669D01*
X192224730Y-165135864D01*
X192224727Y-165135866D01*
X192220219Y-165139023D01*
X192063023Y-165296219D01*
X192059866Y-165300727D01*
X192059864Y-165300730D01*
X191938669Y-165473815D01*
X191935512Y-165478324D01*
X191933189Y-165483306D01*
X191933186Y-165483311D01*
X191884195Y-165588373D01*
X191837277Y-165641658D01*
X191769000Y-165661119D01*
X191701040Y-165640577D01*
X191655805Y-165588373D01*
X191606814Y-165483311D01*
X191606811Y-165483306D01*
X191604488Y-165478324D01*
X191601331Y-165473815D01*
X191480136Y-165300730D01*
X191480134Y-165300727D01*
X191476977Y-165296219D01*
X191319781Y-165139023D01*
X191315273Y-165135866D01*
X191315270Y-165135864D01*
X191239505Y-165082813D01*
X191137677Y-165011512D01*
X191132695Y-165009189D01*
X191132690Y-165009186D01*
X190941178Y-164919883D01*
X190941177Y-164919882D01*
X190936196Y-164917560D01*
X190930888Y-164916138D01*
X190930886Y-164916137D01*
X190865051Y-164898497D01*
X190721463Y-164860022D01*
X190500000Y-164840647D01*
X190278537Y-164860022D01*
X190134949Y-164898497D01*
X190069114Y-164916137D01*
X190069112Y-164916138D01*
X190063804Y-164917560D01*
X190058823Y-164919882D01*
X190058822Y-164919883D01*
X189867311Y-165009186D01*
X189867306Y-165009189D01*
X189862324Y-165011512D01*
X189857817Y-165014668D01*
X189857815Y-165014669D01*
X189684730Y-165135864D01*
X189684727Y-165135866D01*
X189680219Y-165139023D01*
X189523023Y-165296219D01*
X189519866Y-165300727D01*
X189519864Y-165300730D01*
X189398669Y-165473815D01*
X189395512Y-165478324D01*
X189393189Y-165483306D01*
X189393186Y-165483311D01*
X189344195Y-165588373D01*
X189297277Y-165641658D01*
X189229000Y-165661119D01*
X189161040Y-165640577D01*
X189115805Y-165588373D01*
X189066814Y-165483311D01*
X189066811Y-165483306D01*
X189064488Y-165478324D01*
X189061331Y-165473815D01*
X188940136Y-165300730D01*
X188940134Y-165300727D01*
X188936977Y-165296219D01*
X188779781Y-165139023D01*
X188775273Y-165135866D01*
X188775270Y-165135864D01*
X188699505Y-165082813D01*
X188597677Y-165011512D01*
X188592695Y-165009189D01*
X188592690Y-165009186D01*
X188401178Y-164919883D01*
X188401177Y-164919882D01*
X188396196Y-164917560D01*
X188390888Y-164916138D01*
X188390886Y-164916137D01*
X188325051Y-164898497D01*
X188181463Y-164860022D01*
X187960000Y-164840647D01*
X187738537Y-164860022D01*
X187594949Y-164898497D01*
X187529114Y-164916137D01*
X187529112Y-164916138D01*
X187523804Y-164917560D01*
X187518823Y-164919882D01*
X187518822Y-164919883D01*
X187327311Y-165009186D01*
X187327306Y-165009189D01*
X187322324Y-165011512D01*
X187317817Y-165014668D01*
X187317815Y-165014669D01*
X187144730Y-165135864D01*
X187144727Y-165135866D01*
X187140219Y-165139023D01*
X186983023Y-165296219D01*
X186979866Y-165300727D01*
X186979864Y-165300730D01*
X186858669Y-165473815D01*
X186855512Y-165478324D01*
X186853189Y-165483306D01*
X186853186Y-165483311D01*
X186804195Y-165588373D01*
X186757277Y-165641658D01*
X186689000Y-165661119D01*
X186621040Y-165640577D01*
X186575805Y-165588373D01*
X186526814Y-165483311D01*
X186526811Y-165483306D01*
X186524488Y-165478324D01*
X186521331Y-165473815D01*
X186400136Y-165300730D01*
X186400134Y-165300727D01*
X186396977Y-165296219D01*
X186239781Y-165139023D01*
X186235273Y-165135866D01*
X186235270Y-165135864D01*
X186159505Y-165082813D01*
X186057677Y-165011512D01*
X186052695Y-165009189D01*
X186052690Y-165009186D01*
X185861178Y-164919883D01*
X185861177Y-164919882D01*
X185856196Y-164917560D01*
X185850888Y-164916138D01*
X185850886Y-164916137D01*
X185785051Y-164898497D01*
X185641463Y-164860022D01*
X185420000Y-164840647D01*
X185198537Y-164860022D01*
X185054949Y-164898497D01*
X184989114Y-164916137D01*
X184989112Y-164916138D01*
X184983804Y-164917560D01*
X184978823Y-164919882D01*
X184978822Y-164919883D01*
X184787311Y-165009186D01*
X184787306Y-165009189D01*
X184782324Y-165011512D01*
X184777817Y-165014668D01*
X184777815Y-165014669D01*
X184604730Y-165135864D01*
X184604727Y-165135866D01*
X184600219Y-165139023D01*
X184443023Y-165296219D01*
X184439866Y-165300727D01*
X184439864Y-165300730D01*
X184318669Y-165473815D01*
X184315512Y-165478324D01*
X184313189Y-165483306D01*
X184313186Y-165483311D01*
X184264195Y-165588373D01*
X184217277Y-165641658D01*
X184149000Y-165661119D01*
X184081040Y-165640577D01*
X184035805Y-165588373D01*
X183986814Y-165483311D01*
X183986811Y-165483306D01*
X183984488Y-165478324D01*
X183981331Y-165473815D01*
X183860136Y-165300730D01*
X183860134Y-165300727D01*
X183856977Y-165296219D01*
X183699781Y-165139023D01*
X183695273Y-165135866D01*
X183695270Y-165135864D01*
X183619505Y-165082813D01*
X183517677Y-165011512D01*
X183512695Y-165009189D01*
X183512690Y-165009186D01*
X183321178Y-164919883D01*
X183321177Y-164919882D01*
X183316196Y-164917560D01*
X183310888Y-164916138D01*
X183310886Y-164916137D01*
X183245051Y-164898497D01*
X183101463Y-164860022D01*
X182880000Y-164840647D01*
X182658537Y-164860022D01*
X182514949Y-164898497D01*
X182449114Y-164916137D01*
X182449112Y-164916138D01*
X182443804Y-164917560D01*
X182438823Y-164919882D01*
X182438822Y-164919883D01*
X182247311Y-165009186D01*
X182247306Y-165009189D01*
X182242324Y-165011512D01*
X182237817Y-165014668D01*
X182237815Y-165014669D01*
X182064730Y-165135864D01*
X182064727Y-165135866D01*
X182060219Y-165139023D01*
X181903023Y-165296219D01*
X181899866Y-165300727D01*
X181899864Y-165300730D01*
X181778669Y-165473815D01*
X181775512Y-165478324D01*
X181773189Y-165483306D01*
X181773186Y-165483311D01*
X181724195Y-165588373D01*
X181677277Y-165641658D01*
X181609000Y-165661119D01*
X181541040Y-165640577D01*
X181495805Y-165588373D01*
X181446814Y-165483311D01*
X181446811Y-165483306D01*
X181444488Y-165478324D01*
X181441331Y-165473815D01*
X181320136Y-165300730D01*
X181320134Y-165300727D01*
X181316977Y-165296219D01*
X181159781Y-165139023D01*
X181155273Y-165135866D01*
X181155270Y-165135864D01*
X181079505Y-165082813D01*
X180977677Y-165011512D01*
X180972695Y-165009189D01*
X180972690Y-165009186D01*
X180781178Y-164919883D01*
X180781177Y-164919882D01*
X180776196Y-164917560D01*
X180770888Y-164916138D01*
X180770886Y-164916137D01*
X180705051Y-164898497D01*
X180561463Y-164860022D01*
X180340000Y-164840647D01*
X180118537Y-164860022D01*
X179974949Y-164898497D01*
X179909114Y-164916137D01*
X179909112Y-164916138D01*
X179903804Y-164917560D01*
X179898823Y-164919882D01*
X179898822Y-164919883D01*
X179707311Y-165009186D01*
X179707306Y-165009189D01*
X179702324Y-165011512D01*
X179697817Y-165014668D01*
X179697815Y-165014669D01*
X179524730Y-165135864D01*
X179524727Y-165135866D01*
X179520219Y-165139023D01*
X179363023Y-165296219D01*
X179359866Y-165300727D01*
X179359864Y-165300730D01*
X179238669Y-165473815D01*
X179235512Y-165478324D01*
X179233189Y-165483306D01*
X179233186Y-165483311D01*
X179184195Y-165588373D01*
X179141560Y-165679804D01*
X179084022Y-165894537D01*
X179064647Y-166116000D01*
X179084022Y-166337463D01*
X179141560Y-166552196D01*
X179143882Y-166557177D01*
X179143883Y-166557178D01*
X179233186Y-166748689D01*
X179233189Y-166748694D01*
X179235512Y-166753676D01*
X179238668Y-166758183D01*
X179238669Y-166758185D01*
X179275107Y-166810223D01*
X179363023Y-166935781D01*
X179520219Y-167092977D01*
X179524727Y-167096134D01*
X179524730Y-167096136D01*
X179574571Y-167131035D01*
X179702323Y-167220488D01*
X179707305Y-167222811D01*
X179707310Y-167222814D01*
X179897810Y-167311645D01*
X179903804Y-167314440D01*
X179909112Y-167315862D01*
X179909114Y-167315863D01*
X179974949Y-167333503D01*
X180118537Y-167371978D01*
X180340000Y-167391353D01*
X180561463Y-167371978D01*
X180705051Y-167333503D01*
X180770886Y-167315863D01*
X180770888Y-167315862D01*
X180776196Y-167314440D01*
X180782190Y-167311645D01*
X180972690Y-167222814D01*
X180972695Y-167222811D01*
X180977677Y-167220488D01*
X181105429Y-167131035D01*
X181155270Y-167096136D01*
X181155273Y-167096134D01*
X181159781Y-167092977D01*
X181316977Y-166935781D01*
X181404894Y-166810223D01*
X181441331Y-166758185D01*
X181441332Y-166758183D01*
X181444488Y-166753676D01*
X181446811Y-166748694D01*
X181446814Y-166748689D01*
X181495805Y-166643627D01*
X181542723Y-166590342D01*
X181611000Y-166570881D01*
X181678960Y-166591423D01*
X181724195Y-166643627D01*
X181773186Y-166748689D01*
X181773189Y-166748694D01*
X181775512Y-166753676D01*
X181778668Y-166758183D01*
X181778669Y-166758185D01*
X181815107Y-166810223D01*
X181903023Y-166935781D01*
X182060219Y-167092977D01*
X182064727Y-167096134D01*
X182064730Y-167096136D01*
X182114571Y-167131035D01*
X182242323Y-167220488D01*
X182247305Y-167222811D01*
X182247310Y-167222814D01*
X182437810Y-167311645D01*
X182443804Y-167314440D01*
X182449112Y-167315862D01*
X182449114Y-167315863D01*
X182514949Y-167333503D01*
X182658537Y-167371978D01*
X182880000Y-167391353D01*
X183101463Y-167371978D01*
X183245051Y-167333503D01*
X183310886Y-167315863D01*
X183310888Y-167315862D01*
X183316196Y-167314440D01*
X183322190Y-167311645D01*
X183512690Y-167222814D01*
X183512695Y-167222811D01*
X183517677Y-167220488D01*
X183645429Y-167131035D01*
X183695270Y-167096136D01*
X183695273Y-167096134D01*
X183699781Y-167092977D01*
X183856977Y-166935781D01*
X183944894Y-166810223D01*
X183981331Y-166758185D01*
X183981332Y-166758183D01*
X183984488Y-166753676D01*
X183986811Y-166748694D01*
X183986814Y-166748689D01*
X184035805Y-166643627D01*
X184082723Y-166590342D01*
X184151000Y-166570881D01*
X184218960Y-166591423D01*
X184264195Y-166643627D01*
X184313186Y-166748689D01*
X184313189Y-166748694D01*
X184315512Y-166753676D01*
X184318668Y-166758183D01*
X184318669Y-166758185D01*
X184355107Y-166810223D01*
X184443023Y-166935781D01*
X184600219Y-167092977D01*
X184604727Y-167096134D01*
X184604730Y-167096136D01*
X184654571Y-167131035D01*
X184782323Y-167220488D01*
X184787305Y-167222811D01*
X184787310Y-167222814D01*
X184977810Y-167311645D01*
X184983804Y-167314440D01*
X184989112Y-167315862D01*
X184989114Y-167315863D01*
X185054949Y-167333503D01*
X185198537Y-167371978D01*
X185420000Y-167391353D01*
X185641463Y-167371978D01*
X185785051Y-167333503D01*
X185850886Y-167315863D01*
X185850888Y-167315862D01*
X185856196Y-167314440D01*
X185862190Y-167311645D01*
X186052690Y-167222814D01*
X186052695Y-167222811D01*
X186057677Y-167220488D01*
X186185429Y-167131035D01*
X186235270Y-167096136D01*
X186235273Y-167096134D01*
X186239781Y-167092977D01*
X186396977Y-166935781D01*
X186484894Y-166810223D01*
X186521331Y-166758185D01*
X186521332Y-166758183D01*
X186524488Y-166753676D01*
X186526811Y-166748694D01*
X186526814Y-166748689D01*
X186575805Y-166643627D01*
X186622723Y-166590342D01*
X186691000Y-166570881D01*
X186758960Y-166591423D01*
X186804195Y-166643627D01*
X186853186Y-166748689D01*
X186853189Y-166748694D01*
X186855512Y-166753676D01*
X186858668Y-166758183D01*
X186858669Y-166758185D01*
X186895107Y-166810223D01*
X186983023Y-166935781D01*
X187140219Y-167092977D01*
X187144727Y-167096134D01*
X187144730Y-167096136D01*
X187194571Y-167131035D01*
X187322323Y-167220488D01*
X187327305Y-167222811D01*
X187327310Y-167222814D01*
X187517810Y-167311645D01*
X187523804Y-167314440D01*
X187529112Y-167315862D01*
X187529114Y-167315863D01*
X187594949Y-167333503D01*
X187738537Y-167371978D01*
X187960000Y-167391353D01*
X188181463Y-167371978D01*
X188325051Y-167333503D01*
X188390886Y-167315863D01*
X188390888Y-167315862D01*
X188396196Y-167314440D01*
X188402190Y-167311645D01*
X188592690Y-167222814D01*
X188592695Y-167222811D01*
X188597677Y-167220488D01*
X188725429Y-167131035D01*
X188775270Y-167096136D01*
X188775273Y-167096134D01*
X188779781Y-167092977D01*
X188936977Y-166935781D01*
X189024894Y-166810223D01*
X189061331Y-166758185D01*
X189061332Y-166758183D01*
X189064488Y-166753676D01*
X189066811Y-166748694D01*
X189066814Y-166748689D01*
X189115805Y-166643627D01*
X189162723Y-166590342D01*
X189231000Y-166570881D01*
X189298960Y-166591423D01*
X189344195Y-166643627D01*
X189393186Y-166748689D01*
X189393189Y-166748694D01*
X189395512Y-166753676D01*
X189398668Y-166758183D01*
X189398669Y-166758185D01*
X189435107Y-166810223D01*
X189523023Y-166935781D01*
X189680219Y-167092977D01*
X189684727Y-167096134D01*
X189684730Y-167096136D01*
X189734571Y-167131035D01*
X189862323Y-167220488D01*
X189867305Y-167222811D01*
X189867310Y-167222814D01*
X190057810Y-167311645D01*
X190063804Y-167314440D01*
X190069112Y-167315862D01*
X190069114Y-167315863D01*
X190134949Y-167333503D01*
X190278537Y-167371978D01*
X190500000Y-167391353D01*
X190721463Y-167371978D01*
X190865051Y-167333503D01*
X190930886Y-167315863D01*
X190930888Y-167315862D01*
X190936196Y-167314440D01*
X190942190Y-167311645D01*
X191132690Y-167222814D01*
X191132695Y-167222811D01*
X191137677Y-167220488D01*
X191265429Y-167131035D01*
X191315270Y-167096136D01*
X191315273Y-167096134D01*
X191319781Y-167092977D01*
X191476977Y-166935781D01*
X191564894Y-166810223D01*
X191601331Y-166758185D01*
X191601332Y-166758183D01*
X191604488Y-166753676D01*
X191606811Y-166748694D01*
X191606814Y-166748689D01*
X191655805Y-166643627D01*
X191702723Y-166590342D01*
X191771000Y-166570881D01*
X191838960Y-166591423D01*
X191884195Y-166643627D01*
X191933186Y-166748689D01*
X191933189Y-166748694D01*
X191935512Y-166753676D01*
X191938668Y-166758183D01*
X191938669Y-166758185D01*
X191975107Y-166810223D01*
X192063023Y-166935781D01*
X192220219Y-167092977D01*
X192224727Y-167096134D01*
X192224730Y-167096136D01*
X192274571Y-167131035D01*
X192402323Y-167220488D01*
X192407305Y-167222811D01*
X192407310Y-167222814D01*
X192597810Y-167311645D01*
X192603804Y-167314440D01*
X192609112Y-167315862D01*
X192609114Y-167315863D01*
X192674949Y-167333503D01*
X192818537Y-167371978D01*
X193040000Y-167391353D01*
X193261463Y-167371978D01*
X193405051Y-167333503D01*
X193470886Y-167315863D01*
X193470888Y-167315862D01*
X193476196Y-167314440D01*
X193482190Y-167311645D01*
X193672690Y-167222814D01*
X193672695Y-167222811D01*
X193677677Y-167220488D01*
X193805429Y-167131035D01*
X193855270Y-167096136D01*
X193855273Y-167096134D01*
X193859781Y-167092977D01*
X194016977Y-166935781D01*
X194104894Y-166810223D01*
X194141331Y-166758185D01*
X194141332Y-166758183D01*
X194144488Y-166753676D01*
X194146811Y-166748694D01*
X194146814Y-166748689D01*
X194195805Y-166643627D01*
X194242723Y-166590342D01*
X194311000Y-166570881D01*
X194378960Y-166591423D01*
X194424195Y-166643627D01*
X194473186Y-166748689D01*
X194473189Y-166748694D01*
X194475512Y-166753676D01*
X194478668Y-166758183D01*
X194478669Y-166758185D01*
X194515107Y-166810223D01*
X194603023Y-166935781D01*
X194760219Y-167092977D01*
X194764727Y-167096134D01*
X194764730Y-167096136D01*
X194814571Y-167131035D01*
X194858899Y-167186492D01*
X194868300Y-167234248D01*
X194868300Y-171865014D01*
X194848298Y-171933135D01*
X194831395Y-171954109D01*
X193798109Y-172987395D01*
X193735797Y-173021421D01*
X193709014Y-173024300D01*
X51337029Y-173024300D01*
X51328459Y-173024008D01*
X51278053Y-173020571D01*
X51278049Y-173020571D01*
X51270478Y-173020055D01*
X51263002Y-173021360D01*
X51263000Y-173021360D01*
X51207225Y-173031095D01*
X51200699Y-173032058D01*
X51144532Y-173038855D01*
X51144531Y-173038855D01*
X51136989Y-173039768D01*
X51129882Y-173042453D01*
X51127612Y-173043011D01*
X51110532Y-173047683D01*
X51108266Y-173048367D01*
X51100785Y-173049673D01*
X51042010Y-173075473D01*
X51035914Y-173077961D01*
X50982954Y-173097973D01*
X50975851Y-173100657D01*
X50969594Y-173104957D01*
X50967523Y-173106040D01*
X50952054Y-173114650D01*
X50950011Y-173115858D01*
X50943054Y-173118912D01*
X50892107Y-173158005D01*
X50886799Y-173161861D01*
X50840149Y-173193921D01*
X50840144Y-173193926D01*
X50833888Y-173198225D01*
X50828836Y-173203895D01*
X50828835Y-173203896D01*
X50792245Y-173244964D01*
X50787264Y-173250240D01*
X47269284Y-176768220D01*
X47263019Y-176774073D01*
X47219219Y-176812282D01*
X47214853Y-176818495D01*
X47182309Y-176864801D01*
X47178375Y-176870098D01*
X47143454Y-176914634D01*
X47143450Y-176914640D01*
X47138767Y-176920613D01*
X47135642Y-176927534D01*
X47134428Y-176929539D01*
X47125659Y-176944912D01*
X47124541Y-176946996D01*
X47120170Y-176953216D01*
X47117410Y-176960295D01*
X47117409Y-176960297D01*
X47096852Y-177013024D01*
X47094300Y-177019097D01*
X47067880Y-177077609D01*
X47066496Y-177085077D01*
X47065788Y-177087336D01*
X47060951Y-177104318D01*
X47060358Y-177106627D01*
X47057597Y-177113708D01*
X47056606Y-177121237D01*
X47056605Y-177121240D01*
X47049217Y-177177356D01*
X47048185Y-177183870D01*
X47042539Y-177214336D01*
X47036488Y-177246983D01*
X47036925Y-177254563D01*
X47036925Y-177254564D01*
X47040091Y-177309470D01*
X47040300Y-177316723D01*
X47040300Y-224871642D01*
X47020298Y-224939763D01*
X47010822Y-224952633D01*
X46961862Y-225010981D01*
X46958899Y-225016370D01*
X46958896Y-225016375D01*
X46885509Y-225149868D01*
X46871826Y-225174757D01*
X46815315Y-225352901D01*
X46794482Y-225538630D01*
X40132500Y-225538630D01*
X40132500Y-214870630D01*
X41714482Y-214870630D01*
X41730121Y-215056867D01*
X41781636Y-215236520D01*
X41867064Y-215402746D01*
X41870887Y-215407570D01*
X41870890Y-215407574D01*
X41964165Y-215525256D01*
X41983152Y-215549212D01*
X41987846Y-215553207D01*
X42092715Y-215642458D01*
X42125478Y-215670342D01*
X42288621Y-215761519D01*
X42466367Y-215819272D01*
X42651945Y-215841401D01*
X42658080Y-215840929D01*
X42658082Y-215840929D01*
X42714119Y-215836617D01*
X42838287Y-215827063D01*
X43018296Y-215776804D01*
X43023785Y-215774031D01*
X43023791Y-215774029D01*
X43116263Y-215727317D01*
X43185114Y-215692538D01*
X43213524Y-215670342D01*
X43255299Y-215637703D01*
X43332387Y-215577475D01*
X43336413Y-215572811D01*
X43336416Y-215572808D01*
X43412669Y-215484468D01*
X43454507Y-215435998D01*
X43500664Y-215354746D01*
X43543778Y-215278852D01*
X43543779Y-215278851D01*
X43546821Y-215273495D01*
X43561091Y-215230600D01*
X43603867Y-215102009D01*
X43605814Y-215096157D01*
X43611553Y-215050727D01*
X43628796Y-214914241D01*
X43628797Y-214914232D01*
X43629238Y-214910738D01*
X43629611Y-214884000D01*
X43611373Y-214697999D01*
X43607419Y-214684901D01*
X43588760Y-214623103D01*
X43557355Y-214519083D01*
X43469615Y-214354066D01*
X43412057Y-214283493D01*
X43384503Y-214218061D01*
X43383700Y-214203857D01*
X43383700Y-160152703D01*
X105840743Y-160152703D01*
X105878268Y-160437734D01*
X105954129Y-160715036D01*
X106066923Y-160979476D01*
X106214561Y-161226161D01*
X106394313Y-161450528D01*
X106602851Y-161648423D01*
X106836317Y-161816186D01*
X106840112Y-161818195D01*
X106840113Y-161818196D01*
X106861869Y-161829715D01*
X107090392Y-161950712D01*
X107360373Y-162049511D01*
X107641264Y-162110755D01*
X107669841Y-162113004D01*
X107864282Y-162128307D01*
X107864291Y-162128307D01*
X107866739Y-162128500D01*
X108022271Y-162128500D01*
X108024407Y-162128354D01*
X108024418Y-162128354D01*
X108232548Y-162114165D01*
X108232554Y-162114164D01*
X108236825Y-162113873D01*
X108241020Y-162113004D01*
X108241022Y-162113004D01*
X108377583Y-162084724D01*
X108518342Y-162055574D01*
X108789343Y-161959607D01*
X109044812Y-161827750D01*
X109048313Y-161825289D01*
X109048317Y-161825287D01*
X109162418Y-161745095D01*
X109280023Y-161662441D01*
X109490622Y-161466740D01*
X109672713Y-161244268D01*
X109822927Y-160999142D01*
X109938483Y-160735898D01*
X110017244Y-160459406D01*
X110057751Y-160174784D01*
X110057845Y-160156951D01*
X110057867Y-160152703D01*
X169340743Y-160152703D01*
X169378268Y-160437734D01*
X169454129Y-160715036D01*
X169566923Y-160979476D01*
X169714561Y-161226161D01*
X169894313Y-161450528D01*
X170102851Y-161648423D01*
X170336317Y-161816186D01*
X170340112Y-161818195D01*
X170340113Y-161818196D01*
X170361869Y-161829715D01*
X170590392Y-161950712D01*
X170860373Y-162049511D01*
X171141264Y-162110755D01*
X171169841Y-162113004D01*
X171364282Y-162128307D01*
X171364291Y-162128307D01*
X171366739Y-162128500D01*
X171522271Y-162128500D01*
X171524407Y-162128354D01*
X171524418Y-162128354D01*
X171732548Y-162114165D01*
X171732554Y-162114164D01*
X171736825Y-162113873D01*
X171741020Y-162113004D01*
X171741022Y-162113004D01*
X171877583Y-162084724D01*
X172018342Y-162055574D01*
X172289343Y-161959607D01*
X172544812Y-161827750D01*
X172548313Y-161825289D01*
X172548317Y-161825287D01*
X172662418Y-161745095D01*
X172780023Y-161662441D01*
X172990622Y-161466740D01*
X173172713Y-161244268D01*
X173322927Y-160999142D01*
X173438483Y-160735898D01*
X173517244Y-160459406D01*
X173557751Y-160174784D01*
X173557845Y-160156951D01*
X173559235Y-159891583D01*
X173559235Y-159891576D01*
X173559257Y-159887297D01*
X173521732Y-159602266D01*
X173445871Y-159324964D01*
X173333077Y-159060524D01*
X173185439Y-158813839D01*
X173005687Y-158589472D01*
X172797149Y-158391577D01*
X172563683Y-158223814D01*
X172541843Y-158212250D01*
X172518654Y-158199972D01*
X172309608Y-158089288D01*
X172039627Y-157990489D01*
X171758736Y-157929245D01*
X171727685Y-157926801D01*
X171535718Y-157911693D01*
X171535709Y-157911693D01*
X171533261Y-157911500D01*
X171377729Y-157911500D01*
X171375593Y-157911646D01*
X171375582Y-157911646D01*
X171167452Y-157925835D01*
X171167446Y-157925836D01*
X171163175Y-157926127D01*
X171158980Y-157926996D01*
X171158978Y-157926996D01*
X171022416Y-157955277D01*
X170881658Y-157984426D01*
X170610657Y-158080393D01*
X170355188Y-158212250D01*
X170351687Y-158214711D01*
X170351683Y-158214713D01*
X170341594Y-158221804D01*
X170119977Y-158377559D01*
X169909378Y-158573260D01*
X169727287Y-158795732D01*
X169577073Y-159040858D01*
X169461517Y-159304102D01*
X169382756Y-159580594D01*
X169342249Y-159865216D01*
X169342227Y-159869505D01*
X169342226Y-159869512D01*
X169340765Y-160148417D01*
X169340743Y-160152703D01*
X110057867Y-160152703D01*
X110059235Y-159891583D01*
X110059235Y-159891576D01*
X110059257Y-159887297D01*
X110021732Y-159602266D01*
X109945871Y-159324964D01*
X109833077Y-159060524D01*
X109685439Y-158813839D01*
X109505687Y-158589472D01*
X109297149Y-158391577D01*
X109063683Y-158223814D01*
X109041843Y-158212250D01*
X109018654Y-158199972D01*
X108809608Y-158089288D01*
X108539627Y-157990489D01*
X108258736Y-157929245D01*
X108227685Y-157926801D01*
X108035718Y-157911693D01*
X108035709Y-157911693D01*
X108033261Y-157911500D01*
X107877729Y-157911500D01*
X107875593Y-157911646D01*
X107875582Y-157911646D01*
X107667452Y-157925835D01*
X107667446Y-157925836D01*
X107663175Y-157926127D01*
X107658980Y-157926996D01*
X107658978Y-157926996D01*
X107522416Y-157955277D01*
X107381658Y-157984426D01*
X107110657Y-158080393D01*
X106855188Y-158212250D01*
X106851687Y-158214711D01*
X106851683Y-158214713D01*
X106841594Y-158221804D01*
X106619977Y-158377559D01*
X106409378Y-158573260D01*
X106227287Y-158795732D01*
X106077073Y-159040858D01*
X105961517Y-159304102D01*
X105882756Y-159580594D01*
X105842249Y-159865216D01*
X105842227Y-159869505D01*
X105842226Y-159869512D01*
X105840765Y-160148417D01*
X105840743Y-160152703D01*
X43383700Y-160152703D01*
X43383700Y-97922703D01*
X105840743Y-97922703D01*
X105878268Y-98207734D01*
X105954129Y-98485036D01*
X106066923Y-98749476D01*
X106214561Y-98996161D01*
X106394313Y-99220528D01*
X106602851Y-99418423D01*
X106836317Y-99586186D01*
X106840112Y-99588195D01*
X106840113Y-99588196D01*
X106861869Y-99599715D01*
X107090392Y-99720712D01*
X107360373Y-99819511D01*
X107641264Y-99880755D01*
X107669841Y-99883004D01*
X107864282Y-99898307D01*
X107864291Y-99898307D01*
X107866739Y-99898500D01*
X108022271Y-99898500D01*
X108024407Y-99898354D01*
X108024418Y-99898354D01*
X108232548Y-99884165D01*
X108232554Y-99884164D01*
X108236825Y-99883873D01*
X108241020Y-99883004D01*
X108241022Y-99883004D01*
X108377583Y-99854724D01*
X108518342Y-99825574D01*
X108789343Y-99729607D01*
X109044812Y-99597750D01*
X109048313Y-99595289D01*
X109048317Y-99595287D01*
X109162417Y-99515096D01*
X109280023Y-99432441D01*
X109490622Y-99236740D01*
X109672713Y-99014268D01*
X109822927Y-98769142D01*
X109938483Y-98505898D01*
X110017244Y-98229406D01*
X110057751Y-97944784D01*
X110057845Y-97926951D01*
X110057867Y-97922703D01*
X169340743Y-97922703D01*
X169378268Y-98207734D01*
X169454129Y-98485036D01*
X169566923Y-98749476D01*
X169714561Y-98996161D01*
X169894313Y-99220528D01*
X170102851Y-99418423D01*
X170336317Y-99586186D01*
X170340112Y-99588195D01*
X170340113Y-99588196D01*
X170361869Y-99599715D01*
X170590392Y-99720712D01*
X170860373Y-99819511D01*
X171141264Y-99880755D01*
X171169841Y-99883004D01*
X171364282Y-99898307D01*
X171364291Y-99898307D01*
X171366739Y-99898500D01*
X171522271Y-99898500D01*
X171524407Y-99898354D01*
X171524418Y-99898354D01*
X171732548Y-99884165D01*
X171732554Y-99884164D01*
X171736825Y-99883873D01*
X171741020Y-99883004D01*
X171741022Y-99883004D01*
X171877583Y-99854724D01*
X172018342Y-99825574D01*
X172289343Y-99729607D01*
X172544812Y-99597750D01*
X172548313Y-99595289D01*
X172548317Y-99595287D01*
X172662418Y-99515095D01*
X172780023Y-99432441D01*
X172990622Y-99236740D01*
X173172713Y-99014268D01*
X173322927Y-98769142D01*
X173438483Y-98505898D01*
X173517244Y-98229406D01*
X173557751Y-97944784D01*
X173557845Y-97926951D01*
X173559235Y-97661583D01*
X173559235Y-97661576D01*
X173559257Y-97657297D01*
X173521732Y-97372266D01*
X173445871Y-97094964D01*
X173333077Y-96830524D01*
X173185439Y-96583839D01*
X173005687Y-96359472D01*
X172797149Y-96161577D01*
X172563683Y-95993814D01*
X172541843Y-95982250D01*
X172518654Y-95969972D01*
X172309608Y-95859288D01*
X172039627Y-95760489D01*
X171758736Y-95699245D01*
X171727685Y-95696801D01*
X171535718Y-95681693D01*
X171535709Y-95681693D01*
X171533261Y-95681500D01*
X171377729Y-95681500D01*
X171375593Y-95681646D01*
X171375582Y-95681646D01*
X171167452Y-95695835D01*
X171167446Y-95695836D01*
X171163175Y-95696127D01*
X171158980Y-95696996D01*
X171158978Y-95696996D01*
X171022417Y-95725276D01*
X170881658Y-95754426D01*
X170610657Y-95850393D01*
X170355188Y-95982250D01*
X170351687Y-95984711D01*
X170351683Y-95984713D01*
X170341594Y-95991804D01*
X170119977Y-96147559D01*
X169909378Y-96343260D01*
X169727287Y-96565732D01*
X169577073Y-96810858D01*
X169461517Y-97074102D01*
X169382756Y-97350594D01*
X169342249Y-97635216D01*
X169342227Y-97639505D01*
X169342226Y-97639512D01*
X169340765Y-97918417D01*
X169340743Y-97922703D01*
X110057867Y-97922703D01*
X110059235Y-97661583D01*
X110059235Y-97661576D01*
X110059257Y-97657297D01*
X110021732Y-97372266D01*
X109945871Y-97094964D01*
X109833077Y-96830524D01*
X109685439Y-96583839D01*
X109505687Y-96359472D01*
X109297149Y-96161577D01*
X109063683Y-95993814D01*
X109041843Y-95982250D01*
X109018654Y-95969972D01*
X108809608Y-95859288D01*
X108539627Y-95760489D01*
X108258736Y-95699245D01*
X108227685Y-95696801D01*
X108035718Y-95681693D01*
X108035709Y-95681693D01*
X108033261Y-95681500D01*
X107877729Y-95681500D01*
X107875593Y-95681646D01*
X107875582Y-95681646D01*
X107667452Y-95695835D01*
X107667446Y-95695836D01*
X107663175Y-95696127D01*
X107658980Y-95696996D01*
X107658978Y-95696996D01*
X107522417Y-95725276D01*
X107381658Y-95754426D01*
X107110657Y-95850393D01*
X106855188Y-95982250D01*
X106851687Y-95984711D01*
X106851683Y-95984713D01*
X106841594Y-95991804D01*
X106619977Y-96147559D01*
X106409378Y-96343260D01*
X106227287Y-96565732D01*
X106077073Y-96810858D01*
X105961517Y-97074102D01*
X105882756Y-97350594D01*
X105842249Y-97635216D01*
X105842227Y-97639505D01*
X105842226Y-97639512D01*
X105840765Y-97918417D01*
X105840743Y-97922703D01*
X43383700Y-97922703D01*
X43383700Y-54342630D01*
X221546482Y-54342630D01*
X221562121Y-54528867D01*
X221613636Y-54708520D01*
X221699064Y-54874746D01*
X221702887Y-54879570D01*
X221702890Y-54879574D01*
X221808170Y-55012402D01*
X221815152Y-55021212D01*
X221819846Y-55025207D01*
X221913138Y-55104605D01*
X221957478Y-55142342D01*
X222120621Y-55233519D01*
X222298367Y-55291272D01*
X222483945Y-55313401D01*
X222490080Y-55312929D01*
X222490082Y-55312929D01*
X222546119Y-55308617D01*
X222670287Y-55299063D01*
X222850296Y-55248804D01*
X222855785Y-55246031D01*
X222855791Y-55246029D01*
X222933159Y-55206947D01*
X223017114Y-55164538D01*
X223021965Y-55160748D01*
X223021968Y-55160746D01*
X223106872Y-55094411D01*
X223172867Y-55068233D01*
X223184446Y-55067700D01*
X232825015Y-55067700D01*
X232893136Y-55087702D01*
X232914110Y-55104605D01*
X239535395Y-61725891D01*
X239569421Y-61788203D01*
X239572300Y-61814986D01*
X239572300Y-199106970D01*
X239572008Y-199115540D01*
X239568055Y-199173521D01*
X239569360Y-199180997D01*
X239569360Y-199181000D01*
X239579096Y-199236783D01*
X239580059Y-199243308D01*
X239587768Y-199307011D01*
X239590454Y-199314119D01*
X239591019Y-199316419D01*
X239595686Y-199333480D01*
X239596366Y-199335734D01*
X239597672Y-199343215D01*
X239600724Y-199350167D01*
X239623475Y-199401995D01*
X239625967Y-199408102D01*
X239648657Y-199468149D01*
X239652956Y-199474404D01*
X239654049Y-199476495D01*
X239662655Y-199491957D01*
X239663858Y-199493991D01*
X239666911Y-199500946D01*
X239671534Y-199506971D01*
X239671537Y-199506976D01*
X239705988Y-199551874D01*
X239709864Y-199557209D01*
X239741918Y-199603847D01*
X239741923Y-199603853D01*
X239746225Y-199610112D01*
X239751899Y-199615167D01*
X239792973Y-199651763D01*
X239798249Y-199656744D01*
X242300220Y-202158716D01*
X242306073Y-202164981D01*
X242344282Y-202208781D01*
X242350500Y-202213151D01*
X242396793Y-202245686D01*
X242402089Y-202249619D01*
X242446631Y-202284544D01*
X242446635Y-202284546D01*
X242452612Y-202289233D01*
X242459534Y-202292358D01*
X242461563Y-202293587D01*
X242476910Y-202302340D01*
X242478998Y-202303459D01*
X242485216Y-202307830D01*
X242492295Y-202310590D01*
X242492297Y-202310591D01*
X242520945Y-202321760D01*
X242545019Y-202331146D01*
X242551095Y-202333700D01*
X242602681Y-202356992D01*
X242609609Y-202360120D01*
X242617079Y-202361504D01*
X242619334Y-202362211D01*
X242636318Y-202367049D01*
X242638627Y-202367642D01*
X242645708Y-202370403D01*
X242653237Y-202371394D01*
X242653240Y-202371395D01*
X242709356Y-202378783D01*
X242715870Y-202379815D01*
X242771515Y-202390128D01*
X242771516Y-202390128D01*
X242778983Y-202391512D01*
X242786563Y-202391075D01*
X242786564Y-202391075D01*
X242841469Y-202387909D01*
X242848722Y-202387700D01*
X245017015Y-202387700D01*
X245085136Y-202407702D01*
X245106110Y-202424605D01*
X246411593Y-203730088D01*
X246445619Y-203792400D01*
X246448056Y-203808640D01*
X246453605Y-203874728D01*
X246453606Y-203874733D01*
X246454121Y-203880867D01*
X246505636Y-204060520D01*
X246591064Y-204226746D01*
X246594887Y-204231570D01*
X246594890Y-204231574D01*
X246700170Y-204364402D01*
X246707152Y-204373212D01*
X246711846Y-204377207D01*
X246744819Y-204405269D01*
X246849478Y-204494342D01*
X247012621Y-204585519D01*
X247190367Y-204643272D01*
X247375945Y-204665401D01*
X247382080Y-204664929D01*
X247382082Y-204664929D01*
X247438119Y-204660617D01*
X247562287Y-204651063D01*
X247742296Y-204600804D01*
X247747785Y-204598031D01*
X247747791Y-204598029D01*
X247825159Y-204558947D01*
X247909114Y-204516538D01*
X247937524Y-204494342D01*
X247961486Y-204475621D01*
X248056387Y-204401475D01*
X248060413Y-204396811D01*
X248060416Y-204396808D01*
X248174480Y-204264663D01*
X248178507Y-204259998D01*
X248270821Y-204097495D01*
X248285091Y-204054600D01*
X248327867Y-203926009D01*
X248329814Y-203920157D01*
X248345954Y-203792400D01*
X248352796Y-203738241D01*
X248352797Y-203738232D01*
X248353238Y-203734738D01*
X248353611Y-203708000D01*
X248335373Y-203521999D01*
X248281355Y-203343083D01*
X248193615Y-203178066D01*
X248189720Y-203173290D01*
X248079388Y-203038010D01*
X248079385Y-203038007D01*
X248075493Y-203033235D01*
X248070744Y-203029306D01*
X247936239Y-202918034D01*
X247936236Y-202918032D01*
X247931489Y-202914105D01*
X247767089Y-202825214D01*
X247677821Y-202797581D01*
X247594441Y-202771770D01*
X247594438Y-202771769D01*
X247588554Y-202769948D01*
X247582429Y-202769304D01*
X247582428Y-202769304D01*
X247537287Y-202764560D01*
X247494239Y-202760035D01*
X247428583Y-202733022D01*
X247418315Y-202723820D01*
X245887780Y-201193284D01*
X245881926Y-201187018D01*
X245848710Y-201148941D01*
X245848708Y-201148939D01*
X245843718Y-201143219D01*
X245791199Y-201106309D01*
X245785902Y-201102375D01*
X245741366Y-201067454D01*
X245741360Y-201067450D01*
X245735387Y-201062767D01*
X245728466Y-201059642D01*
X245726461Y-201058428D01*
X245711088Y-201049659D01*
X245709004Y-201048541D01*
X245702784Y-201044170D01*
X245695705Y-201041410D01*
X245695703Y-201041409D01*
X245642976Y-201020852D01*
X245636903Y-201018300D01*
X245578391Y-200991880D01*
X245570923Y-200990496D01*
X245568664Y-200989788D01*
X245551682Y-200984951D01*
X245549373Y-200984358D01*
X245542292Y-200981597D01*
X245534763Y-200980606D01*
X245534760Y-200980605D01*
X245478644Y-200973217D01*
X245472130Y-200972185D01*
X245416485Y-200961872D01*
X245416484Y-200961872D01*
X245409017Y-200960488D01*
X245401437Y-200960925D01*
X245401436Y-200960925D01*
X245346530Y-200964091D01*
X245339277Y-200964300D01*
X243170986Y-200964300D01*
X243102865Y-200944298D01*
X243081891Y-200927395D01*
X241032605Y-198878109D01*
X240998579Y-198815797D01*
X240995700Y-198789014D01*
X240995700Y-61497030D01*
X240995992Y-61488460D01*
X240999429Y-61438054D01*
X240999429Y-61438050D01*
X240999945Y-61430479D01*
X240998640Y-61423000D01*
X240988904Y-61367217D01*
X240987941Y-61360692D01*
X240981145Y-61304533D01*
X240981145Y-61304532D01*
X240980232Y-61296989D01*
X240977546Y-61289881D01*
X240976981Y-61287581D01*
X240972314Y-61270520D01*
X240971633Y-61268266D01*
X240970328Y-61260785D01*
X240967276Y-61253833D01*
X240967275Y-61253829D01*
X240944524Y-61202003D01*
X240942031Y-61195894D01*
X240922027Y-61142955D01*
X240919343Y-61135851D01*
X240915043Y-61129595D01*
X240913954Y-61127511D01*
X240905338Y-61112032D01*
X240904142Y-61110009D01*
X240901089Y-61103055D01*
X240896464Y-61097027D01*
X240862009Y-61052124D01*
X240858131Y-61046787D01*
X240821775Y-60993888D01*
X240775026Y-60952236D01*
X240769751Y-60947256D01*
X233695780Y-53873284D01*
X233689926Y-53867018D01*
X233656710Y-53828941D01*
X233656708Y-53828939D01*
X233651718Y-53823219D01*
X233599199Y-53786309D01*
X233593902Y-53782375D01*
X233549366Y-53747454D01*
X233549360Y-53747450D01*
X233543387Y-53742767D01*
X233536466Y-53739642D01*
X233534461Y-53738428D01*
X233519088Y-53729659D01*
X233517004Y-53728541D01*
X233510784Y-53724170D01*
X233503705Y-53721410D01*
X233503703Y-53721409D01*
X233450976Y-53700852D01*
X233444903Y-53698300D01*
X233386391Y-53671880D01*
X233378923Y-53670496D01*
X233376664Y-53669788D01*
X233359682Y-53664951D01*
X233357373Y-53664358D01*
X233350292Y-53661597D01*
X233342763Y-53660606D01*
X233342760Y-53660605D01*
X233286644Y-53653217D01*
X233280130Y-53652185D01*
X233224485Y-53641872D01*
X233224484Y-53641872D01*
X233217017Y-53640488D01*
X233209437Y-53640925D01*
X233209436Y-53640925D01*
X233154530Y-53644091D01*
X233147277Y-53644300D01*
X223184209Y-53644300D01*
X223116088Y-53624298D01*
X223103894Y-53615385D01*
X223081544Y-53596896D01*
X223039489Y-53562105D01*
X222875089Y-53473214D01*
X222785822Y-53445581D01*
X222702441Y-53419770D01*
X222702438Y-53419769D01*
X222696554Y-53417948D01*
X222690429Y-53417304D01*
X222690428Y-53417304D01*
X222516813Y-53399056D01*
X222516812Y-53399056D01*
X222510685Y-53398412D01*
X222392087Y-53409206D01*
X222330703Y-53414792D01*
X222330702Y-53414792D01*
X222324562Y-53415351D01*
X222318648Y-53417092D01*
X222318646Y-53417092D01*
X222196466Y-53453052D01*
X222145273Y-53468119D01*
X221979647Y-53554705D01*
X221833995Y-53671813D01*
X221713862Y-53814981D01*
X221710899Y-53820370D01*
X221710896Y-53820375D01*
X221637509Y-53953868D01*
X221623826Y-53978757D01*
X221567315Y-54156901D01*
X221546482Y-54342630D01*
X43383700Y-54342630D01*
X43383700Y-47082985D01*
X43403702Y-47014864D01*
X43420605Y-46993890D01*
X45469891Y-44944605D01*
X45532203Y-44910579D01*
X45558986Y-44907700D01*
X46563416Y-44907700D01*
X46631537Y-44927702D01*
X46645078Y-44937745D01*
X46697478Y-44982342D01*
X46860621Y-45073519D01*
X47038367Y-45131272D01*
X47223945Y-45153401D01*
X47230080Y-45152929D01*
X47230082Y-45152929D01*
X47286119Y-45148617D01*
X47410287Y-45139063D01*
X47590296Y-45088804D01*
X47595785Y-45086031D01*
X47595791Y-45086029D01*
X47673159Y-45046947D01*
X47757114Y-45004538D01*
X47785524Y-44982342D01*
X47877375Y-44910579D01*
X47904387Y-44889475D01*
X47908413Y-44884811D01*
X47908416Y-44884808D01*
X48022480Y-44752663D01*
X48026507Y-44747998D01*
X48118821Y-44585495D01*
X48177814Y-44408157D01*
X48183203Y-44365501D01*
X48200796Y-44226241D01*
X48200797Y-44226232D01*
X48201238Y-44222738D01*
X48201611Y-44196000D01*
X48183373Y-44009999D01*
X48129355Y-43831083D01*
X48041615Y-43666066D01*
X48004043Y-43619998D01*
X47927388Y-43526010D01*
X47927385Y-43526007D01*
X47923493Y-43521235D01*
X47918744Y-43517306D01*
X47784239Y-43406034D01*
X47784236Y-43406032D01*
X47779489Y-43402105D01*
X47615089Y-43313214D01*
X47525822Y-43285581D01*
X47442441Y-43259770D01*
X47442438Y-43259769D01*
X47436554Y-43257948D01*
X47430429Y-43257304D01*
X47430428Y-43257304D01*
X47256813Y-43239056D01*
X47256812Y-43239056D01*
X47250685Y-43238412D01*
X47132087Y-43249206D01*
X47070703Y-43254792D01*
X47070702Y-43254792D01*
X47064562Y-43255351D01*
X47058648Y-43257092D01*
X47058646Y-43257092D01*
X46936466Y-43293052D01*
X46885273Y-43308119D01*
X46719647Y-43394705D01*
X46705557Y-43406034D01*
X46642795Y-43456496D01*
X46577173Y-43483593D01*
X46563843Y-43484300D01*
X45241029Y-43484300D01*
X45232459Y-43484008D01*
X45182053Y-43480571D01*
X45182049Y-43480571D01*
X45174478Y-43480055D01*
X45167002Y-43481360D01*
X45167000Y-43481360D01*
X45111225Y-43491095D01*
X45104699Y-43492058D01*
X45048532Y-43498855D01*
X45048531Y-43498855D01*
X45040989Y-43499768D01*
X45033882Y-43502453D01*
X45031612Y-43503011D01*
X45014532Y-43507683D01*
X45012266Y-43508367D01*
X45004785Y-43509673D01*
X44946010Y-43535473D01*
X44939914Y-43537961D01*
X44886954Y-43557973D01*
X44879851Y-43560657D01*
X44873594Y-43564957D01*
X44871523Y-43566040D01*
X44856054Y-43574650D01*
X44854011Y-43575858D01*
X44847054Y-43578912D01*
X44796107Y-43618005D01*
X44790799Y-43621861D01*
X44744149Y-43653921D01*
X44744144Y-43653926D01*
X44737888Y-43658225D01*
X44732836Y-43663895D01*
X44732835Y-43663896D01*
X44696245Y-43704964D01*
X44691264Y-43710240D01*
X42189284Y-46212220D01*
X42183019Y-46218073D01*
X42139219Y-46256282D01*
X42134853Y-46262495D01*
X42102309Y-46308801D01*
X42098375Y-46314098D01*
X42063454Y-46358634D01*
X42063450Y-46358640D01*
X42058767Y-46364613D01*
X42055642Y-46371534D01*
X42054428Y-46373539D01*
X42045659Y-46388912D01*
X42044541Y-46390996D01*
X42040170Y-46397216D01*
X42037410Y-46404295D01*
X42037409Y-46404297D01*
X42016852Y-46457024D01*
X42014300Y-46463097D01*
X41987880Y-46521609D01*
X41986496Y-46529077D01*
X41985788Y-46531336D01*
X41980951Y-46548318D01*
X41980358Y-46550627D01*
X41977597Y-46557708D01*
X41976606Y-46565237D01*
X41976605Y-46565240D01*
X41969217Y-46621356D01*
X41968185Y-46627870D01*
X41957872Y-46683515D01*
X41956488Y-46690983D01*
X41956925Y-46698563D01*
X41956925Y-46698564D01*
X41960091Y-46753470D01*
X41960300Y-46760723D01*
X41960300Y-214203642D01*
X41940298Y-214271763D01*
X41930822Y-214284633D01*
X41881862Y-214342981D01*
X41878899Y-214348370D01*
X41878896Y-214348375D01*
X41844440Y-214411051D01*
X41791826Y-214506757D01*
X41789965Y-214512624D01*
X41789964Y-214512626D01*
X41763571Y-214595829D01*
X41735315Y-214684901D01*
X41734629Y-214691020D01*
X41715700Y-214859774D01*
X41714482Y-214870630D01*
X40132500Y-214870630D01*
X40132500Y-39502703D01*
X51230743Y-39502703D01*
X51268268Y-39787734D01*
X51344129Y-40065036D01*
X51456923Y-40329476D01*
X51604561Y-40576161D01*
X51784313Y-40800528D01*
X51992851Y-40998423D01*
X52226317Y-41166186D01*
X52230112Y-41168195D01*
X52230113Y-41168196D01*
X52251869Y-41179715D01*
X52480392Y-41300712D01*
X52750373Y-41399511D01*
X53031264Y-41460755D01*
X53059841Y-41463004D01*
X53254282Y-41478307D01*
X53254291Y-41478307D01*
X53256739Y-41478500D01*
X53412271Y-41478500D01*
X53414407Y-41478354D01*
X53414418Y-41478354D01*
X53622548Y-41464165D01*
X53622554Y-41464164D01*
X53626825Y-41463873D01*
X53631020Y-41463004D01*
X53631022Y-41463004D01*
X53767583Y-41434724D01*
X53908342Y-41405574D01*
X54179343Y-41309607D01*
X54434812Y-41177750D01*
X54438313Y-41175289D01*
X54438317Y-41175287D01*
X54552418Y-41095095D01*
X54670023Y-41012441D01*
X54880622Y-40816740D01*
X55062713Y-40594268D01*
X55212927Y-40349142D01*
X55328483Y-40085898D01*
X55407244Y-39809406D01*
X55447751Y-39524784D01*
X55447845Y-39506951D01*
X55447867Y-39502703D01*
X231570743Y-39502703D01*
X231608268Y-39787734D01*
X231684129Y-40065036D01*
X231796923Y-40329476D01*
X231944561Y-40576161D01*
X232124313Y-40800528D01*
X232332851Y-40998423D01*
X232566317Y-41166186D01*
X232570112Y-41168195D01*
X232570113Y-41168196D01*
X232591869Y-41179715D01*
X232820392Y-41300712D01*
X233090373Y-41399511D01*
X233371264Y-41460755D01*
X233399841Y-41463004D01*
X233594282Y-41478307D01*
X233594291Y-41478307D01*
X233596739Y-41478500D01*
X233752271Y-41478500D01*
X233754407Y-41478354D01*
X233754418Y-41478354D01*
X233962548Y-41464165D01*
X233962554Y-41464164D01*
X233966825Y-41463873D01*
X233971020Y-41463004D01*
X233971022Y-41463004D01*
X234107583Y-41434724D01*
X234248342Y-41405574D01*
X234519343Y-41309607D01*
X234774812Y-41177750D01*
X234778313Y-41175289D01*
X234778317Y-41175287D01*
X234892417Y-41095096D01*
X235010023Y-41012441D01*
X235220622Y-40816740D01*
X235402713Y-40594268D01*
X235552927Y-40349142D01*
X235668483Y-40085898D01*
X235747244Y-39809406D01*
X235787751Y-39524784D01*
X235787845Y-39506951D01*
X235789235Y-39241583D01*
X235789235Y-39241576D01*
X235789257Y-39237297D01*
X235751732Y-38952266D01*
X235675871Y-38674964D01*
X235563077Y-38410524D01*
X235415439Y-38163839D01*
X235235687Y-37939472D01*
X235027149Y-37741577D01*
X234793683Y-37573814D01*
X234771843Y-37562250D01*
X234748654Y-37549972D01*
X234539608Y-37439288D01*
X234269627Y-37340489D01*
X233988736Y-37279245D01*
X233957685Y-37276801D01*
X233765718Y-37261693D01*
X233765709Y-37261693D01*
X233763261Y-37261500D01*
X233607729Y-37261500D01*
X233605593Y-37261646D01*
X233605582Y-37261646D01*
X233397452Y-37275835D01*
X233397446Y-37275836D01*
X233393175Y-37276127D01*
X233388980Y-37276996D01*
X233388978Y-37276996D01*
X233252417Y-37305276D01*
X233111658Y-37334426D01*
X232840657Y-37430393D01*
X232585188Y-37562250D01*
X232581687Y-37564711D01*
X232581683Y-37564713D01*
X232571594Y-37571804D01*
X232349977Y-37727559D01*
X232139378Y-37923260D01*
X231957287Y-38145732D01*
X231807073Y-38390858D01*
X231691517Y-38654102D01*
X231612756Y-38930594D01*
X231572249Y-39215216D01*
X231572227Y-39219505D01*
X231572226Y-39219512D01*
X231570765Y-39498417D01*
X231570743Y-39502703D01*
X55447867Y-39502703D01*
X55449235Y-39241583D01*
X55449235Y-39241576D01*
X55449257Y-39237297D01*
X55411732Y-38952266D01*
X55335871Y-38674964D01*
X55223077Y-38410524D01*
X55075439Y-38163839D01*
X54895687Y-37939472D01*
X54687149Y-37741577D01*
X54453683Y-37573814D01*
X54431843Y-37562250D01*
X54408654Y-37549972D01*
X54199608Y-37439288D01*
X53929627Y-37340489D01*
X53648736Y-37279245D01*
X53617685Y-37276801D01*
X53425718Y-37261693D01*
X53425709Y-37261693D01*
X53423261Y-37261500D01*
X53267729Y-37261500D01*
X53265593Y-37261646D01*
X53265582Y-37261646D01*
X53057452Y-37275835D01*
X53057446Y-37275836D01*
X53053175Y-37276127D01*
X53048980Y-37276996D01*
X53048978Y-37276996D01*
X52912417Y-37305276D01*
X52771658Y-37334426D01*
X52500657Y-37430393D01*
X52245188Y-37562250D01*
X52241687Y-37564711D01*
X52241683Y-37564713D01*
X52231594Y-37571804D01*
X52009977Y-37727559D01*
X51799378Y-37923260D01*
X51617287Y-38145732D01*
X51467073Y-38390858D01*
X51351517Y-38654102D01*
X51272756Y-38930594D01*
X51232249Y-39215216D01*
X51232227Y-39219505D01*
X51232226Y-39219512D01*
X51230765Y-39498417D01*
X51230743Y-39502703D01*
X40132500Y-39502703D01*
X40132500Y-33900630D01*
X41592482Y-33900630D01*
X41608121Y-34086867D01*
X41659636Y-34266520D01*
X41745064Y-34432746D01*
X41748887Y-34437570D01*
X41748890Y-34437574D01*
X41819343Y-34526463D01*
X41861152Y-34579212D01*
X41865846Y-34583207D01*
X41920763Y-34629945D01*
X42003478Y-34700342D01*
X42166621Y-34791519D01*
X42344367Y-34849272D01*
X42529945Y-34871401D01*
X42536080Y-34870929D01*
X42536082Y-34870929D01*
X42592119Y-34866617D01*
X42716287Y-34857063D01*
X42896296Y-34806804D01*
X42901785Y-34804031D01*
X42901791Y-34804029D01*
X42979159Y-34764947D01*
X43063114Y-34722538D01*
X43067965Y-34718748D01*
X43067968Y-34718746D01*
X43152872Y-34652411D01*
X43218867Y-34626233D01*
X43230446Y-34625700D01*
X229200970Y-34625700D01*
X229209540Y-34625992D01*
X229259946Y-34629429D01*
X229259950Y-34629429D01*
X229267521Y-34629945D01*
X229274997Y-34628640D01*
X229275000Y-34628640D01*
X229330783Y-34618904D01*
X229337308Y-34617941D01*
X229393467Y-34611145D01*
X229393468Y-34611145D01*
X229401011Y-34610232D01*
X229408119Y-34607546D01*
X229410419Y-34606981D01*
X229427480Y-34602314D01*
X229429734Y-34601634D01*
X229437215Y-34600328D01*
X229496005Y-34574521D01*
X229502102Y-34572033D01*
X229555047Y-34552027D01*
X229555050Y-34552026D01*
X229562149Y-34549343D01*
X229568404Y-34545044D01*
X229570495Y-34543951D01*
X229585957Y-34535345D01*
X229587991Y-34534142D01*
X229594946Y-34531089D01*
X229600971Y-34526466D01*
X229600976Y-34526463D01*
X229645874Y-34492012D01*
X229651209Y-34488136D01*
X229697847Y-34456082D01*
X229697853Y-34456077D01*
X229704112Y-34451775D01*
X229745764Y-34405026D01*
X229750744Y-34399751D01*
X231622716Y-32527780D01*
X231628982Y-32521926D01*
X231667059Y-32488710D01*
X231667061Y-32488708D01*
X231672781Y-32483718D01*
X231709691Y-32431199D01*
X231713625Y-32425902D01*
X231748546Y-32381366D01*
X231748550Y-32381360D01*
X231753233Y-32375387D01*
X231756358Y-32368466D01*
X231757572Y-32366461D01*
X231766342Y-32351087D01*
X231767460Y-32349001D01*
X231771830Y-32342784D01*
X231795149Y-32282974D01*
X231797705Y-32276892D01*
X231824120Y-32218390D01*
X231825504Y-32210921D01*
X231826212Y-32208663D01*
X231831062Y-32191634D01*
X231831643Y-32189370D01*
X231834403Y-32182292D01*
X231842786Y-32118621D01*
X231843812Y-32112146D01*
X231855512Y-32049016D01*
X231851909Y-31986529D01*
X231851700Y-31979277D01*
X231851700Y-29128887D01*
X231871702Y-29060766D01*
X231882319Y-29046556D01*
X231918480Y-29004663D01*
X231922507Y-28999998D01*
X232014821Y-28837495D01*
X232029091Y-28794600D01*
X232071867Y-28666009D01*
X232073814Y-28660157D01*
X232079553Y-28614727D01*
X232096796Y-28478241D01*
X232096797Y-28478232D01*
X232097238Y-28474738D01*
X232097611Y-28448000D01*
X232079373Y-28261999D01*
X232075419Y-28248901D01*
X232027136Y-28088983D01*
X232025355Y-28083083D01*
X231937615Y-27918066D01*
X231924727Y-27902264D01*
X231823388Y-27778010D01*
X231823385Y-27778007D01*
X231819493Y-27773235D01*
X231814744Y-27769306D01*
X231680239Y-27658034D01*
X231680236Y-27658032D01*
X231675489Y-27654105D01*
X231511089Y-27565214D01*
X231421821Y-27537581D01*
X231338441Y-27511770D01*
X231338438Y-27511769D01*
X231332554Y-27509948D01*
X231326429Y-27509304D01*
X231326428Y-27509304D01*
X231152813Y-27491056D01*
X231152812Y-27491056D01*
X231146685Y-27490412D01*
X231028087Y-27501206D01*
X230966703Y-27506792D01*
X230966702Y-27506792D01*
X230960562Y-27507351D01*
X230954648Y-27509092D01*
X230954646Y-27509092D01*
X230832466Y-27545052D01*
X230781273Y-27560119D01*
X230615647Y-27646705D01*
X230469995Y-27763813D01*
X230349862Y-27906981D01*
X230346899Y-27912370D01*
X230346896Y-27912375D01*
X230273509Y-28045868D01*
X230259826Y-28070757D01*
X230203315Y-28248901D01*
X230182482Y-28434630D01*
X230198121Y-28620867D01*
X230249636Y-28800520D01*
X230335064Y-28966746D01*
X230338887Y-28971570D01*
X230338890Y-28971574D01*
X230401045Y-29049993D01*
X230427683Y-29115803D01*
X230428300Y-29128258D01*
X230428300Y-31657015D01*
X230408298Y-31725136D01*
X230391395Y-31746110D01*
X228972109Y-33165395D01*
X228909797Y-33199421D01*
X228883014Y-33202300D01*
X43230209Y-33202300D01*
X43162088Y-33182298D01*
X43149894Y-33173385D01*
X43127544Y-33154896D01*
X43085489Y-33120105D01*
X42921089Y-33031214D01*
X42831822Y-33003581D01*
X42748441Y-32977770D01*
X42748438Y-32977769D01*
X42742554Y-32975948D01*
X42736429Y-32975304D01*
X42736428Y-32975304D01*
X42562813Y-32957056D01*
X42562812Y-32957056D01*
X42556685Y-32956412D01*
X42438087Y-32967206D01*
X42376703Y-32972792D01*
X42376702Y-32972792D01*
X42370562Y-32973351D01*
X42364648Y-32975092D01*
X42364646Y-32975092D01*
X42242466Y-33011052D01*
X42191273Y-33026119D01*
X42025647Y-33112705D01*
X41879995Y-33229813D01*
X41759862Y-33372981D01*
X41756899Y-33378370D01*
X41756896Y-33378375D01*
X41683509Y-33511868D01*
X41669826Y-33536757D01*
X41613315Y-33714901D01*
X41592482Y-33900630D01*
X40132500Y-33900630D01*
X40132500Y-25526500D01*
X40152502Y-25458379D01*
X40206158Y-25411886D01*
X40258500Y-25400500D01*
X249301500Y-25400500D01*
X249369621Y-25420502D01*
G37*
%TD.AperFunction*%
%TD*%
M02*
