%TF.GenerationSoftware,KiCad,Pcbnew,6.0.7*%
%TF.CreationDate,2022-10-23T18:16:52+02:00*%
%TF.ProjectId,led_circuit_test,6c65645f-6369-4726-9375-69745f746573,rev?*%
%TF.SameCoordinates,Original*%
%TF.FileFunction,Copper,L1,Top*%
%TF.FilePolarity,Positive*%
%FSLAX46Y46*%
G04 Gerber Fmt 4.6, Leading zero omitted, Abs format (unit mm)*
G04 Created by KiCad (PCBNEW 6.0.7) date 2022-10-23 18:16:52*
%MOMM*%
%LPD*%
G01*
G04 APERTURE LIST*
G04 Aperture macros list*
%AMRoundRect*
0 Rectangle with rounded corners*
0 $1 Rounding radius*
0 $2 $3 $4 $5 $6 $7 $8 $9 X,Y pos of 4 corners*
0 Add a 4 corners polygon primitive as box body*
4,1,4,$2,$3,$4,$5,$6,$7,$8,$9,$2,$3,0*
0 Add four circle primitives for the rounded corners*
1,1,$1+$1,$2,$3*
1,1,$1+$1,$4,$5*
1,1,$1+$1,$6,$7*
1,1,$1+$1,$8,$9*
0 Add four rect primitives between the rounded corners*
20,1,$1+$1,$2,$3,$4,$5,0*
20,1,$1+$1,$4,$5,$6,$7,0*
20,1,$1+$1,$6,$7,$8,$9,0*
20,1,$1+$1,$8,$9,$2,$3,0*%
%AMFreePoly0*
4,1,22,0.500000,-0.750000,0.000000,-0.750000,0.000000,-0.745033,-0.079941,-0.743568,-0.215256,-0.701293,-0.333266,-0.622738,-0.424486,-0.514219,-0.481581,-0.384460,-0.499164,-0.250000,-0.500000,-0.250000,-0.500000,0.250000,-0.499164,0.250000,-0.499963,0.256109,-0.478152,0.396186,-0.417904,0.524511,-0.324060,0.630769,-0.204165,0.706417,-0.067858,0.745374,0.000000,0.744959,0.000000,0.750000,
0.500000,0.750000,0.500000,-0.750000,0.500000,-0.750000,$1*%
%AMFreePoly1*
4,1,20,0.000000,0.744959,0.073905,0.744508,0.209726,0.703889,0.328688,0.626782,0.421226,0.519385,0.479903,0.390333,0.500000,0.250000,0.500000,-0.250000,0.499851,-0.262216,0.476331,-0.402017,0.414519,-0.529596,0.319384,-0.634700,0.198574,-0.708877,0.061801,-0.746166,0.000000,-0.745033,0.000000,-0.750000,-0.500000,-0.750000,-0.500000,0.750000,0.000000,0.750000,0.000000,0.744959,
0.000000,0.744959,$1*%
G04 Aperture macros list end*
%TA.AperFunction,Profile*%
%ADD10C,0.100000*%
%TD*%
%TA.AperFunction,SMDPad,CuDef*%
%ADD11RoundRect,0.250000X-0.262500X-0.450000X0.262500X-0.450000X0.262500X0.450000X-0.262500X0.450000X0*%
%TD*%
%TA.AperFunction,SMDPad,CuDef*%
%ADD12RoundRect,0.250000X0.250000X0.475000X-0.250000X0.475000X-0.250000X-0.475000X0.250000X-0.475000X0*%
%TD*%
%TA.AperFunction,SMDPad,CuDef*%
%ADD13R,3.000000X3.000000*%
%TD*%
%TA.AperFunction,SMDPad,CuDef*%
%ADD14RoundRect,0.250000X0.475000X-0.250000X0.475000X0.250000X-0.475000X0.250000X-0.475000X-0.250000X0*%
%TD*%
%TA.AperFunction,SMDPad,CuDef*%
%ADD15FreePoly0,90.000000*%
%TD*%
%TA.AperFunction,SMDPad,CuDef*%
%ADD16FreePoly1,90.000000*%
%TD*%
%TA.AperFunction,SMDPad,CuDef*%
%ADD17R,1.000000X1.500000*%
%TD*%
%TA.AperFunction,Conductor*%
%ADD18C,0.406400*%
%TD*%
%TA.AperFunction,Conductor*%
%ADD19C,0.508000*%
%TD*%
%TA.AperFunction,Conductor*%
%ADD20C,0.254000*%
%TD*%
G04 APERTURE END LIST*
D10*
X135890000Y-43942000D02*
X75692000Y-43942000D01*
X75692000Y-43942000D02*
X75692000Y-25400000D01*
X135890000Y-25400000D02*
X135890000Y-43942000D01*
X75692000Y-25400000D02*
X135890000Y-25400000D01*
D11*
%TO.P,R1,2*%
%TO.N,+5V*%
X84986500Y-41402000D03*
%TO.P,R1,1*%
%TO.N,Net-(C1-Pad1)*%
X83161500Y-41402000D03*
%TD*%
D12*
%TO.P,C1,2*%
%TO.N,GND*%
X77790000Y-41402000D03*
%TO.P,C1,1*%
%TO.N,Net-(C1-Pad1)*%
X79690000Y-41402000D03*
%TD*%
D13*
%TO.P,J5,1,Pin_1*%
%TO.N,Net-(C3-Pad2)*%
X106426000Y-28956000D03*
%TD*%
%TO.P,J3,1,Pin_1*%
%TO.N,Net-(D1-Pad4)*%
X88011000Y-28956000D03*
%TD*%
D14*
%TO.P,C5,1*%
%TO.N,Net-(C5-Pad1)*%
X127000000Y-38288000D03*
%TO.P,C5,2*%
%TO.N,Net-(C5-Pad2)*%
X127000000Y-36388000D03*
%TD*%
D15*
%TO.P,JP2,1,A*%
%TO.N,Net-(C4-Pad2)*%
X123698000Y-29606000D03*
D16*
%TO.P,JP2,2,B*%
%TO.N,GND*%
X123698000Y-28306000D03*
%TD*%
D11*
%TO.P,R4,2*%
%TO.N,+5V*%
X120292500Y-41402000D03*
%TO.P,R4,1*%
%TO.N,Net-(C4-Pad1)*%
X118467500Y-41402000D03*
%TD*%
D13*
%TO.P,J1,1,Pin_1*%
%TO.N,+5V*%
X79756000Y-28956000D03*
%TD*%
%TO.P,J6,1,Pin_1*%
%TO.N,Net-(C4-Pad2)*%
X119126000Y-28956000D03*
%TD*%
D17*
%TO.P,D4,1,VDD*%
%TO.N,Net-(C4-Pad1)*%
X117780000Y-37949000D03*
%TO.P,D4,2,DOUT*%
%TO.N,Net-(D4-Pad2)*%
X120980000Y-37949000D03*
%TO.P,D4,3,VSS*%
%TO.N,Net-(C4-Pad2)*%
X120980000Y-33049000D03*
%TO.P,D4,4,DIN*%
%TO.N,Net-(D3-Pad2)*%
X117780000Y-33049000D03*
%TD*%
%TO.P,D5,1,VDD*%
%TO.N,Net-(C5-Pad1)*%
X130734000Y-38010000D03*
%TO.P,D5,2,DOUT*%
%TO.N,unconnected-(D5-Pad2)*%
X133934000Y-38010000D03*
%TO.P,D5,3,VSS*%
%TO.N,Net-(C5-Pad2)*%
X133934000Y-33110000D03*
%TO.P,D5,4,DIN*%
%TO.N,Net-(D4-Pad2)*%
X130734000Y-33110000D03*
%TD*%
D11*
%TO.P,R3,2*%
%TO.N,+5V*%
X107592500Y-41402000D03*
%TO.P,R3,1*%
%TO.N,Net-(C3-Pad1)*%
X105767500Y-41402000D03*
%TD*%
D13*
%TO.P,J4,1,Pin_1*%
%TO.N,Net-(C5-Pad2)*%
X131826000Y-28956000D03*
%TD*%
D14*
%TO.P,C2,2*%
%TO.N,GND*%
X88646000Y-36388000D03*
%TO.P,C2,1*%
%TO.N,Net-(C2-Pad1)*%
X88646000Y-38288000D03*
%TD*%
D13*
%TO.P,J2,1,Pin_1*%
%TO.N,GND*%
X94996000Y-28956000D03*
%TD*%
D17*
%TO.P,D1,1,VDD*%
%TO.N,Net-(C1-Pad1)*%
X79680000Y-38264000D03*
%TO.P,D1,2,DOUT*%
%TO.N,Net-(D1-Pad2)*%
X82880000Y-38264000D03*
%TO.P,D1,3,VSS*%
%TO.N,GND*%
X82880000Y-33364000D03*
%TO.P,D1,4,DIN*%
%TO.N,Net-(D1-Pad4)*%
X79680000Y-33364000D03*
%TD*%
D15*
%TO.P,JP1,1,A*%
%TO.N,Net-(C3-Pad2)*%
X110998000Y-29606000D03*
D16*
%TO.P,JP1,2,B*%
%TO.N,GND*%
X110998000Y-28306000D03*
%TD*%
D17*
%TO.P,D3,1,VDD*%
%TO.N,Net-(C3-Pad1)*%
X105080000Y-38264000D03*
%TO.P,D3,2,DOUT*%
%TO.N,Net-(D3-Pad2)*%
X108280000Y-38264000D03*
%TO.P,D3,3,VSS*%
%TO.N,Net-(C3-Pad2)*%
X108280000Y-33364000D03*
%TO.P,D3,4,DIN*%
%TO.N,Net-(D2-Pad2)*%
X105080000Y-33364000D03*
%TD*%
D11*
%TO.P,R5,1*%
%TO.N,Net-(C5-Pad1)*%
X131421500Y-41402000D03*
%TO.P,R5,2*%
%TO.N,+5V*%
X133246500Y-41402000D03*
%TD*%
D17*
%TO.P,D2,1,VDD*%
%TO.N,Net-(C2-Pad1)*%
X92380000Y-38264000D03*
%TO.P,D2,2,DOUT*%
%TO.N,Net-(D2-Pad2)*%
X95580000Y-38264000D03*
%TO.P,D2,3,VSS*%
%TO.N,GND*%
X95580000Y-33364000D03*
%TO.P,D2,4,DIN*%
%TO.N,Net-(D1-Pad2)*%
X92380000Y-33364000D03*
%TD*%
D11*
%TO.P,R2,1*%
%TO.N,Net-(C2-Pad1)*%
X93067500Y-41402000D03*
%TO.P,R2,2*%
%TO.N,+5V*%
X94892500Y-41402000D03*
%TD*%
D14*
%TO.P,C4,2*%
%TO.N,Net-(C4-Pad2)*%
X114046000Y-36388000D03*
%TO.P,C4,1*%
%TO.N,Net-(C4-Pad1)*%
X114046000Y-38288000D03*
%TD*%
%TO.P,C3,2*%
%TO.N,Net-(C3-Pad2)*%
X101346000Y-36388000D03*
%TO.P,C3,1*%
%TO.N,Net-(C3-Pad1)*%
X101346000Y-38288000D03*
%TD*%
D18*
%TO.N,Net-(C5-Pad2)*%
X133934000Y-33110000D02*
X133934000Y-31064000D01*
X133934000Y-31064000D02*
X131826000Y-28956000D01*
%TO.N,Net-(C4-Pad2)*%
X123698000Y-29606000D02*
X119776000Y-29606000D01*
X119776000Y-29606000D02*
X119126000Y-28956000D01*
X120980000Y-33049000D02*
X120980000Y-30810000D01*
X120980000Y-30810000D02*
X119126000Y-28956000D01*
%TO.N,Net-(C3-Pad2)*%
X110998000Y-29606000D02*
X107076000Y-29606000D01*
X107076000Y-29606000D02*
X106426000Y-28956000D01*
X108280000Y-33364000D02*
X108280000Y-30810000D01*
X108280000Y-30810000D02*
X106426000Y-28956000D01*
X101346000Y-36388000D02*
X105256000Y-36388000D01*
X105256000Y-36388000D02*
X108280000Y-33364000D01*
%TO.N,+5V*%
X77216000Y-43180000D02*
X84836000Y-43180000D01*
X84836000Y-43180000D02*
X94742000Y-43180000D01*
X84986500Y-41402000D02*
X84986500Y-43029500D01*
X84986500Y-43029500D02*
X84836000Y-43180000D01*
X94742000Y-43180000D02*
X107696000Y-43180000D01*
X94892500Y-41402000D02*
X94892500Y-43029500D01*
X94892500Y-43029500D02*
X94742000Y-43180000D01*
X107696000Y-43180000D02*
X120396000Y-43180000D01*
X107592500Y-41402000D02*
X107592500Y-43076500D01*
X107592500Y-43076500D02*
X107696000Y-43180000D01*
X120396000Y-43180000D02*
X131468500Y-43180000D01*
X120292500Y-41402000D02*
X120292500Y-43076500D01*
X120292500Y-43076500D02*
X120396000Y-43180000D01*
X76403200Y-42367200D02*
X77216000Y-43180000D01*
X76403200Y-32308800D02*
X76403200Y-42367200D01*
X79756000Y-28956000D02*
X76403200Y-32308800D01*
X131468500Y-43180000D02*
X133246500Y-41402000D01*
%TO.N,Net-(D1-Pad4)*%
X82296000Y-31242000D02*
X82296000Y-29972000D01*
X79680000Y-33364000D02*
X80174000Y-33364000D01*
X80174000Y-33364000D02*
X82296000Y-31242000D01*
X82296000Y-29972000D02*
X83312000Y-28956000D01*
X83312000Y-28956000D02*
X88011000Y-28956000D01*
D19*
%TO.N,Net-(C4-Pad2)*%
X114046000Y-36388000D02*
X117641000Y-36388000D01*
X117641000Y-36388000D02*
X120980000Y-33049000D01*
%TO.N,Net-(C5-Pad2)*%
X127000000Y-36388000D02*
X130595000Y-36388000D01*
X130595000Y-36388000D02*
X133934000Y-33049000D01*
%TO.N,Net-(C5-Pad1)*%
X127000000Y-38288000D02*
X130395000Y-38288000D01*
X130395000Y-38288000D02*
X130734000Y-37949000D01*
X131421500Y-41402000D02*
X131421500Y-38636500D01*
X131421500Y-38636500D02*
X130734000Y-37949000D01*
%TO.N,Net-(C4-Pad1)*%
X114046000Y-38288000D02*
X117441000Y-38288000D01*
X117441000Y-38288000D02*
X117780000Y-37949000D01*
X118467500Y-41402000D02*
X118467500Y-38636500D01*
X118467500Y-38636500D02*
X117780000Y-37949000D01*
%TO.N,Net-(C3-Pad1)*%
X105080000Y-38264000D02*
X101370000Y-38264000D01*
X101370000Y-38264000D02*
X101346000Y-38288000D01*
X105767500Y-41402000D02*
X105767500Y-38951500D01*
X105767500Y-38951500D02*
X105080000Y-38264000D01*
%TO.N,Net-(C2-Pad1)*%
X88646000Y-38288000D02*
X92356000Y-38288000D01*
X93067500Y-41402000D02*
X93067500Y-38951500D01*
X93067500Y-38951500D02*
X92380000Y-38264000D01*
X92356000Y-38288000D02*
X92380000Y-38264000D01*
%TO.N,Net-(C1-Pad1)*%
X79690000Y-41402000D02*
X83161500Y-41402000D01*
X79690000Y-41402000D02*
X79690000Y-38274000D01*
X79690000Y-38274000D02*
X79680000Y-38264000D01*
D18*
%TO.N,Net-(D2-Pad2)*%
X95580000Y-38264000D02*
X100480000Y-33364000D01*
X100480000Y-33364000D02*
X105080000Y-33364000D01*
%TO.N,Net-(D3-Pad2)*%
X108280000Y-38264000D02*
X113495000Y-33049000D01*
X113495000Y-33049000D02*
X117780000Y-33049000D01*
%TO.N,Net-(D4-Pad2)*%
X120980000Y-37949000D02*
X125880000Y-33049000D01*
X125880000Y-33049000D02*
X130734000Y-33049000D01*
%TO.N,Net-(D1-Pad2)*%
X82880000Y-38264000D02*
X87780000Y-33364000D01*
X87780000Y-33364000D02*
X92380000Y-33364000D01*
D20*
%TO.N,Net-(D4-Pad2)*%
X130681500Y-33205000D02*
X130837500Y-33049000D01*
%TD*%
%TA.AperFunction,Conductor*%
%TO.N,GND*%
G36*
X135222021Y-26030102D02*
G01*
X135268514Y-26083758D01*
X135279900Y-26136100D01*
X135279900Y-32199477D01*
X135259898Y-32267598D01*
X135206242Y-32314091D01*
X135135968Y-32324195D01*
X135071388Y-32294701D01*
X135032903Y-32234630D01*
X135000584Y-32123387D01*
X135000583Y-32123386D01*
X134998372Y-32115774D01*
X134940909Y-32018608D01*
X134923939Y-31989914D01*
X134919905Y-31983093D01*
X134810907Y-31874095D01*
X134804086Y-31870061D01*
X134797817Y-31865198D01*
X134799631Y-31862860D01*
X134760698Y-31821149D01*
X134747300Y-31764608D01*
X134747300Y-31073217D01*
X134747307Y-31071897D01*
X134748182Y-30988332D01*
X134748256Y-30981291D01*
X134744518Y-30964000D01*
X134739033Y-30938628D01*
X134736974Y-30926050D01*
X134732894Y-30889682D01*
X134732892Y-30889673D01*
X134732107Y-30882675D01*
X134727613Y-30869770D01*
X134720997Y-30850769D01*
X134716835Y-30835962D01*
X134711186Y-30809836D01*
X134709697Y-30802949D01*
X134691249Y-30763386D01*
X134686460Y-30751593D01*
X134672101Y-30710361D01*
X134668366Y-30704383D01*
X134654199Y-30681710D01*
X134646860Y-30668193D01*
X134635561Y-30643963D01*
X134632585Y-30637581D01*
X134605831Y-30603090D01*
X134598537Y-30592634D01*
X134579145Y-30561600D01*
X134575411Y-30555624D01*
X134568783Y-30548949D01*
X134546644Y-30526656D01*
X134546047Y-30526018D01*
X134545527Y-30525347D01*
X134519269Y-30499089D01*
X134476838Y-30456361D01*
X134449335Y-30428665D01*
X134449331Y-30428661D01*
X134446841Y-30426154D01*
X134445800Y-30425494D01*
X134444565Y-30424385D01*
X133973005Y-29952825D01*
X133938979Y-29890513D01*
X133936100Y-29863730D01*
X133936099Y-27396861D01*
X133936099Y-27394388D01*
X133933378Y-27359801D01*
X133927160Y-27338396D01*
X133892584Y-27219387D01*
X133892583Y-27219386D01*
X133890372Y-27211774D01*
X133811905Y-27079093D01*
X133702907Y-26970095D01*
X133681647Y-26957522D01*
X133577049Y-26895663D01*
X133577048Y-26895663D01*
X133570226Y-26891628D01*
X133562614Y-26889417D01*
X133562613Y-26889416D01*
X133428376Y-26850416D01*
X133428371Y-26850415D01*
X133422199Y-26848622D01*
X133415794Y-26848118D01*
X133415789Y-26848117D01*
X133390070Y-26846093D01*
X133390061Y-26846093D01*
X133387613Y-26845900D01*
X131827264Y-26845900D01*
X130264388Y-26845901D01*
X130243291Y-26847561D01*
X130236219Y-26848117D01*
X130236218Y-26848117D01*
X130229801Y-26848622D01*
X130223621Y-26850417D01*
X130223618Y-26850418D01*
X130089387Y-26889416D01*
X130089386Y-26889417D01*
X130081774Y-26891628D01*
X130074952Y-26895663D01*
X130074951Y-26895663D01*
X129970353Y-26957522D01*
X129949093Y-26970095D01*
X129840095Y-27079093D01*
X129761628Y-27211774D01*
X129759417Y-27219386D01*
X129759416Y-27219387D01*
X129720416Y-27353624D01*
X129720415Y-27353629D01*
X129718622Y-27359801D01*
X129718118Y-27366206D01*
X129718117Y-27366211D01*
X129716093Y-27391930D01*
X129715900Y-27394387D01*
X129715901Y-30517612D01*
X129718622Y-30552199D01*
X129720417Y-30558376D01*
X129720418Y-30558382D01*
X129757098Y-30684635D01*
X129761628Y-30700226D01*
X129765663Y-30707048D01*
X129765663Y-30707049D01*
X129832026Y-30819263D01*
X129840095Y-30832907D01*
X129949093Y-30941905D01*
X129955914Y-30945939D01*
X129983627Y-30962328D01*
X130081774Y-31020372D01*
X130089386Y-31022583D01*
X130089387Y-31022584D01*
X130223624Y-31061584D01*
X130223629Y-31061585D01*
X130229801Y-31063378D01*
X130236206Y-31063882D01*
X130236211Y-31063883D01*
X130261930Y-31065907D01*
X130261939Y-31065907D01*
X130264387Y-31066100D01*
X130378287Y-31066100D01*
X132733729Y-31066099D01*
X132801850Y-31086101D01*
X132822824Y-31103004D01*
X133083795Y-31363975D01*
X133117821Y-31426287D01*
X133120700Y-31453070D01*
X133120700Y-31764608D01*
X133100698Y-31832729D01*
X133068824Y-31863446D01*
X133070183Y-31865198D01*
X133063914Y-31870061D01*
X133057093Y-31874095D01*
X132948095Y-31983093D01*
X132944061Y-31989914D01*
X132927092Y-32018608D01*
X132869628Y-32115774D01*
X132867417Y-32123386D01*
X132867416Y-32123387D01*
X132828416Y-32257624D01*
X132828415Y-32257629D01*
X132826622Y-32263801D01*
X132826118Y-32270206D01*
X132826117Y-32270211D01*
X132824093Y-32295930D01*
X132823900Y-32298387D01*
X132823900Y-32884888D01*
X132803898Y-32953009D01*
X132786995Y-32973983D01*
X132059195Y-33701783D01*
X131996883Y-33735809D01*
X131926068Y-33730744D01*
X131869232Y-33688197D01*
X131844421Y-33621677D01*
X131844100Y-33612688D01*
X131844099Y-32300861D01*
X131844099Y-32298388D01*
X131842126Y-32273303D01*
X131841883Y-32270219D01*
X131841882Y-32270211D01*
X131841378Y-32263801D01*
X131838301Y-32253208D01*
X131800584Y-32123387D01*
X131800583Y-32123386D01*
X131798372Y-32115774D01*
X131740909Y-32018608D01*
X131723939Y-31989914D01*
X131719905Y-31983093D01*
X131610907Y-31874095D01*
X131595863Y-31865198D01*
X131485049Y-31799663D01*
X131485048Y-31799663D01*
X131478226Y-31795628D01*
X131470614Y-31793417D01*
X131470613Y-31793416D01*
X131336376Y-31754416D01*
X131336371Y-31754415D01*
X131330199Y-31752622D01*
X131323794Y-31752118D01*
X131323789Y-31752117D01*
X131298070Y-31750093D01*
X131298061Y-31750093D01*
X131295613Y-31749900D01*
X130734455Y-31749900D01*
X130172388Y-31749901D01*
X130151291Y-31751561D01*
X130144219Y-31752117D01*
X130144218Y-31752117D01*
X130137801Y-31752622D01*
X130131621Y-31754417D01*
X130131618Y-31754418D01*
X129997387Y-31793416D01*
X129997386Y-31793417D01*
X129989774Y-31795628D01*
X129982952Y-31799663D01*
X129982951Y-31799663D01*
X129872137Y-31865198D01*
X129857093Y-31874095D01*
X129748095Y-31983093D01*
X129744061Y-31989914D01*
X129727092Y-32018608D01*
X129669628Y-32115774D01*
X129664420Y-32133701D01*
X129661180Y-32144852D01*
X129622968Y-32204688D01*
X129558472Y-32234366D01*
X129540183Y-32235700D01*
X125889217Y-32235700D01*
X125887897Y-32235693D01*
X125886789Y-32235681D01*
X125797291Y-32234744D01*
X125790409Y-32236232D01*
X125790408Y-32236232D01*
X125754628Y-32243967D01*
X125742050Y-32246026D01*
X125705682Y-32250106D01*
X125705673Y-32250108D01*
X125698675Y-32250893D01*
X125685770Y-32255387D01*
X125666769Y-32262003D01*
X125651962Y-32266165D01*
X125645335Y-32267598D01*
X125618949Y-32273303D01*
X125612564Y-32276280D01*
X125612562Y-32276281D01*
X125600881Y-32281728D01*
X125579386Y-32291751D01*
X125567593Y-32296540D01*
X125526361Y-32310899D01*
X125520386Y-32314633D01*
X125520383Y-32314634D01*
X125497710Y-32328801D01*
X125484193Y-32336140D01*
X125453581Y-32350415D01*
X125440772Y-32360351D01*
X125419090Y-32377169D01*
X125408636Y-32384462D01*
X125371624Y-32407589D01*
X125366625Y-32412554D01*
X125366623Y-32412555D01*
X125342656Y-32436356D01*
X125342018Y-32436953D01*
X125341347Y-32437473D01*
X125315089Y-32463731D01*
X125254178Y-32524219D01*
X125242154Y-32536159D01*
X125241494Y-32537200D01*
X125240385Y-32538435D01*
X121226825Y-36551995D01*
X121164513Y-36586021D01*
X121137730Y-36588900D01*
X120453293Y-36588901D01*
X120418388Y-36588901D01*
X120397291Y-36590561D01*
X120390219Y-36591117D01*
X120390218Y-36591117D01*
X120383801Y-36591622D01*
X120377621Y-36593417D01*
X120377618Y-36593418D01*
X120243387Y-36632416D01*
X120243386Y-36632417D01*
X120235774Y-36634628D01*
X120228952Y-36638663D01*
X120228951Y-36638663D01*
X120132628Y-36695628D01*
X120103093Y-36713095D01*
X119994095Y-36822093D01*
X119990061Y-36828914D01*
X119944404Y-36906117D01*
X119915628Y-36954774D01*
X119913417Y-36962386D01*
X119913416Y-36962387D01*
X119874416Y-37096624D01*
X119874415Y-37096629D01*
X119872622Y-37102801D01*
X119872118Y-37109206D01*
X119872117Y-37109211D01*
X119870093Y-37134930D01*
X119869900Y-37137387D01*
X119869901Y-38760612D01*
X119872622Y-38795199D01*
X119874417Y-38801376D01*
X119874418Y-38801382D01*
X119911862Y-38930264D01*
X119915628Y-38943226D01*
X119994095Y-39075907D01*
X120103093Y-39184905D01*
X120109914Y-39188939D01*
X120227073Y-39258226D01*
X120235774Y-39263372D01*
X120243386Y-39265583D01*
X120243387Y-39265584D01*
X120377624Y-39304584D01*
X120377629Y-39304585D01*
X120383801Y-39306378D01*
X120390206Y-39306882D01*
X120390211Y-39306883D01*
X120415930Y-39308907D01*
X120415939Y-39308907D01*
X120418387Y-39309100D01*
X120979545Y-39309100D01*
X121541612Y-39309099D01*
X121562709Y-39307439D01*
X121569781Y-39306883D01*
X121569782Y-39306883D01*
X121576199Y-39306378D01*
X121582379Y-39304583D01*
X121582382Y-39304582D01*
X121716613Y-39265584D01*
X121716614Y-39265583D01*
X121724226Y-39263372D01*
X121732928Y-39258226D01*
X121850086Y-39188939D01*
X121856907Y-39184905D01*
X121965905Y-39075907D01*
X122044372Y-38943226D01*
X122048138Y-38930264D01*
X122085584Y-38801376D01*
X122085585Y-38801371D01*
X122087378Y-38795199D01*
X122087882Y-38788794D01*
X122087883Y-38788789D01*
X122089907Y-38763070D01*
X122089907Y-38763061D01*
X122090100Y-38760613D01*
X122090100Y-38041270D01*
X122110102Y-37973149D01*
X122127005Y-37952175D01*
X126179975Y-33899205D01*
X126242287Y-33865179D01*
X126269070Y-33862300D01*
X129505068Y-33862300D01*
X129573189Y-33882302D01*
X129619682Y-33935958D01*
X129626091Y-33956353D01*
X129626622Y-33956199D01*
X129669628Y-34104226D01*
X129748095Y-34236907D01*
X129857093Y-34345905D01*
X129863914Y-34349939D01*
X129963621Y-34408905D01*
X129989774Y-34424372D01*
X129997386Y-34426583D01*
X129997387Y-34426584D01*
X130131624Y-34465584D01*
X130131629Y-34465585D01*
X130137801Y-34467378D01*
X130144206Y-34467882D01*
X130144211Y-34467883D01*
X130169930Y-34469907D01*
X130169939Y-34469907D01*
X130172387Y-34470100D01*
X130181392Y-34470100D01*
X130986690Y-34470099D01*
X131054810Y-34490101D01*
X131101303Y-34543757D01*
X131111407Y-34614031D01*
X131081914Y-34678611D01*
X131075784Y-34685194D01*
X130273983Y-35486995D01*
X130211671Y-35521021D01*
X130184888Y-35523900D01*
X128128242Y-35523900D01*
X128060121Y-35503898D01*
X128049290Y-35496097D01*
X127946445Y-35413408D01*
X127946444Y-35413407D01*
X127941129Y-35409134D01*
X127773742Y-35326042D01*
X127592417Y-35280833D01*
X127570893Y-35279366D01*
X127551543Y-35278046D01*
X127551532Y-35278046D01*
X127549396Y-35277900D01*
X126450604Y-35277900D01*
X126448468Y-35278046D01*
X126448457Y-35278046D01*
X126429107Y-35279366D01*
X126407583Y-35280833D01*
X126226258Y-35326042D01*
X126058871Y-35409134D01*
X125913231Y-35526231D01*
X125796134Y-35671871D01*
X125793101Y-35677981D01*
X125721399Y-35822424D01*
X125713042Y-35839258D01*
X125667833Y-36020583D01*
X125664900Y-36063604D01*
X125664900Y-36712396D01*
X125667833Y-36755417D01*
X125713042Y-36936742D01*
X125716075Y-36942852D01*
X125721442Y-36953663D01*
X125796134Y-37104129D01*
X125800407Y-37109444D01*
X125800408Y-37109445D01*
X125871919Y-37198387D01*
X125913231Y-37249769D01*
X125914388Y-37250699D01*
X125947434Y-37311217D01*
X125942369Y-37382032D01*
X125914746Y-37425013D01*
X125913231Y-37426231D01*
X125796134Y-37571871D01*
X125713042Y-37739258D01*
X125667833Y-37920583D01*
X125667455Y-37926132D01*
X125665196Y-37959267D01*
X125664900Y-37963604D01*
X125664900Y-38612396D01*
X125665046Y-38614532D01*
X125665046Y-38614543D01*
X125665559Y-38622062D01*
X125667833Y-38655417D01*
X125713042Y-38836742D01*
X125796134Y-39004129D01*
X125800407Y-39009444D01*
X125800408Y-39009445D01*
X125902890Y-39136907D01*
X125913231Y-39149769D01*
X125918543Y-39154040D01*
X126032801Y-39245905D01*
X126058871Y-39266866D01*
X126226258Y-39349958D01*
X126407583Y-39395167D01*
X126429107Y-39396634D01*
X126448457Y-39397954D01*
X126448468Y-39397954D01*
X126450604Y-39398100D01*
X127549396Y-39398100D01*
X127551532Y-39397954D01*
X127551543Y-39397954D01*
X127570893Y-39396634D01*
X127592417Y-39395167D01*
X127773742Y-39349958D01*
X127941129Y-39266866D01*
X127967200Y-39245905D01*
X128049290Y-39179903D01*
X128114913Y-39152807D01*
X128128242Y-39152100D01*
X129711098Y-39152100D01*
X129779219Y-39172102D01*
X129800193Y-39189005D01*
X129857093Y-39245905D01*
X129863914Y-39249939D01*
X129963621Y-39308905D01*
X129989774Y-39324372D01*
X129997386Y-39326583D01*
X129997387Y-39326584D01*
X130131624Y-39365584D01*
X130131629Y-39365585D01*
X130137801Y-39367378D01*
X130144206Y-39367882D01*
X130144211Y-39367883D01*
X130169930Y-39369907D01*
X130169939Y-39369907D01*
X130172387Y-39370100D01*
X130431400Y-39370100D01*
X130499521Y-39390102D01*
X130546014Y-39443758D01*
X130557400Y-39496100D01*
X130557400Y-40283211D01*
X130537398Y-40351332D01*
X130529597Y-40362163D01*
X130434408Y-40480555D01*
X130430134Y-40485871D01*
X130347042Y-40653258D01*
X130301833Y-40834583D01*
X130298900Y-40877604D01*
X130298900Y-41926396D01*
X130301833Y-41969417D01*
X130347042Y-42150742D01*
X130350073Y-42156849D01*
X130350075Y-42156853D01*
X130363887Y-42184676D01*
X130376259Y-42254586D01*
X130348872Y-42320088D01*
X130290419Y-42360384D01*
X130251027Y-42366700D01*
X121462973Y-42366700D01*
X121394852Y-42346698D01*
X121348359Y-42293042D01*
X121338255Y-42222768D01*
X121350113Y-42184676D01*
X121363925Y-42156853D01*
X121363927Y-42156849D01*
X121366958Y-42150742D01*
X121412167Y-41969417D01*
X121415100Y-41926396D01*
X121415100Y-40877604D01*
X121412167Y-40834583D01*
X121366958Y-40653258D01*
X121283866Y-40485871D01*
X121273301Y-40472730D01*
X121171040Y-40345543D01*
X121166769Y-40340231D01*
X121139281Y-40318130D01*
X121026445Y-40227408D01*
X121026444Y-40227407D01*
X121021129Y-40223134D01*
X120853742Y-40140042D01*
X120672417Y-40094833D01*
X120650893Y-40093366D01*
X120631543Y-40092046D01*
X120631532Y-40092046D01*
X120629396Y-40091900D01*
X119955604Y-40091900D01*
X119953468Y-40092046D01*
X119953457Y-40092046D01*
X119934107Y-40093366D01*
X119912583Y-40094833D01*
X119731258Y-40140042D01*
X119563871Y-40223134D01*
X119558556Y-40227407D01*
X119558555Y-40227408D01*
X119536552Y-40245099D01*
X119470930Y-40272195D01*
X119401075Y-40259512D01*
X119349167Y-40211076D01*
X119331600Y-40146902D01*
X119331600Y-38678134D01*
X119332042Y-38667591D01*
X119335865Y-38622062D01*
X119336436Y-38615264D01*
X119333516Y-38593381D01*
X119325622Y-38534213D01*
X119325252Y-38531158D01*
X119317155Y-38456630D01*
X119316419Y-38449853D01*
X119314245Y-38443392D01*
X119313494Y-38439976D01*
X119313437Y-38439652D01*
X119313341Y-38439323D01*
X119312507Y-38435930D01*
X119311605Y-38429168D01*
X119309272Y-38422758D01*
X119309270Y-38422750D01*
X119283636Y-38352320D01*
X119282618Y-38349415D01*
X119256536Y-38271914D01*
X119253019Y-38266060D01*
X119251566Y-38262916D01*
X119251430Y-38262586D01*
X119251277Y-38262305D01*
X119249724Y-38259149D01*
X119247393Y-38252745D01*
X119203559Y-38183675D01*
X119201943Y-38181057D01*
X119169264Y-38126670D01*
X119159840Y-38110985D01*
X119155157Y-38106032D01*
X119153031Y-38103231D01*
X119152559Y-38102552D01*
X119149567Y-38098596D01*
X119146794Y-38094227D01*
X119142949Y-38089927D01*
X119088580Y-38035558D01*
X119086127Y-38033036D01*
X119030843Y-37974575D01*
X119025195Y-37970737D01*
X119020002Y-37966317D01*
X119020336Y-37965925D01*
X119012289Y-37959267D01*
X118927004Y-37873982D01*
X118892978Y-37811670D01*
X118890099Y-37784887D01*
X118890099Y-37137388D01*
X118887378Y-37102801D01*
X118867305Y-37033707D01*
X118846584Y-36962387D01*
X118846583Y-36962386D01*
X118844372Y-36954774D01*
X118815597Y-36906117D01*
X118769939Y-36828914D01*
X118765905Y-36822093D01*
X118686512Y-36742700D01*
X118652486Y-36680388D01*
X118657551Y-36609573D01*
X118686512Y-36564510D01*
X120805017Y-34446005D01*
X120867329Y-34411979D01*
X120894112Y-34409100D01*
X121509957Y-34409099D01*
X121541612Y-34409099D01*
X121562709Y-34407439D01*
X121569781Y-34406883D01*
X121569782Y-34406883D01*
X121576199Y-34406378D01*
X121582379Y-34404583D01*
X121582382Y-34404582D01*
X121716613Y-34365584D01*
X121716614Y-34365583D01*
X121724226Y-34363372D01*
X121732928Y-34358226D01*
X121850086Y-34288939D01*
X121856907Y-34284905D01*
X121965905Y-34175907D01*
X121976098Y-34158672D01*
X122040337Y-34050049D01*
X122040337Y-34050048D01*
X122044372Y-34043226D01*
X122046584Y-34035613D01*
X122085584Y-33901376D01*
X122085585Y-33901371D01*
X122087378Y-33895199D01*
X122087882Y-33888794D01*
X122087883Y-33888789D01*
X122089907Y-33863070D01*
X122089907Y-33863061D01*
X122090100Y-33860613D01*
X122090099Y-32237388D01*
X122087378Y-32202801D01*
X122061687Y-32114370D01*
X122046584Y-32062387D01*
X122046583Y-32062386D01*
X122044372Y-32054774D01*
X122026927Y-32025275D01*
X121969939Y-31928914D01*
X121965905Y-31922093D01*
X121856907Y-31813095D01*
X121850086Y-31809061D01*
X121843817Y-31804198D01*
X121845631Y-31801860D01*
X121806698Y-31760149D01*
X121793300Y-31703608D01*
X121793300Y-30819263D01*
X121793307Y-30817944D01*
X121793878Y-30763394D01*
X121794256Y-30727291D01*
X121792406Y-30718732D01*
X121785033Y-30684635D01*
X121782972Y-30672051D01*
X121778892Y-30635671D01*
X121778891Y-30635668D01*
X121778107Y-30628675D01*
X121766998Y-30596774D01*
X121762839Y-30581975D01*
X121760665Y-30571923D01*
X121765821Y-30501117D01*
X121808440Y-30444335D01*
X121874992Y-30419610D01*
X121883820Y-30419300D01*
X122636853Y-30419300D01*
X122704974Y-30439302D01*
X122720260Y-30450858D01*
X122763594Y-30489129D01*
X122779094Y-30502367D01*
X122909316Y-30584850D01*
X122912900Y-30586533D01*
X122912906Y-30586536D01*
X123021628Y-30637581D01*
X123038961Y-30645719D01*
X123057566Y-30654081D01*
X123084109Y-30661717D01*
X123201908Y-30695606D01*
X123201913Y-30695607D01*
X123205705Y-30696698D01*
X123347223Y-30718732D01*
X123347774Y-30718808D01*
X123347798Y-30718812D01*
X123358876Y-30720349D01*
X123367416Y-30721534D01*
X123501376Y-30720950D01*
X123501926Y-30720949D01*
X123859234Y-30720949D01*
X123864458Y-30721124D01*
X123867416Y-30721534D01*
X124021562Y-30720862D01*
X124025484Y-30720349D01*
X124025486Y-30720349D01*
X124162990Y-30702369D01*
X124163032Y-30702363D01*
X124163576Y-30702292D01*
X124183753Y-30699313D01*
X124331514Y-30655403D01*
X124462607Y-30597720D01*
X124481128Y-30589201D01*
X124485256Y-30586536D01*
X124607292Y-30507739D01*
X124607295Y-30507737D01*
X124610626Y-30505586D01*
X124720261Y-30413429D01*
X124735653Y-30400049D01*
X124836478Y-30283449D01*
X124844116Y-30271975D01*
X124915542Y-30164674D01*
X124915571Y-30164629D01*
X124915841Y-30164224D01*
X124926857Y-30147063D01*
X124990903Y-30006851D01*
X125033613Y-29870145D01*
X125033749Y-29869683D01*
X125033766Y-29869627D01*
X125038105Y-29854885D01*
X125038106Y-29854880D01*
X125039370Y-29850586D01*
X125061490Y-29698034D01*
X125064115Y-29554835D01*
X125064151Y-29534454D01*
X125063524Y-29530020D01*
X125063252Y-29526104D01*
X125062949Y-29517373D01*
X125062949Y-29106000D01*
X125061736Y-29067387D01*
X125032851Y-28915970D01*
X124967219Y-28776494D01*
X124868962Y-28657721D01*
X124744254Y-28567116D01*
X124636684Y-28524526D01*
X124608301Y-28513288D01*
X124608297Y-28513287D01*
X124600932Y-28510371D01*
X124593070Y-28509378D01*
X124593067Y-28509377D01*
X124521164Y-28500294D01*
X124448000Y-28491051D01*
X124028636Y-28491051D01*
X124017380Y-28490547D01*
X123970296Y-28486324D01*
X123970295Y-28486324D01*
X123967865Y-28486106D01*
X123965438Y-28486076D01*
X123965432Y-28486076D01*
X123962467Y-28486040D01*
X123955523Y-28485955D01*
X123884985Y-28490547D01*
X123881329Y-28490785D01*
X123873144Y-28491051D01*
X123528636Y-28491051D01*
X123517380Y-28490547D01*
X123470296Y-28486324D01*
X123470295Y-28486324D01*
X123467865Y-28486106D01*
X123465438Y-28486076D01*
X123465432Y-28486076D01*
X123462467Y-28486040D01*
X123455523Y-28485955D01*
X123384985Y-28490547D01*
X123381329Y-28490785D01*
X123373144Y-28491051D01*
X122948000Y-28491051D01*
X122909387Y-28492264D01*
X122757970Y-28521149D01*
X122750794Y-28524526D01*
X122750793Y-28524526D01*
X122625668Y-28583405D01*
X122618494Y-28586781D01*
X122499721Y-28685038D01*
X122495062Y-28691451D01*
X122495057Y-28691456D01*
X122459236Y-28740760D01*
X122403014Y-28784115D01*
X122357300Y-28792700D01*
X121362099Y-28792700D01*
X121293978Y-28772698D01*
X121247485Y-28719042D01*
X121236099Y-28666700D01*
X121236099Y-27394388D01*
X121233378Y-27359801D01*
X121227160Y-27338396D01*
X121192584Y-27219387D01*
X121192583Y-27219386D01*
X121190372Y-27211774D01*
X121111905Y-27079093D01*
X121002907Y-26970095D01*
X120981647Y-26957522D01*
X120877049Y-26895663D01*
X120877048Y-26895663D01*
X120870226Y-26891628D01*
X120862614Y-26889417D01*
X120862613Y-26889416D01*
X120728376Y-26850416D01*
X120728371Y-26850415D01*
X120722199Y-26848622D01*
X120715794Y-26848118D01*
X120715789Y-26848117D01*
X120690070Y-26846093D01*
X120690061Y-26846093D01*
X120687613Y-26845900D01*
X119127264Y-26845900D01*
X117564388Y-26845901D01*
X117543291Y-26847561D01*
X117536219Y-26848117D01*
X117536218Y-26848117D01*
X117529801Y-26848622D01*
X117523621Y-26850417D01*
X117523618Y-26850418D01*
X117389387Y-26889416D01*
X117389386Y-26889417D01*
X117381774Y-26891628D01*
X117374952Y-26895663D01*
X117374951Y-26895663D01*
X117270353Y-26957522D01*
X117249093Y-26970095D01*
X117140095Y-27079093D01*
X117061628Y-27211774D01*
X117059417Y-27219386D01*
X117059416Y-27219387D01*
X117020416Y-27353624D01*
X117020415Y-27353629D01*
X117018622Y-27359801D01*
X117018118Y-27366206D01*
X117018117Y-27366211D01*
X117016093Y-27391930D01*
X117015900Y-27394387D01*
X117015901Y-30517612D01*
X117018622Y-30552199D01*
X117020417Y-30558376D01*
X117020418Y-30558382D01*
X117057098Y-30684635D01*
X117061628Y-30700226D01*
X117065663Y-30707048D01*
X117065663Y-30707049D01*
X117132026Y-30819263D01*
X117140095Y-30832907D01*
X117249093Y-30941905D01*
X117255914Y-30945939D01*
X117283627Y-30962328D01*
X117381774Y-31020372D01*
X117389386Y-31022583D01*
X117389387Y-31022584D01*
X117523624Y-31061584D01*
X117523629Y-31061585D01*
X117529801Y-31063378D01*
X117536206Y-31063882D01*
X117536211Y-31063883D01*
X117561930Y-31065907D01*
X117561939Y-31065907D01*
X117564387Y-31066100D01*
X117678287Y-31066100D01*
X120033729Y-31066099D01*
X120101850Y-31086101D01*
X120122824Y-31103004D01*
X120129795Y-31109975D01*
X120163821Y-31172287D01*
X120166700Y-31199070D01*
X120166700Y-31703608D01*
X120146698Y-31771729D01*
X120114824Y-31802446D01*
X120116183Y-31804198D01*
X120109914Y-31809061D01*
X120103093Y-31813095D01*
X119994095Y-31922093D01*
X119990061Y-31928914D01*
X119933074Y-32025275D01*
X119915628Y-32054774D01*
X119913417Y-32062386D01*
X119913416Y-32062387D01*
X119874416Y-32196624D01*
X119874415Y-32196629D01*
X119872622Y-32202801D01*
X119872118Y-32209206D01*
X119872117Y-32209211D01*
X119870093Y-32234930D01*
X119869900Y-32237387D01*
X119869900Y-32884888D01*
X119849898Y-32953009D01*
X119832995Y-32973983D01*
X119105195Y-33701783D01*
X119042883Y-33735809D01*
X118972068Y-33730744D01*
X118915232Y-33688197D01*
X118890421Y-33621677D01*
X118890100Y-33612688D01*
X118890099Y-32239861D01*
X118890099Y-32237388D01*
X118887378Y-32202801D01*
X118861687Y-32114370D01*
X118846584Y-32062387D01*
X118846583Y-32062386D01*
X118844372Y-32054774D01*
X118826927Y-32025275D01*
X118769939Y-31928914D01*
X118765905Y-31922093D01*
X118656907Y-31813095D01*
X118641863Y-31804198D01*
X118531049Y-31738663D01*
X118531048Y-31738663D01*
X118524226Y-31734628D01*
X118516614Y-31732417D01*
X118516613Y-31732416D01*
X118382376Y-31693416D01*
X118382371Y-31693415D01*
X118376199Y-31691622D01*
X118369794Y-31691118D01*
X118369789Y-31691117D01*
X118344070Y-31689093D01*
X118344061Y-31689093D01*
X118341613Y-31688900D01*
X117780455Y-31688900D01*
X117218388Y-31688901D01*
X117197291Y-31690561D01*
X117190219Y-31691117D01*
X117190218Y-31691117D01*
X117183801Y-31691622D01*
X117177621Y-31693417D01*
X117177618Y-31693418D01*
X117043387Y-31732416D01*
X117043386Y-31732417D01*
X117035774Y-31734628D01*
X117028952Y-31738663D01*
X117028951Y-31738663D01*
X116918137Y-31804198D01*
X116903093Y-31813095D01*
X116794095Y-31922093D01*
X116790061Y-31928914D01*
X116733074Y-32025275D01*
X116715628Y-32054774D01*
X116713417Y-32062385D01*
X116713415Y-32062389D01*
X116699888Y-32108951D01*
X116692698Y-32133701D01*
X116689458Y-32144852D01*
X116651245Y-32204688D01*
X116586749Y-32234366D01*
X116568461Y-32235700D01*
X113504263Y-32235700D01*
X113502944Y-32235693D01*
X113412291Y-32234744D01*
X113405405Y-32236233D01*
X113405403Y-32236233D01*
X113388643Y-32239857D01*
X113369630Y-32243968D01*
X113357051Y-32246028D01*
X113320671Y-32250108D01*
X113320668Y-32250109D01*
X113313675Y-32250893D01*
X113294346Y-32257624D01*
X113281774Y-32262002D01*
X113266964Y-32266164D01*
X113240839Y-32271812D01*
X113240836Y-32271813D01*
X113233949Y-32273302D01*
X113227562Y-32276280D01*
X113227560Y-32276281D01*
X113194390Y-32291749D01*
X113182581Y-32296545D01*
X113141361Y-32310899D01*
X113135386Y-32314633D01*
X113135381Y-32314635D01*
X113112720Y-32328795D01*
X113099201Y-32336136D01*
X113074963Y-32347438D01*
X113074959Y-32347440D01*
X113068582Y-32350414D01*
X113063023Y-32354726D01*
X113063015Y-32354731D01*
X113034092Y-32377167D01*
X113023634Y-32384463D01*
X112986624Y-32407589D01*
X112981624Y-32412555D01*
X112981622Y-32412556D01*
X112957656Y-32436356D01*
X112957018Y-32436953D01*
X112956347Y-32437473D01*
X112930089Y-32463731D01*
X112869178Y-32524219D01*
X112857154Y-32536159D01*
X112856494Y-32537200D01*
X112855385Y-32538435D01*
X108526825Y-36866995D01*
X108464513Y-36901021D01*
X108437730Y-36903900D01*
X107753293Y-36903901D01*
X107718388Y-36903901D01*
X107697291Y-36905561D01*
X107690219Y-36906117D01*
X107690218Y-36906117D01*
X107683801Y-36906622D01*
X107677621Y-36908417D01*
X107677618Y-36908418D01*
X107543387Y-36947416D01*
X107543386Y-36947417D01*
X107535774Y-36949628D01*
X107528952Y-36953663D01*
X107528951Y-36953663D01*
X107435464Y-37008951D01*
X107403093Y-37028095D01*
X107294095Y-37137093D01*
X107290061Y-37143914D01*
X107268226Y-37180836D01*
X107215628Y-37269774D01*
X107213417Y-37277386D01*
X107213416Y-37277387D01*
X107174416Y-37411624D01*
X107174415Y-37411629D01*
X107172622Y-37417801D01*
X107172118Y-37424206D01*
X107172117Y-37424211D01*
X107170093Y-37449930D01*
X107169900Y-37452387D01*
X107169901Y-39075612D01*
X107172622Y-39110199D01*
X107174417Y-39116376D01*
X107174418Y-39116382D01*
X107211189Y-39242947D01*
X107215628Y-39258226D01*
X107219663Y-39265048D01*
X107219663Y-39265049D01*
X107281676Y-39369907D01*
X107294095Y-39390907D01*
X107403093Y-39499905D01*
X107535774Y-39578372D01*
X107543386Y-39580583D01*
X107543387Y-39580584D01*
X107677624Y-39619584D01*
X107677629Y-39619585D01*
X107683801Y-39621378D01*
X107690206Y-39621882D01*
X107690211Y-39621883D01*
X107715930Y-39623907D01*
X107715939Y-39623907D01*
X107718387Y-39624100D01*
X108279545Y-39624100D01*
X108841612Y-39624099D01*
X108862709Y-39622439D01*
X108869781Y-39621883D01*
X108869782Y-39621883D01*
X108876199Y-39621378D01*
X108882379Y-39619583D01*
X108882382Y-39619582D01*
X109016613Y-39580584D01*
X109016614Y-39580583D01*
X109024226Y-39578372D01*
X109156907Y-39499905D01*
X109265905Y-39390907D01*
X109278324Y-39369907D01*
X109340337Y-39265049D01*
X109340337Y-39265048D01*
X109344372Y-39258226D01*
X109348811Y-39242947D01*
X109385584Y-39116376D01*
X109385585Y-39116371D01*
X109387378Y-39110199D01*
X109387882Y-39103794D01*
X109387883Y-39103789D01*
X109389907Y-39078070D01*
X109389907Y-39078061D01*
X109390100Y-39075613D01*
X109390100Y-38356270D01*
X109410102Y-38288149D01*
X109427005Y-38267175D01*
X113794975Y-33899205D01*
X113857287Y-33865179D01*
X113884070Y-33862300D01*
X116568461Y-33862300D01*
X116636582Y-33882302D01*
X116683075Y-33935958D01*
X116689458Y-33953148D01*
X116713415Y-34035611D01*
X116713416Y-34035613D01*
X116715628Y-34043226D01*
X116719663Y-34050048D01*
X116719663Y-34050049D01*
X116783902Y-34158672D01*
X116794095Y-34175907D01*
X116903093Y-34284905D01*
X116909914Y-34288939D01*
X117027073Y-34358226D01*
X117035774Y-34363372D01*
X117043386Y-34365583D01*
X117043387Y-34365584D01*
X117177624Y-34404584D01*
X117177629Y-34404585D01*
X117183801Y-34406378D01*
X117190206Y-34406882D01*
X117190211Y-34406883D01*
X117215930Y-34408907D01*
X117215939Y-34408907D01*
X117218387Y-34409100D01*
X117229463Y-34409100D01*
X118093690Y-34409099D01*
X118161810Y-34429101D01*
X118208303Y-34482757D01*
X118218407Y-34553031D01*
X118188914Y-34617611D01*
X118182784Y-34624194D01*
X117319983Y-35486995D01*
X117257671Y-35521021D01*
X117230888Y-35523900D01*
X115174242Y-35523900D01*
X115106121Y-35503898D01*
X115095290Y-35496097D01*
X114992445Y-35413408D01*
X114992444Y-35413407D01*
X114987129Y-35409134D01*
X114819742Y-35326042D01*
X114638417Y-35280833D01*
X114616893Y-35279366D01*
X114597543Y-35278046D01*
X114597532Y-35278046D01*
X114595396Y-35277900D01*
X113496604Y-35277900D01*
X113494468Y-35278046D01*
X113494457Y-35278046D01*
X113475107Y-35279366D01*
X113453583Y-35280833D01*
X113272258Y-35326042D01*
X113104871Y-35409134D01*
X112959231Y-35526231D01*
X112842134Y-35671871D01*
X112839101Y-35677981D01*
X112767399Y-35822424D01*
X112759042Y-35839258D01*
X112713833Y-36020583D01*
X112710900Y-36063604D01*
X112710900Y-36712396D01*
X112713833Y-36755417D01*
X112759042Y-36936742D01*
X112762075Y-36942852D01*
X112767442Y-36953663D01*
X112842134Y-37104129D01*
X112846407Y-37109444D01*
X112846408Y-37109445D01*
X112917919Y-37198387D01*
X112959231Y-37249769D01*
X112960388Y-37250699D01*
X112993434Y-37311217D01*
X112988369Y-37382032D01*
X112960746Y-37425013D01*
X112959231Y-37426231D01*
X112842134Y-37571871D01*
X112759042Y-37739258D01*
X112713833Y-37920583D01*
X112713455Y-37926132D01*
X112711196Y-37959267D01*
X112710900Y-37963604D01*
X112710900Y-38612396D01*
X112711046Y-38614532D01*
X112711046Y-38614543D01*
X112711559Y-38622062D01*
X112713833Y-38655417D01*
X112759042Y-38836742D01*
X112842134Y-39004129D01*
X112846407Y-39009444D01*
X112846408Y-39009445D01*
X112948890Y-39136907D01*
X112959231Y-39149769D01*
X112964543Y-39154040D01*
X113078801Y-39245905D01*
X113104871Y-39266866D01*
X113272258Y-39349958D01*
X113453583Y-39395167D01*
X113475107Y-39396634D01*
X113494457Y-39397954D01*
X113494468Y-39397954D01*
X113496604Y-39398100D01*
X114595396Y-39398100D01*
X114597532Y-39397954D01*
X114597543Y-39397954D01*
X114616893Y-39396634D01*
X114638417Y-39395167D01*
X114819742Y-39349958D01*
X114987129Y-39266866D01*
X115013200Y-39245905D01*
X115095290Y-39179903D01*
X115160913Y-39152807D01*
X115174242Y-39152100D01*
X116819283Y-39152100D01*
X116887404Y-39172102D01*
X116896511Y-39178542D01*
X116897487Y-39179299D01*
X116903093Y-39184905D01*
X116909914Y-39188939D01*
X117027073Y-39258226D01*
X117035774Y-39263372D01*
X117043386Y-39265583D01*
X117043387Y-39265584D01*
X117177624Y-39304584D01*
X117177629Y-39304585D01*
X117183801Y-39306378D01*
X117190206Y-39306882D01*
X117190211Y-39306883D01*
X117215930Y-39308907D01*
X117215939Y-39308907D01*
X117218387Y-39309100D01*
X117477400Y-39309100D01*
X117545521Y-39329102D01*
X117592014Y-39382758D01*
X117603400Y-39435100D01*
X117603400Y-40283211D01*
X117583398Y-40351332D01*
X117575597Y-40362163D01*
X117480408Y-40480555D01*
X117476134Y-40485871D01*
X117393042Y-40653258D01*
X117347833Y-40834583D01*
X117344900Y-40877604D01*
X117344900Y-41926396D01*
X117347833Y-41969417D01*
X117393042Y-42150742D01*
X117396073Y-42156849D01*
X117396075Y-42156853D01*
X117409887Y-42184676D01*
X117422259Y-42254586D01*
X117394872Y-42320088D01*
X117336419Y-42360384D01*
X117297027Y-42366700D01*
X108762973Y-42366700D01*
X108694852Y-42346698D01*
X108648359Y-42293042D01*
X108638255Y-42222768D01*
X108650113Y-42184676D01*
X108663925Y-42156853D01*
X108663927Y-42156849D01*
X108666958Y-42150742D01*
X108712167Y-41969417D01*
X108715100Y-41926396D01*
X108715100Y-40877604D01*
X108712167Y-40834583D01*
X108666958Y-40653258D01*
X108583866Y-40485871D01*
X108573301Y-40472730D01*
X108471040Y-40345543D01*
X108466769Y-40340231D01*
X108439281Y-40318130D01*
X108326445Y-40227408D01*
X108326444Y-40227407D01*
X108321129Y-40223134D01*
X108153742Y-40140042D01*
X107972417Y-40094833D01*
X107950893Y-40093366D01*
X107931543Y-40092046D01*
X107931532Y-40092046D01*
X107929396Y-40091900D01*
X107255604Y-40091900D01*
X107253468Y-40092046D01*
X107253457Y-40092046D01*
X107234107Y-40093366D01*
X107212583Y-40094833D01*
X107031258Y-40140042D01*
X106863871Y-40223134D01*
X106858556Y-40227407D01*
X106858555Y-40227408D01*
X106836552Y-40245099D01*
X106770930Y-40272195D01*
X106701075Y-40259512D01*
X106649167Y-40211076D01*
X106631600Y-40146902D01*
X106631600Y-38993134D01*
X106632042Y-38982591D01*
X106634775Y-38950049D01*
X106636436Y-38930264D01*
X106635534Y-38923502D01*
X106625622Y-38849213D01*
X106625252Y-38846158D01*
X106617155Y-38771630D01*
X106616419Y-38764853D01*
X106614245Y-38758392D01*
X106613494Y-38754976D01*
X106613437Y-38754652D01*
X106613341Y-38754323D01*
X106612507Y-38750930D01*
X106611605Y-38744168D01*
X106609272Y-38737758D01*
X106609270Y-38737750D01*
X106583636Y-38667320D01*
X106582618Y-38664415D01*
X106579590Y-38655417D01*
X106556536Y-38586914D01*
X106553019Y-38581060D01*
X106551566Y-38577916D01*
X106551430Y-38577586D01*
X106551277Y-38577305D01*
X106549724Y-38574149D01*
X106547393Y-38567745D01*
X106503559Y-38498675D01*
X106501943Y-38496057D01*
X106474181Y-38449853D01*
X106459840Y-38425985D01*
X106455157Y-38421032D01*
X106453031Y-38418231D01*
X106452559Y-38417552D01*
X106449567Y-38413596D01*
X106446794Y-38409227D01*
X106442949Y-38404927D01*
X106388580Y-38350558D01*
X106386127Y-38348036D01*
X106330843Y-38289575D01*
X106325195Y-38285737D01*
X106320002Y-38281317D01*
X106320336Y-38280925D01*
X106312289Y-38274267D01*
X106227004Y-38188982D01*
X106192978Y-38126670D01*
X106190099Y-38099887D01*
X106190099Y-37452388D01*
X106187378Y-37417801D01*
X106182178Y-37399900D01*
X106146584Y-37277387D01*
X106146583Y-37277386D01*
X106144372Y-37269774D01*
X106091775Y-37180836D01*
X106069939Y-37143914D01*
X106065905Y-37137093D01*
X105956907Y-37028095D01*
X105957594Y-37027408D01*
X105920096Y-36975487D01*
X105916244Y-36904595D01*
X105949793Y-36844387D01*
X108033175Y-34761005D01*
X108095487Y-34726979D01*
X108122270Y-34724100D01*
X108806707Y-34724099D01*
X108841612Y-34724099D01*
X108862709Y-34722439D01*
X108869781Y-34721883D01*
X108869782Y-34721883D01*
X108876199Y-34721378D01*
X108882379Y-34719583D01*
X108882382Y-34719582D01*
X109016613Y-34680584D01*
X109016614Y-34680583D01*
X109024226Y-34678372D01*
X109115837Y-34624194D01*
X109150086Y-34603939D01*
X109156907Y-34599905D01*
X109265905Y-34490907D01*
X109278324Y-34469907D01*
X109340337Y-34365049D01*
X109340337Y-34365048D01*
X109344372Y-34358226D01*
X109346584Y-34350613D01*
X109385584Y-34216376D01*
X109385585Y-34216371D01*
X109387378Y-34210199D01*
X109387882Y-34203794D01*
X109387883Y-34203789D01*
X109389907Y-34178070D01*
X109389907Y-34178061D01*
X109390100Y-34175613D01*
X109390099Y-32552388D01*
X109387378Y-32517801D01*
X109381160Y-32496396D01*
X109346584Y-32377387D01*
X109346583Y-32377386D01*
X109344372Y-32369774D01*
X109311763Y-32314634D01*
X109269939Y-32243914D01*
X109265905Y-32237093D01*
X109156907Y-32128095D01*
X109150086Y-32124061D01*
X109143817Y-32119198D01*
X109145631Y-32116860D01*
X109106698Y-32075149D01*
X109093300Y-32018608D01*
X109093300Y-30819263D01*
X109093307Y-30817944D01*
X109093878Y-30763394D01*
X109094256Y-30727291D01*
X109092406Y-30718732D01*
X109085033Y-30684635D01*
X109082972Y-30672051D01*
X109078892Y-30635671D01*
X109078891Y-30635668D01*
X109078107Y-30628675D01*
X109066998Y-30596774D01*
X109062839Y-30581975D01*
X109060665Y-30571923D01*
X109065821Y-30501117D01*
X109108440Y-30444335D01*
X109174992Y-30419610D01*
X109183820Y-30419300D01*
X109936853Y-30419300D01*
X110004974Y-30439302D01*
X110020260Y-30450858D01*
X110063594Y-30489129D01*
X110079094Y-30502367D01*
X110209316Y-30584850D01*
X110212900Y-30586533D01*
X110212906Y-30586536D01*
X110321628Y-30637581D01*
X110338961Y-30645719D01*
X110357566Y-30654081D01*
X110384109Y-30661717D01*
X110501908Y-30695606D01*
X110501913Y-30695607D01*
X110505705Y-30696698D01*
X110647223Y-30718732D01*
X110647774Y-30718808D01*
X110647798Y-30718812D01*
X110658876Y-30720349D01*
X110667416Y-30721534D01*
X110801376Y-30720950D01*
X110801926Y-30720949D01*
X111159234Y-30720949D01*
X111164458Y-30721124D01*
X111167416Y-30721534D01*
X111321562Y-30720862D01*
X111325484Y-30720349D01*
X111325486Y-30720349D01*
X111462990Y-30702369D01*
X111463032Y-30702363D01*
X111463576Y-30702292D01*
X111483753Y-30699313D01*
X111631514Y-30655403D01*
X111762607Y-30597720D01*
X111781128Y-30589201D01*
X111785256Y-30586536D01*
X111907292Y-30507739D01*
X111907295Y-30507737D01*
X111910626Y-30505586D01*
X112020261Y-30413429D01*
X112035653Y-30400049D01*
X112136478Y-30283449D01*
X112144116Y-30271975D01*
X112215542Y-30164674D01*
X112215571Y-30164629D01*
X112215841Y-30164224D01*
X112226857Y-30147063D01*
X112290903Y-30006851D01*
X112333613Y-29870145D01*
X112333749Y-29869683D01*
X112333766Y-29869627D01*
X112338105Y-29854885D01*
X112338106Y-29854880D01*
X112339370Y-29850586D01*
X112361490Y-29698034D01*
X112364115Y-29554835D01*
X112364151Y-29534454D01*
X112363524Y-29530020D01*
X112363252Y-29526104D01*
X112362949Y-29517373D01*
X112362949Y-29106000D01*
X112361736Y-29067387D01*
X112332851Y-28915970D01*
X112267219Y-28776494D01*
X112168962Y-28657721D01*
X112044254Y-28567116D01*
X111936684Y-28524526D01*
X111908301Y-28513288D01*
X111908297Y-28513287D01*
X111900932Y-28510371D01*
X111893070Y-28509378D01*
X111893067Y-28509377D01*
X111821164Y-28500294D01*
X111748000Y-28491051D01*
X111328636Y-28491051D01*
X111317380Y-28490547D01*
X111270296Y-28486324D01*
X111270295Y-28486324D01*
X111267865Y-28486106D01*
X111265438Y-28486076D01*
X111265432Y-28486076D01*
X111262467Y-28486040D01*
X111255523Y-28485955D01*
X111184985Y-28490547D01*
X111181329Y-28490785D01*
X111173144Y-28491051D01*
X110828636Y-28491051D01*
X110817380Y-28490547D01*
X110770296Y-28486324D01*
X110770295Y-28486324D01*
X110767865Y-28486106D01*
X110765438Y-28486076D01*
X110765432Y-28486076D01*
X110762467Y-28486040D01*
X110755523Y-28485955D01*
X110684985Y-28490547D01*
X110681329Y-28490785D01*
X110673144Y-28491051D01*
X110248000Y-28491051D01*
X110209387Y-28492264D01*
X110057970Y-28521149D01*
X110050794Y-28524526D01*
X110050793Y-28524526D01*
X109925668Y-28583405D01*
X109918494Y-28586781D01*
X109799721Y-28685038D01*
X109795062Y-28691451D01*
X109795057Y-28691456D01*
X109759236Y-28740760D01*
X109703014Y-28784115D01*
X109657300Y-28792700D01*
X108662099Y-28792700D01*
X108593978Y-28772698D01*
X108547485Y-28719042D01*
X108536099Y-28666700D01*
X108536099Y-27394388D01*
X108533378Y-27359801D01*
X108527160Y-27338396D01*
X108492584Y-27219387D01*
X108492583Y-27219386D01*
X108490372Y-27211774D01*
X108411905Y-27079093D01*
X108302907Y-26970095D01*
X108281647Y-26957522D01*
X108177049Y-26895663D01*
X108177048Y-26895663D01*
X108170226Y-26891628D01*
X108162614Y-26889417D01*
X108162613Y-26889416D01*
X108028376Y-26850416D01*
X108028371Y-26850415D01*
X108022199Y-26848622D01*
X108015794Y-26848118D01*
X108015789Y-26848117D01*
X107990070Y-26846093D01*
X107990061Y-26846093D01*
X107987613Y-26845900D01*
X106427264Y-26845900D01*
X104864388Y-26845901D01*
X104843291Y-26847561D01*
X104836219Y-26848117D01*
X104836218Y-26848117D01*
X104829801Y-26848622D01*
X104823621Y-26850417D01*
X104823618Y-26850418D01*
X104689387Y-26889416D01*
X104689386Y-26889417D01*
X104681774Y-26891628D01*
X104674952Y-26895663D01*
X104674951Y-26895663D01*
X104570353Y-26957522D01*
X104549093Y-26970095D01*
X104440095Y-27079093D01*
X104361628Y-27211774D01*
X104359417Y-27219386D01*
X104359416Y-27219387D01*
X104320416Y-27353624D01*
X104320415Y-27353629D01*
X104318622Y-27359801D01*
X104318118Y-27366206D01*
X104318117Y-27366211D01*
X104316093Y-27391930D01*
X104315900Y-27394387D01*
X104315901Y-30517612D01*
X104318622Y-30552199D01*
X104320417Y-30558376D01*
X104320418Y-30558382D01*
X104357098Y-30684635D01*
X104361628Y-30700226D01*
X104365663Y-30707048D01*
X104365663Y-30707049D01*
X104432026Y-30819263D01*
X104440095Y-30832907D01*
X104549093Y-30941905D01*
X104555914Y-30945939D01*
X104583627Y-30962328D01*
X104681774Y-31020372D01*
X104689386Y-31022583D01*
X104689387Y-31022584D01*
X104823624Y-31061584D01*
X104823629Y-31061585D01*
X104829801Y-31063378D01*
X104836206Y-31063882D01*
X104836211Y-31063883D01*
X104861930Y-31065907D01*
X104861939Y-31065907D01*
X104864387Y-31066100D01*
X104978287Y-31066100D01*
X107333729Y-31066099D01*
X107401850Y-31086101D01*
X107422824Y-31103004D01*
X107429795Y-31109975D01*
X107463821Y-31172287D01*
X107466700Y-31199070D01*
X107466700Y-32018608D01*
X107446698Y-32086729D01*
X107414824Y-32117446D01*
X107416183Y-32119198D01*
X107409914Y-32124061D01*
X107403093Y-32128095D01*
X107294095Y-32237093D01*
X107290061Y-32243914D01*
X107248238Y-32314634D01*
X107215628Y-32369774D01*
X107213417Y-32377386D01*
X107213416Y-32377387D01*
X107174416Y-32511624D01*
X107174415Y-32511629D01*
X107172622Y-32517801D01*
X107172118Y-32524206D01*
X107172117Y-32524211D01*
X107170093Y-32549930D01*
X107169900Y-32552387D01*
X107169900Y-33271730D01*
X107149898Y-33339851D01*
X107132995Y-33360825D01*
X106405195Y-34088625D01*
X106342883Y-34122651D01*
X106272068Y-34117586D01*
X106215232Y-34075039D01*
X106190421Y-34008519D01*
X106190100Y-33999530D01*
X106190099Y-32554861D01*
X106190099Y-32552388D01*
X106187378Y-32517801D01*
X106181160Y-32496396D01*
X106146584Y-32377387D01*
X106146583Y-32377386D01*
X106144372Y-32369774D01*
X106111763Y-32314634D01*
X106069939Y-32243914D01*
X106065905Y-32237093D01*
X105956907Y-32128095D01*
X105941863Y-32119198D01*
X105831049Y-32053663D01*
X105831048Y-32053663D01*
X105824226Y-32049628D01*
X105816614Y-32047417D01*
X105816613Y-32047416D01*
X105682376Y-32008416D01*
X105682371Y-32008415D01*
X105676199Y-32006622D01*
X105669794Y-32006118D01*
X105669789Y-32006117D01*
X105644070Y-32004093D01*
X105644061Y-32004093D01*
X105641613Y-32003900D01*
X105080455Y-32003900D01*
X104518388Y-32003901D01*
X104497291Y-32005561D01*
X104490219Y-32006117D01*
X104490218Y-32006117D01*
X104483801Y-32006622D01*
X104477621Y-32008417D01*
X104477618Y-32008418D01*
X104343387Y-32047416D01*
X104343386Y-32047417D01*
X104335774Y-32049628D01*
X104328952Y-32053663D01*
X104328951Y-32053663D01*
X104218137Y-32119198D01*
X104203093Y-32128095D01*
X104094095Y-32237093D01*
X104090061Y-32243914D01*
X104048238Y-32314634D01*
X104015628Y-32369774D01*
X104013417Y-32377385D01*
X104013415Y-32377389D01*
X103989458Y-32459852D01*
X103951245Y-32519688D01*
X103886749Y-32549366D01*
X103868461Y-32550700D01*
X100489217Y-32550700D01*
X100487897Y-32550693D01*
X100486789Y-32550681D01*
X100397291Y-32549744D01*
X100390409Y-32551232D01*
X100390408Y-32551232D01*
X100354628Y-32558967D01*
X100342050Y-32561026D01*
X100305682Y-32565106D01*
X100305673Y-32565108D01*
X100298675Y-32565893D01*
X100285770Y-32570387D01*
X100266769Y-32577003D01*
X100251962Y-32581165D01*
X100232671Y-32585336D01*
X100218949Y-32588303D01*
X100212564Y-32591280D01*
X100212562Y-32591281D01*
X100200881Y-32596728D01*
X100179386Y-32606751D01*
X100167593Y-32611540D01*
X100126361Y-32625899D01*
X100120386Y-32629633D01*
X100120383Y-32629634D01*
X100097710Y-32643801D01*
X100084193Y-32651140D01*
X100053581Y-32665415D01*
X100028595Y-32684796D01*
X100019090Y-32692169D01*
X100008636Y-32699462D01*
X99971624Y-32722589D01*
X99966625Y-32727554D01*
X99966623Y-32727555D01*
X99942656Y-32751356D01*
X99942018Y-32751953D01*
X99941347Y-32752473D01*
X99915089Y-32778731D01*
X99842154Y-32851159D01*
X99841494Y-32852200D01*
X99840385Y-32853435D01*
X95826825Y-36866995D01*
X95764513Y-36901021D01*
X95737730Y-36903900D01*
X95053293Y-36903901D01*
X95018388Y-36903901D01*
X94997291Y-36905561D01*
X94990219Y-36906117D01*
X94990218Y-36906117D01*
X94983801Y-36906622D01*
X94977621Y-36908417D01*
X94977618Y-36908418D01*
X94843387Y-36947416D01*
X94843386Y-36947417D01*
X94835774Y-36949628D01*
X94828952Y-36953663D01*
X94828951Y-36953663D01*
X94735464Y-37008951D01*
X94703093Y-37028095D01*
X94594095Y-37137093D01*
X94590061Y-37143914D01*
X94568226Y-37180836D01*
X94515628Y-37269774D01*
X94513417Y-37277386D01*
X94513416Y-37277387D01*
X94474416Y-37411624D01*
X94474415Y-37411629D01*
X94472622Y-37417801D01*
X94472118Y-37424206D01*
X94472117Y-37424211D01*
X94470093Y-37449930D01*
X94469900Y-37452387D01*
X94469901Y-39075612D01*
X94472622Y-39110199D01*
X94474417Y-39116376D01*
X94474418Y-39116382D01*
X94511189Y-39242947D01*
X94515628Y-39258226D01*
X94519663Y-39265048D01*
X94519663Y-39265049D01*
X94581676Y-39369907D01*
X94594095Y-39390907D01*
X94703093Y-39499905D01*
X94835774Y-39578372D01*
X94843386Y-39580583D01*
X94843387Y-39580584D01*
X94977624Y-39619584D01*
X94977629Y-39619585D01*
X94983801Y-39621378D01*
X94990206Y-39621882D01*
X94990211Y-39621883D01*
X95015930Y-39623907D01*
X95015939Y-39623907D01*
X95018387Y-39624100D01*
X95579545Y-39624100D01*
X96141612Y-39624099D01*
X96162709Y-39622439D01*
X96169781Y-39621883D01*
X96169782Y-39621883D01*
X96176199Y-39621378D01*
X96182379Y-39619583D01*
X96182382Y-39619582D01*
X96316613Y-39580584D01*
X96316614Y-39580583D01*
X96324226Y-39578372D01*
X96456907Y-39499905D01*
X96565905Y-39390907D01*
X96578324Y-39369907D01*
X96640337Y-39265049D01*
X96640337Y-39265048D01*
X96644372Y-39258226D01*
X96648811Y-39242947D01*
X96685584Y-39116376D01*
X96685585Y-39116371D01*
X96687378Y-39110199D01*
X96687882Y-39103794D01*
X96687883Y-39103789D01*
X96689907Y-39078070D01*
X96689907Y-39078061D01*
X96690100Y-39075613D01*
X96690100Y-38356270D01*
X96710102Y-38288149D01*
X96727005Y-38267175D01*
X100779975Y-34214205D01*
X100842287Y-34180179D01*
X100869070Y-34177300D01*
X103868461Y-34177300D01*
X103936582Y-34197302D01*
X103983075Y-34250958D01*
X103989457Y-34268146D01*
X103994326Y-34284905D01*
X104013415Y-34350611D01*
X104013416Y-34350613D01*
X104015628Y-34358226D01*
X104019663Y-34365048D01*
X104019663Y-34365049D01*
X104081676Y-34469907D01*
X104094095Y-34490907D01*
X104203093Y-34599905D01*
X104209914Y-34603939D01*
X104244164Y-34624194D01*
X104335774Y-34678372D01*
X104343386Y-34680583D01*
X104343387Y-34680584D01*
X104477624Y-34719584D01*
X104477629Y-34719585D01*
X104483801Y-34721378D01*
X104490206Y-34721882D01*
X104490211Y-34721883D01*
X104515930Y-34723907D01*
X104515939Y-34723907D01*
X104518387Y-34724100D01*
X104533919Y-34724100D01*
X105465532Y-34724099D01*
X105533652Y-34744101D01*
X105580145Y-34797757D01*
X105590249Y-34868031D01*
X105560756Y-34932611D01*
X105554626Y-34939194D01*
X104956025Y-35537795D01*
X104893713Y-35571821D01*
X104866930Y-35574700D01*
X102532109Y-35574700D01*
X102463988Y-35554698D01*
X102442693Y-35535552D01*
X102441871Y-35536374D01*
X102437040Y-35531543D01*
X102432769Y-35526231D01*
X102287129Y-35409134D01*
X102119742Y-35326042D01*
X101938417Y-35280833D01*
X101916893Y-35279366D01*
X101897543Y-35278046D01*
X101897532Y-35278046D01*
X101895396Y-35277900D01*
X100796604Y-35277900D01*
X100794468Y-35278046D01*
X100794457Y-35278046D01*
X100775107Y-35279366D01*
X100753583Y-35280833D01*
X100572258Y-35326042D01*
X100404871Y-35409134D01*
X100259231Y-35526231D01*
X100142134Y-35671871D01*
X100139101Y-35677981D01*
X100067399Y-35822424D01*
X100059042Y-35839258D01*
X100013833Y-36020583D01*
X100010900Y-36063604D01*
X100010900Y-36712396D01*
X100013833Y-36755417D01*
X100059042Y-36936742D01*
X100062075Y-36942852D01*
X100067442Y-36953663D01*
X100142134Y-37104129D01*
X100146407Y-37109444D01*
X100146408Y-37109445D01*
X100217919Y-37198387D01*
X100259231Y-37249769D01*
X100260388Y-37250699D01*
X100293434Y-37311217D01*
X100288369Y-37382032D01*
X100260746Y-37425013D01*
X100259231Y-37426231D01*
X100142134Y-37571871D01*
X100059042Y-37739258D01*
X100013833Y-37920583D01*
X100013455Y-37926132D01*
X100011196Y-37959267D01*
X100010900Y-37963604D01*
X100010900Y-38612396D01*
X100011046Y-38614532D01*
X100011046Y-38614543D01*
X100011559Y-38622062D01*
X100013833Y-38655417D01*
X100059042Y-38836742D01*
X100142134Y-39004129D01*
X100146407Y-39009444D01*
X100146408Y-39009445D01*
X100248890Y-39136907D01*
X100259231Y-39149769D01*
X100264543Y-39154040D01*
X100378801Y-39245905D01*
X100404871Y-39266866D01*
X100572258Y-39349958D01*
X100753583Y-39395167D01*
X100775107Y-39396634D01*
X100794457Y-39397954D01*
X100794468Y-39397954D01*
X100796604Y-39398100D01*
X101895396Y-39398100D01*
X101897532Y-39397954D01*
X101897543Y-39397954D01*
X101916893Y-39396634D01*
X101938417Y-39395167D01*
X102119742Y-39349958D01*
X102287129Y-39266866D01*
X102308182Y-39249939D01*
X102425140Y-39155903D01*
X102490763Y-39128807D01*
X102504092Y-39128100D01*
X103883219Y-39128100D01*
X103951340Y-39148102D01*
X103997833Y-39201758D01*
X104004216Y-39218946D01*
X104015628Y-39258226D01*
X104019663Y-39265048D01*
X104019663Y-39265049D01*
X104081676Y-39369907D01*
X104094095Y-39390907D01*
X104203093Y-39499905D01*
X104335774Y-39578372D01*
X104343386Y-39580583D01*
X104343387Y-39580584D01*
X104477624Y-39619584D01*
X104477629Y-39619585D01*
X104483801Y-39621378D01*
X104490206Y-39621882D01*
X104490211Y-39621883D01*
X104515930Y-39623907D01*
X104515939Y-39623907D01*
X104518387Y-39624100D01*
X104777400Y-39624100D01*
X104845521Y-39644102D01*
X104892014Y-39697758D01*
X104903400Y-39750100D01*
X104903400Y-40283211D01*
X104883398Y-40351332D01*
X104875597Y-40362163D01*
X104780408Y-40480555D01*
X104776134Y-40485871D01*
X104693042Y-40653258D01*
X104647833Y-40834583D01*
X104644900Y-40877604D01*
X104644900Y-41926396D01*
X104647833Y-41969417D01*
X104693042Y-42150742D01*
X104696073Y-42156849D01*
X104696075Y-42156853D01*
X104709887Y-42184676D01*
X104722259Y-42254586D01*
X104694872Y-42320088D01*
X104636419Y-42360384D01*
X104597027Y-42366700D01*
X96062973Y-42366700D01*
X95994852Y-42346698D01*
X95948359Y-42293042D01*
X95938255Y-42222768D01*
X95950113Y-42184676D01*
X95963925Y-42156853D01*
X95963927Y-42156849D01*
X95966958Y-42150742D01*
X96012167Y-41969417D01*
X96015100Y-41926396D01*
X96015100Y-40877604D01*
X96012167Y-40834583D01*
X95966958Y-40653258D01*
X95883866Y-40485871D01*
X95873301Y-40472730D01*
X95771040Y-40345543D01*
X95766769Y-40340231D01*
X95739281Y-40318130D01*
X95626445Y-40227408D01*
X95626444Y-40227407D01*
X95621129Y-40223134D01*
X95453742Y-40140042D01*
X95272417Y-40094833D01*
X95250893Y-40093366D01*
X95231543Y-40092046D01*
X95231532Y-40092046D01*
X95229396Y-40091900D01*
X94555604Y-40091900D01*
X94553468Y-40092046D01*
X94553457Y-40092046D01*
X94534107Y-40093366D01*
X94512583Y-40094833D01*
X94331258Y-40140042D01*
X94163871Y-40223134D01*
X94158556Y-40227407D01*
X94158555Y-40227408D01*
X94136552Y-40245099D01*
X94070930Y-40272195D01*
X94001075Y-40259512D01*
X93949167Y-40211076D01*
X93931600Y-40146902D01*
X93931600Y-38993134D01*
X93932042Y-38982591D01*
X93934775Y-38950049D01*
X93936436Y-38930264D01*
X93935534Y-38923502D01*
X93925622Y-38849213D01*
X93925252Y-38846158D01*
X93917155Y-38771630D01*
X93916419Y-38764853D01*
X93914245Y-38758392D01*
X93913494Y-38754976D01*
X93913437Y-38754652D01*
X93913341Y-38754323D01*
X93912507Y-38750930D01*
X93911605Y-38744168D01*
X93909272Y-38737758D01*
X93909270Y-38737750D01*
X93883636Y-38667320D01*
X93882618Y-38664415D01*
X93879590Y-38655417D01*
X93856536Y-38586914D01*
X93853019Y-38581060D01*
X93851566Y-38577916D01*
X93851430Y-38577586D01*
X93851277Y-38577305D01*
X93849724Y-38574149D01*
X93847393Y-38567745D01*
X93803559Y-38498675D01*
X93801943Y-38496057D01*
X93774181Y-38449853D01*
X93759840Y-38425985D01*
X93755157Y-38421032D01*
X93753031Y-38418231D01*
X93752559Y-38417552D01*
X93749567Y-38413596D01*
X93746794Y-38409227D01*
X93742949Y-38404927D01*
X93688580Y-38350558D01*
X93686127Y-38348036D01*
X93630843Y-38289575D01*
X93625195Y-38285737D01*
X93620002Y-38281317D01*
X93620336Y-38280925D01*
X93612289Y-38274267D01*
X93527004Y-38188982D01*
X93492978Y-38126670D01*
X93490099Y-38099887D01*
X93490099Y-37452388D01*
X93487378Y-37417801D01*
X93482178Y-37399900D01*
X93446584Y-37277387D01*
X93446583Y-37277386D01*
X93444372Y-37269774D01*
X93391775Y-37180836D01*
X93369939Y-37143914D01*
X93365905Y-37137093D01*
X93256907Y-37028095D01*
X93224536Y-37008951D01*
X93131049Y-36953663D01*
X93131048Y-36953663D01*
X93124226Y-36949628D01*
X93116614Y-36947417D01*
X93116613Y-36947416D01*
X92982376Y-36908416D01*
X92982371Y-36908415D01*
X92976199Y-36906622D01*
X92969794Y-36906118D01*
X92969789Y-36906117D01*
X92944070Y-36904093D01*
X92944061Y-36904093D01*
X92941613Y-36903900D01*
X92380455Y-36903900D01*
X91818388Y-36903901D01*
X91797291Y-36905561D01*
X91790219Y-36906117D01*
X91790218Y-36906117D01*
X91783801Y-36906622D01*
X91777621Y-36908417D01*
X91777618Y-36908418D01*
X91643387Y-36947416D01*
X91643386Y-36947417D01*
X91635774Y-36949628D01*
X91628952Y-36953663D01*
X91628951Y-36953663D01*
X91535464Y-37008951D01*
X91503093Y-37028095D01*
X91394095Y-37137093D01*
X91390061Y-37143914D01*
X91368226Y-37180836D01*
X91315628Y-37269774D01*
X91313417Y-37277385D01*
X91313415Y-37277389D01*
X91297244Y-37333052D01*
X91259031Y-37392888D01*
X91194535Y-37422566D01*
X91176247Y-37423900D01*
X89774242Y-37423900D01*
X89706121Y-37403898D01*
X89695291Y-37396097D01*
X89660408Y-37368051D01*
X89619852Y-37309779D01*
X89617238Y-37238830D01*
X89650186Y-37180836D01*
X89714739Y-37116171D01*
X89723751Y-37104760D01*
X89808816Y-36966757D01*
X89814963Y-36953576D01*
X89866138Y-36799290D01*
X89869005Y-36785914D01*
X89878672Y-36691562D01*
X89879000Y-36685146D01*
X89879000Y-36660115D01*
X89874525Y-36644876D01*
X89873135Y-36643671D01*
X89865452Y-36642000D01*
X87431116Y-36642000D01*
X87415877Y-36646475D01*
X87414672Y-36647865D01*
X87413001Y-36655548D01*
X87413001Y-36685095D01*
X87413338Y-36691614D01*
X87423257Y-36787206D01*
X87426149Y-36800600D01*
X87477588Y-36954784D01*
X87483761Y-36967962D01*
X87569063Y-37105807D01*
X87578099Y-37117208D01*
X87641672Y-37180670D01*
X87675751Y-37242952D01*
X87670748Y-37313772D01*
X87631606Y-37368040D01*
X87569716Y-37417801D01*
X87559231Y-37426231D01*
X87442134Y-37571871D01*
X87359042Y-37739258D01*
X87313833Y-37920583D01*
X87313455Y-37926132D01*
X87311196Y-37959267D01*
X87310900Y-37963604D01*
X87310900Y-38612396D01*
X87311046Y-38614532D01*
X87311046Y-38614543D01*
X87311559Y-38622062D01*
X87313833Y-38655417D01*
X87359042Y-38836742D01*
X87442134Y-39004129D01*
X87446407Y-39009444D01*
X87446408Y-39009445D01*
X87548890Y-39136907D01*
X87559231Y-39149769D01*
X87564543Y-39154040D01*
X87678801Y-39245905D01*
X87704871Y-39266866D01*
X87872258Y-39349958D01*
X88053583Y-39395167D01*
X88075107Y-39396634D01*
X88094457Y-39397954D01*
X88094468Y-39397954D01*
X88096604Y-39398100D01*
X89195396Y-39398100D01*
X89197532Y-39397954D01*
X89197543Y-39397954D01*
X89216893Y-39396634D01*
X89238417Y-39395167D01*
X89419742Y-39349958D01*
X89587129Y-39266866D01*
X89613200Y-39245905D01*
X89695290Y-39179903D01*
X89760913Y-39152807D01*
X89774242Y-39152100D01*
X91190192Y-39152100D01*
X91258313Y-39172102D01*
X91304806Y-39225758D01*
X91311189Y-39242947D01*
X91315628Y-39258226D01*
X91319663Y-39265048D01*
X91319663Y-39265049D01*
X91381676Y-39369907D01*
X91394095Y-39390907D01*
X91503093Y-39499905D01*
X91635774Y-39578372D01*
X91643386Y-39580583D01*
X91643387Y-39580584D01*
X91777624Y-39619584D01*
X91777629Y-39619585D01*
X91783801Y-39621378D01*
X91790206Y-39621882D01*
X91790211Y-39621883D01*
X91815930Y-39623907D01*
X91815939Y-39623907D01*
X91818387Y-39624100D01*
X92077400Y-39624100D01*
X92145521Y-39644102D01*
X92192014Y-39697758D01*
X92203400Y-39750100D01*
X92203400Y-40283211D01*
X92183398Y-40351332D01*
X92175597Y-40362163D01*
X92080408Y-40480555D01*
X92076134Y-40485871D01*
X91993042Y-40653258D01*
X91947833Y-40834583D01*
X91944900Y-40877604D01*
X91944900Y-41926396D01*
X91947833Y-41969417D01*
X91993042Y-42150742D01*
X91996073Y-42156849D01*
X91996075Y-42156853D01*
X92009887Y-42184676D01*
X92022259Y-42254586D01*
X91994872Y-42320088D01*
X91936419Y-42360384D01*
X91897027Y-42366700D01*
X86156973Y-42366700D01*
X86088852Y-42346698D01*
X86042359Y-42293042D01*
X86032255Y-42222768D01*
X86044113Y-42184676D01*
X86057925Y-42156853D01*
X86057927Y-42156849D01*
X86060958Y-42150742D01*
X86106167Y-41969417D01*
X86109100Y-41926396D01*
X86109100Y-40877604D01*
X86106167Y-40834583D01*
X86060958Y-40653258D01*
X85977866Y-40485871D01*
X85967301Y-40472730D01*
X85865040Y-40345543D01*
X85860769Y-40340231D01*
X85833281Y-40318130D01*
X85720445Y-40227408D01*
X85720444Y-40227407D01*
X85715129Y-40223134D01*
X85547742Y-40140042D01*
X85366417Y-40094833D01*
X85344893Y-40093366D01*
X85325543Y-40092046D01*
X85325532Y-40092046D01*
X85323396Y-40091900D01*
X84649604Y-40091900D01*
X84647468Y-40092046D01*
X84647457Y-40092046D01*
X84628107Y-40093366D01*
X84606583Y-40094833D01*
X84425258Y-40140042D01*
X84257871Y-40223134D01*
X84252556Y-40227407D01*
X84252555Y-40227408D01*
X84152952Y-40307491D01*
X84087330Y-40334587D01*
X84017475Y-40321904D01*
X83995048Y-40307491D01*
X83895445Y-40227408D01*
X83895444Y-40227407D01*
X83890129Y-40223134D01*
X83722742Y-40140042D01*
X83541417Y-40094833D01*
X83519893Y-40093366D01*
X83500543Y-40092046D01*
X83500532Y-40092046D01*
X83498396Y-40091900D01*
X82824604Y-40091900D01*
X82822468Y-40092046D01*
X82822457Y-40092046D01*
X82803107Y-40093366D01*
X82781583Y-40094833D01*
X82600258Y-40140042D01*
X82432871Y-40223134D01*
X82427556Y-40227407D01*
X82427555Y-40227408D01*
X82314719Y-40318130D01*
X82287231Y-40340231D01*
X82170134Y-40485871D01*
X82168976Y-40484940D01*
X82121357Y-40526393D01*
X82068752Y-40537900D01*
X80785227Y-40537900D01*
X80717106Y-40517898D01*
X80676270Y-40472285D01*
X80675575Y-40472730D01*
X80672842Y-40468456D01*
X80672370Y-40467929D01*
X80671902Y-40466987D01*
X80668866Y-40460871D01*
X80611763Y-40389849D01*
X80581903Y-40352710D01*
X80554807Y-40287087D01*
X80554100Y-40273758D01*
X80554100Y-39554902D01*
X80574102Y-39486781D01*
X80591005Y-39465807D01*
X80665905Y-39390907D01*
X80678324Y-39369907D01*
X80740337Y-39265049D01*
X80740337Y-39265048D01*
X80744372Y-39258226D01*
X80748811Y-39242947D01*
X80785584Y-39116376D01*
X80785585Y-39116371D01*
X80787378Y-39110199D01*
X80787882Y-39103794D01*
X80787883Y-39103789D01*
X80789907Y-39078070D01*
X80789907Y-39078061D01*
X80790100Y-39075613D01*
X80790099Y-37452388D01*
X80790099Y-37452387D01*
X81769900Y-37452387D01*
X81769901Y-39075612D01*
X81772622Y-39110199D01*
X81774417Y-39116376D01*
X81774418Y-39116382D01*
X81811189Y-39242947D01*
X81815628Y-39258226D01*
X81819663Y-39265048D01*
X81819663Y-39265049D01*
X81881676Y-39369907D01*
X81894095Y-39390907D01*
X82003093Y-39499905D01*
X82135774Y-39578372D01*
X82143386Y-39580583D01*
X82143387Y-39580584D01*
X82277624Y-39619584D01*
X82277629Y-39619585D01*
X82283801Y-39621378D01*
X82290206Y-39621882D01*
X82290211Y-39621883D01*
X82315930Y-39623907D01*
X82315939Y-39623907D01*
X82318387Y-39624100D01*
X82879545Y-39624100D01*
X83441612Y-39624099D01*
X83462709Y-39622439D01*
X83469781Y-39621883D01*
X83469782Y-39621883D01*
X83476199Y-39621378D01*
X83482379Y-39619583D01*
X83482382Y-39619582D01*
X83616613Y-39580584D01*
X83616614Y-39580583D01*
X83624226Y-39578372D01*
X83756907Y-39499905D01*
X83865905Y-39390907D01*
X83878324Y-39369907D01*
X83940337Y-39265049D01*
X83940337Y-39265048D01*
X83944372Y-39258226D01*
X83948811Y-39242947D01*
X83985584Y-39116376D01*
X83985585Y-39116371D01*
X83987378Y-39110199D01*
X83987882Y-39103794D01*
X83987883Y-39103789D01*
X83989907Y-39078070D01*
X83989907Y-39078061D01*
X83990100Y-39075613D01*
X83990100Y-38356270D01*
X84010102Y-38288149D01*
X84027005Y-38267175D01*
X86178295Y-36115885D01*
X87413000Y-36115885D01*
X87417475Y-36131124D01*
X87418865Y-36132329D01*
X87426548Y-36134000D01*
X88373885Y-36134000D01*
X88389124Y-36129525D01*
X88390329Y-36128135D01*
X88392000Y-36120452D01*
X88392000Y-36115885D01*
X88900000Y-36115885D01*
X88904475Y-36131124D01*
X88905865Y-36132329D01*
X88913548Y-36134000D01*
X89860884Y-36134000D01*
X89876123Y-36129525D01*
X89877328Y-36128135D01*
X89878999Y-36120452D01*
X89878999Y-36090905D01*
X89878662Y-36084386D01*
X89868743Y-35988794D01*
X89865851Y-35975400D01*
X89814412Y-35821216D01*
X89808239Y-35808038D01*
X89722937Y-35670193D01*
X89713901Y-35658792D01*
X89599171Y-35544261D01*
X89587760Y-35535249D01*
X89449757Y-35450184D01*
X89436576Y-35444037D01*
X89282290Y-35392862D01*
X89268914Y-35389995D01*
X89174562Y-35380328D01*
X89168145Y-35380000D01*
X88918115Y-35380000D01*
X88902876Y-35384475D01*
X88901671Y-35385865D01*
X88900000Y-35393548D01*
X88900000Y-36115885D01*
X88392000Y-36115885D01*
X88392000Y-35398116D01*
X88387525Y-35382877D01*
X88386135Y-35381672D01*
X88378452Y-35380001D01*
X88123905Y-35380001D01*
X88117386Y-35380338D01*
X88021794Y-35390257D01*
X88008400Y-35393149D01*
X87854216Y-35444588D01*
X87841038Y-35450761D01*
X87703193Y-35536063D01*
X87691792Y-35545099D01*
X87577261Y-35659829D01*
X87568249Y-35671240D01*
X87483184Y-35809243D01*
X87477037Y-35822424D01*
X87425862Y-35976710D01*
X87422995Y-35990086D01*
X87413328Y-36084438D01*
X87413000Y-36090855D01*
X87413000Y-36115885D01*
X86178295Y-36115885D01*
X88079975Y-34214205D01*
X88142287Y-34180179D01*
X88169070Y-34177300D01*
X91168461Y-34177300D01*
X91236582Y-34197302D01*
X91283075Y-34250958D01*
X91289457Y-34268146D01*
X91294326Y-34284905D01*
X91313415Y-34350611D01*
X91313416Y-34350613D01*
X91315628Y-34358226D01*
X91319663Y-34365048D01*
X91319663Y-34365049D01*
X91381676Y-34469907D01*
X91394095Y-34490907D01*
X91503093Y-34599905D01*
X91509914Y-34603939D01*
X91544164Y-34624194D01*
X91635774Y-34678372D01*
X91643386Y-34680583D01*
X91643387Y-34680584D01*
X91777624Y-34719584D01*
X91777629Y-34719585D01*
X91783801Y-34721378D01*
X91790206Y-34721882D01*
X91790211Y-34721883D01*
X91815930Y-34723907D01*
X91815939Y-34723907D01*
X91818387Y-34724100D01*
X92379545Y-34724100D01*
X92941612Y-34724099D01*
X92962709Y-34722439D01*
X92969781Y-34721883D01*
X92969782Y-34721883D01*
X92976199Y-34721378D01*
X92982379Y-34719583D01*
X92982382Y-34719582D01*
X93116613Y-34680584D01*
X93116614Y-34680583D01*
X93124226Y-34678372D01*
X93215837Y-34624194D01*
X93250086Y-34603939D01*
X93256907Y-34599905D01*
X93365905Y-34490907D01*
X93378324Y-34469907D01*
X93440337Y-34365049D01*
X93440337Y-34365048D01*
X93444372Y-34358226D01*
X93446584Y-34350613D01*
X93485584Y-34216376D01*
X93485585Y-34216371D01*
X93487378Y-34210199D01*
X93487882Y-34203794D01*
X93487883Y-34203789D01*
X93489907Y-34178070D01*
X93489907Y-34178061D01*
X93490100Y-34175613D01*
X93490100Y-34158669D01*
X94572001Y-34158669D01*
X94572371Y-34165490D01*
X94577895Y-34216352D01*
X94581521Y-34231604D01*
X94626676Y-34352054D01*
X94635214Y-34367649D01*
X94711715Y-34469724D01*
X94724276Y-34482285D01*
X94826351Y-34558786D01*
X94841946Y-34567324D01*
X94962394Y-34612478D01*
X94977649Y-34616105D01*
X95028514Y-34621631D01*
X95035328Y-34622000D01*
X95307885Y-34622000D01*
X95323124Y-34617525D01*
X95324329Y-34616135D01*
X95326000Y-34608452D01*
X95326000Y-34603884D01*
X95834000Y-34603884D01*
X95838475Y-34619123D01*
X95839865Y-34620328D01*
X95847548Y-34621999D01*
X96124669Y-34621999D01*
X96131490Y-34621629D01*
X96182352Y-34616105D01*
X96197604Y-34612479D01*
X96318054Y-34567324D01*
X96333649Y-34558786D01*
X96435724Y-34482285D01*
X96448285Y-34469724D01*
X96524786Y-34367649D01*
X96533324Y-34352054D01*
X96578478Y-34231606D01*
X96582105Y-34216351D01*
X96587631Y-34165486D01*
X96588000Y-34158672D01*
X96588000Y-33636115D01*
X96583525Y-33620876D01*
X96582135Y-33619671D01*
X96574452Y-33618000D01*
X95852115Y-33618000D01*
X95836876Y-33622475D01*
X95835671Y-33623865D01*
X95834000Y-33631548D01*
X95834000Y-34603884D01*
X95326000Y-34603884D01*
X95326000Y-33636115D01*
X95321525Y-33620876D01*
X95320135Y-33619671D01*
X95312452Y-33618000D01*
X94590116Y-33618000D01*
X94574877Y-33622475D01*
X94573672Y-33623865D01*
X94572001Y-33631548D01*
X94572001Y-34158669D01*
X93490100Y-34158669D01*
X93490099Y-33091885D01*
X94572000Y-33091885D01*
X94576475Y-33107124D01*
X94577865Y-33108329D01*
X94585548Y-33110000D01*
X95307885Y-33110000D01*
X95323124Y-33105525D01*
X95324329Y-33104135D01*
X95326000Y-33096452D01*
X95326000Y-33091885D01*
X95834000Y-33091885D01*
X95838475Y-33107124D01*
X95839865Y-33108329D01*
X95847548Y-33110000D01*
X96569884Y-33110000D01*
X96585123Y-33105525D01*
X96586328Y-33104135D01*
X96587999Y-33096452D01*
X96587999Y-32569331D01*
X96587629Y-32562510D01*
X96582105Y-32511648D01*
X96578479Y-32496396D01*
X96533324Y-32375946D01*
X96524786Y-32360351D01*
X96448285Y-32258276D01*
X96435724Y-32245715D01*
X96333649Y-32169214D01*
X96318054Y-32160676D01*
X96197606Y-32115522D01*
X96182351Y-32111895D01*
X96131486Y-32106369D01*
X96124672Y-32106000D01*
X95852115Y-32106000D01*
X95836876Y-32110475D01*
X95835671Y-32111865D01*
X95834000Y-32119548D01*
X95834000Y-33091885D01*
X95326000Y-33091885D01*
X95326000Y-32124116D01*
X95321525Y-32108877D01*
X95320135Y-32107672D01*
X95312452Y-32106001D01*
X95035331Y-32106001D01*
X95028510Y-32106371D01*
X94977648Y-32111895D01*
X94962396Y-32115521D01*
X94841946Y-32160676D01*
X94826351Y-32169214D01*
X94724276Y-32245715D01*
X94711715Y-32258276D01*
X94635214Y-32360351D01*
X94626676Y-32375946D01*
X94581522Y-32496394D01*
X94577895Y-32511649D01*
X94572369Y-32562514D01*
X94572000Y-32569328D01*
X94572000Y-33091885D01*
X93490099Y-33091885D01*
X93490099Y-32552388D01*
X93487378Y-32517801D01*
X93481160Y-32496396D01*
X93446584Y-32377387D01*
X93446583Y-32377386D01*
X93444372Y-32369774D01*
X93411763Y-32314634D01*
X93369939Y-32243914D01*
X93365905Y-32237093D01*
X93256907Y-32128095D01*
X93241863Y-32119198D01*
X93131049Y-32053663D01*
X93131048Y-32053663D01*
X93124226Y-32049628D01*
X93116614Y-32047417D01*
X93116613Y-32047416D01*
X92982376Y-32008416D01*
X92982371Y-32008415D01*
X92976199Y-32006622D01*
X92969794Y-32006118D01*
X92969789Y-32006117D01*
X92944070Y-32004093D01*
X92944061Y-32004093D01*
X92941613Y-32003900D01*
X92380455Y-32003900D01*
X91818388Y-32003901D01*
X91797291Y-32005561D01*
X91790219Y-32006117D01*
X91790218Y-32006117D01*
X91783801Y-32006622D01*
X91777621Y-32008417D01*
X91777618Y-32008418D01*
X91643387Y-32047416D01*
X91643386Y-32047417D01*
X91635774Y-32049628D01*
X91628952Y-32053663D01*
X91628951Y-32053663D01*
X91518137Y-32119198D01*
X91503093Y-32128095D01*
X91394095Y-32237093D01*
X91390061Y-32243914D01*
X91348238Y-32314634D01*
X91315628Y-32369774D01*
X91313417Y-32377385D01*
X91313415Y-32377389D01*
X91289458Y-32459852D01*
X91251245Y-32519688D01*
X91186749Y-32549366D01*
X91168461Y-32550700D01*
X87789217Y-32550700D01*
X87787897Y-32550693D01*
X87786789Y-32550681D01*
X87697291Y-32549744D01*
X87690409Y-32551232D01*
X87690408Y-32551232D01*
X87654628Y-32558967D01*
X87642050Y-32561026D01*
X87605682Y-32565106D01*
X87605673Y-32565108D01*
X87598675Y-32565893D01*
X87585770Y-32570387D01*
X87566769Y-32577003D01*
X87551962Y-32581165D01*
X87532671Y-32585336D01*
X87518949Y-32588303D01*
X87512564Y-32591280D01*
X87512562Y-32591281D01*
X87500881Y-32596728D01*
X87479386Y-32606751D01*
X87467593Y-32611540D01*
X87426361Y-32625899D01*
X87420386Y-32629633D01*
X87420383Y-32629634D01*
X87397710Y-32643801D01*
X87384193Y-32651140D01*
X87353581Y-32665415D01*
X87328595Y-32684796D01*
X87319090Y-32692169D01*
X87308636Y-32699462D01*
X87271624Y-32722589D01*
X87266625Y-32727554D01*
X87266623Y-32727555D01*
X87242656Y-32751356D01*
X87242018Y-32751953D01*
X87241347Y-32752473D01*
X87215089Y-32778731D01*
X87142154Y-32851159D01*
X87141494Y-32852200D01*
X87140385Y-32853435D01*
X83126825Y-36866995D01*
X83064513Y-36901021D01*
X83037730Y-36903900D01*
X82353293Y-36903901D01*
X82318388Y-36903901D01*
X82297291Y-36905561D01*
X82290219Y-36906117D01*
X82290218Y-36906117D01*
X82283801Y-36906622D01*
X82277621Y-36908417D01*
X82277618Y-36908418D01*
X82143387Y-36947416D01*
X82143386Y-36947417D01*
X82135774Y-36949628D01*
X82128952Y-36953663D01*
X82128951Y-36953663D01*
X82035464Y-37008951D01*
X82003093Y-37028095D01*
X81894095Y-37137093D01*
X81890061Y-37143914D01*
X81868226Y-37180836D01*
X81815628Y-37269774D01*
X81813417Y-37277386D01*
X81813416Y-37277387D01*
X81774416Y-37411624D01*
X81774415Y-37411629D01*
X81772622Y-37417801D01*
X81772118Y-37424206D01*
X81772117Y-37424211D01*
X81770093Y-37449930D01*
X81769900Y-37452387D01*
X80790099Y-37452387D01*
X80787378Y-37417801D01*
X80782178Y-37399900D01*
X80746584Y-37277387D01*
X80746583Y-37277386D01*
X80744372Y-37269774D01*
X80691775Y-37180836D01*
X80669939Y-37143914D01*
X80665905Y-37137093D01*
X80556907Y-37028095D01*
X80524536Y-37008951D01*
X80431049Y-36953663D01*
X80431048Y-36953663D01*
X80424226Y-36949628D01*
X80416614Y-36947417D01*
X80416613Y-36947416D01*
X80282376Y-36908416D01*
X80282371Y-36908415D01*
X80276199Y-36906622D01*
X80269794Y-36906118D01*
X80269789Y-36906117D01*
X80244070Y-36904093D01*
X80244061Y-36904093D01*
X80241613Y-36903900D01*
X79680455Y-36903900D01*
X79118388Y-36903901D01*
X79097291Y-36905561D01*
X79090219Y-36906117D01*
X79090218Y-36906117D01*
X79083801Y-36906622D01*
X79077621Y-36908417D01*
X79077618Y-36908418D01*
X78943387Y-36947416D01*
X78943386Y-36947417D01*
X78935774Y-36949628D01*
X78928952Y-36953663D01*
X78928951Y-36953663D01*
X78835464Y-37008951D01*
X78803093Y-37028095D01*
X78694095Y-37137093D01*
X78690061Y-37143914D01*
X78668226Y-37180836D01*
X78615628Y-37269774D01*
X78613417Y-37277386D01*
X78613416Y-37277387D01*
X78574416Y-37411624D01*
X78574415Y-37411629D01*
X78572622Y-37417801D01*
X78572118Y-37424206D01*
X78572117Y-37424211D01*
X78570093Y-37449930D01*
X78569900Y-37452387D01*
X78569901Y-39075612D01*
X78572622Y-39110199D01*
X78574417Y-39116376D01*
X78574418Y-39116382D01*
X78611189Y-39242947D01*
X78615628Y-39258226D01*
X78619663Y-39265048D01*
X78619663Y-39265049D01*
X78681676Y-39369907D01*
X78694095Y-39390907D01*
X78788995Y-39485807D01*
X78823021Y-39548119D01*
X78825900Y-39574902D01*
X78825900Y-40273758D01*
X78805898Y-40341879D01*
X78798097Y-40352709D01*
X78770051Y-40387592D01*
X78711779Y-40428148D01*
X78640830Y-40430762D01*
X78582836Y-40397814D01*
X78518171Y-40333261D01*
X78506760Y-40324249D01*
X78368757Y-40239184D01*
X78355576Y-40233037D01*
X78201290Y-40181862D01*
X78187914Y-40178995D01*
X78093562Y-40169328D01*
X78087145Y-40169000D01*
X78062115Y-40169000D01*
X78046876Y-40173475D01*
X78045671Y-40174865D01*
X78044000Y-40182548D01*
X78044000Y-41530000D01*
X78023998Y-41598121D01*
X77970342Y-41644614D01*
X77918000Y-41656000D01*
X77662000Y-41656000D01*
X77593879Y-41635998D01*
X77547386Y-41582342D01*
X77536000Y-41530000D01*
X77536000Y-40187116D01*
X77531525Y-40171877D01*
X77530135Y-40170672D01*
X77522452Y-40169001D01*
X77492905Y-40169001D01*
X77486386Y-40169338D01*
X77390794Y-40179257D01*
X77370657Y-40183605D01*
X77370080Y-40180934D01*
X77311441Y-40183077D01*
X77250353Y-40146901D01*
X77218521Y-40083440D01*
X77216500Y-40060965D01*
X77216500Y-32697870D01*
X77236502Y-32629749D01*
X77253405Y-32608775D01*
X78759175Y-31103005D01*
X78821487Y-31068979D01*
X78848270Y-31066100D01*
X79169652Y-31066100D01*
X81017531Y-31066099D01*
X81085652Y-31086101D01*
X81132145Y-31139757D01*
X81142249Y-31210031D01*
X81112755Y-31274611D01*
X81106626Y-31281194D01*
X80410251Y-31977569D01*
X80347939Y-32011595D01*
X80288715Y-32009562D01*
X80288713Y-32009574D01*
X80288634Y-32009560D01*
X80285999Y-32009469D01*
X80276199Y-32006622D01*
X80269794Y-32006118D01*
X80269789Y-32006117D01*
X80244070Y-32004093D01*
X80244061Y-32004093D01*
X80241613Y-32003900D01*
X79680455Y-32003900D01*
X79118388Y-32003901D01*
X79097291Y-32005561D01*
X79090219Y-32006117D01*
X79090218Y-32006117D01*
X79083801Y-32006622D01*
X79077621Y-32008417D01*
X79077618Y-32008418D01*
X78943387Y-32047416D01*
X78943386Y-32047417D01*
X78935774Y-32049628D01*
X78928952Y-32053663D01*
X78928951Y-32053663D01*
X78818137Y-32119198D01*
X78803093Y-32128095D01*
X78694095Y-32237093D01*
X78690061Y-32243914D01*
X78648238Y-32314634D01*
X78615628Y-32369774D01*
X78613417Y-32377386D01*
X78613416Y-32377387D01*
X78574416Y-32511624D01*
X78574415Y-32511629D01*
X78572622Y-32517801D01*
X78572118Y-32524206D01*
X78572117Y-32524211D01*
X78570093Y-32549930D01*
X78569900Y-32552387D01*
X78569901Y-34175612D01*
X78572622Y-34210199D01*
X78574417Y-34216376D01*
X78574418Y-34216382D01*
X78613416Y-34350613D01*
X78615628Y-34358226D01*
X78619663Y-34365048D01*
X78619663Y-34365049D01*
X78681676Y-34469907D01*
X78694095Y-34490907D01*
X78803093Y-34599905D01*
X78809914Y-34603939D01*
X78844164Y-34624194D01*
X78935774Y-34678372D01*
X78943386Y-34680583D01*
X78943387Y-34680584D01*
X79077624Y-34719584D01*
X79077629Y-34719585D01*
X79083801Y-34721378D01*
X79090206Y-34721882D01*
X79090211Y-34721883D01*
X79115930Y-34723907D01*
X79115939Y-34723907D01*
X79118387Y-34724100D01*
X79679545Y-34724100D01*
X80241612Y-34724099D01*
X80262709Y-34722439D01*
X80269781Y-34721883D01*
X80269782Y-34721883D01*
X80276199Y-34721378D01*
X80282379Y-34719583D01*
X80282382Y-34719582D01*
X80416613Y-34680584D01*
X80416614Y-34680583D01*
X80424226Y-34678372D01*
X80515837Y-34624194D01*
X80550086Y-34603939D01*
X80556907Y-34599905D01*
X80665905Y-34490907D01*
X80678324Y-34469907D01*
X80740337Y-34365049D01*
X80740337Y-34365048D01*
X80744372Y-34358226D01*
X80746584Y-34350613D01*
X80785584Y-34216376D01*
X80785585Y-34216371D01*
X80787378Y-34210199D01*
X80787882Y-34203794D01*
X80787883Y-34203789D01*
X80789907Y-34178070D01*
X80789907Y-34178061D01*
X80790100Y-34175613D01*
X80790100Y-34158669D01*
X81872001Y-34158669D01*
X81872371Y-34165490D01*
X81877895Y-34216352D01*
X81881521Y-34231604D01*
X81926676Y-34352054D01*
X81935214Y-34367649D01*
X82011715Y-34469724D01*
X82024276Y-34482285D01*
X82126351Y-34558786D01*
X82141946Y-34567324D01*
X82262394Y-34612478D01*
X82277649Y-34616105D01*
X82328514Y-34621631D01*
X82335328Y-34622000D01*
X82607885Y-34622000D01*
X82623124Y-34617525D01*
X82624329Y-34616135D01*
X82626000Y-34608452D01*
X82626000Y-34603884D01*
X83134000Y-34603884D01*
X83138475Y-34619123D01*
X83139865Y-34620328D01*
X83147548Y-34621999D01*
X83424669Y-34621999D01*
X83431490Y-34621629D01*
X83482352Y-34616105D01*
X83497604Y-34612479D01*
X83618054Y-34567324D01*
X83633649Y-34558786D01*
X83735724Y-34482285D01*
X83748285Y-34469724D01*
X83824786Y-34367649D01*
X83833324Y-34352054D01*
X83878478Y-34231606D01*
X83882105Y-34216351D01*
X83887631Y-34165486D01*
X83888000Y-34158672D01*
X83888000Y-33636115D01*
X83883525Y-33620876D01*
X83882135Y-33619671D01*
X83874452Y-33618000D01*
X83152115Y-33618000D01*
X83136876Y-33622475D01*
X83135671Y-33623865D01*
X83134000Y-33631548D01*
X83134000Y-34603884D01*
X82626000Y-34603884D01*
X82626000Y-33636115D01*
X82621525Y-33620876D01*
X82620135Y-33619671D01*
X82612452Y-33618000D01*
X81890116Y-33618000D01*
X81874877Y-33622475D01*
X81873672Y-33623865D01*
X81872001Y-33631548D01*
X81872001Y-34158669D01*
X80790100Y-34158669D01*
X80790100Y-33950270D01*
X80810102Y-33882149D01*
X80827005Y-33861175D01*
X81659259Y-33028921D01*
X81721571Y-32994895D01*
X81792386Y-32999960D01*
X81849222Y-33042507D01*
X81869250Y-33082518D01*
X81876475Y-33107124D01*
X81877865Y-33108329D01*
X81885548Y-33110000D01*
X82607885Y-33110000D01*
X82623124Y-33105525D01*
X82624329Y-33104135D01*
X82626000Y-33096452D01*
X82626000Y-33091885D01*
X83134000Y-33091885D01*
X83138475Y-33107124D01*
X83139865Y-33108329D01*
X83147548Y-33110000D01*
X83869884Y-33110000D01*
X83885123Y-33105525D01*
X83886328Y-33104135D01*
X83887999Y-33096452D01*
X83887999Y-32569331D01*
X83887629Y-32562510D01*
X83882105Y-32511648D01*
X83878479Y-32496396D01*
X83833324Y-32375946D01*
X83824786Y-32360351D01*
X83748285Y-32258276D01*
X83735724Y-32245715D01*
X83633649Y-32169214D01*
X83618054Y-32160676D01*
X83497606Y-32115522D01*
X83482351Y-32111895D01*
X83431486Y-32106369D01*
X83424672Y-32106000D01*
X83152115Y-32106000D01*
X83136876Y-32110475D01*
X83135671Y-32111865D01*
X83134000Y-32119548D01*
X83134000Y-33091885D01*
X82626000Y-33091885D01*
X82626000Y-32114370D01*
X82646002Y-32046249D01*
X82662905Y-32025275D01*
X82864469Y-31823711D01*
X82865406Y-31822782D01*
X82925218Y-31764210D01*
X82925219Y-31764209D01*
X82930250Y-31759282D01*
X82934064Y-31753364D01*
X82934068Y-31753359D01*
X82953895Y-31722593D01*
X82961334Y-31712240D01*
X82984170Y-31683634D01*
X82988563Y-31678131D01*
X82991628Y-31671791D01*
X82991631Y-31671786D01*
X83003265Y-31647721D01*
X83010792Y-31634308D01*
X83025274Y-31611836D01*
X83025277Y-31611829D01*
X83029092Y-31605910D01*
X83044023Y-31564889D01*
X83048982Y-31553149D01*
X83064911Y-31520199D01*
X83064912Y-31520197D01*
X83067977Y-31513856D01*
X83075577Y-31480936D01*
X83079943Y-31466201D01*
X83089089Y-31441072D01*
X83089091Y-31441066D01*
X83091498Y-31434451D01*
X83096969Y-31391141D01*
X83099203Y-31378600D01*
X83109022Y-31336070D01*
X83109165Y-31295261D01*
X83109194Y-31294368D01*
X83109300Y-31293530D01*
X83109300Y-31256315D01*
X83109658Y-31153608D01*
X83109389Y-31152405D01*
X83109300Y-31150760D01*
X83109300Y-30361070D01*
X83129302Y-30292949D01*
X83146205Y-30271975D01*
X83611975Y-29806205D01*
X83674287Y-29772179D01*
X83701070Y-29769300D01*
X85774901Y-29769300D01*
X85843022Y-29789302D01*
X85889515Y-29842958D01*
X85900901Y-29895300D01*
X85900901Y-30517612D01*
X85903622Y-30552199D01*
X85905417Y-30558376D01*
X85905418Y-30558382D01*
X85942098Y-30684635D01*
X85946628Y-30700226D01*
X85950663Y-30707048D01*
X85950663Y-30707049D01*
X86017026Y-30819263D01*
X86025095Y-30832907D01*
X86134093Y-30941905D01*
X86140914Y-30945939D01*
X86168627Y-30962328D01*
X86266774Y-31020372D01*
X86274386Y-31022583D01*
X86274387Y-31022584D01*
X86408624Y-31061584D01*
X86408629Y-31061585D01*
X86414801Y-31063378D01*
X86421206Y-31063882D01*
X86421211Y-31063883D01*
X86446930Y-31065907D01*
X86446939Y-31065907D01*
X86449387Y-31066100D01*
X88009736Y-31066100D01*
X89572612Y-31066099D01*
X89593709Y-31064439D01*
X89600781Y-31063883D01*
X89600782Y-31063883D01*
X89607199Y-31063378D01*
X89613379Y-31061583D01*
X89613382Y-31061582D01*
X89747613Y-31022584D01*
X89747614Y-31022583D01*
X89755226Y-31020372D01*
X89853374Y-30962328D01*
X89881086Y-30945939D01*
X89887907Y-30941905D01*
X89996905Y-30832907D01*
X90004974Y-30819263D01*
X90071337Y-30707049D01*
X90071337Y-30707048D01*
X90075372Y-30700226D01*
X90079902Y-30684635D01*
X90116584Y-30558376D01*
X90116585Y-30558371D01*
X90118378Y-30552199D01*
X90118882Y-30545794D01*
X90118883Y-30545789D01*
X90120907Y-30520070D01*
X90120907Y-30520061D01*
X90121100Y-30517613D01*
X90121100Y-30500669D01*
X92988001Y-30500669D01*
X92988371Y-30507490D01*
X92993895Y-30558352D01*
X92997521Y-30573604D01*
X93042676Y-30694054D01*
X93051214Y-30709649D01*
X93127715Y-30811724D01*
X93140276Y-30824285D01*
X93242351Y-30900786D01*
X93257946Y-30909324D01*
X93378394Y-30954478D01*
X93393649Y-30958105D01*
X93444514Y-30963631D01*
X93451328Y-30964000D01*
X94723885Y-30964000D01*
X94739124Y-30959525D01*
X94740329Y-30958135D01*
X94742000Y-30950452D01*
X94742000Y-30945884D01*
X95250000Y-30945884D01*
X95254475Y-30961123D01*
X95255865Y-30962328D01*
X95263548Y-30963999D01*
X96540669Y-30963999D01*
X96547490Y-30963629D01*
X96598352Y-30958105D01*
X96613604Y-30954479D01*
X96734054Y-30909324D01*
X96749649Y-30900786D01*
X96851724Y-30824285D01*
X96864285Y-30811724D01*
X96940786Y-30709649D01*
X96949324Y-30694054D01*
X96994478Y-30573606D01*
X96998105Y-30558351D01*
X97003631Y-30507486D01*
X97004000Y-30500672D01*
X97004000Y-29228115D01*
X96999525Y-29212876D01*
X96998135Y-29211671D01*
X96990452Y-29210000D01*
X95268115Y-29210000D01*
X95252876Y-29214475D01*
X95251671Y-29215865D01*
X95250000Y-29223548D01*
X95250000Y-30945884D01*
X94742000Y-30945884D01*
X94742000Y-29228115D01*
X94737525Y-29212876D01*
X94736135Y-29211671D01*
X94728452Y-29210000D01*
X93006116Y-29210000D01*
X92990877Y-29214475D01*
X92989672Y-29215865D01*
X92988001Y-29223548D01*
X92988001Y-30500669D01*
X90121100Y-30500669D01*
X90121099Y-28683885D01*
X92988000Y-28683885D01*
X92992475Y-28699124D01*
X92993865Y-28700329D01*
X93001548Y-28702000D01*
X94723885Y-28702000D01*
X94739124Y-28697525D01*
X94740329Y-28696135D01*
X94742000Y-28688452D01*
X94742000Y-28683885D01*
X95250000Y-28683885D01*
X95254475Y-28699124D01*
X95255865Y-28700329D01*
X95263548Y-28702000D01*
X96985884Y-28702000D01*
X97001123Y-28697525D01*
X97002328Y-28696135D01*
X97003999Y-28688452D01*
X97003999Y-27411331D01*
X97003629Y-27404510D01*
X96998105Y-27353648D01*
X96994479Y-27338396D01*
X96949324Y-27217946D01*
X96940786Y-27202351D01*
X96864285Y-27100276D01*
X96851724Y-27087715D01*
X96749649Y-27011214D01*
X96734054Y-27002676D01*
X96613606Y-26957522D01*
X96598351Y-26953895D01*
X96547486Y-26948369D01*
X96540672Y-26948000D01*
X95268115Y-26948000D01*
X95252876Y-26952475D01*
X95251671Y-26953865D01*
X95250000Y-26961548D01*
X95250000Y-28683885D01*
X94742000Y-28683885D01*
X94742000Y-26966116D01*
X94737525Y-26950877D01*
X94736135Y-26949672D01*
X94728452Y-26948001D01*
X93451331Y-26948001D01*
X93444510Y-26948371D01*
X93393648Y-26953895D01*
X93378396Y-26957521D01*
X93257946Y-27002676D01*
X93242351Y-27011214D01*
X93140276Y-27087715D01*
X93127715Y-27100276D01*
X93051214Y-27202351D01*
X93042676Y-27217946D01*
X92997522Y-27338394D01*
X92993895Y-27353649D01*
X92988369Y-27404514D01*
X92988000Y-27411328D01*
X92988000Y-28683885D01*
X90121099Y-28683885D01*
X90121099Y-27394388D01*
X90118378Y-27359801D01*
X90112160Y-27338396D01*
X90077584Y-27219387D01*
X90077583Y-27219386D01*
X90075372Y-27211774D01*
X89996905Y-27079093D01*
X89887907Y-26970095D01*
X89866647Y-26957522D01*
X89762049Y-26895663D01*
X89762048Y-26895663D01*
X89755226Y-26891628D01*
X89747614Y-26889417D01*
X89747613Y-26889416D01*
X89613376Y-26850416D01*
X89613371Y-26850415D01*
X89607199Y-26848622D01*
X89600794Y-26848118D01*
X89600789Y-26848117D01*
X89575070Y-26846093D01*
X89575061Y-26846093D01*
X89572613Y-26845900D01*
X88012264Y-26845900D01*
X86449388Y-26845901D01*
X86428291Y-26847561D01*
X86421219Y-26848117D01*
X86421218Y-26848117D01*
X86414801Y-26848622D01*
X86408621Y-26850417D01*
X86408618Y-26850418D01*
X86274387Y-26889416D01*
X86274386Y-26889417D01*
X86266774Y-26891628D01*
X86259952Y-26895663D01*
X86259951Y-26895663D01*
X86155353Y-26957522D01*
X86134093Y-26970095D01*
X86025095Y-27079093D01*
X85946628Y-27211774D01*
X85944417Y-27219386D01*
X85944416Y-27219387D01*
X85905416Y-27353624D01*
X85905415Y-27353629D01*
X85903622Y-27359801D01*
X85903118Y-27366206D01*
X85903117Y-27366211D01*
X85901093Y-27391930D01*
X85900900Y-27394387D01*
X85900900Y-28016700D01*
X85880898Y-28084821D01*
X85827242Y-28131314D01*
X85774900Y-28142700D01*
X83321217Y-28142700D01*
X83319897Y-28142693D01*
X83318430Y-28142678D01*
X83229291Y-28141744D01*
X83186630Y-28150968D01*
X83174051Y-28153028D01*
X83137671Y-28157108D01*
X83137668Y-28157109D01*
X83130675Y-28157893D01*
X83098774Y-28169002D01*
X83083964Y-28173164D01*
X83050949Y-28180302D01*
X83044562Y-28183280D01*
X83044560Y-28183281D01*
X83011381Y-28198752D01*
X82999573Y-28203547D01*
X82958361Y-28217899D01*
X82952386Y-28221632D01*
X82952387Y-28221632D01*
X82929718Y-28235797D01*
X82916208Y-28243133D01*
X82885581Y-28257415D01*
X82860595Y-28276796D01*
X82851090Y-28284169D01*
X82840636Y-28291462D01*
X82803624Y-28314589D01*
X82798625Y-28319554D01*
X82798623Y-28319555D01*
X82774656Y-28343356D01*
X82774018Y-28343953D01*
X82773347Y-28344473D01*
X82747089Y-28370731D01*
X82674154Y-28443159D01*
X82673494Y-28444200D01*
X82672385Y-28445435D01*
X82081195Y-29036625D01*
X82018883Y-29070651D01*
X81948068Y-29065586D01*
X81891232Y-29023039D01*
X81866421Y-28956519D01*
X81866100Y-28947530D01*
X81866099Y-27396861D01*
X81866099Y-27394388D01*
X81863378Y-27359801D01*
X81857160Y-27338396D01*
X81822584Y-27219387D01*
X81822583Y-27219386D01*
X81820372Y-27211774D01*
X81741905Y-27079093D01*
X81632907Y-26970095D01*
X81611647Y-26957522D01*
X81507049Y-26895663D01*
X81507048Y-26895663D01*
X81500226Y-26891628D01*
X81492614Y-26889417D01*
X81492613Y-26889416D01*
X81358376Y-26850416D01*
X81358371Y-26850415D01*
X81352199Y-26848622D01*
X81345794Y-26848118D01*
X81345789Y-26848117D01*
X81320070Y-26846093D01*
X81320061Y-26846093D01*
X81317613Y-26845900D01*
X79757264Y-26845900D01*
X78194388Y-26845901D01*
X78173291Y-26847561D01*
X78166219Y-26848117D01*
X78166218Y-26848117D01*
X78159801Y-26848622D01*
X78153621Y-26850417D01*
X78153618Y-26850418D01*
X78019387Y-26889416D01*
X78019386Y-26889417D01*
X78011774Y-26891628D01*
X78004952Y-26895663D01*
X78004951Y-26895663D01*
X77900353Y-26957522D01*
X77879093Y-26970095D01*
X77770095Y-27079093D01*
X77691628Y-27211774D01*
X77689417Y-27219386D01*
X77689416Y-27219387D01*
X77650416Y-27353624D01*
X77650415Y-27353629D01*
X77648622Y-27359801D01*
X77648118Y-27366206D01*
X77648117Y-27366211D01*
X77646093Y-27391930D01*
X77645900Y-27394387D01*
X77645901Y-28653061D01*
X77645901Y-29863729D01*
X77625899Y-29931850D01*
X77608996Y-29952824D01*
X76517195Y-31044625D01*
X76454883Y-31078651D01*
X76384068Y-31073586D01*
X76327232Y-31031039D01*
X76302421Y-30964519D01*
X76302100Y-30955530D01*
X76302100Y-26136100D01*
X76322102Y-26067979D01*
X76375758Y-26021486D01*
X76428100Y-26010100D01*
X135153900Y-26010100D01*
X135222021Y-26030102D01*
G37*
%TD.AperFunction*%
%TD*%
M02*
